<?xml version="1.0" encoding="utf-8"?>
<!-- Generator: Adobe Illustrator 16.0.0, SVG Export Plug-In . SVG Version: 6.00 Build 0)  -->
<!DOCTYPE svg PUBLIC "-//W3C//DTD SVG 1.1//EN" "http://www.w3.org/Graphics/SVG/1.1/DTD/svg11.dtd">
<svg version="1.1"
	 id="svg2" xmlns:sodipodi="http://sodipodi.sourceforge.net/DTD/sodipodi-0.dtd" xmlns:cc="http://creativecommons.org/ns#" xmlns:dc="http://purl.org/dc/elements/1.1/" xmlns:inkscape="http://www.inkscape.org/namespaces/inkscape" xmlns:svg="http://www.w3.org/2000/svg" xmlns:rdf="http://www.w3.org/1999/02/22-rdf-syntax-ns#" inkscape:version="0.48.3.1 r9886" inkscape:export-ydpi="230.97745" inkscape:export-filename="R:\Media\Pictures\Logos\Facebook Home (Clear).png" inkscape:export-xdpi="230.97745" sodipodi:docname="Facebook Home (Clear).svg"
	 xmlns="http://www.w3.org/2000/svg" xmlns:xlink="http://www.w3.org/1999/xlink" x="0px" y="0px" width="512px" height="512px"
	 viewBox="0 0 512 512" style="enable-background:new 0 0 512 512;" xml:space="preserve">
<g>
	<path d="M328.6,422.8c-7.4,0-14.2-4.4-17.2-11.2l-86-196.2l-70.8,158.8c-2.8,6.3-8.8,10.5-15.7,11c-7.3,0.6-13.5-2.8-17.2-8.5
		l-49.9-77.5l-37.9,48.8c-6.3,8.2-18.1,9.7-26.3,3.3c-8.2-6.3-9.7-18.1-3.3-26.3l54.2-69.7c3.7-4.8,9.3-7.6,15.6-7.2
		c6.1,0.3,11.6,3.5,14.9,8.6l45.5,70.6l73.9-165.8c3-6.8,9.7-11.1,17.1-11.1c0,0,0.1,0,0.1,0c7.4,0,14.1,4.4,17.1,11.2l83.1,189.6
		l79.7-248.7c2.4-7.5,9.3-12.8,17.2-13c8.6-0.8,15.1,4.5,18.1,11.8l69.6,175.9c3.8,9.6-0.9,20.5-10.5,24.3
		c-9.7,3.9-20.6-0.9-24.4-10.5l-50.3-127.2l-78.8,246c-2.4,7.4-9.1,12.6-16.9,13C329.2,422.8,328.9,422.8,328.6,422.8z"/>
</g>
</svg>
