<?xml version="1.0" encoding="utf-8"?>
<!-- Generator: Adobe Illustrator 16.0.0, SVG Export Plug-In . SVG Version: 6.00 Build 0)  -->
<!DOCTYPE svg PUBLIC "-//W3C//DTD SVG 1.1//EN" "http://www.w3.org/Graphics/SVG/1.1/DTD/svg11.dtd">
<svg version="1.1"
	 id="svg2" xmlns:dc="http://purl.org/dc/elements/1.1/" xmlns:svg="http://www.w3.org/2000/svg" xmlns:cc="http://creativecommons.org/ns#" xmlns:inkscape="http://www.inkscape.org/namespaces/inkscape" xmlns:rdf="http://www.w3.org/1999/02/22-rdf-syntax-ns#" xmlns:sodipodi="http://sodipodi.sourceforge.net/DTD/sodipodi-0.dtd" inkscape:export-filename="R:\Media\Pictures\Logos\Facebook Home (Clear).png" inkscape:version="0.48.3.1 r9886" inkscape:export-ydpi="230.97745" inkscape:export-xdpi="230.97745" sodipodi:docname="Facebook Home (Clear).svg"
	 xmlns="http://www.w3.org/2000/svg" xmlns:xlink="http://www.w3.org/1999/xlink" x="0px" y="0px" width="512px" height="512px"
	 viewBox="0 0 512 512" style="enable-background:new 0 0 512 512;" xml:space="preserve">
<style type="text/css">
<![CDATA[
	.st0{fill:#9B9B9B;}
]]>
</style>
<g>
	<path class="st0" d="M485.3,276.6c0-3.3,0-6.6,0-9.9c0-4.8,0-9.6,0-14.5c0-75.5-0.2-150.5-0.2-150.9c-2-43.5-31.5-80.4-71.3-94.3
		c-3-1.2-6.1-2.1-9.3-2.9c-2.1-0.5-4.4-1.1-6.7-1.5c-5.8-1-11.5-1.8-17.6-1.8H131.8c-6,0-11.9,0.7-17.6,1.8
		c-2.3,0.4-4.4,0.9-6.7,1.5c-3.2,0.8-6.2,1.8-9.3,2.9c-39.7,13.8-69.2,50.6-71.3,94.3c0,0.5-0.1,75.5-0.2,150.9c0,4.8,0,9.6,0,14.5
		c0,3.3,0,6.6,0,9.9c-0.1,51.7-0.1,99.7-0.1,119.6c0,0.5,0,1.2,0,1.5c0,2.3,0,4.1,0,5.4c0,1.8,0,2.9,0,2.9
		c0,57.3,47.8,105.1,105.1,105.1h248.5c57.4,0,105.1-47.8,105.1-105.1c0,0,0-1.2,0-2.9c0-1.4,0-3.1,0-5.4c0-0.4,0-1,0-1.5
		C485.4,376.2,485.4,328.2,485.3,276.6z M466.3,246.9V406c0,47.8-38.2,86-86,86H131.8c-47.8,0-86-38.2-86-86V246.9V104
		c0-33.1,18.3-60.9,45.1-75.3c4.7-2.6,9.7-4.6,14.9-6.3c2-0.6,3.7-1.2,5.8-1.8c2-0.5,3.9-0.8,5.9-1.2c4.7-0.8,9.5-1.2,14.4-1.2
		h248.5c5,0,9.8,0.4,14.4,1.2c2,0.4,3.9,0.7,6,1.2c2,0.4,3.8,1.2,5.8,1.8c5.2,1.7,10.2,3.7,14.8,6.3c26.8,14.5,45,42.5,45,75.3
		L466.3,246.9z"/>
	<path class="st0" d="M386.2,138.9c-7.5-7.5-19.5-7.5-27,0l-150.9,151l-55.4-55.4c-7.5-7.5-19.5-7.5-27,0l-21.2,21.2
		c-7.5,7.5-7.5,19.6,0,27l68.2,68.2c0.2,0.2,0.3,0.4,0.4,0.4l21.2,21.2c3.7,3.7,8.7,5.6,13.6,5.6c4.9,0,9.9-1.8,13.6-5.6l21.2-21.2
		c0.3-0.2,0.3-0.4,0.4-0.4l163.8-163.9c7.6-7.6,7.6-19.6,0-27L386.2,138.9z"/>
</g>
</svg>
