<?xml version="1.0" encoding="utf-8"?>
<!-- Generator: Adobe Illustrator 16.0.0, SVG Export Plug-In . SVG Version: 6.00 Build 0)  -->
<!DOCTYPE svg PUBLIC "-//W3C//DTD SVG 1.1//EN" "http://www.w3.org/Graphics/SVG/1.1/DTD/svg11.dtd">
<svg version="1.1"
	 id="svg2" inkscape:export-xdpi="230.97745" sodipodi:docname="Facebook Home (Clear).svg" inkscape:version="0.48.3.1 r9886" inkscape:export-ydpi="230.97745" inkscape:export-filename="R:\Media\Pictures\Logos\Facebook Home (Clear).png" xmlns:sodipodi="http://sodipodi.sourceforge.net/DTD/sodipodi-0.dtd" xmlns:rdf="http://www.w3.org/1999/02/22-rdf-syntax-ns#" xmlns:dc="http://purl.org/dc/elements/1.1/" xmlns:svg="http://www.w3.org/2000/svg" xmlns:cc="http://creativecommons.org/ns#" xmlns:inkscape="http://www.inkscape.org/namespaces/inkscape"
	 xmlns="http://www.w3.org/2000/svg" xmlns:xlink="http://www.w3.org/1999/xlink" x="0px" y="0px" width="512px" height="512px"
	 viewBox="0 0 512 512" style="enable-background:new 0 0 512 512;" xml:space="preserve">
<path d="M505.3,240.8L294.8,30.3c-8.3-8.3-21.8-8.3-30.1,0c-8.3,8.3-8.3,21.8,0,30.1l174.4,174.4H21.7c-11.7,0-21.3,9.5-21.3,21.3
	c0,11.7,9.5,21.3,21.3,21.3h417.4L264.7,451.7c-8.3,8.3-8.3,21.8,0,30.1c8.3,8.3,21.8,8.3,30.1,0l210.5-210.5
	c4.2-4.2,6.2-9.6,6.2-15.1C511.6,250.6,509.6,245,505.3,240.8z"/>
</svg>
