<?xml version="1.0" encoding="utf-8"?>
<!-- Generator: Adobe Illustrator 16.0.0, SVG Export Plug-In . SVG Version: 6.00 Build 0)  -->
<!DOCTYPE svg PUBLIC "-//W3C//DTD SVG 1.1//EN" "http://www.w3.org/Graphics/SVG/1.1/DTD/svg11.dtd">
<svg version="1.1"
	 id="svg2" xmlns:svg="http://www.w3.org/2000/svg" xmlns:cc="http://creativecommons.org/ns#" xmlns:rdf="http://www.w3.org/1999/02/22-rdf-syntax-ns#" xmlns:inkscape="http://www.inkscape.org/namespaces/inkscape" xmlns:dc="http://purl.org/dc/elements/1.1/" xmlns:sodipodi="http://sodipodi.sourceforge.net/DTD/sodipodi-0.dtd" inkscape:version="0.48.3.1 r9886" inkscape:export-ydpi="230.97745" inkscape:export-xdpi="230.97745" sodipodi:docname="Facebook Home (Clear).svg" inkscape:export-filename="R:\Media\Pictures\Logos\Facebook Home (Clear).png"
	 xmlns="http://www.w3.org/2000/svg" xmlns:xlink="http://www.w3.org/1999/xlink" x="0px" y="0px" width="512px" height="512px"
	 viewBox="0 0 512 512" style="enable-background:new 0 0 512 512;" xml:space="preserve">
<path d="M496.8,293c0-3.1,0-6.2,0-9.3c0-4.5,0,8.9,0,4.4c0-70.5-0.1-158.4-0.1-158.8c-1.7-37.6-25.6-69.7-58.5-84.5
	C427.6,18.6,402,0,371.9,0H86.5c-39.4,0-71.4,32-71.4,71.4v315.7c0,29.8,18.2,55.2,44.1,65.9c15.3,34.5,50.1,59,89.8,59h249.8
	c53.5,0,98.1-44.6,98.1-98.1c0,0,0-1,0-2.7c0-1.3,0-2.9,0-5.1c0-0.4,0-1,0-1.4C496.9,386.1,496.8,341.3,496.8,293z M132.1,84.5
	h196.2c7.4,0,13.4,6,13.4,13.4c0,7.4-6,13.4-13.4,13.4H132.1c-7.4,0-13.4-6-13.4-13.4C118.7,90.5,124.7,84.5,132.1,84.5z
	 M132.1,173.7h196.2c7.4,0,13.4,6,13.4,13.4c0,7.4-6,13.4-13.4,13.4H132.1c-7.4,0-13.4-6-13.4-13.4
	C118.7,179.7,124.7,173.7,132.1,173.7z M132.1,262.9h196.2c7.4,0,13.4,6,13.4,13.4c0,7.4-6,13.4-13.4,13.4H132.1
	c-7.4,0-13.4-6-13.4-13.4C118.7,268.9,124.7,262.9,132.1,262.9z M479,283.2v130.7c0,44.6-35.7,80.3-80.3,80.3H149
	c-28.2,0-52.9-14.4-67.1-36.2c1.6,0.1,3.1,0.5,4.7,0.5h285.5c39.4,0,71.4-32,71.4-71.4V71.3c0-2.1-0.4-4-0.6-6.1
	c21.8,14.2,36.4,38.5,36.4,66.7L479,283.2z"/>
</svg>
