<?xml version="1.0" encoding="utf-8"?>
<!-- Generator: Adobe Illustrator 16.0.0, SVG Export Plug-In . SVG Version: 6.00 Build 0)  -->
<!DOCTYPE svg PUBLIC "-//W3C//DTD SVG 1.1//EN" "http://www.w3.org/Graphics/SVG/1.1/DTD/svg11.dtd">
<svg version="1.1"
	 id="svg2" xmlns:sodipodi="http://sodipodi.sourceforge.net/DTD/sodipodi-0.dtd" xmlns:rdf="http://www.w3.org/1999/02/22-rdf-syntax-ns#" xmlns:dc="http://purl.org/dc/elements/1.1/" xmlns:svg="http://www.w3.org/2000/svg" xmlns:cc="http://creativecommons.org/ns#" xmlns:inkscape="http://www.inkscape.org/namespaces/inkscape" inkscape:export-filename="R:\Media\Pictures\Logos\Facebook Home (Clear).png" sodipodi:docname="Facebook Home (Clear).svg" inkscape:version="0.48.3.1 r9886" inkscape:export-ydpi="230.97745" inkscape:export-xdpi="230.97745"
	 xmlns="http://www.w3.org/2000/svg" xmlns:xlink="http://www.w3.org/1999/xlink" x="0px" y="0px" width="512px" height="512px"
	 viewBox="0 0 512 512" style="enable-background:new 0 0 512 512;" xml:space="preserve">
<g>
	<path d="M508.9,364.6l-0.1-0.2l-0.1-0.2c-5.6-10.7-17.2-20.5-34.4-29.4c-3.6-1.9-7.1-3.6-10.5-5.3l-3-1.5l-1.6-0.8
		c-1.5-0.7-3-1.5-4.4-2.2c-1.1-0.5-2.1-1.1-3.1-1.6c-0.9-0.5-1.8-0.9-2.7-1.4c-11.4-6-19.5-11.5-24.4-20c2-3,3.8-7,4.8-11.9l0.1-0.7
		l0.1-0.7l0.5-5.5c7-4.8,15.3-15,16.6-36.6l0-0.5l0-0.5c0-1.7-0.4-9.9-6.3-16c0.7-6,1.4-14.5,1.4-24.9c0-19.2-9.7-35.9-25.3-43.7
		c-1.6-0.8-4.9-2.6-9.2-3c-0.1-0.1-0.2-0.1-0.3-0.2l-1.3-1l-1.2-0.5l-0.2-0.1c-0.7-0.4-1.4-0.8-2.2-1.1l-0.2-0.1l-0.2-0.1
		c-3.4-1.4-7.7-2.5-12.7-3l-0.2,0l-0.2,0c-5.2-0.5-9.1-0.5-10.9-0.5c-1.2,0-1.8,0-1.8,0c-21.5,0.1-63.2,11.3-65.1,52.6
		c-0.5,10.8,0.2,19.6,1,25.8c-3.8,4.2-5.9,10-6,15.6l0,0.5l0,0.5c1.2,19.9,8.8,31,16.6,36.5l0.5,5.6l0.1,0.7l0.1,0.7
		c1,4.9,2.8,8.9,4.9,12c-1.3,2.3-3,4.4-4.8,6.3c-1.8-0.9-3.5-1.7-5.2-2.6c-1.5-0.7-2.9-1.4-4.2-2.1c-1-0.5-2.1-1.1-3.1-1.6
		c-15.5-8.1-26.9-16-33.4-28.6c2.7-3.7,5.4-8.9,6.7-15.4l0.1-0.7l0.1-0.7l0.8-8.7c8.4-5.2,19.1-17.1,20.8-44.4l0-0.5l0-0.5
		c0-2-0.6-12.2-8.1-18.9c0.9-7.5,1.9-18.7,1.9-32.7c0-22.8-11.5-42.7-29.9-51.9l-0.2-0.1c-2-1-6-3.2-11.1-3.3
		c-0.4-0.3-0.8-0.6-1.2-0.9l-1.3-1l-1.5-0.7l-0.2-0.1c-0.8-0.4-1.6-0.9-2.4-1.3l-0.2-0.1l-0.2-0.1c-5-2.1-10.9-3.1-15-3.5
		c-6.7-0.6-11.5-0.7-13.8-0.7c-1.4,0-2.2,0-2.2,0c-26.1,0.1-76.4,13.5-78.6,63c-0.2,4.3-0.2,8.3-0.1,12.1c2.3,0.1,4.6,0.3,6.7,0.8
		c2.4,0.5,4.7,1.3,6.9,2.3c-0.2-4.4-0.2-9.2,0-14.6c2.2-49.8,65.4-50.1,65.4-50.1s0.7,0,1.9,0c2.4,0,6.8,0.1,12.3,0.6
		c2.4,0.3,7.5,1,11.3,2.6c1.1,0.5,2.1,1.1,2.8,1.5c3.4,2.6,4.9,6.2,4.9,6.2c1.1-1.9,2.6-2.5,4.1-2.5c2.2,0,4.5,1.4,5.7,2
		c13.9,6.9,22.4,22.4,22.4,39.8c0,25.4-3.3,40.8-3.3,40.8c0.2,0,0.3,0,0.5,0c2.1,0,3.8,0.7,5,1.6c3.9,3.1,4,9.4,4,9.4
		c-1.7,28.7-14.6,34.6-18.7,35.6c-0.8,0.2-1.3,0.3-1.3,0.3l-0.4,4.9l-1.1,11.8c-1.4,6.7-5,11.3-7.3,13.6c-1.2,1.2-2.1,2-2.1,2
		c0.3,0.7,0.6,1.2,0.8,1.9c7.6,20.3,22.8,31.2,42.3,41.4c2.3,1.2,4.5,2.4,6.8,3.5c0.2,0.1,0.4,0.2,0.6,0.3c2.5,1.2,5.1,2.5,7.6,3.8
		c1.9,0.9,3.8,1.9,5.8,2.8c3.6,1.8,7.2,3.6,11,5.5c23.3,12,32.5,23.2,36.1,29.9c2.5,5.1,2.3,9.9,2.2,12.7c0,0.1,0,0.2,0,0.4
		c0,1.9,0,3.9,0,6.2c0,3.8,0,8.1,0,11.8c0,0.8-0.2,1.5-0.2,2.5c-0.1,1.6-0.2,3.3-0.4,4.9c-0.5,3.3-1.1,6.1-2,7.5
		c-1.4,2.3-3.5,3.7-5,4.5c-0.9,0.5-3.8,0.8-4.2,0.8c0,0-284.4,0-284.4,0s-3.5-0.4-4.5-0.8c-1.4-0.8-3.5-2.2-4.9-4.5
		c-1.2-2.3-2.2-7.6-2.5-12.5c0-0.3,0-0.6-0.1-0.9H60h-6.8c0,0.5,0,1.1,0.1,1.6c0.2,3.6,1,12.5,4.1,18.2l0.2,0.3l0.2,0.3
		c3,4.9,7.1,7.8,10.1,9.4l0.2,0.1l0.2,0.1c1,0.5,3,1.5,8.8,2.1l0.7,0.1h0.8l413.8-0.3c2-0.3,4.2-0.8,6.1-1.8
		c2.7-1.3,6.6-3.9,9.4-8.6l0.1-0.2l0.1-0.2c1.5-2.7,2.5-6.1,3.2-10.8c0.3-1.8,0.4-3.6,0.4-5.2c0.1-0.8,0.2-1.6,0.2-2.5v-9.3V381
		l0-0.5C512.1,377.5,512.2,371.4,508.9,364.6z M498.5,380.6c0,0.1,0,0.2,0,0.3c0,1.5,0,3.1,0,4.9c0,3,0,6.4,0,9.3
		c0,0.6-0.1,1.2-0.2,2c-0.1,1.3-0.1,2.6-0.3,3.9c-0.4,2.6-0.9,4.8-1.6,6c-1.1,1.8-2.8,3-3.9,3.5c-0.7,0.4-3,0.6-3.3,0.6
		c0,0-0.1,0-0.1,0h-31.7h-47.7H402h-11h-6.4c1-2,2.1-5.3,2.9-11c0.3-2.2,0.4-4.4,0.5-6.2l0-0.1c0.1-1,0.2-1.9,0.2-2.9v-11.8v-6.2
		v-0.4l0-0.4c0-3.4,0.2-10.5-3.6-18.2l-0.1-0.2l-0.1-0.2c-4.6-8.8-15.7-22.1-41.8-35.6c-2.3-1.2-4.5-2.3-6.8-3.4
		c3.4-4.2,6.2-9,8.1-14.8c0,0-5.8-4.3-7.5-12.3l-1.2-13.2c0,0-14.2-1.5-15.8-28.5c0,0,0.1-8.7,7.1-8.7c0.1,0,0.3,0,0.4,0
		c0,0-3.5-12.4-2.6-32.4c1.7-39.5,51.9-39.7,51.9-39.7s0.5,0,1.5,0c1.9,0,5.3,0.1,9.8,0.5c1.9,0.2,6,0.8,9,2
		c0.9,0.4,1.7,0.9,2.3,1.2c2.7,2.1,3.9,4.9,3.9,4.9c0.9-1.5,2.1-2,3.3-2c1.8,0,3.6,1.1,4.5,1.6c11,5.5,17.8,17.8,17.8,31.6
		c0,20.2-2.6,32.4-2.6,32.4c0.1,0,0.3,0,0.4,0c1.7,0,3,0.5,4,1.3c3.1,2.4,3.2,7.4,3.2,7.4c-1.4,22.8-11.6,27.4-14.8,28.2
		c-0.6,0.2-1,0.3-1,0.3l-0.3,3.9l-0.8,9.4c-1.1,5.3-3.9,8.9-5.8,10.8c-0.9,0.9-1.7,1.6-1.7,1.6c0.2,0.5,0.5,1,0.7,1.5
		c6,16.1,18.1,24.7,33.5,32.8c2,1,3.8,2,5.9,3c2,1,4,2,6.1,3c4.3,2.1,8.7,4.3,13.3,6.6c18.5,9.5,25.8,18.4,28.6,23.7
		C498.7,374.7,498.5,378.4,498.5,380.6z"/>
	<path d="M87.8,379v-38.9V338c0-2.2,0.2-4.3,0.6-6.4c0.7-3.7,2.1-7.1,3.8-10.3c5.7-10.2,16.5-17,29.3-17h39.7V196.1
		c0-4.8-1.6-9.1-4.3-12.6c-2-2.6-4.6-4.6-7.6-6c-2.1-0.9-4.5-1.4-6.9-1.6c-0.5,0-0.9-0.1-1.4-0.1H20.2C8.7,175.8,0,184.6,0,196.1
		v162.7C0,370.2,8.7,379,20.2,379H87.8z"/>
	<path d="M121.6,317.7c-9.1,0-16.3,5.4-19,13.3c-0.7,2.2-1.2,4.5-1.2,7V379l60-61.3h-31.6H121.6z"/>
</g>
</svg>
