<?xml version="1.0" encoding="utf-8"?>
<!-- Generator: Adobe Illustrator 16.0.0, SVG Export Plug-In . SVG Version: 6.00 Build 0)  -->
<!DOCTYPE svg PUBLIC "-//W3C//DTD SVG 1.1//EN" "http://www.w3.org/Graphics/SVG/1.1/DTD/svg11.dtd">
<svg version="1.1"
	 id="svg2" xmlns:dc="http://purl.org/dc/elements/1.1/" xmlns:svg="http://www.w3.org/2000/svg" xmlns:cc="http://creativecommons.org/ns#" xmlns:inkscape="http://www.inkscape.org/namespaces/inkscape" xmlns:rdf="http://www.w3.org/1999/02/22-rdf-syntax-ns#" xmlns:sodipodi="http://sodipodi.sourceforge.net/DTD/sodipodi-0.dtd" inkscape:export-filename="R:\Media\Pictures\Logos\Facebook Home (Clear).png" inkscape:version="0.48.3.1 r9886" inkscape:export-ydpi="230.97745" inkscape:export-xdpi="230.97745" sodipodi:docname="Facebook Home (Clear).svg"
	 xmlns="http://www.w3.org/2000/svg" xmlns:xlink="http://www.w3.org/1999/xlink" x="0px" y="0px" width="512px" height="512px"
	 viewBox="0 0 512 512" style="enable-background:new 0 0 512 512;" xml:space="preserve">
<style type="text/css">
<![CDATA[
	.st0{fill:#9B9B9B;}
]]>
</style>
<g>
	<path class="st0" d="M511.7,273.2c0-2.7,0-5.5,0-8.2c0-4,0-8,0-12c0-62.5-0.1-124.7-0.1-125c-1.7-36.1-26.1-66.6-59.1-78.1
		c-2.5-1-5.1-1.7-7.7-2.4c-1.6-0.4-3.6-0.9-5.5-1.2c-4.8-0.9-9.6-1.5-14.7-1.5H242.1c3.7,4.3,6.9,9.1,9.6,14.2h172.8
		c4.2,0,8.1,0.3,12,1c1.6,0.3,3.2,0.6,4.9,1c1.7,0.3,3.2,1,5,1.5c4.3,1.4,8.2,3,12.2,5.2c22.2,12,37.3,35.2,37.3,62.3v118.4v131.8
		c0,39.6-31.7,71.3-71.3,71.3H218.8c-32.7,0-59.5-21.5-68.1-51.1h-16.5c9.2,38.1,43.9,67,84.6,67h205.8c47.5,0,87.1-39.6,87.1-87.1
		c0,0,0-1,0-2.3c0-1.1,0-2.6,0-4.5c0-0.3,0-0.9,0-1.3C511.7,355.7,511.7,316,511.7,273.2z"/>
	<path class="st0" d="M205,368.8h104.3c0,0,0.1,0,0.2,0c0.5,0,3.5-0.2,4.4-0.8c1.5-0.8,3.6-2.2,5.1-4.7c0.9-1.7,1.6-4.4,2.1-7.7
		c0.3-2.6,0.6-5.3,0.6-7.8c0-3.8,0-8.2,0-12.2c0-2.3,0-4.5,0-6.3c0-2.7,0.4-7.9-2.3-13.7c-3.6-7.6-13.3-19.3-37.6-31.8
		c-35.9-18.6-65.4-28-77.3-59.7c-0.3-0.7-0.6-1.2-0.9-1.9c0,0,1-0.9,2.2-2.1c2.4-2.5,6.3-7.1,7.6-14.2l1-12.2l0.5-5.2
		c0,0,0.4-0.1,1.3-0.3c4.3-1.1,17.7-7.4,19.5-37.1c0,0-0.1-6.6-4.2-9.7c-1.3-1-3-1.6-5.2-1.6c-0.2,0-0.3,0-0.3,0
		c0,0,3.4-16.2,3.4-42.6c0-15.4-6.8-29.1-17.5-37.3c-1.7-1.7-3.6-3.1-5.6-4.3c-1.2-0.6-3.6-2.1-5.9-2.1c-1.7,0-3,0.7-4.3,2.6
		c0,0-1.5-3.6-4.9-6.3c-0.1-0.3-0.2-0.3-0.3-0.3c-0.9-0.6-1.7-1-3-1.5c-4-1.7-9.3-2.4-11.8-2.7c-5.7-0.5-10.3-0.6-12.9-0.6
		c-1.2,0-2,0-2,0S95.4,44.8,92.9,97c-1.1,26.3,3.5,42.6,3.5,42.6c-0.2,0-0.3,0-0.3,0c-9.3,0-9.6,11.4-9.6,11.4
		c2.3,35.4,20.8,37.4,20.8,37.4l1.4,17.5c2.2,10.5,9.7,16.2,9.7,16.2c-11.3,33.3-41.2,42.6-78.2,61.6c-24.2,12.5-34,24.1-37.6,31.8
		c-2.8,5.7-2.3,10.9-2.3,13.7c0,4.8,0,12.5,0,18.5c0,5.7,1,13,2.7,15.6c1.5,2.3,3.6,4,4.9,4.7c1,0.5,4.6,0.8,4.6,0.8h118.7h15.8
		L205,368.8L205,368.8z"/>
</g>
</svg>
