<?xml version="1.0" encoding="utf-8"?>
<!-- Generator: Adobe Illustrator 16.0.0, SVG Export Plug-In . SVG Version: 6.00 Build 0)  -->
<!DOCTYPE svg PUBLIC "-//W3C//DTD SVG 1.1//EN" "http://www.w3.org/Graphics/SVG/1.1/DTD/svg11.dtd">
<svg version="1.1"
	 id="svg2" inkscape:export-xdpi="230.97745" sodipodi:docname="Facebook Home (Clear).svg" inkscape:version="0.48.3.1 r9886" inkscape:export-ydpi="230.97745" inkscape:export-filename="R:\Media\Pictures\Logos\Facebook Home (Clear).png" xmlns:sodipodi="http://sodipodi.sourceforge.net/DTD/sodipodi-0.dtd" xmlns:rdf="http://www.w3.org/1999/02/22-rdf-syntax-ns#" xmlns:dc="http://purl.org/dc/elements/1.1/" xmlns:svg="http://www.w3.org/2000/svg" xmlns:cc="http://creativecommons.org/ns#" xmlns:inkscape="http://www.inkscape.org/namespaces/inkscape"
	 xmlns="http://www.w3.org/2000/svg" xmlns:xlink="http://www.w3.org/1999/xlink" x="0px" y="0px" width="512px" height="512px"
	 viewBox="0 0 512 512" style="enable-background:new 0 0 512 512;" xml:space="preserve">
<g>
	<path d="M265,443.6L265,443.6c-3,0.1-6,0-9,0c-3,0-6,0-9,0v-0.1c-11.4-0.1-22.6-0.2-33.6-0.4c-3.2,6.4-5.1,13.5-5.1,21.1
		c0,26.3,21.4,47.7,47.7,47.7c26.3,0,47.7-21.4,47.7-47.7c0-7.6-1.9-14.7-5.1-21.1C287.7,443.4,276.5,443.6,265,443.6z"/>
	<path d="M469.9,386.9L374.3,259c0,0,0-131.6,0-148.8c0-17.2-13.2-24.5-13.2-24.5c-22.3-17-48.7-28.6-77.5-33.3V27.6
		c0-15.2-12.3-27.5-27.5-27.5s-27.5,12.3-27.5,27.5v24.9c-28.8,4.6-55.2,16.3-77.5,33.2c0,0-13.2,7.3-13.2,24.5
		c0,17.2,0,148.8,0,148.8L42.1,386.9c-13.7,19.5,8.5,24.8,8.5,24.8c34.1,6.8,108.5,11.7,196.4,12.3v0.1c3,0,6,0,9,0c3,0,6,0,9,0V424
		c87.9-0.6,162.3-5.5,196.4-12.3C461.4,411.7,483.6,406.5,469.9,386.9z"/>
</g>
</svg>
