<?xml version="1.0" encoding="utf-8"?>
<!-- Generator: Adobe Illustrator 16.0.0, SVG Export Plug-In . SVG Version: 6.00 Build 0)  -->
<!DOCTYPE svg PUBLIC "-//W3C//DTD SVG 1.1//EN" "http://www.w3.org/Graphics/SVG/1.1/DTD/svg11.dtd">
<svg version="1.1"
	 id="svg2" inkscape:export-filename="R:\Media\Pictures\Logos\Facebook Home (Clear).png" inkscape:export-ydpi="230.97745" inkscape:export-xdpi="230.97745" sodipodi:docname="Facebook Home (Clear).svg" inkscape:version="0.48.3.1 r9886" xmlns:sodipodi="http://sodipodi.sourceforge.net/DTD/sodipodi-0.dtd" xmlns:inkscape="http://www.inkscape.org/namespaces/inkscape" xmlns:cc="http://creativecommons.org/ns#" xmlns:svg="http://www.w3.org/2000/svg" xmlns:rdf="http://www.w3.org/1999/02/22-rdf-syntax-ns#" xmlns:dc="http://purl.org/dc/elements/1.1/"
	 xmlns="http://www.w3.org/2000/svg" xmlns:xlink="http://www.w3.org/1999/xlink" x="0px" y="0px" width="512px" height="512px"
	 viewBox="0 0 512 512" style="enable-background:new 0 0 512 512;" xml:space="preserve">
<path d="M413.8,213.6c-18.5,0-35.7,5.1-50.5,14l-37.3-54l15.8-51.7c1.2,0.2,2.4,0.5,3.4,0.7c13.3,3.3,19.9,5.8,24-0.8
	c4.1-6.6,5-20.7-12.4-19.9c-17.4,0.8-53.9,5.8-53.9,5.8s-8.3,1.7-8.3,6.6c0,5,5,6.1,7.5,5.8c0.8-0.1,14.1-0.4,26.8,0.4l-14.6,47.8
	H155.9l5.8-25.5l0,0l-1.8-12.7l-39.8,0c-0.4,0-1.3-0.1-2.6-0.1c0,0-12.7,0.5-21,5c-8.4,4.4-15.9,14.3-15.7,29.1
	c-0.1,16.2,11.1,25.7,20.7,29.8c9.7,4.3,18.7,4.8,19.1,4.8l0.8-12.7c0,0-1.7-0.1-4.5-0.6c-4.2-0.8-10.6-2.6-15.3-6
	c-4.7-3.5-7.9-7.6-8-15.3c0.2-10.9,4.2-14.9,9.2-18c5.1-2.9,11.7-3.5,14.8-3.4c1.2,0,1.6,0.1,1.6,0.1l0.3,0h29.3l-17.5,76.6
	c-10.3-3.7-21.5-5.7-33-5.7c-54.3,0-98.3,44-98.3,98.3c0,54.3,44,98.3,98.3,98.3c54.3,0,98.3-44,98.3-98.3
	c0-38.1-21.7-71.2-53.4-87.5l3.9-17.3l109.4,121.9c-0.1,0.6-0.1,1.1-0.1,1.7c0,6.1,3.9,11.2,9.4,13.1l4.6,24h-6.4v9.6h23.9v-9.6H280
	l-4.6-24.3c2-0.8,3.8-2.1,5.2-3.8l37.4-6c10,43.8,49.1,76.4,95.9,76.4c54.3,0,98.3-44,98.3-98.3
	C512.2,257.6,468.1,213.6,413.8,213.6z M183.7,311.9c-0.1,47.2-38.3,85.5-85.5,85.6c-47.3-0.1-85.5-38.3-85.6-85.6
	c0.1-47.3,38.3-85.5,85.6-85.6c10.6,0,20.8,2,30.2,5.5l-4.6,20l-26.2,46.2c-7.4,0.3-13.3,6.3-13.3,13.8c0,7.6,6.2,13.8,13.8,13.8
	c7.6,0,13.8-6.2,13.8-13.8c0-3.1-1.1-6-2.8-8.3l26.6-47l4.4-19.2C166.1,252.1,183.7,279.9,183.7,311.9z M153,180.9h157.5
	l-40.7,133.3l-4.2-21.9h6.2v-9.6h-23.9v9.6h8l4.2,22.2L150.5,191.9L153,180.9z M283.2,326.5c-0.5-1.7-1.4-3.2-2.5-4.5l40.5-132.9
	l31.6,45.7c-22.7,18-37.3,45.9-37.3,77.1c0,3.1,0.2,6.2,0.4,9.3L283.2,326.5z M400.8,307.5l-72.1,11.6c-0.2-2.4-0.3-4.8-0.3-7.2
	c0-26.9,12.5-50.9,31.9-66.6l41.5,60.1C401.3,306.1,401,306.8,400.8,307.5z M413.8,397.5c-40.4-0.1-74.2-28.1-83.2-65.7l72.1-11.6
	c2.5,3.4,6.5,5.6,11.1,5.6c7.6,0,13.8-6.2,13.8-13.8s-6.2-13.8-13.8-13.8c-0.6,0-1.2,0-1.7,0.1l-41.5-60.1
	c12.7-7.4,27.4-11.7,43.2-11.8c47.2,0.1,85.5,38.3,85.6,85.6C499.3,359.2,461.1,397.4,413.8,397.5z"/>
</svg>
