<?xml version="1.0" encoding="utf-8"?>
<!-- Generator: Adobe Illustrator 19.1.0, SVG Export Plug-In . SVG Version: 6.00 Build 0)  -->
<svg version="1.1" baseProfile="tiny" id="Layer_1" xmlns="http://www.w3.org/2000/svg" xmlns:xlink="http://www.w3.org/1999/xlink"
	 x="0px" y="0px" viewBox="0 0 512 512" xml:space="preserve">
<g>
	<path d="M511.8,363.6l-23.6-259.9c-0.9-10.1-5.6-19.5-13.1-26.4c-7.5-6.8-17.2-10.5-27.3-10.5c-1.2,0-2.5,0.1-3.7,0.2L37,103.9
		c-10.8,1-20.5,6.1-27.5,14.4c-6.9,8.3-10.2,18.9-9.3,29.6l23.6,259.9c0.9,10.1,5.6,19.5,13.1,26.4c7.5,6.8,17.2,10.5,27.3,10.5
		c1.2,0,2.4-0.1,3.7-0.2l407.2-36.9C497.4,405.7,513.9,385.9,511.8,363.6z M472.8,382.8L65.7,419.8c-0.5,0-0.9,0.1-1.4,0.1
		c-8,0-14.8-6.1-15.5-14.2L25.1,145.7c-0.8-8.5,5.6-16.2,14.1-16.9l407.2-36.9c0.5,0,0.9-0.1,1.4-0.1c8,0,14.8,6.1,15.5,14.2
		L487,365.9C487.7,374.4,481.4,382.1,472.8,382.8z"/>
	<path d="M439.6,111.9c-0.1-1.4-1.4-2.5-2.8-2.3l-389,37.8c-1.4,0.1-2.5,1.4-2.3,2.8c0.1,1.3,1.3,2.3,2.6,2.3c0.1,0,0.2,0,0.3,0
		l389-37.8C438.7,114.6,439.7,113.3,439.6,111.9z"/>
	<path d="M460.7,357.9l-389,37.8c-1.4,0.1-2.5,1.4-2.3,2.8c0.1,1.3,1.3,2.3,2.6,2.3c0.1,0,0.2,0,0.3,0l389-37.8
		c1.4-0.1,2.5-1.4,2.3-2.8S462.1,357.8,460.7,357.9z"/>
	<path d="M427.7,231.6c-0.2-2-2-3.5-4-3.3l-27.5,2.7c-0.2,0-0.4,0.1-0.6,0.1c0.9,1,1.8,2.1,2.7,3.2c0.9,1.1,1.7,2.3,2.5,3.5
		l23.6-2.3C426.5,235.3,427.9,233.6,427.7,231.6z"/>
	<path d="M435.5,230.8c0.2,1.9,1.8,3.3,3.6,3.3c0.1,0,0.2,0,0.4,0l11.4-1.1c2-0.2,3.5-2,3.3-4c-0.2-2-2-3.5-4-3.3l-11.4,1.1
		C436.8,227,435.3,228.8,435.5,230.8z"/>
	<path d="M268.4,250.6L268.4,250.6l-0.7-7l0-0.1c-0.2,0-0.4,0-0.7,0l-24.8,2.4c-0.3,0-0.6,0.1-0.8,0.2c-0.3,0-0.6,0-0.8,0l-8.5,0.8
		c4.5,1.8,8.7,3.8,12.5,6.1l23.1-2.2C267.9,250.7,268.1,250.7,268.4,250.6z"/>
	<path d="M76.5,265.7c-0.2-2-2-3.5-4-3.3l-11.4,1.1c-2,0.2-3.5,2-3.3,4c0.2,1.9,1.8,3.3,3.6,3.3c0.1,0,0.2,0,0.4,0l11.4-1.1
		C75.2,269.5,76.7,267.7,76.5,265.7z"/>
	<path d="M105.1,259.2l-20,1.9c-2,0.2-3.5,2-3.3,4c0.2,1.9,1.8,3.3,3.6,3.3c0.1,0,0.2,0,0.4,0l19.9-1.9L105.1,259.2z"/>
	<path d="M99,370.1c0.1,1.3,1,2.1,2,2.1c0.1,0,0.1,0,0.2,0c6-0.6,18-2.6,40.4-4.8c11.5-1.1,30.6-2.1,42.1-3.2
		c32.2-3.1,50.3-8.1,61.7-16.1c13.1-8.8,19.7-30.3,18.2-45.9c-2.4-24.8-16.5-39.6-39.7-47.2c-1.9-0.6-3.9-1.2-6-1.7
		c-1.8-0.5-3.6-0.9-5.5-1.3c-2-0.4-4-0.8-6-1.1l-0.1-1.4c0,0,0,0,0,0c26-12.7,36.7-27.6,34.5-50.6c-1.7-17.2-8.7-29.9-25.6-37
		c-6.7-2.9-16.4-4.1-27.9-4.1c-7.2,0-15,0.5-23.4,1.3c-15.5,1.5-32.7,4-41.9,4.9c-24.1,2.6-38,2.8-42.1,3.2c-1.7,0.2-2.2,1.1-2,2.8
		l0.6,6.6c0.1,1.5,0.7,2.1,2,2.1c0.2,0,0.4,0,0.6,0l9.2-0.9c2.1-0.2,4.1-0.4,5.7-0.4c6.9,0,10.3,2.7,12.3,16
		c0.8,4.9,4.7,39.9,5.7,50.2l3.3,33.9c2.3,23.6,5.4,61.6,5.5,68.5c0,9-1.7,12.6-10.3,13.5l-12.4,1.2c-1.1,0.1-2,0.8-1.8,2.2
		L99,370.1z M223.8,304.9c3.4,35.1-16.3,47.7-38.7,49.9c-1.3,0.1-2.6,0.2-3.8,0.2c-15.7,0-22.2-10.9-24.7-36l-5.6-57.5l7.5-0.7
		c4.1-0.4,8.5-0.7,13.2-0.7c6.5,0,13.5,0.7,20.1,2.7C208.6,267.5,221.6,281.3,223.8,304.9z M147.1,171c2.2-0.8,5.7-1.1,8.6-1.4
		c1.5-0.1,3.2-0.2,5-0.2c8.5,0,19.6,1.8,28.7,7.1c9.9,6,14.4,17.2,15.5,28.1c1.2,12.6-1.6,25.7-11.7,35.4
		c-5.8,5.8-17,10.1-29.7,11.3c-4.6,0.4-8.6,0.8-13.3,1l-2.1-21.8c-2.3-24.1-4.2-48.9-4.4-54.4C143.8,173.6,145.4,171.8,147.1,171z"
		/>
	<path d="M289.3,352.9l4.1,0.8c1.1-0.1,2.3-0.2,3.7-1.2l10.6-7.7c6.5,2.5,15,4.5,26.5,4.5c3.4,0,7.1-0.2,11-0.6
		c35.1-3.4,59.9-41.2,56.8-72.8c-1.5-15.8-5.9-27.6-11.8-35.1c-1.5-2-3.2-3.8-5-5.6c-0.9-0.9-1.9-1.8-2.9-2.6
		c-8.8-7.4-19.9-12.1-31.9-12.1c-1.5,0-3,0.1-4.5,0.2c-14.7,1.4-29.1,8-38,18.5l-3-34.5c-2.1-25-4.1-57.9-4.4-60.2
		c0.3-2.8-0.9-4.3-2.9-4.3c-0.1,0-0.3,0-0.4,0c-2.3,0.2-4.5,1.6-8.3,4.3c-8.8,5.5-24.7,14.6-35.8,19.7c-2.2,0.8-2.7,2-2.7,2.6
		l0.3,2.9c0.1,1.1,0.7,1.7,4.2,1.9l3.6,0.8c9.5,2,13,5.1,14.9,24.7l4.7,45.6l0.7,7.2l5.3,52.1c2,20.7,4,44.9,3.9,49
		C288,351.8,288.1,352.4,289.3,352.9z M330.5,239.5c1.3-0.1,2.5-0.2,3.8-0.2c20.7,0,34.7,17.2,37.8,48.7c1.2,12.6,0.7,22-4.4,32.9
		c-5.5,11.9-15.5,16.3-24.7,17.2c-0.8,0.1-1.5,0.1-2.3,0.1c-8.8,0-16.4-4.9-20.2-11c-4.3-8.3-5.7-17.4-8.1-41.6l-3.4-35.4
		C314.7,243.9,322.5,240.3,330.5,239.5z"/>
</g>
</svg>
