<?xml version="1.0" encoding="utf-8"?>
<!-- Generator: Adobe Illustrator 16.0.0, SVG Export Plug-In . SVG Version: 6.00 Build 0)  -->
<!DOCTYPE svg PUBLIC "-//W3C//DTD SVG 1.1//EN" "http://www.w3.org/Graphics/SVG/1.1/DTD/svg11.dtd">
<svg version="1.1"
	 id="svg2" xmlns:dc="http://purl.org/dc/elements/1.1/" xmlns:svg="http://www.w3.org/2000/svg" xmlns:cc="http://creativecommons.org/ns#" xmlns:inkscape="http://www.inkscape.org/namespaces/inkscape" xmlns:rdf="http://www.w3.org/1999/02/22-rdf-syntax-ns#" xmlns:sodipodi="http://sodipodi.sourceforge.net/DTD/sodipodi-0.dtd" inkscape:export-filename="R:\Media\Pictures\Logos\Facebook Home (Clear).png" inkscape:export-xdpi="230.97745" inkscape:version="0.48.3.1 r9886" inkscape:export-ydpi="230.97745" sodipodi:docname="Facebook Home (Clear).svg"
	 xmlns="http://www.w3.org/2000/svg" xmlns:xlink="http://www.w3.org/1999/xlink" x="0px" y="0px" width="512px" height="512px"
	 viewBox="0 0 512 512" style="enable-background:new 0 0 512 512;" xml:space="preserve">
<g>
	<path d="M285.3,117.9c-2.6-1.7-5.5-2.9-8.7-3.5c-3.3-0.6-6.6-0.9-10.1-0.9h-44.2v48.6h44.7c8.7,0,15.3-2.1,19.8-6.2
		c4.5-4.1,6.8-10.3,6.8-18.6c0-4.9-0.7-9-2.2-12.1C289.8,122.1,287.8,119.6,285.3,117.9z"/>
	<path d="M419.7,0.2H92.3C64.4,0.2,43,21.6,43,49.6V271v191.5c0,7,1.3,13.6,3.8,19.5c0.1,0.1,0.2,0.3,0.2,0.4
		c6.2,14.6,19,25.3,35.2,28.4c3.3,0.6,6.7,1,10.1,1h213.1V387.6c0-27.2,22.1-49.3,49.3-49.3H469v-61.9V49.6
		C469,21.6,447.6,0.2,419.7,0.2z M297.4,246.8c-2-3.3-3.2-7-3.6-11.1c-0.4-4.1-0.5-8-0.5-11.8c0-7.1-0.4-13.3-1.3-18.4
		c-0.9-5.1-2.5-9.4-4.8-12.8c-2.3-3.4-5.5-5.9-9.5-7.5c-4-1.6-9.1-2.4-15.3-2.4h-40.1v64H195V91.3h74.3c17.2,0,30,3.7,38.6,11.1
		c8.6,7.4,12.8,17.7,12.8,30.9c0,7.4-1.1,13.5-3.3,18.4c-2.2,4.9-4.7,8.8-7.6,11.8c-2.9,3-5.8,5.1-8.6,6.4c-2.8,1.3-4.9,2.2-6.2,2.6
		v0.4c2.3,0.3,4.8,1,7.5,2.2c2.7,1.2,5.2,3,7.5,5.6c2.3,2.6,4.2,5.9,5.8,9.9c1.5,4.1,2.3,9.2,2.3,15.3c0,9.1,0.7,17.5,2.1,25
		c1.3,7.5,3.5,12.8,6.4,16L297.4,246.8L297.4,246.8z"/>
	<path d="M321.9,387.7v124.1l147.1-157H354.7C336.6,354.8,321.9,369.5,321.9,387.7z"/>
</g>
</svg>
