<?xml version="1.0" encoding="utf-8"?>
<!-- Generator: Adobe Illustrator 16.0.0, SVG Export Plug-In . SVG Version: 6.00 Build 0)  -->
<!DOCTYPE svg PUBLIC "-//W3C//DTD SVG 1.1//EN" "http://www.w3.org/Graphics/SVG/1.1/DTD/svg11.dtd">
<svg version="1.1"
	 id="svg2" xmlns:svg="http://www.w3.org/2000/svg" xmlns:cc="http://creativecommons.org/ns#" xmlns:rdf="http://www.w3.org/1999/02/22-rdf-syntax-ns#" xmlns:inkscape="http://www.inkscape.org/namespaces/inkscape" xmlns:dc="http://purl.org/dc/elements/1.1/" xmlns:sodipodi="http://sodipodi.sourceforge.net/DTD/sodipodi-0.dtd" inkscape:version="0.48.3.1 r9886" inkscape:export-ydpi="230.97745" inkscape:export-xdpi="230.97745" sodipodi:docname="Facebook Home (Clear).svg" inkscape:export-filename="R:\Media\Pictures\Logos\Facebook Home (Clear).png"
	 xmlns="http://www.w3.org/2000/svg" xmlns:xlink="http://www.w3.org/1999/xlink" x="0px" y="0px" width="512px" height="512px"
	 viewBox="0 0 512 512" style="enable-background:new 0 0 512 512;" xml:space="preserve">
<path d="M391.8,30.9c-1.9-17.6-10.8-30.9-38.8-30.9L115.4,39.4c-32.6,5.4-39.3,30.7-39.3,52.4v289.4c0,21.7,17.6,39.3,39.3,39.3
	l237.5-39.3c31.5-5.3,39.3-30.7,39.3-52.4V44.1c17,1.2,30.6,15.2,30.6,32.5v302.6c0,18.1-14.7,32.7-32.7,32.7H260.4v66.4l-38.9-40.1
	l-42.1,42.1v-40.9h-13.1v72.6l55-55.1l52.2,53.7V425H390c25.3,0,45.8-20.6,45.8-45.8V76.6C435.9,51.9,416.2,31.9,391.8,30.9z"/>
</svg>
