<?xml version="1.0" encoding="utf-8"?>
<!-- Generator: Adobe Illustrator 16.0.0, SVG Export Plug-In . SVG Version: 6.00 Build 0)  -->
<!DOCTYPE svg PUBLIC "-//W3C//DTD SVG 1.1//EN" "http://www.w3.org/Graphics/SVG/1.1/DTD/svg11.dtd">
<svg version="1.1"
	 id="svg2" inkscape:export-xdpi="230.97745" sodipodi:docname="Facebook Home (Clear).svg" inkscape:version="0.48.3.1 r9886" inkscape:export-ydpi="230.97745" inkscape:export-filename="R:\Media\Pictures\Logos\Facebook Home (Clear).png" xmlns:sodipodi="http://sodipodi.sourceforge.net/DTD/sodipodi-0.dtd" xmlns:rdf="http://www.w3.org/1999/02/22-rdf-syntax-ns#" xmlns:dc="http://purl.org/dc/elements/1.1/" xmlns:svg="http://www.w3.org/2000/svg" xmlns:cc="http://creativecommons.org/ns#" xmlns:inkscape="http://www.inkscape.org/namespaces/inkscape"
	 xmlns="http://www.w3.org/2000/svg" xmlns:xlink="http://www.w3.org/1999/xlink" x="0px" y="0px" width="512px" height="512px"
	 viewBox="0 0 512 512" style="enable-background:new 0 0 512 512;" xml:space="preserve">
<path d="M110.4,354.1h291.2c20.5,0,43.9-16.9,43.9-43.9V44.1c0-24.9-19-43.9-43.9-43.9H110.4c-24.9,0-43.9,19-43.9,43.9v343.5
	c0,24.9,19,43.9,43.9,43.9h25.7v73.1c0,3,1.8,5.6,4.5,6.8c2.7,1.1,5.9,0.5,8-1.6l53.4-38.8l53.4,38.8c1.4,1.4,3.3,2.1,5.2,2.1
	c0.9,0,1.9-0.2,2.8-0.6c2.7-1.1,4.5-3.8,4.5-6.8v-73.1c0,0,136.6-0.3,138-0.3c1.1-0.1,2.2-0.2,3.3-0.3c1.1-0.2,2.2-0.5,3.3-0.7
	c2-0.5,3.9-1.1,5.7-1.8c0.3-0.1,0.6-0.2,0.9-0.3c2.6-1.1,5.1-2.3,7.4-3.8c1.4-0.9,19.1-12.2,19.1-36.5h-14.6
	c0,15.7-12.5,28.5-28.1,29.1h-135v-36.6h-14.6v36.6v14.6v55.4l-46.1-31.4c-1.4-1.4-3.2-2.1-5.2-2.1c-1.9,0-3.8,0.8-5.2,2.1
	l-46.1,31.4v-55.4v-14.6v-36.6h-14.6v36.6h-25.7c-16.1,0-29.3-13.1-29.3-29.3v-4.2C81.1,367.2,94.2,354.1,110.4,354.1z M371.1,222.6
	l-36.3-4.8l29.2,26.5L329.2,233l20.5,26.6l-26.9-12.6l7,23.6l-14.9-8.6v-46.7l39.6-22.9l15.3,8.8l-21.7,5.2L371.1,222.6z
	 M357.6,183.8l-49,28.3v56.6l-49-28.3l0-56.6l49-28.3L357.6,183.8z M215.4,72.5l15.3,16.2l2.4-27.9l14,33.8l8.3-38.5l7.7,35.7
	L276,60.9l2.6,29.5l16.9-17.9v17.2L255,113.1l-39.6-22.9V72.5z M206.7,91.6l49,28.3l49-28.3v56.6l-49,28.3l-49-28.3V91.6z
	 M202.2,155.4l49,28.3v56.6l-49,28.3V212l-49-28.3L202.2,155.4z M141.2,201.8l14.9-8.6l40.4,23.3v45.7l-15.3,8.8l6.4-21.4
	l-25.4,11.8l22.3-29l-37.5,12.1l27.1-24.6l-33.3,4.4l24.3-17L141.2,201.8z"/>
</svg>
