<?xml version="1.0" encoding="utf-8"?>
<!-- Generator: Adobe Illustrator 19.1.0, SVG Export Plug-In . SVG Version: 6.00 Build 0)  -->
<svg version="1.1" baseProfile="tiny" id="Layer_1" xmlns="http://www.w3.org/2000/svg" xmlns:xlink="http://www.w3.org/1999/xlink"
	 x="0px" y="0px" viewBox="0 0 512 512" xml:space="preserve">
<g>
	<path d="M268.9,159.5h-24.5c-10.1,0-18.2,8.2-18.2,18.2s8.2,18.2,18.2,18.2h24.5c34.2,0,62-27.8,62-62.1s-27.8-62-62-62H155.1
		c-10.1,0-18.2,8.2-18.2,18.2s8.2,18.2,18.2,18.2h113.8c14.1,0,25.6,11.5,25.6,25.6S283,159.5,268.9,159.5z"/>
	<path d="M422.9,246.3c-5.3-8.8-16.7-11.6-25.5-6.2c-8.8,5.3-11.6,16.7-6.2,25.5c11.9,19.6,17.9,43.1,17.9,70
		c0,78.1-62.4,139.3-142.1,139.3H122.4c-10.7,0-19.4-8.7-19.4-19.4v-399c0-10.7,8.7-19.4,19.4-19.4h144.5
		c54.1,0,98.1,43.3,98.1,96.4s-44,96.4-98.1,96.4h-77.4c-10.2,0-18.6,8.3-18.6,18.5c0,10.2,8.3,18.5,18.6,18.5c0,0,79.2,0,79.3,0
		c37.7,0,68.4,30.7,68.4,68.4s-30.7,68.4-68.4,68.4H155.1c-10.2,0-18.6,8.3-18.6,18.5s8.3,18.5,18.6,18.5h113.8
		c58.2,0,105.5-47.3,105.5-105.5c0-34.7-16.9-65.4-42.8-84.7c42-22.7,70.6-66.7,70.6-117.3C402.2,59.9,341.5,0,266.9,0H122.4
		C91.2,0,65.9,25.3,65.9,56.5v399c0,31.2,25.4,56.5,56.5,56.5H267c100.4,0,179.1-77.5,179.1-176.4
		C446.1,301.8,438.3,271.8,422.9,246.3z"/>
</g>
</svg>
