<?xml version="1.0" encoding="utf-8"?>
<!-- Generator: Adobe Illustrator 16.0.0, SVG Export Plug-In . SVG Version: 6.00 Build 0)  -->
<!DOCTYPE svg PUBLIC "-//W3C//DTD SVG 1.1//EN" "http://www.w3.org/Graphics/SVG/1.1/DTD/svg11.dtd">
<svg version="1.1" id="Layer_1" xmlns="http://www.w3.org/2000/svg" xmlns:xlink="http://www.w3.org/1999/xlink" x="0px" y="0px"
	 width="90px" height="90px" viewBox="0 0 90 90" enable-background="new 0 0 90 90" xml:space="preserve">
<g>
	<path d="M67.686,22.256C61.514,16.084,53.932,13,44.945,13c-8.838,0-16.342,3.085-22.516,9.258C16.144,28.658,13,36.239,13,45
		c0,8.762,3.145,16.284,9.43,22.571C28.791,73.855,36.294,77,44.943,77c8.799,0,16.436-3.182,22.913-9.545
		C73.951,61.477,77,53.99,77,45C77,36.047,73.893,28.466,67.686,22.256z M63.686,63.342c-5.295,5.221-11.506,7.828-18.627,7.828
		c-7.162,0-13.332-2.59-18.515-7.771C21.363,58.221,18.773,52.086,18.773,45c0-7.047,2.608-13.238,7.83-18.572
		c5.027-5.104,11.181-7.657,18.455-7.657c7.239,0,13.411,2.553,18.514,7.656c5.104,5.106,7.656,11.295,7.656,18.571
		C71.229,52.391,68.715,58.504,63.686,63.342z"/>
	<path d="M45.001,33.287c2.971,0,4.458-1.486,4.458-4.457c0-3.01-1.484-4.514-4.458-4.514c-2.973,0-4.458,1.506-4.458,4.514
		C40.543,31.799,42.031,33.287,45.001,33.287z"/>
	<path d="M51.576,35H38.433c-0.57,0-1.058,0.201-1.457,0.6c-0.4,0.4-0.601,0.885-0.601,1.457v13.087h3.655v15.539h9.944V50.145
		h3.656V37.058c0-0.572-0.211-1.058-0.627-1.457C52.586,35.201,52.107,35,51.576,35z"/>
</g>
</svg>
