<?xml version="1.0" encoding="utf-8"?>
<!-- Generator: Adobe Illustrator 16.0.0, SVG Export Plug-In . SVG Version: 6.00 Build 0)  -->
<!DOCTYPE svg PUBLIC "-//W3C//DTD SVG 1.1//EN" "http://www.w3.org/Graphics/SVG/1.1/DTD/svg11.dtd">
<svg version="1.1" id="Layer_1" xmlns="http://www.w3.org/2000/svg" xmlns:xlink="http://www.w3.org/1999/xlink" x="0px" y="0px"
	 width="67.499px" height="90px" viewBox="22.501 0 67.499 90" enable-background="new 22.501 0 67.499 90" xml:space="preserve">
<g>
	<path d="M56.248,21.405c2.973,0,4.459-2.994,4.459-8.979c0-6.063-1.484-9.093-4.459-9.093c-2.973,0-4.457,3.034-4.457,9.093
		C51.791,18.409,53.277,21.405,56.248,21.405z"/>
	<path d="M62.824,24.857H49.68c-0.57,0-1.057,0.405-1.457,1.209c-0.4,0.806-0.6,1.782-0.6,2.936v26.361h3.654v31.303h9.945V55.363
		h3.656V29.002c0-1.153-0.211-2.132-0.627-2.936C63.834,25.261,63.355,24.857,62.824,24.857z"/>
</g>
</svg>
