<?xml version="1.0" encoding="utf-8"?>
<!-- Generator: Adobe Illustrator 16.0.0, SVG Export Plug-In . SVG Version: 6.00 Build 0)  -->
<!DOCTYPE svg PUBLIC "-//W3C//DTD SVG 1.0//EN" "http://www.w3.org/TR/2001/REC-SVG-20010904/DTD/svg10.dtd">
<svg version="1.0"
	 id="svg2" inkscape:export-filename="R:\Media\Pictures\Logos\Facebook Home (Clear).png" inkscape:version="0.48.3.1 r9886" inkscape:export-ydpi="230.97745" sodipodi:docname="Facebook Home (Clear).svg" inkscape:export-xdpi="230.97745" xmlns:dc="http://purl.org/dc/elements/1.1/" xmlns:rdf="http://www.w3.org/1999/02/22-rdf-syntax-ns#" xmlns:cc="http://creativecommons.org/ns#" xmlns:svg="http://www.w3.org/2000/svg" xmlns:sodipodi="http://sodipodi.sourceforge.net/DTD/sodipodi-0.dtd" xmlns:inkscape="http://www.inkscape.org/namespaces/inkscape"
	 xmlns="http://www.w3.org/2000/svg" xmlns:xlink="http://www.w3.org/1999/xlink" x="0px" y="0px" width="512px" height="512px"
	 viewBox="0 0 512 512" style="enable-background:new 0 0 512 512;" xml:space="preserve">
<g>
	<path d="M256,427.5c-41.8,0-76.4,30.6-82.6,70.7c25.9,8.9,53.7,13.8,82.6,13.8c28.9,0,56.7-4.9,82.6-13.8
		C332.4,458.1,297.8,427.5,256,427.5z"/>
	<circle cx="256" cy="381.1" r="24.4"/>
	<path d="M498,172.9c-40.3,6-71.1,40.7-71.1,82.7c0,42,31,76.8,71.4,82.7c8.8-25.8,13.6-53.5,13.6-82.2
		C511.9,226.9,507,199,498,172.9z"/>
	<circle cx="380.5" cy="255.5" r="24.4"/>
	<path d="M376.8,375.9c-29.9,29.9-32.3,76.8-7.5,109.5c50.6-25.1,91.8-66.5,116.7-117.2C453.2,343.6,406.6,346.1,376.8,375.9z"/>
	<path d="M361.3,325.9c-9.5-9.5-24.9-9.5-34.4,0c-9.5,9.5-9.5,24.9,0,34.4c9.5,9.5,24.9,9.5,34.4,0
		C370.8,350.8,370.8,335.4,361.3,325.9z"/>
	<path d="M84.9,255.5c0-41.8-30.7-76.5-70.9-82.6C5,199,0.1,226.9,0.1,256c0,28.8,4.8,56.4,13.6,82.2
		C54,332.2,84.9,297.5,84.9,255.5z"/>
	<circle cx="131.2" cy="255.5" r="24.4"/>
	<path d="M25.9,368c24.8,50.8,66,92.1,116.5,117.3c24.8-32.8,22.3-79.6-7.5-109.4C105.2,346.1,58.7,343.6,25.9,368z"/>
	<path d="M184.9,325.9c-9.5-9.5-24.9-9.5-34.4,0c-9.5,9.5-9.5,24.9,0,34.4c9.5,9.5,24.9,9.5,34.4,0
		C194.5,350.8,194.5,335.4,184.9,325.9z"/>
	<path d="M256,83.6c41.5,0,75.9-30.2,82.4-69.8C312.6,4.9,284.8,0.1,256,0.1c-28.8,0-56.6,4.9-82.4,13.7
		C180.1,53.4,214.5,83.6,256,83.6z"/>
	<circle cx="256" cy="129.9" r="24.4"/>
	<path d="M485.6,143.2c-25-50.6-66.2-91.8-116.8-116.8c-24.3,32.7-21.7,79.1,8,108.8C406.5,164.9,452.9,167.5,485.6,143.2z"/>
	<path d="M326.8,185.2c9.5,9.5,24.9,9.5,34.4,0c9.5-9.5,9.5-24.9,0-34.4c-9.5-9.5-24.9-9.5-34.4,0
		C317.3,160.3,317.3,175.7,326.8,185.2z"/>
	<path d="M134.9,135.2c29.7-29.7,32.3-76,8-108.7c-50.6,25-91.8,66.2-116.7,116.8C59,167.5,105.3,164.8,134.9,135.2z"/>
	<path d="M150.5,185.2c9.5,9.5,24.9,9.5,34.4,0c9.5-9.5,9.5-24.9,0-34.4c-9.5-9.5-24.9-9.5-34.4,0C141,160.3,141,175.7,150.5,185.2z
		"/>
</g>
</svg>
