<?xml version="1.0" encoding="utf-8"?>
<!-- Generator: Adobe Illustrator 16.0.0, SVG Export Plug-In . SVG Version: 6.00 Build 0)  -->
<!DOCTYPE svg PUBLIC "-//W3C//DTD SVG 1.1//EN" "http://www.w3.org/Graphics/SVG/1.1/DTD/svg11.dtd">
<svg version="1.1"
	 id="svg2" sodipodi:docname="Facebook Home (Clear).svg" inkscape:export-xdpi="230.97745" inkscape:version="0.48.3.1 r9886" inkscape:export-ydpi="230.97745" inkscape:export-filename="R:\Media\Pictures\Logos\Facebook Home (Clear).png" xmlns:dc="http://purl.org/dc/elements/1.1/" xmlns:svg="http://www.w3.org/2000/svg" xmlns:cc="http://creativecommons.org/ns#" xmlns:inkscape="http://www.inkscape.org/namespaces/inkscape" xmlns:rdf="http://www.w3.org/1999/02/22-rdf-syntax-ns#" xmlns:sodipodi="http://sodipodi.sourceforge.net/DTD/sodipodi-0.dtd"
	 xmlns="http://www.w3.org/2000/svg" xmlns:xlink="http://www.w3.org/1999/xlink" x="0px" y="0px" width="512px" height="512px"
	 viewBox="0 0 512 512" style="enable-background:new 0 0 512 512;" xml:space="preserve">
<g>
	<g>
		<path d="M256,1C115.1,1,1,115.2,1,256c0,140.9,114.2,255,255,255c140.9,0,255-114.2,255-255C511,115.2,396.9,1,256,1z
			 M405.7,188.1L222.2,371.6c-3.7,3.7-8.6,5.6-13.3,5.6c-0.1,0-0.1,0-0.2,0c0,0-0.1,0-0.1,0c-4.9,0-9.8-1.9-13.4-5.6l-89-88.9
			c-7.4-7.4-7.4-19.3,0.3-26.8l20.9-21c3.5-3.6,8.3-5.6,13.3-5.6c4.9,0,9.7,2,13.4,5.6l54.8,54.8l149.1-149.4
			c3.6-3.6,8.5-5.5,13.4-5.5c5.1,0,9.8,2,13.3,5.5l20.9,21C413.2,168.7,413.2,180.7,405.7,188.1z"/>
	</g>
</g>
</svg>
