<?xml version="1.0" encoding="utf-8"?>
<!-- Generator: Adobe Illustrator 16.0.0, SVG Export Plug-In . SVG Version: 6.00 Build 0)  -->
<!DOCTYPE svg PUBLIC "-//W3C//DTD SVG 1.1//EN" "http://www.w3.org/Graphics/SVG/1.1/DTD/svg11.dtd">
<svg version="1.1"
	 id="svg2" sodipodi:docname="Facebook Home (Clear).svg" inkscape:export-xdpi="230.97745" inkscape:version="0.48.3.1 r9886" inkscape:export-ydpi="230.97745" inkscape:export-filename="R:\Media\Pictures\Logos\Facebook Home (Clear).png" xmlns:dc="http://purl.org/dc/elements/1.1/" xmlns:svg="http://www.w3.org/2000/svg" xmlns:cc="http://creativecommons.org/ns#" xmlns:inkscape="http://www.inkscape.org/namespaces/inkscape" xmlns:rdf="http://www.w3.org/1999/02/22-rdf-syntax-ns#" xmlns:sodipodi="http://sodipodi.sourceforge.net/DTD/sodipodi-0.dtd"
	 xmlns="http://www.w3.org/2000/svg" xmlns:xlink="http://www.w3.org/1999/xlink" x="0px" y="0px" width="512px" height="512px"
	 viewBox="0 0 512 512" style="enable-background:new 0 0 512 512;" xml:space="preserve">
<g>
	<path d="M9.3,300.1l146.5,146.4c6,6.1,14.1,9.1,22.1,9.1c0,0,0.1,0,0.2,0c0.1,0,0.1,0,0.2,0c7.9,0,15.9-3,22-9.1l302.2-302.2
		c12.3-12.2,12.3-31.9,0-44l-34.4-34.6c-5.8-5.8-13.6-9.1-22-9.1c-8,0-16,3.3-22,9.1L178.5,311.6l-90.2-90.2
		c-6.1-5.8-14.1-9.2-22.1-9.2c-8.2,0-16.2,3.3-21.9,9.2L9.8,255.9C-2.8,268.3-2.8,287.9,9.3,300.1z"/>
</g>
</svg>
