<?xml version="1.0" encoding="utf-8"?>
<!-- Generator: Adobe Illustrator 16.0.0, SVG Export Plug-In . SVG Version: 6.00 Build 0)  -->
<!DOCTYPE svg PUBLIC "-//W3C//DTD SVG 1.1//EN" "http://www.w3.org/Graphics/SVG/1.1/DTD/svg11.dtd">
<svg version="1.1"
	 id="svg2" inkscape:export-xdpi="230.97745" sodipodi:docname="Facebook Home (Clear).svg" inkscape:version="0.48.3.1 r9886" inkscape:export-ydpi="230.97745" inkscape:export-filename="R:\Media\Pictures\Logos\Facebook Home (Clear).png" xmlns:sodipodi="http://sodipodi.sourceforge.net/DTD/sodipodi-0.dtd" xmlns:rdf="http://www.w3.org/1999/02/22-rdf-syntax-ns#" xmlns:dc="http://purl.org/dc/elements/1.1/" xmlns:svg="http://www.w3.org/2000/svg" xmlns:cc="http://creativecommons.org/ns#" xmlns:inkscape="http://www.inkscape.org/namespaces/inkscape"
	 xmlns="http://www.w3.org/2000/svg" xmlns:xlink="http://www.w3.org/1999/xlink" x="0px" y="0px" width="512px" height="512px"
	 viewBox="0 0 512 512" style="enable-background:new 0 0 512 512;" xml:space="preserve">
<g>
	<path d="M366.6,156.7c-3-3-7.1-4.8-11.5-4.8c-4.2,0-8.3,1.7-11.5,4.8L215.6,285l-47.1-47c-3.2-3-7.3-4.8-11.5-4.8
		c-4.3,0-8.4,1.7-11.4,4.8l-18,18c-6.6,6.5-6.6,16.7-0.3,23l76.4,76.3c3.1,3.2,7.3,4.8,11.5,4.8c0,0,0,0,0.1,0c0,0,0.1,0,0.1,0
		c4.1,0,8.3-1.5,11.5-4.8l157.7-157.6c6.4-6.4,6.4-16.7,0-23L366.6,156.7z"/>
	<path d="M256,0.4C114.8,0.4,0.4,114.9,0.4,256c0,141.1,114.4,255.6,255.6,255.6c141.2,0,255.6-114.4,255.6-255.6
		C511.6,114.9,397.2,0.4,256,0.4z M256,471.1c-118.6,0-215.1-96.5-215.1-215.1c0-118.6,96.5-215.1,215.1-215.1
		S471.1,137.4,471.1,256C471.1,374.6,374.6,471.1,256,471.1z"/>
</g>
</svg>
