<?xml version="1.0" encoding="utf-8"?>
<!-- Generator: Adobe Illustrator 16.0.0, SVG Export Plug-In . SVG Version: 6.00 Build 0)  -->
<!DOCTYPE svg PUBLIC "-//W3C//DTD SVG 1.1//EN" "http://www.w3.org/Graphics/SVG/1.1/DTD/svg11.dtd">
<svg version="1.1"
	 id="svg2" sodipodi:docname="Facebook Home (Clear).svg" inkscape:export-xdpi="230.97745" inkscape:version="0.48.3.1 r9886" inkscape:export-ydpi="230.97745" inkscape:export-filename="R:\Media\Pictures\Logos\Facebook Home (Clear).png" xmlns:dc="http://purl.org/dc/elements/1.1/" xmlns:svg="http://www.w3.org/2000/svg" xmlns:cc="http://creativecommons.org/ns#" xmlns:inkscape="http://www.inkscape.org/namespaces/inkscape" xmlns:rdf="http://www.w3.org/1999/02/22-rdf-syntax-ns#" xmlns:sodipodi="http://sodipodi.sourceforge.net/DTD/sodipodi-0.dtd"
	 xmlns="http://www.w3.org/2000/svg" xmlns:xlink="http://www.w3.org/1999/xlink" x="0px" y="0px" width="512px" height="512px"
	 viewBox="0 0 512 512" style="enable-background:new 0 0 512 512;" xml:space="preserve">
<g>
	<path d="M256,1.8C115.6,1.8,1.8,115.6,1.8,256c0,140.4,113.8,254.2,254.2,254.2c140.4,0,254.2-113.8,254.2-254.2
		C510.2,115.6,396.4,1.8,256,1.8z M256,438c-100.5,0-182.1-81.5-182.1-182c0-100.5,81.5-182,182.1-182c100.5,0,182,81.5,182,182
		C438,356.5,356.5,438,256,438z"/>
	<path d="M287.4,128.1h-22c-5.2,0-9.4,4.2-9.4,9.4v116.9h-74.2c-5.2,0-9.4,4.2-9.4,9.4v22c0,5.2,4.2,9.4,9.4,9.4h105.5
		c5.2,0,9.4-4.2,9.4-9.4V137.5C296.8,132.3,292.6,128.1,287.4,128.1z"/>
</g>
</svg>
