<?xml version="1.0" encoding="utf-8"?>
<!-- Generator: Adobe Illustrator 16.0.0, SVG Export Plug-In . SVG Version: 6.00 Build 0)  -->
<!DOCTYPE svg PUBLIC "-//W3C//DTD SVG 1.1//EN" "http://www.w3.org/Graphics/SVG/1.1/DTD/svg11.dtd">
<svg version="1.1"
	 id="svg2" xmlns:dc="http://purl.org/dc/elements/1.1/" xmlns:svg="http://www.w3.org/2000/svg" xmlns:cc="http://creativecommons.org/ns#" xmlns:inkscape="http://www.inkscape.org/namespaces/inkscape" xmlns:rdf="http://www.w3.org/1999/02/22-rdf-syntax-ns#" xmlns:sodipodi="http://sodipodi.sourceforge.net/DTD/sodipodi-0.dtd" inkscape:export-filename="R:\Media\Pictures\Logos\Facebook Home (Clear).png" inkscape:version="0.48.3.1 r9886" inkscape:export-ydpi="230.97745" inkscape:export-xdpi="230.97745" sodipodi:docname="Facebook Home (Clear).svg"
	 xmlns="http://www.w3.org/2000/svg" xmlns:xlink="http://www.w3.org/1999/xlink" x="0px" y="0px" width="512px" height="512px"
	 viewBox="0 0 512 512" style="enable-background:new 0 0 512 512;" xml:space="preserve">
<style type="text/css">
<![CDATA[
	.st0{fill:#9B9B9B;}
]]>
</style>
<g>
	<path class="st0" d="M256,375c-21.3,0-38.6,17.3-38.6,38.5c0,21.3,17.3,38.5,38.6,38.5c21.3,0,38.6-17.3,38.6-38.5
		C294.6,392.3,277.3,375,256,375z"/>
	<path class="st0" d="M212.1,121.6l6.9,98.6l78.3-61.3l2.6-37.3l1.1-15.2l2.1-29.7c0-9.3-7.5-16.9-16.9-16.9h-60.3
		c-9.3,0-16.9,7.5-16.9,16.9l2.1,29.7L212.1,121.6z"/>
	<path class="st0" d="M269.3,335.7c9.3,0,16.9-7.5,16.9-16.9l2.2-31.2l-56.2,44c2.9,2.4,6.5,4.1,10.6,4.1H269.3z"/>
	<path class="st0" d="M485.8,398.3c0-0.4,0-1.2,0-1.5c0-16.4,0-50.8-0.1-90.8c0-14.8,0-30.4,0-45.9c0-4.9,0-9.9,0-14.7
		c0-3.3,0-6.6,0-10c0-40.3,0-78,0.1-102.3c0-7,0-13.2,0-17.6c0-0.5,0-1.2,0-1.5c0-2.2,0-3.9,0-5.2c0,0,0-0.1,0-0.2
		c0-1.8,0-2.9,0-2.9c0-20.8-6.3-40.2-16.9-56.7c-3.5-5.2-7.4-10.4-11.8-15.1c-19.3-20.3-46.6-33.7-76.6-33.7h0h-35.1H166.5h-35h-0.1
		c-0.2,0-0.3,0-0.5,0C75.4,0.7,29.1,45.5,26.4,100.5c0,0.1,0,0.2,0,0.3c0,0,0,0.4,0,0.5c-0.1,1.4-0.2,2.8-0.2,4.2c0,0,0,1.2,0,2.9
		c0,1.2,0,3.1,0.1,5.4c0,0.4,0,1,0,1.3c0,16.4,0,50.7,0.1,90.6c0,14.8,0,30.6,0,46.3c0,4.8,0,9.7,0,14.5c0,3.3,0,6.6,0,10
		c0,36.3,0,70.3-0.1,94.6c0,10,0,18.4,0,24.3c0,0.4,0,0.7,0,1.2c0,0.4,0,1.1,0,1.5c0,2.3,0,4.1,0,5.2c0,2,0,2.9,0,2.9
		c0,18.6,5.1,36.1,13.8,51.4c3.2,5.6,6.8,10.9,10.9,15.8c19.5,23.2,48.6,38.2,80.7,38.2h0h35.1h178.9h35.1h0c0.2,0,0.3,0,0.5,0
		c55.5-0.3,101.8-45.3,104.6-100.3c0-0.1,0-0.2,0-0.3c0,0,0-0.4,0-0.5c0.1-1.2,0.2-2.8,0.2-4.2c0,0,0-1.1,0-2.9
		C485.9,402.3,485.9,400.6,485.8,398.3z M45.3,356.2v-91.1V105.6c0-47.9,38.3-86.2,86.2-86.2h249.1c24.4,0,46.2,10,61.8,26.1
		c4.5,4.6,8.2,9.7,11.6,15.2c3.4,5.6,6.1,11.6,8.1,17.9l-168.3,132l-71.5,56l-177,138.5v-24.3L45.3,356.2z M466.7,246.9v159.5
		c0,47.9-38.3,86.2-86.2,86.2H131.4c-26.6,0-49.9-12.1-65.7-30.8c-4.1-4.9-7.7-10-10.6-16c-3.1-5.9-5.5-12.1-7.1-18.7l175.8-137.7
		l68.1-53.1L466.1,99.9c0.1,1.8,0.6,3.6,0.6,5.4v18.4l0,24.3V246.9z"/>
</g>
</svg>
