<?xml version="1.0" encoding="utf-8"?>
<!-- Generator: Adobe Illustrator 16.0.0, SVG Export Plug-In . SVG Version: 6.00 Build 0)  -->
<!DOCTYPE svg PUBLIC "-//W3C//DTD SVG 1.1//EN" "http://www.w3.org/Graphics/SVG/1.1/DTD/svg11.dtd">
<svg version="1.1"
	 id="svg2" inkscape:export-ydpi="230.97745" sodipodi:docname="Facebook Home (Clear).svg" inkscape:export-xdpi="230.97745" inkscape:version="0.48.3.1 r9886" inkscape:export-filename="R:\Media\Pictures\Logos\Facebook Home (Clear).png" xmlns:sodipodi="http://sodipodi.sourceforge.net/DTD/sodipodi-0.dtd" xmlns:rdf="http://www.w3.org/1999/02/22-rdf-syntax-ns#" xmlns:inkscape="http://www.inkscape.org/namespaces/inkscape" xmlns:cc="http://creativecommons.org/ns#" xmlns:svg="http://www.w3.org/2000/svg" xmlns:dc="http://purl.org/dc/elements/1.1/"
	 xmlns="http://www.w3.org/2000/svg" xmlns:xlink="http://www.w3.org/1999/xlink" x="0px" y="0px" width="512px" height="512px"
	 viewBox="0 0 512 512" style="enable-background:new 0 0 512 512;" xml:space="preserve">
<g>
	<path d="M144.6,292.7c3.8-1.9,7.1-3.5,10.3-5.1l0.5-5.5l0.3-3.6c0,0,0.3-0.1,1-0.3c3.1-0.9,12.9-5.4,14.1-26.8c0,0,0-0.1,0-0.3
		c-1.9-2.3-3.6-4.8-5.3-7.4c-0.5-0.3-0.8-0.5-1.5-0.5c-0.1,0-0.2,0-0.4,0c0,0,0.2-0.7,0.4-2.1c-4.9-9.4-8.7-21-9.6-36l-0.1-1l0-1
		c0.1-5.3,1-10.1,2.6-14.6c-2.3-2.3-4.8-4.6-7.8-6.1c-0.9-0.4-2.6-1.6-4.3-1.6c-1.1,0-2.3,0.4-3.1,1.9c0,0-1.1-2.8-3.7-4.8
		c-0.6-0.4-1.4-0.8-2.2-1.1c-2.9-1.1-6.7-1.7-8.6-1.9c-4.2-0.3-7.5-0.3-9.3-0.3c-0.9,0-1.4,0-1.4,0s-17,0.2-31.1,8.1
		c-6.4,3.6-12.1,8.9-15.4,16.6c-1.6,3.7-2.7,8.1-2.9,13.1c-0.8,19.1,2.5,30.8,2.5,30.8c-0.1,0-0.2,0-0.3,0c-6.7,0-6.8,8.3-6.8,8.3
		c0.7,12,4.1,18.7,7.5,22.3c3.8,4.2,7.6,4.8,7.6,4.8l1.1,12.6c1.4,6.8,5.9,10.7,6.8,11.4v1c-3.3,9.3-8.6,15.8-15.5,21.4
		c-10.6,8.6-24.8,14.3-40.9,22.6c-17.6,9.1-24.6,17.5-27.3,22.9c-2,4.2-1.7,8.1-1.7,10c0,3.5,0,9.1,0,13.2c0,4.2,0.9,9.4,2,11.3
		c1.1,1.9,2.7,2.9,3.7,3.5c0.8,0.4,3.4,0.5,3.4,0.5h66.4c-2.3-8.5-2.6-16.9-2.6-20l0-17.8c-0.1-3.6-0.1-10.1,2.3-18.4
		c0.8-2.5,1.7-5.1,3-7.9c2.1-4.2,4.8-8.4,8-12.4c9.2-11.6,23-22.3,41.3-31.6C133.5,298.1,139.1,295.3,144.6,292.7z"/>
	<path d="M510.2,370.5c-2.7-5.5-9.6-13.9-27.3-22.9c-16.1-8.3-30.3-14.1-40.9-22.6c-6.6-5.5-11.9-12-15.2-20.7
		c-0.1-0.3-0.2-0.4-0.3-0.7v-1c0.3-0.3,0.7-0.7,1.2-1.2c1.8-1.6,4.5-5.1,5.5-10.2l0.8-8.7l0.3-3.8c0,0,0.4-0.1,1-0.3
		c1.4-0.3,4-1.6,6.6-4.4c3.4-3.6,6.8-10.3,7.5-22.4c0,0-0.1-4.8-3-7.1c-0.9-0.7-2.2-1.2-3.8-1.2c-0.1,0-0.2,0-0.4,0
		c0,0,2.5-11.7,2.5-30.7c0-4.8-1.2-9.5-2.9-13.9c-2.8-7.1-7.5-13-14.1-16.3c-0.3-0.3-0.8-0.4-1.3-0.7c-0.9-0.3-1.9-1-2.9-1
		c-1.1,0-2.2,0.5-3.1,1.9c0,0-1.1-2.8-3.7-4.7c-0.6-0.4-1.4-0.8-2.2-1.1c-2.9-1.2-6.7-1.6-8.6-1.9c-4.2-0.3-7.5-0.3-9.3-0.3
		c-1,0-1.4,0-1.4,0s-25.7,0.2-40.1,15.2c1.8,5.8,2.3,11,2.4,13.2l0,1l-0.1,1.2c-1,15.8-4.7,27.6-9.6,36.6c0.2,0.9,0.3,1.5,0.3,1.5
		c-0.1,0-0.2,0-0.3,0c-0.4,0-0.6,0.3-0.9,0.3c-1.8,2.9-3.8,5.8-5.8,8.1c1.6,25.5,15.1,26.9,15.1,26.9l0.8,9.3
		c3.3,1.7,6.8,3.5,10.7,5.3c5.3,2.6,10.8,5.5,16.5,8.2c18.2,9.4,32,20,41.3,31.6c3.2,4.1,5.9,8.2,8,12.5c1.3,2.9,2.3,5.5,3,8
		c2.5,8.1,2.4,15.1,2.3,18.5v6.1v11.6c0,3.6-0.3,7.4-0.9,12c-0.5,2.9-1.1,5.5-1.8,8.1h66.5c0,0,0.1,0,0.1,0c0.3,0,2.5-0.3,3.2-0.5
		c1.1-0.5,2.7-1.6,3.8-3.5c0.6-1,1.1-3.2,1.5-5.5c0.3-1.8,0.5-3.8,0.5-5.6c0-2.9,0-6.1,0-8.8c0-1.6,0-3.3,0-4.6
		C511.9,378.5,512.2,374.7,510.2,370.5z"/>
	<path d="M370.2,328.7c-5.7-3-11.2-5.6-16.5-8.3c-2.5-1.2-5.1-2.5-7.6-3.7c-2.5-1.3-4.8-2.5-7.3-3.8c-19.3-10-34.3-20.7-41.8-40.8
		c-0.2-0.7-0.6-1.2-0.8-1.8c0,0,0.9-0.8,2.1-2c2.3-2.3,5.8-6.8,7.2-13.4l1-11.7l0.4-4.8c0,0,0.5-0.1,1.3-0.3c4-1,16.8-6.8,18.5-35.1
		c0,0-0.1-6.2-3.9-9.2c-1.2-1-2.8-1.6-5-1.6c-0.2,0-0.3,0-0.5,0c0,0,3.2-15.2,3.2-40.3c0-17.2-8.4-32.5-22.1-39.3
		c-1.2-0.6-3.4-2-5.6-2c-1.5,0-2.9,0.6-4,2.5c0,0-1.4-3.5-4.8-6.1c-0.8-0.3-1.8-1-2.8-1.5c-3.7-1.6-8.8-2.3-11.2-2.5
		c-5.5-0.5-9.8-0.6-12.1-0.6c-1.2,0-1.9,0-1.9,0s-62.4,0.3-64.5,49.4c-1.1,24.9,3.2,40.3,3.2,40.3c-0.1,0-0.3,0-0.5,0
		c-8.7,0-8.9,10.8-8.9,10.8c2,33.5,19.7,35.4,19.7,35.4l1.5,16.5c2,10,9.3,15.3,9.3,15.3c-7.2,21.3-22.6,32.2-42.4,42.6
		c-2.4,1.2-4.7,2.5-7.2,3.7c-2.5,1.2-5.1,2.5-7.7,3.6c-5.4,2.7-10.9,5.5-16.6,8.1c-23,12-32.1,22.9-35.6,30
		c-2.5,5.1-2.2,9.7-2.2,12.4c0,0.2,0,0.3,0,0.5c0,4.5,0,11.9,0,17.6c0,0.8,0.1,1.6,0.1,2.4c0.3,4.8,1.2,10.1,2.4,12.3
		c1.4,2.3,3.5,3.7,4.8,4.4c1,0.5,4.4,0.8,4.4,0.8h32.5h6.9H224h13.7h8.5h19.7h8.4H288h9.5h59.3h39.4c0,0,0.1,0,0.2,0
		c0.4,0,3.3-0.3,4.1-0.8c1.5-0.7,3.5-2.1,4.9-4.4c0.8-1.5,1.5-4.2,1.9-7.4c0.2-1.6,0.3-3.2,0.4-4.8c0-1,0.2-1.7,0.2-2.5
		c0-3.6,0-7.9,0-11.6c0-2.3,0-4.2,0-6.1c0-0.2,0-0.3,0-0.4c0.1-2.7,0.3-7.4-2.2-12.5C402.3,351.5,393.2,340.5,370.2,328.7z"/>
</g>
</svg>
