<?xml version="1.0" encoding="utf-8"?>
<!-- Generator: Adobe Illustrator 16.0.0, SVG Export Plug-In . SVG Version: 6.00 Build 0)  -->
<!DOCTYPE svg PUBLIC "-//W3C//DTD SVG 1.1//EN" "http://www.w3.org/Graphics/SVG/1.1/DTD/svg11.dtd">
<svg version="1.1"
	 id="svg2" xmlns:dc="http://purl.org/dc/elements/1.1/" xmlns:svg="http://www.w3.org/2000/svg" xmlns:cc="http://creativecommons.org/ns#" xmlns:inkscape="http://www.inkscape.org/namespaces/inkscape" xmlns:rdf="http://www.w3.org/1999/02/22-rdf-syntax-ns#" xmlns:sodipodi="http://sodipodi.sourceforge.net/DTD/sodipodi-0.dtd" inkscape:export-filename="R:\Media\Pictures\Logos\Facebook Home (Clear).png" inkscape:version="0.48.3.1 r9886" inkscape:export-ydpi="230.97745" inkscape:export-xdpi="230.97745" sodipodi:docname="Facebook Home (Clear).svg"
	 xmlns="http://www.w3.org/2000/svg" xmlns:xlink="http://www.w3.org/1999/xlink" x="0px" y="0px" width="512px" height="512px"
	 viewBox="0 0 512 512" style="enable-background:new 0 0 512 512;" xml:space="preserve">
<style type="text/css">
<![CDATA[
	.st0{fill:#9B9B9B;}
]]>
</style>
<g>
	<path class="st0" d="M511.6,382.5c0-0.3,0-0.9,0-1.4c0-17.8,0-60.5-0.1-106.5c0-2.9,0-5.9,0-8.9c0-4.3,0-8.6,0-13.1
		c-0.1-67-0.1-133.8-0.2-134.4c-1.8-38.8-28.1-71.6-63.5-84.1c-2.6-1-5.4-1.8-8.2-2.5c-1.8-0.5-3.9-1-6-1.3
		c-5.1-0.9-10.3-1.6-15.7-1.6h-93.3c1.8,4.8,2.8,9.9,3.2,15.2h90.2c4.4,0,8.7,0.5,12.9,1.2c1.8,0.3,3.5,0.6,5.3,1
		c1.8,0.4,3.3,1.1,5.2,1.6c4.6,1.5,9,3.2,13.1,5.6c23.8,12.9,40.1,37.8,40.1,67v127.3v141.6c0,42.6-34,76.6-76.6,76.6H196.8
		c-42.6,0-76.6-34-76.6-76.6v-93.8h-17c0,37.4,0,70.2-0.1,85.1c0,0.5,0,1.1,0,1.4c0,2.1,0,3.6,0,4.8c0,1.6,0,2.5,0,2.5
		c0,51.1,42.6,93.6,93.6,93.6h221.2c51.1,0,93.6-42.6,93.6-93.6c0,0,0-1,0-2.5C511.6,386.1,511.6,384.6,511.6,382.5z"/>
	<path class="st0" d="M120.2,261.9h22.1l95.6,84.3v-84.3h39c9.4,0,17-7.4,17-17V46.1c0-0.6-0.3-1.1-0.4-1.8
		c-0.9-8.6-7.9-15.2-16.7-15.2h-80.2H17.3c-9.4,0-17,7.6-17,17v198.8c0,9.6,7.6,17,17,17h85.9L120.2,261.9L120.2,261.9z"/>
</g>
</svg>
