<?xml version="1.0" encoding="utf-8"?>
<!-- Generator: Adobe Illustrator 16.0.0, SVG Export Plug-In . SVG Version: 6.00 Build 0)  -->
<!DOCTYPE svg PUBLIC "-//W3C//DTD SVG 1.1//EN" "http://www.w3.org/Graphics/SVG/1.1/DTD/svg11.dtd">
<svg version="1.1"
	 id="svg2" inkscape:export-filename="R:\Media\Pictures\Logos\Facebook Home (Clear).png" inkscape:export-ydpi="230.97745" inkscape:export-xdpi="230.97745" sodipodi:docname="Facebook Home (Clear).svg" inkscape:version="0.48.3.1 r9886" xmlns:sodipodi="http://sodipodi.sourceforge.net/DTD/sodipodi-0.dtd" xmlns:inkscape="http://www.inkscape.org/namespaces/inkscape" xmlns:cc="http://creativecommons.org/ns#" xmlns:svg="http://www.w3.org/2000/svg" xmlns:rdf="http://www.w3.org/1999/02/22-rdf-syntax-ns#" xmlns:dc="http://purl.org/dc/elements/1.1/"
	 xmlns="http://www.w3.org/2000/svg" xmlns:xlink="http://www.w3.org/1999/xlink" x="0px" y="0px" width="512px" height="512px"
	 viewBox="0 0 512 512" style="enable-background:new 0 0 512 512;" xml:space="preserve">
<g>
	<path d="M369.7,261.6c-3.3-13.2-19.6-23.7-32.2-17.6l-47.8,22.3v15.9h-94.6L121,452.3c-5.7,12.8,0.6,29.1,13.8,36.6
		c13.2,7.5,28.5,3.1,33.9-9.7l60.5-139.1c5.3,1.6,11.1,2.2,17,2.2c5.5,0,10.8-1,15.6-2.8l68-31.8l14.9,60
		c3.3,13.3,16.9,21.5,30.3,18.1c13.3-3.3,21.5-16.8,18.1-30.2L369.7,261.6z"/>
	<path d="M305.5,226.2v15.9C409,190.7,449.2,14.7,449.2,0H435C429.6,36.7,385.1,183.6,305.5,226.2z"/>
	<path d="M140.4,211.8l54.7-21.5v76h94.6v-88l84.8-135.6c6.2-9.9,3.3-23-6.7-29.4c-9.9-6.2-23-3.3-28.6,6.3l-72,115.3l-43.4,0.1
		c-2.8,0-5.6,0.4-8.3,1.6L140.6,166L102,107.5c-6.3-9.8-19.5-12.7-29.4-6.3c-9.9,6.3-12.8,19.6-6.5,29.5l48.2,73
		C119.8,212,130.7,215.8,140.4,211.8z"/>
	<path d="M235.9,127.3c20.8,0,37.7-16.8,37.7-37.6c0-20.8-16.9-37.7-37.7-37.7c-20.8,0-37.7,16.9-37.7,37.7
		C198.2,110.5,215.1,127.3,235.9,127.3z"/>
	<polygon points="273.8,512 289.7,512 289.7,342.3 273.8,349.8 	"/>
</g>
</svg>
