<?xml version="1.0" encoding="utf-8"?>
<!-- Generator: Adobe Illustrator 16.0.0, SVG Export Plug-In . SVG Version: 6.00 Build 0)  -->
<!DOCTYPE svg PUBLIC "-//W3C//DTD SVG 1.1//EN" "http://www.w3.org/Graphics/SVG/1.1/DTD/svg11.dtd">
<svg version="1.1"
	 id="svg2" xmlns:sodipodi="http://sodipodi.sourceforge.net/DTD/sodipodi-0.dtd" xmlns:rdf="http://www.w3.org/1999/02/22-rdf-syntax-ns#" xmlns:dc="http://purl.org/dc/elements/1.1/" xmlns:svg="http://www.w3.org/2000/svg" xmlns:cc="http://creativecommons.org/ns#" xmlns:inkscape="http://www.inkscape.org/namespaces/inkscape" inkscape:export-filename="R:\Media\Pictures\Logos\Facebook Home (Clear).png" inkscape:export-ydpi="230.97745" sodipodi:docname="Facebook Home (Clear).svg" inkscape:version="0.48.3.1 r9886" inkscape:export-xdpi="230.97745"
	 xmlns="http://www.w3.org/2000/svg" xmlns:xlink="http://www.w3.org/1999/xlink" x="0px" y="0px" width="512px" height="512px"
	 viewBox="0 0 512 512" style="enable-background:new 0 0 512 512;" xml:space="preserve">
<g>
	<path d="M419.6,0.3H92.4c-27.9,0-49.3,21.4-49.3,49.3V271v191.4c0,7,1.3,13.6,3.8,19.5c0.1,0.1,0.2,0.3,0.2,0.4
		c6.2,14.6,19,25.3,35.2,28.4c3.3,0.6,6.7,1,10.1,1h213V387.6c0-27.2,22.1-49.3,49.3-49.3h114.2v-61.8V49.6
		C468.9,21.7,447.6,0.3,419.6,0.3z M319.5,212.5c-3.4,7.6-7.9,14.1-13.6,19.7c-5.7,5.5-12.5,9.8-20.2,12.8c-7.7,3-16.2,4.5-25.6,4.5
		c-11.5,0-21.7-2.1-30.8-6.4c-9.1-4.2-16.8-10-23.1-17.3c-6.3-7.3-11.1-15.8-14.5-25.6c-3.4-9.7-5-20.1-5-31.2
		c0-10.9,1.7-21.2,5-30.9c3.4-9.7,8.2-18.3,14.5-25.6c6.3-7.3,14-13.1,23.1-17.4c9.1-4.3,19.4-6.5,30.8-6.5c8.6,0,16.7,1.2,24.3,3.5
		c7.6,2.4,14.3,5.8,20.1,10.3c5.8,4.5,10.5,10,14.1,16.4c3.6,6.5,5.8,13.8,6.7,22.1h-26.9c-1.1-4.4-2.7-8.5-4.7-12.3
		c-2-3.7-4.6-6.9-7.7-9.7c-3.1-2.7-6.8-4.8-11.1-6.3c-4.2-1.5-9.1-2.2-14.7-2.2c-8.2,0-15.2,1.6-21.2,4.9
		c-5.9,3.3-10.8,7.7-14.5,13.2c-3.7,5.5-6.5,11.8-8.3,18.8c-1.8,7-2.7,14.2-2.7,21.5c0,7.3,0.9,14.5,2.7,21.5
		c1.8,7,4.5,13.3,8.3,18.8c3.7,5.5,8.6,9.9,14.5,13.2c5.9,3.3,13,5,21.2,5c6,0,11.3-1.1,15.9-3.1c4.6-2.1,8.5-4.9,11.8-8.6
		c3.3-3.7,5.9-7.9,7.7-12.8c1.9-4.9,3.1-10.1,3.7-15.7h26.2C324.8,196.5,322.9,204.9,319.5,212.5z"/>
	<path d="M321.8,387.6v124.1l147.1-156.9H354.7C336.6,354.7,321.8,369.5,321.8,387.6z"/>
</g>
</svg>
