<?xml version="1.0" encoding="utf-8"?>
<!-- Generator: Adobe Illustrator 16.0.0, SVG Export Plug-In . SVG Version: 6.00 Build 0)  -->
<!DOCTYPE svg PUBLIC "-//W3C//DTD SVG 1.1//EN" "http://www.w3.org/Graphics/SVG/1.1/DTD/svg11.dtd">
<svg version="1.1"
	 id="svg2" xmlns:svg="http://www.w3.org/2000/svg" xmlns:cc="http://creativecommons.org/ns#" xmlns:rdf="http://www.w3.org/1999/02/22-rdf-syntax-ns#" xmlns:inkscape="http://www.inkscape.org/namespaces/inkscape" xmlns:dc="http://purl.org/dc/elements/1.1/" xmlns:sodipodi="http://sodipodi.sourceforge.net/DTD/sodipodi-0.dtd" inkscape:version="0.48.3.1 r9886" inkscape:export-ydpi="230.97745" inkscape:export-xdpi="230.97745" sodipodi:docname="Facebook Home (Clear).svg" inkscape:export-filename="R:\Media\Pictures\Logos\Facebook Home (Clear).png"
	 xmlns="http://www.w3.org/2000/svg" xmlns:xlink="http://www.w3.org/1999/xlink" x="0px" y="0px" width="512px" height="512px"
	 viewBox="0 0 512 512" style="enable-background:new 0 0 512 512;" xml:space="preserve">
<g>
	<path d="M511.6,233.9L511.6,233.9c-0.1-52.2-0.1-99.1-0.1-99.5c-1.6-34.2-24.8-63.2-56-74c-2.4-0.9-4.9-1.6-7.4-2.3
		c-1.7-0.4-3.4-0.8-5.2-1.1c-4.5-0.8-9.1-1.4-13.8-1.4H234c-4.7,0-9.4,0.6-13.9,1.4c-1.8,0.3-3.4,0.7-5.2,1.1
		c-2.5,0.6-5,1.4-7.4,2.3c-14.1,4.9-26.5,13.7-36.1,24.9c3.3,0,8.2,0.2,14.3,0.8c0.8,0.1,2,0.2,3.4,0.4c3.9-3.4,8.1-6.5,12.8-9
		c3.7-2,7.6-3.6,11.6-4.9c1.6-0.5,3-1,4.6-1.4c1.5-0.4,3-0.6,4.5-0.9c3.7-0.6,7.5-1.1,11.4-1.1h195.1c3.9,0,7.7,0.5,11.3,1.1
		c1.6,0.3,3.1,0.6,4.6,0.9c1.6,0.4,3.1,0.9,4.6,1.4c4,1.3,7.9,2.9,11.6,4.9c21.1,11.4,35.4,33.4,35.4,59.2v112.2v125
		c0,10.2-2.4,19.8-6.4,28.5c3.6,8.1,3.6,15.5,3.5,19.2v3c11.1-14.1,17.8-31.7,17.8-50.7c0,0,0-0.2,0-0.7
		C511.7,366.2,511.7,296.4,511.6,233.9z"/>
	<path d="M439.9,381.6c-31.7-16.4-57.6-24.6-68-52.5c-0.2-0.6-0.6-1.1-0.8-1.7c0,0,0.9-0.7,2-1.8c2.1-2.2,5.4-6.3,6.6-12.4l1-10.8
		l0.4-4.6c0,0,0.4-0.1,1.2-0.3c3.8-1.1,15.6-6.5,17.2-32.6c0,0-0.1-5.8-3.7-8.6c-1.1-0.9-2.6-1.5-4.6-1.5c-0.2,0-0.3,0-0.4,0
		c0,0,3-14.2,3-37.4c0-15.9-7.8-30.1-20.6-36.5c-1.1-0.6-3.2-1.8-5.2-1.8c-1.4,0-2.7,0.6-3.8,2.3c0,0-1.3-3.3-4.5-5.7
		c-0.7-0.5-1.6-0.9-2.6-1.3c-3.4-1.4-8.2-2.1-10.4-2.4c-5.1-0.4-9.1-0.5-11.3-0.5c-1.1,0-1.7,0-1.7,0s-51.7,0.1-59.1,38.8
		c3.7,8.4,4.3,16.1,4.4,19.3l0,1.3l-0.1,1.3c-0.4,7.4-1.4,14-2.9,19.9c-0.2,1.1-0.6,2-0.9,3c-1.7,6.2-3.9,11.6-6.3,16.3
		c3.6,24.7,17.5,26.5,17.5,26.5l1.4,15.4c1.8,9.3,8.6,14.3,8.6,14.3c-0.4,1.3-1.1,2.4-1.6,3.6c4.4,2.2,8.9,4.3,13.5,6.7
		c27.1,13.9,45.3,30.2,54.1,48.4c6.1,12.6,6,23.9,5.9,29.1v6.5v12.7c0,2.1-0.3,4.6-0.6,6.9c-0.2,2.1-0.1,4-0.5,6.2
		c-0.5,3.3-1.2,6-2,8.8h6.9h56.8h34.9c0,0,0.1,0,0.1,0c0.4,0,3-0.2,3.9-0.7c1.4-0.7,3.3-1.9,4.6-4.1c0.7-1.3,1.3-3.9,1.8-6.8
		c0.1-0.8,0.1-1.6,0.2-2.3c0.2-1.5,0.4-3.1,0.4-4.5c0-3.4,0-7.3,0-10.8c0-1.4,0-2.6,0-3.8c0-0.6,0-1.3,0-1.8c0-2.4,0.4-7-2.1-12
		C469.7,402.8,461.3,392.5,439.9,381.6z"/>
	<path d="M292.7,367.9c-7.1-3.7-13.9-6.9-20.4-10.2c-3.3-1.6-6.5-3.3-9.7-4.8c-3.4-1.7-6.7-3.5-9.9-5.2
		c-18.5-10.3-32.8-21.7-40.3-41.8c-0.3-0.7-0.6-1.3-0.9-2c0,0,1-0.9,2.3-2.2c2.5-2.6,6.4-7.4,7.9-14.7l1.1-12.8l0.5-5.4
		c0,0,0.5-0.1,1.4-0.3c4.4-1.3,18.5-7.7,20.3-38.6c0,0-0.1-6.8-4.3-10.1c-1.4-1.1-3.1-1.8-5.5-1.8c-0.2,0-0.3,0-0.5,0
		c0,0,3.5-16.8,3.5-44.2c0-18.9-9.2-35.6-24.3-43.2c-1.3-0.7-3.8-2.2-6.2-2.2c-1.6,0-3.2,0.7-4.4,2.7c0,0-1.6-4-5.3-6.7
		c-0.8-0.6-1.9-1.1-3.1-1.6c-4.1-1.7-9.7-2.5-12.3-2.8c-6-0.6-10.8-0.7-13.3-0.7c-0.3,0-0.4,0-0.6,0c-0.9,0-1.5,0-1.5,0
		s-5.7,0-13.7,1.3c-20.1,3.2-55.5,14.3-57.2,53c-1.2,27.4,3.5,44.2,3.5,44.2c-0.2,0-0.4,0-0.5,0c-9.6,0-9.7,11.9-9.7,11.9
		c2.2,36.8,21.7,38.9,21.7,38.9L113,287c2.2,10.9,10.2,16.9,10.2,16.9c-11.8,34.7-43,44.4-81.3,64.1c-25.2,13-35.2,25.1-39.1,33
		c-2.9,5.9-2.4,11.4-2.4,14.2c0,5,0,13,0,19.3c0,6,1.2,13.5,2.8,16.2c1.5,2.7,3.8,4.1,5.3,4.9c1.1,0.6,4.8,0.8,4.8,0.8h163.2h10.3
		h16.6h9.4H234h87.3c0,0,0.1,0,0.2,0c0.5,0,3.6-0.2,4.5-0.8c1.6-0.8,3.9-2.3,5.4-4.9c0.9-1.5,1.6-4.6,2.2-8c0.1-0.4,0-0.8,0.1-1.2
		c0.3-2.3,0.6-4.7,0.6-6.9c0-4,0-8.6,0-12.7c0-2.4,0-4.7,0-6.5c0-2.8,0.5-8.3-2.4-14.2C328,393.1,318,381,292.7,367.9z"/>
</g>
</svg>
