<?xml version="1.0" encoding="utf-8"?>
<!-- Generator: Adobe Illustrator 16.0.0, SVG Export Plug-In . SVG Version: 6.00 Build 0)  -->
<!DOCTYPE svg PUBLIC "-//W3C//DTD SVG 1.1//EN" "http://www.w3.org/Graphics/SVG/1.1/DTD/svg11.dtd">
<svg version="1.1"
	 id="svg2" xmlns:svg="http://www.w3.org/2000/svg" xmlns:cc="http://creativecommons.org/ns#" xmlns:rdf="http://www.w3.org/1999/02/22-rdf-syntax-ns#" xmlns:inkscape="http://www.inkscape.org/namespaces/inkscape" xmlns:dc="http://purl.org/dc/elements/1.1/" xmlns:sodipodi="http://sodipodi.sourceforge.net/DTD/sodipodi-0.dtd" inkscape:version="0.48.3.1 r9886" inkscape:export-ydpi="230.97745" inkscape:export-xdpi="230.97745" sodipodi:docname="Facebook Home (Clear).svg" inkscape:export-filename="R:\Media\Pictures\Logos\Facebook Home (Clear).png"
	 xmlns="http://www.w3.org/2000/svg" xmlns:xlink="http://www.w3.org/1999/xlink" x="0px" y="0px" width="512px" height="512px"
	 viewBox="0 0 512 512" style="enable-background:new 0 0 512 512;" xml:space="preserve">
<g>
	<path d="M237.8,184c0-0.2,0.1-0.4,0.1-0.6l0-2l-2,0.6c-0.1,0-0.1,0-0.2,0.1l0-1l-3.1,0.2l-0.3,1.5c-0.1,0.5-0.2,0.9-0.2,1.7l0,0.9
		l0.8,0.4c0.6,0.3,1.2,1,1.6,1.7l0.4,0.8l2.2-0.2l0.4-0.7c0.1-0.2,0.1-0.2,0.2-0.3c0.4-0.5,0.6-0.9,0.7-1.9l-0.1-1.1L237.8,184z"/>
	<path d="M166.1,126.4l-2.2,0.8c-0.3,0.1-0.5,0.2-0.7,0.4l-1.5,0.3l-0.5,0.2c-0.2-0.1-0.5-0.1-0.9-0.1l-1.8,0.1l0.2,4.2l0.4,0.1
		l-0.2,1.9l0.8,0.1l0,1.7l1.5-0.4l0,0.4l0.2,0c0.3,0.7,0.7,1.2,1.1,1.7c0.1,0.2,0.3,0.3,0.4,0.5l0.4,0.6l1.2,0c0.4,0.6,1,0.8,2,0.9
		l1.7,0.1l-0.3-1.7c-0.1-0.4-0.2-0.7-0.3-1l0.7-0.2l-0.4-2.4l-0.7-0.2c0-0.4-0.2-1-0.8-1.4h0c-0.2-0.5-0.6-0.8-0.9-1l-0.3-0.2l0-0.8
		c0.1-0.2,0.1-0.4,0.2-0.5c0.1-0.1,0.1-0.3,0.2-0.4l0.1,0l-0.1-0.2c0.1-0.3,0.2-0.7,0.3-1L166.1,126.4z"/>
	<path d="M302.3,380.8l-1.2,0.8l0.5,0.8l-0.2,0.6l0.9,0.3c0.2,0.2,0.7,0.4,1.3,0.4c0.8,0,1.8-0.4,2.4-0.9h0.7l0.2-0.7l0.7,0.7v-3
		l1.5-2.2h-2.6l-1.1,0l-0.4-1.7H302l0,3.3h0.7l0.1,1.4c0,0,0,0,0,0C302.6,380.6,302.5,380.7,302.3,380.8z"/>
	<polygon points="370.8,283.9 371.3,284 371.4,283.9 371.5,283.9 371.4,284.1 373.2,284.4 373.4,281.2 368.7,281.1 370.4,283.5 	"/>
	<path d="M361.6,293.6c-0.3-0.1-0.5-0.1-0.6-0.2l-0.5-1l-1.8-0.1l0-0.2l-1-0.3l-0.4-0.4h-0.6c-1.4,0-2.4,0.3-2.7,0.6l-1.2,0.4
		l-0.9,3.2l0.8,0l0.1,0.3l1.3,0l0.2,0.4l0.4,0.3l0.1,0.8l1.9,0.4l0,0.5l1.7,0c0.8,0,1.4-0.3,1.7-0.7l0.9,0l1.4-0.1v-0.1l0.6,0
		l-0.7-3.7L361.6,293.6z"/>
	<path d="M398.2,294.5l-1.5,0.2l-1.3-0.1c-1.2-0.1-2.2-0.1-2.9,0.2l-1,0.3l0.1,1.1c0.1,1,0.3,1.5,0.6,2.1c0.1,0.1,0.1,0.2,0.2,0.4
		l0.3,0.7l0.8,0.1v0.3l1.6,0.1c1.4,0,2-0.5,2.6-1c0.2-0.2,0.3-0.3,0.5-0.4l0.7-0.4l0.1-2.9l-0.8-0.1L398.2,294.5z"/>
	<path d="M412.6,313.7l-1.5-0.1l0.9-0.9l-0.3-0.9c0-0.1-0.1-0.2-0.2-0.3l0.1-1.6l-1.4-0.1c0.2-0.1,0.3-0.1,0.6-0.2l1.1-0.2l0.2-3
		l-2.6-0.2l-1.3,0.2l-0.8-0.1l0.8,3.3l-0.1,0l0.3,1.7l0.4,1.8l0,0.4h0.2l0.1,0.2l0.5,0l0.2,1.3c0.1,1.1,0.5,2.3,2.1,2.8l1.8,0.6
		v-1.9c0-1-0.1-1.3-0.5-2.2L412.6,313.7z"/>
	<path d="M356.6,268.8l1.3,0l0.1-2.5l-0.2-1.4l-0.5,0c-0.1-0.1-0.1-0.2-0.2-0.4l-0.4-0.8l-3.2-0.1l-0.2,1.2
		c-0.1,0.4-0.1,0.5-0.3,0.8l-0.7,1.6l1.1,0.6C354.5,268.4,355.1,268.8,356.6,268.8z"/>
	<path d="M388.8,292.5c-0.2-0.2-0.3-0.4-0.4-0.7l-0.4-0.8l-0.9,0c-0.2,0-0.4,0-0.6,0c-0.2,0-0.5,0-0.8,0l-0.4-0.2
		c-0.3-0.2-0.5-0.3-0.8-0.4c-0.1-0.1-0.2-0.3-0.3-0.4l-0.3-0.8l-0.4,0l-0.2-0.6l-1.4-0.1l-0.6-1l-1.4,0.2l-0.6-0.1
		c-0.7-0.2-1.3-0.3-2,0.4l-1.2,0v0.1c-0.1,0-0.1,0-0.2,0c-0.1-0.1-0.3-0.2-0.4-0.3l-0.4-0.5l-4.8-0.3l-0.6-1.4
		c-0.1-0.4-0.1-0.8-0.3-1.1l-0.6-0.6l-0.1,0c-0.8-0.8-1.9-0.8-2.6-0.8c-0.2,0-0.4,0-0.6,0c0-0.3,0.1-0.6,0.1-1l0-1.3l-0.7,0l0,0
		l-1.1-0.3l-0.6-0.1c-0.4,0-0.7,0.1-1,0.2l-0.3-0.1c0-0.1-0.1-0.2-0.2-0.3l-0.3-0.3l-0.4-1.6l-1,0.3c-0.1-0.1-0.1-0.2-0.2-0.3
		c-0.1-0.2-0.2-0.4-0.3-0.6l-0.4-0.7l-1,0l0-0.4l-1.1-0.2v-0.6l-0.5,0v-0.3l-1.3-0.1l-2.5-0.9l-0.5-1.7l-0.5,0
		c-0.4-0.4-0.9-0.7-1.6-0.7l-0.3,0l-0.7-1.1l-1.4,0.2l-2.5-0.5h-0.4l-0.1-0.3l-3.2-0.1l-0.8,0.1l-2.4-0.5l0,0.5l-0.5,0l0,0.3l-0.3,0
		l-0.4,0.8l-0.8,0.3l-1.1,0l-0.1,1.1c-0.2,0.2-0.3,0.4-0.5,0.5c-0.2,0.2-0.4,0.5-0.6,0.6l-0.7,0.5l0.1,0.8l-0.3,0.4c0,0,0,0,0,0
		l-0.8,0.8l1,2.4l3.5-0.7l1.1-0.1l0,0.2l-0.7,0.4v1.9l1.2,0.6h0.3c0.5,0,1-0.2,1.5-0.3c0.2-0.1,0.5-0.2,0.6-0.2l1.1-0.1l0.6-4.1
		l0.8,0.2l0,0.5l1.9,0.1l0.3,0.4l0,0.4l1.4,0.1c0,0.1,0,0.2,0.1,0.3l0.1,0.8l0.6,0.2l0,0.7l1.4,0l0.9,1.2l2.7-0.1l0,0.8l0.5,0.4
		c0.1,0.1,0.2,0.3,0.3,0.5c0.1,0.3,0.3,0.6,0.5,0.9l0.6,0.5v0.6l0.9,0.3c0.4,0.1,0.8,0.3,1.3,0.4c-0.2,0.1-0.3,0.2-0.5,0.4l-1,0.5
		l0.8,3l7-0.5l0-0.3c0.5,0,0.9,0.1,1.4,0.2c1,0.2,1.8,0.2,2.4,0.1l1.5-0.4v-0.4c0.1,0,0.1-0.1,0.2-0.1l1.8-0.1l0.9,1.6
		c0.4,0.7,0.9,1,1.3,1.1c-0.1,0.4-0.2,1-0.1,1.7l-1.8,0.3l-0.1-0.4l-0.5,0l0-0.3l-2.7-0.1l-0.1,0.6l-1.2,0.2l0,1.1
		c0,0.9,0.1,1.2,0.3,1.8l0.2,0.6l0.5,0.2c0.1,0,0.2,0.1,0.2,0.1v0.2l0.9,0.3c0.7,0.3,1.6,0.2,2.3,0.1c0.1,0,0.1,0,0.2,0l5.3,0.3
		c0,0.3,0.1,0.5,0.3,0.8l0.3,0.9l1.3,0.1l1.4-0.2l0-0.5c0.3-0.2,0.5-0.3,0.6-0.6l1,0.1l-0.1-0.5c0.9,0.4,2,0.4,2.9-0.2l1.1,0.1
		l0-0.7l2.7,0.4l0-0.2c0.5,0,0.9-0.1,1.3-0.2l1-0.3l-0.1-1.1C389.8,293.8,389.2,293.1,388.8,292.5z M351.5,278.2l-0.7-1.1l-0.5,0
		l-0.7-0.3c-0.3-1.1-0.7-1.4-0.9-1.5l-0.3-0.2h0l0-0.3l-1.1,0l-0.3-0.6l-1.3-0.2l1.9-0.3l0.2,0.4l0.3,0.2c0.5,0.3,1,0.4,1.5,0.4
		v-1.4l0.2,0.9l-0.1,0l0.1,0.4c-0.1,0-0.2,0-0.2,0l0.4,1.7l0.6,0.2v0.4l1.3,0.3v0.5l1.5,0.1L351.5,278.2z M365.2,286L365.2,286
		c-0.1,0-0.2,0-0.3,0c-1.2-0.2-2.5-0.3-3.5-0.1l-0.5,0.3l-1.4,0.1l0.5-2.6l-1.1-0.4c-0.6-0.2-1.1-0.4-1.7-0.6l-1.1-0.8
		c-0.1-0.1-0.1-0.2-0.2-0.3c-0.1-0.3-0.3-0.6-0.5-0.9l0-1.1l1.8,0.1c0.2,0.3,0.4,0.7,0.5,1.1l0.4,1.3l0.8-0.3l0.3,0.5h0
		c0.3,0.4,0.7,0.6,1.1,0.7c0.5,0.4,1.1,0.6,1.7,0.5l0.3,0c0,0,0,0.1,0,0.1l-0.7,1.8l2,0.1c0.7,0.4,1.5,0.5,2.1,0.5
		c0.1,0,0.1,0,0.2,0L365.2,286z M382.3,293.4l-0.1,1.5c-0.3,0-0.9-0.4-1.3-0.7c-0.3-0.2-0.5-0.3-0.8-0.5l-0.2-0.1
		c-0.2-0.1-0.4-0.2-0.7-0.3l-1.6-0.5l-0.2,1.6c0,0,0,0.1,0,0.1l-1.2-0.1l0.1-2.5l-0.9-0.1l-0.3-1.1l0.3,0l0.1,0
		c0.5,0.1,1.3,0.3,2.1,0.1l0.8-0.3l1.1-0.2l0.4,0.7l1.2,0.1l0.3,0.6l0.5,0c0.1,0.1,0.1,0.1,0,0.1l0.2,0.9l0.7,0.1l0,0.1l0.8,0.4
		c0.2,0.1,0.3,0.1,0.5,0.2L382.3,293.4z"/>
	<path d="M408.6,127.5c0.1,0.3,0.2,0.4,0.2,0.8l0.1,1.3l1.3-0.1c0.7,0,1.1-0.2,1.7-0.4l0.9-0.3l0.1-2.7l-0.9-0.4
		c-0.2-0.1-0.3-0.1-0.4-0.3c-0.4-0.4-0.8-0.8-1.9-1.1l-1.8-0.5l0.1,1.9C408.2,126.5,408.4,127.1,408.6,127.5z"/>
	<polygon points="403.1,118.7 405.4,118.9 405.5,116.6 405.3,115.3 404,115 403.3,116.2 403.9,114.9 400.7,113.5 402.1,116.7 	"/>
	<path d="M373.1,168.6l0.5-0.5c0.2-0.2,0.5-0.3,0.9-0.4c0.7-0.3,1.5-0.6,2.1-1.4l2.1-3l-3.5,0.9l-3.4-1.4l0,0.8l-0.5,0l-0.1,2.3
		l-0.3,0.1l-0.1,1.2l0.5,1.3L373.1,168.6z"/>
	<path d="M389.4,130.4l0.6,0.9l1-0.4c0.2-0.1,0.4-0.2,0.6-0.4l1.8,0.8l0.1-1.8c0.6-0.8,0.6-1.9,0.7-2.6l0-0.7l-2.5-2l-0.8,1.2
		c-0.2,0.3-0.4,0.4-0.5,0.6c-0.6,0.6-1.3,1.4-1.5,3.1l-0.1,0.7L389.4,130.4C389.4,130.4,389.4,130.4,389.4,130.4z"/>
	<path d="M379.3,133c-0.2,0.3-0.6,0.5-1.1,0.7c-0.7,0.4-1.6,0.9-2.2,1.9c-0.1,0-0.1,0-0.2,0.1l-1,0.5l-0.1,2.1l2.7,0.7l1,0l0.3-0.3
		c0.2,0,0.3-0.1,0.5-0.2l0.1-0.1l0.6,0.1l0.3-0.5l2.1,0.1l0.5-0.6c0,0,0.1,0,0.4-0.1l1.2-0.1l0.1-1.7l-1.4,0l1.4,0l0-1.5l-1.9,0.2
		l0.1-0.5l-0.6-0.5c0,0,0,0,0,0l-0.4-0.6l-2-0.2L379.3,133z"/>
	<path d="M379.7,114l-2.2-0.5l0,0.9l-0.7,0.3l0.2,1.1c0.2,1.3,2,1.4,2.1,1.4h0.6l0.2-0.2l0.2,0l0-0.3l1.1-1l-0.9-1.2L379.7,114z"/>
	<path d="M373.4,108.2l0,0.4l3.1,0.3l-0.1,1.5l0.2,1.3l1.9,0.1l1.7-1.1l0.1-1.8l-0.2-1.6l-1.6,0.2c-0.5,0.1-0.9,0.2-1.3,0.6l-0.3,0
		l0.1-2.5l-0.9-0.3c-0.2-0.1-0.3-0.1-0.5-0.3c-0.4-0.3-0.9-0.7-2-0.8l-1.1,0l-0.4,1c-0.2,0.4-0.3,0.6-0.3,1.3l-0.1,1l0.9,0.4
		C372.8,108,373.1,108.1,373.4,108.2z"/>
	<path d="M396,124.9l0-0.3l1.2,0.1l0-1.5c0-0.1,0-0.2,0-0.3l0.3-0.1l0.1-3l-0.2-1.3l-1.3-0.1l-1.3,0.1l-0.4-0.1l-0.1,1.5l-1.1,0.6
		l-0.1,2.8l0.2,1.3L396,124.9z"/>
	<path d="M377.5,167.6l-2.4-0.2l-0.6,4l0.4,1.5l2.8,0.2l0.1-1.4c0-0.4,0.1-0.7,0.1-1c0.1-0.7,0.2-1.3-0.1-2.2L377.5,167.6z"/>
	<path d="M355.5,72.9l0.2,0.3l0.5,0.1l0.6-1.2l-0.5,1.3l1.1,0.4l0.5-1.1c0.1-0.2,0.2-0.4,0.3-0.5l2.8,0.2l-2.2-2.4l0.5-3.4l-1.9,0.3
		c-1.4,0.3-2.1,1.2-2.5,1.8c-0.2,0.3-0.4,0.5-0.6,0.6l-0.9,0.5l0.2,1C354.1,72,354.5,72.5,355.5,72.9z"/>
	<path d="M353.9,105.7l0.8,0.4l0,0l-1.1-0.3l-0.4,2.1l2.2-0.4c0.2,0,0.4-0.1,0.5-0.1l0.8,0.1l1.4-0.2l0.1-1.1l0.1,0l0.4-0.8
		c0.1-0.3,0.2-0.5,0.4-2.3l0.2-1.6l-2-0.7l0-0.7l-1.5,0.2l-0.4-0.1l0,0.2l-2.2,0.3l-0.1,3.3h0.1l-0.4,2.1L353.9,105.7z"/>
	<path d="M288.4,136l0.4-0.2l0.2-0.6c0.3-1.2-0.5-2.1-1.1-2.8c-0.1-0.5-0.2-0.9-0.2-1.4l-0.7-1l-0.4-0.2c-0.2-0.3-0.3-0.5-0.3-1.7
		l-0.2-1.8l-1.2,0.4c-0.3-0.4-0.7-0.5-1.1-0.8l-0.7-0.7l-0.2,0.1c0-0.7,0-1.3,0.1-2.1c0-0.4,0.1-0.8,0.1-1.2l0.3,0.8l0.6,0.2
		c1,0.4,2.1,1.2,2.4,1.8l0.7,1.1l0.3-0.2l0.5,2.5l1.4,0l-0.1,1.7l1.2,0l0,2.5l0.1,1.4h0.3l0.3,1.9l3.6-0.1l0-1.1l1.4-0.6l0.1-1.1
		l-0.2-1.5l-0.1,0l-0.2-0.9c0-0.1,0.1-0.2,0.2-0.3c0.2-0.4,0.5-0.9,0.6-1.6l0.3-1.6l-1.6,0c-0.5,0-0.8-0.1-1.2-0.2l-0.2-0.7
		l-0.7-0.5l-0.2-1.1l-0.3-0.6c0.1-0.4,0.1-0.9-0.1-1.3l-0.2-0.4l-0.4-0.2l-0.3-1.1l-0.4-0.2l0-0.7l-0.8-0.5l0-1.3l-0.6-0.3l-0.2-1
		h-0.1l-0.2-1.1l-0.2,0c0-0.2,0-0.5,0.1-0.8c0-0.3,0.1-0.6,0.1-1l0.1-1.5l-1,0l-0.2-1.1h-2l-0.4,0.5c0,0,0,0,0,0l-0.3,0.3
		c0,0,0,0,0,0l-0.7,0.5l0.1,0.4c-0.1,0-0.1,0-0.1,0l-1.6,0.1v1c-0.4,0.6-0.6,1.2-0.7,1.6c0,0,0,0.1,0,0.1l-0.3,0l-0.3,0.9l-0.6,0.2
		v0.4l-0.4-0.1c-0.4-0.1-0.6-0.2-1.3-0.2l-0.7,0l-0.4,0.6c0,0,0,0,0,0l-0.7,0.5l0.1,0.4c-0.4,0.1-0.8,0.2-1.1,0.3L275,120l0.8,1.1
		l0.2,1.4l1.2,0l0.2,0.3c0.3,0.3,0.5,0.5,0.8,0.6c0,0.1,0,0.1,0,0.2l0,0.4l0.3,0.4c0,0.1-0.1,0.3-0.2,0.5c-0.3,0.5-0.6,1.2-0.4,2
		l0.6,0.9l0.2,0c0.4,0.5,1,0.8,1.7,0.8l0,0.4l0.4,0.3c0,0.2,0.1,0.5,0.4,0.9l0.6,0.6l0.3,0c0,0,0,0,0.1,0.1c0.4,0.4,0.5,0.5,0.5,0.9
		l0.1,0.9l0.9,0.3l0.9,4.5l3.9-0.1L288.4,136z M284.4,118.2c0.3-0.5,0.4-1.1,0.6-1.5c0.1-0.3,0.1-0.4,0.2-0.5c0.4,0,0.8,0.1,1,0.1
		c0,0.5,0.1,1,0.3,1.5l0.2,0.3l0,0.3l0.3,1.4l0.6,0.3l0,1l0.6,0.4l0.5,0.8l-0.4,0.1c-0.2,0-0.3,0.1-0.4,0.1
		c-0.6-0.6-1.4-1.1-2.1-1.5l0.6-0.3v-2.4l-1.9,0.1L284.4,118.2z"/>
	<path d="M310.6,155.8l0.1-0.1l0.2,0.9c0.1,0,1-0.2,1.8-0.3l0.5,0.3l0.2,0.9l3.7,0l0.3-0.9l2.1-0.5l-0.1,0.1h0.9v0.9l1.8-0.7
		c0.5-0.2,1-0.3,1.6-0.4l0.2,0.4l0.3,2l2.1,0.1c0.3,0.3,0.6,0.5,1,0.6l1.1,0c-0.1,0-0.3,0.1-0.4,0.1l-0.6,0.2l-0.4,0l-1.2,0.3
		l-0.2,0.8l-0.5,0l-0.6,1.6l-0.4,0l-0.4,1.8l-0.5,0.4c-0.8,0.8-1.3,1.4-1.4,3.2l-0.1,1.4l1.3,0l-0.3,2l-0.4,0l0,1.4l-1.1,0.1
		l0.8,1.7l0,1.6l0.5,2.2h0l0,0.6l0.6,3.3l0.6,0.4c0.1,0.1,0.2,0.2,0.3,0.3c0.5,0.4,1,0.7,2.2,0.8l0.7,0.1l0.5-0.5
		c0.1-0.1,0.2-0.2,0.3-0.3c0.1-0.1,0.2-0.2,0.3-0.3h1l0-1.3l0.6-2.1l0.8-0.4l0,0l0.3,0l0.1-3.8l-0.2-1.4l-0.4-2.6c0,0,0,0,0,0
		l1.1-0.4l0-1.1c0-0.6,0-1.5,0.1-2.1c0.2,0,0.3,0,0.5,0l1.3-0.3l0.3-0.8c0.1-0.2,0.1-0.4,0.2-0.6c0-0.1,0.1-0.4,0.1-0.5h0
		c0.6,0,1.1-0.3,1.5-0.8l0.2-0.3v-0.1l0.3,0.6l1.4,0.1c0.1,0.1,0.2,0.1,0.4,0.1l0.3,0.3v0c-0.1,0.4-0.2,1,0,1.5l0.3,0.5l0.4,1.1
		l0.1,0c-0.2,0.6-0.5,1.3-0.9,2c-0.4,0.8-0.8,1.5-1,2.3l-0.1,0.8l0.6,0.5l0.7,1l2.9-1.6c0,0.2,0.1,0.3,0.1,0.5
		c0.2,1,0.4,1.9,0.6,2.5l-1,0l0,0.3l-0.3,0l-0.1,2l-0.6,1.4c-0.2,0.1-0.3,0.1-0.6,0.2l-0.9,0.2l-0.2,0.9c-0.1,0.5-0.2,1.1-0.3,1.6
		l-0.5,2.4l2.1-0.7l0.2,1.4h0l0,0.3l3.6,0.2l2.5-0.4l0-0.4c0.8-0.4,1.4-1,1.9-1.8l3.1-0.2l0-0.1l0.5,0l0-0.3l0,0l0.3-0.5l1.3,0.1
		l0-0.3l0.4,0l0.2-0.4l0.5,0l0.4-0.7l1.3-1.1l0-0.4l1.5-1l-0.4-0.9c0.3,0,0.5-0.1,0.7-0.2l2.6,0.6l1.1,0l0.2-0.3l1.9,0.4l0.6-1.1
		c0.1,0,0.3-0.1,0.6-0.1l0.8,0l1.1-0.3l1-2.4c0.2-0.4,0.2-0.8,0.2-1.2l0.7-0.2l0.5-2.8l0-1.5l-2.3-0.1l-0.4,0.7
		c-0.2,0.3-0.5,0.6-0.9,0.9c-0.2,0.2-0.5,0.3-0.7,0.5l-0.2,0l0-0.3l-0.6,0l0-0.4l-5.2,0.3l-0.1,1.6l0,0.2l-2.6-0.2l0.1-0.2
		c0.2-0.3,0.4-0.5,0.6-1.2l0.2-1.7l-0.4,0l0-0.8l-0.8,0l0.4-1.1l-1.1-0.5c-0.8-0.4-0.9-0.5-0.8-2.6l0.1-1.4l-1.4-0.1l-0.6-0.3l0,0
		l1.1,0.1l1-0.2l0.4-0.7c0.2-0.3,0.4-0.5,0.6-1.2l0.3-1l-0.9-0.5c-0.1-0.1-0.2-0.1-0.3-0.2c-0.5-0.4-0.9-0.5-1.9-0.6l-1.4,0.1l0,0.1
		l-0.3,0l-1.5,0.5v1.7c-0.3,0.1-0.6,0.1-0.9,0.2c-0.4,0.1-0.8,0.2-1.1,0.2l-0.6-1l-1.6-0.1v-0.3l-0.5,0l0-0.3l-2.8-0.1l-0.1-0.3
		l-0.9,0l-0.1-0.3l-0.8,0l-0.9-1l-0.5-0.1c-0.2-0.1-0.5-0.1-0.7-0.1c0-0.4-0.1-0.8-0.1-1.2l-0.3-0.8l-0.2-0.1
		c0.2-0.2,0.3-0.4,0.4-0.5l0.7-1.2l-1.3-0.7c-0.3-0.2-0.7-0.4-0.9-0.5c0.3-0.5,0.4-1.1-0.2-1.9v-1.1l-2.1-0.1l-0.8,0.1l-0.3-0.1
		c-0.1-0.1-0.3-0.3-0.4-0.5c-0.2-0.3-0.3-0.5-0.6-0.8l-0.2-0.2l-0.5-2.2l-0.4,0l-0.5-1.7l-1,0l-0.3,1.4l0-0.2l0.1,0l-0.3-1.2l-0.3,0
		l-0.2,0.1l-0.3-0.5l-1.9,0.3l-0.5,0.1l-1.4-0.4l0.7-0.1c0.1,0,0.5-0.2,0.7-0.2l1.3,0l0-1.3c0.1-2.2-0.6-3.3-1.3-4.2
		c-0.2-0.2-0.3-0.5-0.5-0.8l-0.9-0.9l-1.1,0.4c-0.4,0.1-0.8,0.2-1.2,0.6l-1,0l0,1.6l-0.8,0.3l0.4,2.4l0.8,1.1l0.5,0l0.3,1l0.7-0.2
		l0,0.8l-0.6,0.8l-0.8,0v1.3c-0.1,0.1-0.2,0.1-0.4,0.2l-2.1-0.2l0,0.3l-0.3,0l0,2l-0.3,0.2l-0.1,0.4l-0.7,0.2l-0.4,0.6l-2.5,1.1
		l-0.3,0.5l-3,1.7l-0.3,0.9h-0.6l-3,3.8l3.9,0L310.6,155.8z M352.3,178.4l-0.1,0.1l-0.5,0l-0.3,0.6l-1.3,0.2l-0.3,0l-0.3,0.6
		l-3.1,0.6l0-0.1c0.1,0,0.2-0.1,0.3-0.2l0,0l0.5,0l0.9-1.1l3-0.2l0.3-0.9c0.2-0.1,0.3-0.2,0.5-0.3v0.4l1.1,0L352.3,178.4z
		 M348.3,162.3c0.1,0,0.2,0,0.3-0.1v0.8l1.1,0.1l-0.1,1.1l1.4,0.1c0,0.9,0.1,1.6,0.5,2.3l-0.6,0v-0.3l-1,0.3l-0.1-0.3l-0.8-0.1
		c-0.1-0.1-0.2-0.1-0.3-0.1l0.1-1.7l-1.5-0.6L348.3,162.3z M346.5,175.8l0.5-3.6l-0.1-1.4l0.1-0.4c0.1-0.1,0.2-0.2,0.3-0.3
		c0.1-0.1,0.2-0.2,0.3-0.3l0,0.3l1.4-0.4l0.5,0.1l0,0.4l0.8,0.4c0.6,0.2,0.9,0.4,1.8,0.5l0.2,0l0.8,0.9l1,0.1l-1.3,0.5l0,0.6
		c0,0-0.1,0-0.1,0l-1,0.8l0,1l-0.2,0l-0.8,0l-0.4,0.6c-0.4,0.2-0.6,0.4-0.8,0.7l-2.5,0.1l-0.8,1l-1.2-0.1l0,0.7
		c-0.3,0.2-0.4,0.4-0.6,0.7l-0.2,0.1c0.1-0.3,0.2-0.8,0.2-1.3l0.4-0.7c0.2-0.3,0.3-0.4,1.3-0.7L346.5,175.8z M339.5,162.3l0.1-0.2
		l0.1,0l-0.1,0.2l0.9,0.2c0.6,1.2,2.3,1.6,3.5,1.9c0.4,0.1,0.8,0.2,1.1,0.3l-0.1,1.9l0.8,0.3l-0.2,0.6c-0.1,0.3-0.2,0.3-0.4,0.6
		c0,0,0,0,0,0l-0.9,0l-0.5,3.7l0.1,1.5h0l-0.1,0.4c0,0,0,0,0,0c-0.1-0.4-0.2-0.8-0.2-1.1c-0.1-0.7-0.3-1.4-0.4-1.8l-0.2-0.6
		l-0.6-0.2c0,0-0.1,0-0.1,0l-0.3-0.3l-1.2-0.1c0.5-1.1,0.8-2.3,0.4-3.5l-0.2-0.3l0-0.6l-0.4-0.2c0.1-0.3,0.2-0.7,0-1.2l-0.6-0.8
		C339.9,162.7,339.7,162.5,339.5,162.3L339.5,162.3z M332.9,162.2c-0.2,0-0.3,0.1-0.5,0.2c-0.6,0.4-0.9,1-1.1,1.6
		c-0.4-0.1-0.9,0-1.3,0.2l-0.7,0.6l0,0.4c-0.6,0.8-0.7,2-0.7,3.2c-0.1,0.1-0.2,0.1-0.3,0.2l-0.8,0.5l0.2,5l0.5,1.6l-0.2,0l-0.1,1.1
		l-0.3,0.2l-0.4,1.2l-0.7,0l0,1.9l0,0c-0.1,0.1-0.2,0.2-0.4,0.4c0,0,0,0-0.1,0.1c0,0-0.1,0-0.1-0.1c0,0,0,0-0.1-0.1l-0.2-1.9
		l-0.2-0.8l0-1l-0.2-1l0.7,0l-0.7-1.5l0.4-2.5l0.4,0l0-1.1l0.4-0.2l0.5-2l0.1,0l0.4-0.9c0.4-0.8,0.4-1.5,0.4-2.5l0-1l2.1-0.6l0.8,0
		l0.3-0.9c0.1-0.2,0.1-0.5,0.1-0.7l0.2,0l1.4-0.2L332.9,162.2z M333,158.1c-0.2-0.1-0.4-0.1-0.7-0.1l-1.3,0.2l-0.3,0.8l0,0h0l-0.7,0
		l-0.2,0.1l-0.5,0c-0.1,0-0.2,0-0.3,0l0-0.3l1-0.1l1-0.6l1.8-0.1l0.1,0L333,158.1z M313.9,153.2l0.2-0.3l1-0.2l0.6-0.8l1.9-0.4
		l0-0.4l0.4-0.1l0.4-0.6l1.1,0l0.4-1.2l1.7,1.6v-2.2h0.2l0-0.7l0.7,0v-0.9l0.3-0.1l1.2,1l0.6-1.7l2.2,0.1l-0.2-0.7l1.2,0.2
		c0.1,0,0.2,0,0.3,0l0.3,0.5l0,0.3l0.2,1.4l0.4,0l0.2,0.3l0.5,0.3c0.1,0.1,0.1,0.2,0.2,0.3c0.1,0.2,0.2,0.4,0.4,0.6l-0.1,0.9
		l2.9,0.5c0,0.4,0.1,0.8,0.3,1.3c0.2,0.3,0.5,0.7,0.9,1l0,1.1L332,155l-1.9,0.4l-1,0.6l-1,0.1l-1.4-0.3l-0.8-2l0.5,0l-1.1-3.6l-1,0
		c-1.3,0-2.1,0.4-2.6,0.7c-0.3,0.2-0.6,0.3-1,0.4l-0.8,0.1l-0.2,0.6h-0.2l-1.2,1.5l-2.8,0.6l-0.1,0.4c-0.1-0.1-0.1-0.1-0.2-0.2v-1.1
		l-1.5,0.1L313.9,153.2z"/>
	<path d="M275.1,95.4c0-0.1,0.1-0.1,0.1-0.2l1.3-3.8l-2.2,0.1l-0.7-0.8l-1.1,0.1l-0.7,0l-0.4,0.7l0,0c0.1-0.5,0.2-1,0.3-1.6l0.1-0.9
		l-2.7-1.6l-0.7,1.1c-0.2,0.3-0.7,0.6-1,0.7l-0.9,0.7l0.5,1.7l0.2,0.1c0.1,0.4,0.3,0.6,0.4,0.8l0.7,1.4l1.6-0.6v0.7l-0.4,0.2
		l-0.1,0.6l-0.4,0.7c-0.4,0.5-0.6,0.8-0.8,1.6l-0.3,1.2l0.9,0.4l0.2,1.9c-0.1,0-0.2,0-0.3-0.1l-2-0.7v1.1l-0.3,0v3.6l1.4-0.1
		l2.1-0.4v-0.8c0.2-0.2,0.3-0.5,0.4-0.8l1.5-0.5l0.8,0l0.4-0.5l0.6-0.4l0-0.7c0-0.2,0-0.4,0-0.6l0.6,0v-1.3l0.8-0.4V95.4z"/>
	<path d="M255,82.4c-0.4-0.2-0.9-0.3-1.3-0.4l-0.4,0l-1.4,0.1l-2.6,0.3l-0.2,0.4l-0.8,0.1l-0.1-0.1c-0.6-0.3-1-0.6-2.1-0.6l-1.4,0.1
		l-0.4,1.3l-1.1,0.8l0,1.2l-0.9,0.8l-0.3,0.5c-0.1,0-0.2,0.1-0.3,0.1c-0.5,0.2-1,0.5-1.5,1.1c-0.5,0.5-0.7,1-0.9,1.4
		c-0.2,0.4-0.2,0.5-0.8,0.6l-1,0.3l0,1l0.3,2.3l0.9-0.1l0.3,0.5l4.4-0.4l0-1.8l2.4-2.3l0.5-0.3l0.4-0.4l1.5-0.6l0.5-0.9
		c0.7-0.4,1.6-0.7,2.7-1l0.7-0.2l0.3-0.9c0,0,0,0,0,0l0.6,0.1c1.3,0.3,2.8,0.1,3.4-0.4l2.4-2l-3.1-0.4
		C255.7,82.6,255.3,82.5,255,82.4z"/>
	<path d="M234.4,75.7l0.4-0.6c0.1-0.1,0.2-0.2,0.5-0.3c0.4-0.2,0.9-0.4,1.2-0.9l0.2-0.3V73l0.8-1l0.6-0.2l1.2-1.2l0-0.2l0.5-0.2
		l0.2-0.3c0.1,0,0.2,0,0.3,0l0.6-0.1l0.7-0.4l0.2-0.4l1.6-1.5l0-0.5c0.1,0,0.2,0,0.3,0l1.2-0.2l0-1.3c0.2,0,0.5-0.1,0.7-0.1l1.6-0.1
		l-0.3-1l1,0.2v-1.7l-0.3-1.7l-1.4-0.3c-0.9-0.5-2.2-0.3-2.9,0l-0.7-0.1l0.1,0.4l-1.2,0.2l-1.2,0.4l-1.5,2l-1.8,0.7l-0.4,0.7
		l-0.9,0.1v1.2l-1.1,0.8c-1.5,0-3.5,0.2-5.3,0.4l0,0l0.3,0l-1.1-3.9l-1.6,0.5v-0.9l-1.8,0.2l-0.3-0.5l-3.9,0.5l0.4,1.5
		c0.3,0.9,0.8,1.4,1.1,1.7c0.1,0.1,0.2,0.2,0.3,0.3l0.3,1.7l0.2,0l0.1,0.5l0.3,0c0,0.1,0.1,0.3,0.1,0.4l0.1,0.3l-0.2,0l-0.4,0.7
		c-0.4,0.6-2.4,2.4-3.8,3.2l-1,0.1l-2.7-0.2l-1.5,0.2V76l0.4,0.3l0.2,0.5l0.5,0.3l0.1,1L216,78v0.3l1.6-0.2l0.7,0.1
		c0.2,0,0.5,0.1,0.7,0.1l0.3,0l0.6,1.5l0.9,0.1c0.2,0,0.3,0,0.3,0l0.7,0.6l2.4-1.2l0.3,0l1.5-0.1V79l1.7-0.4c0.2,0,0.3,0.1,0.5,0.1
		l1.6,0v-0.9l1.4-1v-0.4l0.1-0.2c0.2-0.4,0.3-0.7,0.5-1.1c0,0,0,0,0,0c0.5,0.4,1,0.6,2,0.6L234.4,75.7z M232.9,72.2l-0.9,0.1
		c-1.8,0.2-2.5,0.5-3,1.9c0,0,0,0,0,0l-0.7,0.1v1.1l-0.6,0.4c-0.5-0.1-1.1,0-1.6,0.2l-0.4,0.3l-1.3,0.1l-0.5,0.2l-0.3,0l-1.6,0.1
		l0,0.5l-0.2,0.1l-0.5-1.4c1.5-0.9,3-2.2,3.9-3.2l2.7,0l0.5-2.1l0.7-0.1c2-0.2,4.4-0.5,5.9-0.4l0.5,0l0.2-0.1l-0.7,1L234,71l0,1.3
		c-0.2,0.1-0.5,0.2-0.7,0.4L232.9,72.2z"/>
	<path d="M410,73.1c0,0-0.1-0.1-0.1-0.1c-1.3-0.8-2.5-1.6-3.8-2.3c-3.8-2.3-7.8-4.4-11.8-6.5c-2.1-1.1-4.3-2.2-6.5-3.2
		c-0.6-0.3-1.2-0.5-1.8-0.8c-2.6-1.2-5.1-2.3-7.7-3.4c-2.5-1-5-2-7.5-3c-8.5-3.2-17.2-5.8-26.1-7.8c-4.7-1.1-9.5-2.1-14.4-2.9
		c-11.1-1.8-22.5-2.8-34.1-2.8l-0.6,0.1v-0.1c-15.6,0-30.8,1.7-45.5,4.9l0,0.3l-0.3-0.2c-12.7,2.8-25.1,6.7-36.9,11.6
		c-0.7,0.3-1.4,0.6-2,0.8c-2.4,1-4.7,2.1-7.1,3.2c-0.6,0.3-1.3,0.6-1.9,0.9c-21.2,10.3-40.5,24-57.2,40.4l0,0v0
		c-0.8,0.7-1.5,1.5-2.3,2.2c-0.8,0.8-1.6,1.7-2.4,2.5c-22.5,23.4-39.7,51.9-49.8,83.5H96c10.1-30.6,27-58.1,49-80.7l0.3,2l1-0.2
		c0.3,0.3,0.6,0.5,1,0.7l0.6,0.6l0.4-0.1c-0.1,0.2-0.2,0.4-0.2,0.7l-0.4,0.3l0.1,2.6l2.6-0.6l0.2,0.7l0.2,0l1,1.1l0.3-0.1l0.2,0.7
		l0.6-0.1c0,0.1,0.1,0.1,0.1,0.2l0.8,1l0.4-0.2l0.3,0.2l0,0.2l-0.3,0l0.2,2l1.8-0.9l0,0l2.1-0.4c0.2,0,0.3-0.1,0.4-0.1l0,1.1
		l-0.7-0.1l2,2.6c0.3,0.3,0.8,1,1.7,1.1l0.5,0l0,0.5l0.7-0.4l0.3,0l0-0.2l0.1-0.1c0.1,0.2,0.2,0.4,0.4,0.7l1.2-0.7l-1.1,0.7l0.5,0.8
		l3.5-0.7l0-0.4h0.3l-0.2,0.8l0,1l-0.3,1l-0.3,0.5l0.1,0.6l1.4,0.1h-1.4v1.6l2.1-0.4l0.2,0.4l-1.6,0.3l3,2.3l0.3,0v0.9l1.3-0.6
		c0.1,0.4,0.3,0.7,0.5,0.9l0.8,2.5l1.1-0.2l0,0.3l1.4,0l-1.4,0.1l0.3,1.5l1.9-0.3v0.5l-0.7,0.1l0.9,0.9l0,0.9c0,0.3,0,0.5,0,0.6
		c0,0.1,0,0.3,0,0.5c-0.4,0.1-0.7,0.3-1.1,0.5l-0.7,0.6l0,0.8c0,0.6,0,1.5,0.6,2c0.1,0.7,0.5,1.4,0.9,2v1.7l2.9-1
		c0.5,0.2,1.3,0.2,1.9-0.2l-0.4,2l0.7-0.1l0,0.8l1.8-0.9l1.2-0.4l0.1,0.1c0,0,0,0,0,0l-0.1,1.2l1.2,0.1v1l1.2-0.4
		c0,0.1,0.1,0.2,0.1,0.3l0.7,0.8l0.2,0l0.6,4.6l0.8,0.3l0.3,0.2c0.6,0.8,1,1.3,1.1,2.4l0.4,0.8l-0.4,2.1l0.3,0l0,1.3l-0.1,0l0.2,2.2
		l0.1,0l0.2,1.6l-0.2,0l0.1,3.3l0.1,0.4l-0.3,0.9c-0.1,0.5-0.1,1,0,1.4l0,0.1c0,0-0.4,2.9-0.2,4.6l-0.4,0.7
		c-0.3,0.9-0.2,2.7,0.3,3.8c0,1.4,0.2,2.6,1.1,3.5c-0.2,0.4-0.3,1.1-0.1,1.8l0.3,1.3c-0.2,1.1-0.2,2-0.1,2.8l-0.7,0.1l0,0.5
		l-0.6,0.1l0.8,2.6l0.3,0.5l0.1,0.6l0.5,0.2l0.2,1l0.1,0l0.1,0.3l0.4,0.1l0.6,1.3l0.5,3.1l1,0.2l0.2,0.1c0.1,0.4,0.4,0.8,0.7,1
		l0.1,2.4l1.2,0.1c0.1,0,0.3,0,0.4,0l0,0.4c0,0.7,0,1.7,0.8,2.3l0.4,0.3l0.3,0l0.4,0.6l-0.4,2l0.7,0.5c0.2,0.1,0.6,0.6,0.8,0.9
		l0.1,1l0.4,0.2l0.3,1.3l0.3,0l0.2,0.7l1.2,0.3l0.1,0.8l0.1,0l-0.2,0.7l1.4,0.7l0,2.1l0.3,1.5l1-0.1c0.7,0.3,1.6,0.1,1.9-0.1
		l0.3,0.6l2.9,0.3l0.4,1.2v0.4l1.6,0.4c0.3,0,0.5,0,0.7-0.1c0.1,0.1,0.2,0.2,0.3,0.3l0.7,0.5l0.5,1.3l0.8-0.1l0.4,2.3l0,0.1l0.9,3
		l0.3,0l0.8,0.6l0,1.1l1.2,0.8c-0.1,0.4-0.3,1.1,0.1,2l0.2,0.5l0.4,0.2l0.4,1.5l0.7,0.1c0,0.1,0.1,0.2,0.2,0.2l0.1,0.6l1.1,0.5v0.7
		l1.9,0.4l0.1,0.5l1.3,0.4l0.8,1.2l-0.3,2.2l0.6,0.3l0.2,1.5l-0.1,0l0,1.2c-0.2,0-0.5,0.1-0.7,0.1c-0.3,0.1-0.6,0.1-0.9,0.1L225,250
		l0.5,1.7c0.3,1.2,0.9,1.7,2.1,2l1.9,2.4l0.3,0l0.9,1l1.1-0.1l0.2,0.3l1.2,0.2l0.7,1l0.4,0l0,0.4l0.9,0.7c-0.1,0.4,0,0.9,0.3,1.6
		l0.5,1.9l0,2l0,0.6l0.5,0.4c0,0,0.4,0.3,0.5,0.4l0.4,0.7l0.5,0l0.6,1.1l0.8,0.2c0.1,0.2,0.3,0.5,0.4,0.7l0.9,0.7
		c0,0.1,0.1,0.1,0.1,0.2c0.3,0.5,0.6,0.9,1.2,1.2l0.8,3.1v0.5l3.6-0.2l0-1.2l0.7-0.2l0.1-0.8c0.1-1,0.1-1.2,0.1-2l-0.1-0.6l-0.5-1
		l-0.4-0.1l-0.2-0.7l-0.7-0.2c0-0.3-0.1-0.6-0.3-1c-0.4-0.6-1-0.9-1.6-1.1l0.3-1.8l-1.1-0.8l0.3-2.1l-0.7-0.3l-0.2-1.1l-0.6-0.5
		l-0.5-2.1h-0.2l-0.1-0.6l-0.1,0l-0.2-0.8l-0.3,0l-1.1-1.9l-0.2,0l0-0.3c-0.1-1-0.4-1.8-1.2-2.2c-0.2-0.6-0.5-1.3-1.3-1.5
		c-0.1-0.3-0.2-0.9-0.2-2.6l-0.3-1.2l-0.4-0.1c-0.1-0.2-0.2-0.4-0.3-0.6c-0.2-0.3-0.6-0.5-1-0.6c0.1-0.4,0.2-0.9,0-1.4l-0.3-0.6
		l-0.4-0.2l-0.6-1.8l-1.2-0.2c-0.1-0.2-0.2-0.4-0.3-0.6l-0.3-1.2l-0.2,0l-0.1-1.1l-0.7-0.3l-0.3-1.4l-0.4-0.2l-0.1-0.5l-0.6-0.3
		c0-0.1,0.1-0.3,0.1-0.5c0,0,0,0,0.1,0c0.3,0.3,0.9,0.6,1.9,0.8l1.3,0.2l0.1-0.5c0.1,0.1,0.3,0.3,0.5,0.4c0.1,0.1,0.1,0.1,0.2,0.1
		l-0.2,2.6l0.9,0.4l0.7,2l0.3,0c0.3,1.2,0.9,2.4,1.4,3.1l0.6,0.5c0.1,0.4,0.3,0.7,0.5,0.9v1.1l0.7,0l0.4,1.9l1.8,0.4
		c0.1,0.3,0.2,0.6,0.4,1l0.3,1.5l0.7,0l0.5,0.8l0.6,0l0.1,0.6c0.3,1.3,1.2,1.9,2,2.2l0.4,2l1.5-0.1c0.2,0,0.3,0,0.4,0v0.1
		c0,0,0,0,0,0l-0.8,0.4l0,0.8c0,1,0.1,1.7,0.4,2.4l0.4,0.9l0.9,0l0.8,1.1l0.3,0.1v0.3l1.1,0.4c0.2,0.4,0.5,0.6,0.8,0.8
		c0.6,1.3,1.7,3.3,2.4,3.8l0.4,0.3l0.2,0l0.3,0.2l0.2,1.4l1.1,0.5v0.6l0.5,0.2l0,0.7l0.6,0.4l0.5,1.6l0.2,0l0.1,0.6l0.1,0l0.4,0.2
		v0.4l0.8,0.6l0.1,0.7l0.5,0.2l0.4,1.5l0.2,0.1l0.1,2l0.7,0.3c0.1,0.4,0.1,0.9,0.1,1.1c-0.1,0.2-0.2,0.4-0.3,0.6
		c-0.3,0.4-0.7,1-0.8,2.2l0.1,0.3l-0.5,0.4l0.9,4.1l0.8,0.3c0.3,0.9,0.8,1.4,1.3,1.9l0.6,1.1l0.5,0l0.3,0.6l0,0v0.3l1.1,0
		c0,0.1,0.1,0.3,0.2,0.4l0.5,0.5l0.3,0.7l0.7,0l0.6,0.5h0l0.2,1.1l0.9,0.2c0.1,0.1,0.2,0.2,0.3,0.3l0.1,1.3l2,0v0.3l0.5,0v0.3l1.8,0
		l1.2,1.5l0.4,0.1l0.1,0.2l0.9,0.3l0.6,0.9l0.6,0l0.1,0.3l0.7,0l0.4,0.6l3,1l0.2,0v0.3l0.5,0l0,0.6l1.9-0.4l0.2,0.5l1,0
		c0.1,0,0.2,0,0.3,0v1.1h0.6l0.1,0.7l2.2-0.3l0.6,0.3c0.5,0.2,1.2,0.3,1.7,0.1l0.1,0.4l3.3,0.4l1.5-0.1v-0.6l0.4-0.1l0.1-0.3l1.8,0
		l1.4-0.3v-0.1l0.2,0.1h1.2l0,0.3h1.3l1,1.4h1.1l0.8,1.1l0,0.3l0.1,0.9l0.7,0.3l0.2,0.7h0.7c0.2,0.5,0.5,1,1.2,1.3
		c0.4,0.9,1,1.2,1.5,1.4l-0.5,1.4l1.1,0l2.2,0.8l0.4,0.4l0.8,0l0.3,0.4l1,0.4l0,0.8l0.9,0.4c0.3,0.1,1.9,0.6,3.2,0.4l0.2-0.1
		l1.8,0.4v0.7l1.5-0.1c0.2,0,0.4,0,0.6-0.1l0,0.4l0.2,1.1l0.9,0.3l1,1l0.2,1.3h0.2l0.1,0.5l0,0.3l0.5,0.3l0,0.8l0.5,0.3v0.4l1,0.8
		l0,0.7l0.5,0.3l0.2,1.4h0c0,0.1,0,0.2,0,0.3l-0.3,0.7c0,0,0,0,0,0.1l-0.3,0.3l0,0.5c0,1.3,0,2.2,1.2,2.8c0.1,0.1,0.2,0.1,0.3,0.3
		c0.1,0.1,0.1,0.3,0.2,0.4l-0.1,1.2l3.3,0l0.1-0.3l0.2,0.4l0.9,0.2l0,0.5l1.1,0.3c0.1,0,0.2,0,0.2,0.1l-0.4,0.1l0.1,1.4
		c0,0.4,0,0.9,0.4,1.5l0.2,1.2h0.3l0.1,0.3h1.7l0.3,0.9l1.2-0.3c0.4-0.1,0.7-0.2,1-0.4c0.4,0.3,1.1,0.5,1.9,0.5l0,0.2l-1-0.2
		l0.5,2.3c0.2,0.9,0.6,1.3,1.4,1.6l0.6-1.2l-0.4,1.3l1.6,0.3l0,0l0.1,0l0.5,0.1l0-0.2l0.8-0.1l1.8,0.1l0.9-0.1l0.1-0.2l1.6,0
		l-0.5-1.8l-0.2-0.7c0-1-0.1-1.5-0.6-2.1l0.6-0.1l0-0.6l0.8-0.5l0-0.8c0,0.1,0.1,0.2,0.1,0.2c0.1,0.3,0.2,0.4,0.2,0.8l0.1,1.2l0.7,0
		l0.3,1.4l0.4-0.1l-0.1,1.8l0.2,1.4l0.5,0c0.3,0.5,0.6,0.8,1,1.1l0,0.9l1.4,0l0.3,1l-0.6,3.2l-1.5,0.1l0.9,1.8
		c0.1,0.2,0.2,0.3,0.3,0.5l-0.2,1.1c-0.1,0.5,0,0.9,0.2,1.3c-0.1,0.4-0.2,1-0.3,1.4l-1.1,0.7l0,0.8c0.1,0.9,0.3,1.7,0.8,2.2H352
		l-0.4,2.1l-1.2,0.4l-0.4,0l-0.8,1.1l-0.4,0l-0.4,0.8c-0.3,0.5-0.3,0.9-0.3,1.3l-0.8,0.6l0.2,0.4l-0.6,0l-0.1,2.2l0.1,0.4
		c-0.1,0.1-0.2,0.1-0.3,0.2c-0.2,0.2-0.4,0.3-0.7,0.6l-1.4,0l0,0.6h-0.4l-0.1,1.3c0,0.1-0.1,0.5-0.2,0.7l-0.4,1.9h0.8l0.1,0.8
		l-1.1,0l-0.8,3.6l0.1,0.6l-0.2,0.9c-0.1,0-0.3,0.2-0.5,0.2l-0.9,0.4l0.1,1c0.1,0.6,0.2,1,0.4,1.4l-1.1,0.2l0.9,3.4l0,0
		c0,0,0,0,0,0.1l-0.8,0l0,0.9l-1,1.4l1.9,0.5c0.4,0.1,0.6,0.3,1,0.6c0.1,0.1,0.2,0.2,0.3,0.2l0,0.5l0.2,0c-1.2,1.1-2.6,2.8-3.2,3.7
		l-1.1,3.3l0.5,0.4l0,0.4l0.4,0.3c-0.1,0.4-0.1,0.8,0,1.3c0.1,0.4,0.3,0.7,0.5,0.9c0,0,0,0.1,0.1,0.1l-0.4,0.2l-0.1,2.7l2.4,1.5
		l0.4,1.3l0.7,0l0.2,0.1l0,0.6l0.7,0.6l0,0.8l1.8,1.5l0.2,1l1.8,1.8l0,0.7l0.5,0.3l0,0.5l0.6,0.5l0,0.7l0.6,0.3l0.2,1.5l0.6,0.5
		l0,1.2l0.2,1.4h0.3l0.2,0.5l0,1.2l0.6,2.4l-0.4,0.7l0.4,1.1l1.4,1.7c0,0.2-0.1,0.4-0.1,0.6c0,0.3-0.1,0.6-0.1,0.9l0.1,1.2l1.1,0.3
		l0.2,1l0.4,1.2h0c0,0,0,0,0,0v1.4h0.7c0.1,0.6,0.2,1.2,0.2,1.8l-0.6,0.1l0.1,1.5c0,0.4,0,1,0.6,1.6l0.3,0.3l0.3,1h0.3l0.1,0.6
		l0.4,0.2l0.3,1.7h0.3l0.1,1l0.7,0.3c0.1,0,0.1,0,0.2,0.1l0.3,0.8h0.7l0.7,1.1h0.4c0.1,0.1,0.2,0.2,0.2,0.3c0.2,0.3,0.5,0.6,0.9,0.8
		l0,0.7l1.8,0.7l0.4,0.8h0.2l0,0.3h1.3l0.2,0.5l0.7,0l0.1,0.3l0.5,0.1c-22.2,8-46.1,12.4-71,12.4c-23,0-45.1-3.8-65.9-10.6v4.2
		c0,0.5-0.1,1-0.1,1.5c20.8,6.7,42.9,10.3,65.9,10.3c26.6,0,52.1-4.9,75.6-13.7c0.9-0.4,1.9-0.7,2.8-1.1
		c33.5-13.1,62.9-34.3,85.9-61.3c1.4-1.6,2.7-3.2,4-4.8c29.7-37,47.5-83.8,47.5-134.8C511.4,179,470.9,111.3,410,73.1z M238.8,261
		l0.5,1.6l0.4,0.2l-0.2,1.5l-0.9,0.1c0,0,0,0,0,0l0-2.7l-0.2-0.9L238.8,261z M230.8,251.8l0.3,0V251l0.5,0l-0.3-1.9l0.3,0l-0.4-2.2
		l0.4,0.3c0,0,0,0,0,0l0,0c0.2,0.1,0.4,0.2,0.6,0.3l0.2,0.3c0.1,0.2,0.3,0.4,0.5,0.5c0,1.5,0.2,2.6,0.8,3.4c0.3,0.4,0.6,0.6,0.8,0.7
		c0,0.1,0,0.1,0,0.2l0.4,1.1l0.4,0.1l0.4,2.3l-0.3-0.3l-0.4,0l-0.4-0.6l-0.9-0.2l-0.5-0.8l-1,0.1l0-1.1l-1.4,0.1V251.8z M396.3,71.4
		l-1.4-0.5l-0.9-0.7C394.8,70.6,395.6,71,396.3,71.4z M389.9,69.6l0.5-1.3c0.7,0.3,1.4,0.7,2.1,1.1l-0.4,1.8c0,0.1,0,0.1,0,0.2
		c-0.2,0-0.4,0-0.7-0.1c0,0,0-0.1,0-0.1l-0.3-1l-1,0c0,0-0.1,0-0.1,0L389.9,69.6z M385.4,65.9l0,0.1L385.4,65.9
		C385.4,65.9,385.4,65.9,385.4,65.9z M384.8,72l0.7,0.1c0.7,0.1,1,0.2,1.4,0.4l0.3,0.7l0.2,0.1l0,0c0,0.1,0,0.1,0,0.2l-1,0.2l-0.1-1
		l-0.8-0.3c-0.2-0.1-0.3-0.1-0.4-0.2C385.1,72.2,385,72.1,384.8,72L384.8,72z M372.7,62.7l0.6,0.1l0.4,0.7l0.8,0
		c0.8,0,1.2-0.1,1.9-0.5l0.7-0.3l0.1,0.8l1.3,0.1l0-0.1l2.1,0.3l0.1-0.1l0.1-0.2l0.1,0.3l0.5,2.3l1,0.2c0.1,0,0.2,0,0.3,0.1l0.1,1.9
		l0.3,1.4l1.1-0.1l0.2,1l-0.1,0.3l-0.8-0.3l-0.8-1.3l-0.9-0.3v-0.5l-1.5-0.2c-0.1-0.2-0.3-0.3-0.6-0.5l-0.7-0.4l-2.6-2.8l-0.1,2.4
		l-0.1,0.5l-1.6,1.8l1,0.1c-0.1,0.1-0.2,0.1-0.3,0.2c-0.5-0.1-0.9-0.3-1.3-0.5l-0.5-0.2l-1-0.1c-0.5,0-1,0-1.5,0l-1-0.3l-0.3-0.7
		h-0.3l0.1-1.7l-0.3-1.3l0-0.3l1.4,0l0.3-0.9l1.8-0.2L372.7,62.7z M364.9,60.4c0.4-0.4,0.9-1,1.1-2l0.1-0.5c1.8,0.6,3.5,1.3,5.3,2
		c-0.1,0.1-0.2,0.2-0.2,0.2c0,0,0,0-0.1,0l-1.1,0.2l0,0.7l-1.2,0.4l-0.2,0.4l-0.7,0l-0.3-0.7l-0.8,0.1l0-0.3l-1.7-0.2
		C365.1,60.7,365,60.6,364.9,60.4L364.9,60.4z M335.3,53.5l0.2-0.7c0.1-0.2,0.1-0.4,0.1-0.5l0.5,0.8l1.2-0.9
		c0.2-0.2,0.4-0.3,0.5-0.4c0.6,0.3,1.3,0.5,1.9,0.6l0.2,0.3l0.2,0c0.1,0.3,0.2,0.6,0.5,0.9l0.8,0.7l-2.3,0.2L339,55
		c-0.1,0.1-0.4,0.4-0.6,0.5c-0.4,0.3-0.7,0.5-0.9,0.9l-0.2,3.3l-0.4,0.4c-0.3,0.4-0.4,0.7-0.4,1l-0.3,0.1l-0.3,0.3c0,0-0.1,0-0.3,0
		c0,0,0-0.1,0-0.1c0-0.2,0-0.3,0-0.4c0,0,0-0.2,0.3-0.6l0.9-2l-3.5-0.1l2.5-1.4l0.1-3.3L335.3,53.5z M329.4,52.5
		c0.1-0.1,0.5-0.4,1.2-0.7l0.7-0.4l0-0.3l0.4,0l0.4-0.7l0.4-0.3l0.2-0.9c0-0.1,0-0.1,0.1-0.2c0.1-0.2,0.2-0.3,0.2-0.5
		c0,0,0.1-0.1,0.2-0.1c-0.1,0.2,0,0.4,0,0.6c0,0.4-0.1,0.9-0.1,1.3c0,0.2,0,0.4,0,0.6l-0.4,0l-0.1,3.3l0.2,0.9l0.4,0.2l-3.8,2.1
		l0,2.2l0.3,1.4l0.4,0l0.3,0.8l2.6,0.1c0,0.2,0,0.4,0.1,0.7l0,0.9l0.9,0.3c0,0,0,0,0.1,0l0.3,0.3l1.3,0c0.7,0,1.4-0.1,2.1-0.6
		c0.8-0.2,1.5-0.7,1.6-1.8l0.8-0.4l0.1-3.4l0.7,2.2l1.5,0.4l0.3,0.7l1.2,0.1v0.3l2.3,0.1l0.1,0.2l-0.8,0.1c-0.9,0.2-1.5,0.4-1.9,1.2
		c-0.8,0.2-1.5,0.6-2.1,1.1l-0.3,0.4c0,0-0.1,0-0.1,0c-0.7-0.1-1.3-0.1-1.9,0.2l-1.8,1.4l-0.2,0.5c0,0.1,0,0.1,0,0.2l-0.3,0.4
		l-0.1,1.9l1.2,0.1v0.4l1.4-0.1c1.1,0,1.9-0.3,2.3-1.1c0.8-0.1,1.4-0.2,1.9-0.4c1.2-0.3,1.7-1.2,2-1.9c0.3-0.1,0.6-0.2,0.9-0.4
		l0.8-0.4l0-1.7l-0.2-1l0.6-0.1c0.7-0.1,1.1-0.4,1.5-0.7c0.1-0.1,0.2-0.1,0.3-0.2l0.7-0.4l0-1.1l0.6,0l0.1-3.6l-2.8-0.6l-1.6-0.1
		l-0.5-2.3l-0.4,0l0-0.2l-0.9-0.3l-1.8-1.6c0-0.2,0-0.4-0.1-0.6c6.9,1.6,13.6,3.5,20.2,5.7c-0.1,0.3-0.2,0.6-0.3,1l-0.1,0.9
		c-0.2,0.3-0.5,0.6-0.7,1l-0.5,0.9l0.8,0.7c0.1,0,0.2,0.2,0.6,0.9l-0.1,0l-1.2,3.1l-0.1,0.1l0.1,0.1l0,0l1.4,2.3l-0.3,0l-0.4,0.5
		l-0.7,0.4l0.1,0.8c0.1,0.7,0.2,1.1,0.3,1.5l-0.1,0l0.9,2l-0.2,0.4l-1,0.7l-0.2,0.7l-1.4-0.1l0.9,2.1l1.2,4.2l0,0.1l-0.3,1.2
		l-0.7-0.1l-0.1,2.3l0.1,0.3l-2.6,0.6l0,0.7l-0.5,0.5c-0.5,1-0.4,2.1-0.2,3l0.2,1.1l1.5,0.1l0,0.3l0.2,0.4c0.5,0.7,1.2,1.2,2.1,1.6
		l0.2,1.2l0.5,0.3l0.2,1.6l0.9,0.7l1.1,3.6l0.6,0.2c-0.4,0.5-0.7,1.1-0.9,1.8c0,0.2,0,0.3,0,0.9c0,0.4,0.1,1,0.1,1.4l-0.1,0l-0.4,0
		l-0.1,1.9l-1.6,1.1l-0.2,0.8l-0.5,0.2l-1.4,1.5l-0.9,0.3l0,0.4c-0.9,0.3-1.8,0.7-2.6,1.2c-0.4,0.2-0.8,0.4-1.1,0.6l-0.8,0.3
		l-0.2,5.4l1,0.3c0.2,0.1,0.3,0.1,0.5,0.4c0.1,0.1,0.1,0.2,0.2,0.2l0.1,1.8l-0.2,0l-0.1,3.9l0.3,0.2l0,0.1c-0.1,0.7,0.2,1.3,0.5,1.7
		l-0.6,0.3l-0.2,0l0,0.5l-0.6,0l0.2,1.8l-1,0l-0.5,0.8l-0.8,0.4v0.1l-0.5-0.1l0.2-1l-0.9-0.1c-0.4-0.8-1.1-1.4-2-1.8
		c-0.2-0.4-0.4-0.7-0.7-1c0-0.1,0.1-0.3,0.1-0.4l0.2-0.7c0.4,0.1,0.7,0.1,0.9,0.2l1.5,0.2l0.1-3.6l-1-0.3c-0.3-0.1-0.4-0.2-0.6-0.4
		c-0.1-0.1-0.2-0.2-0.3-0.3l0.1-1.1l-2.9,0.4l-0.1-1.4l-0.1,0l0-0.3c0.2-0.5,0.5-1.4,0.2-2.4l-0.3-0.5l0.6-6.1l-1.3-0.2
		c-0.4-0.1-0.8-0.1-1.1-0.2v-0.7l-0.6,0v-0.6l-2,0.3l-0.3-0.1l-0.1-0.7l-3.4,0.2c-0.4-0.2-0.8-0.3-1.2-0.3l-0.4,0.1l-0.2-0.3
		l-0.6-0.2l-0.1-0.7l-2.4-0.4l-0.4-0.9l-0.9-0.4h-0.3c-0.2,0-0.4,0-0.7,0.1c-0.1,0-0.3,0-0.5,0l-0.5-0.3c-0.1-0.1-0.2-0.1-0.3-0.2
		c0,0-0.1-0.1-0.1-0.1L330,104l-0.4-0.3c-0.5-0.3-1.2-0.4-2-0.4c-0.1-0.8-0.4-1.4-0.9-2.2l-0.3-1.3l0-0.5l-2.7-0.1l-1.1-1.4
		l-2.7-0.5l-0.6-1l-1.3,0l-0.4-0.4c-0.5-0.3-0.8-0.4-1.2-0.7l-0.4-0.7l-3.4,0.3l-1.4,0.5l-0.4-1.8l-0.3,0l-0.3-0.6l-0.5-1.6h0l0-1
		l-0.8-0.6l-0.5-2h0l0,0l-0.6-0.3l-0.2-1.2l0-0.6l-3.5,0.3l0-0.2h-1.4c-0.3,0-0.6,0.1-0.9,0.2c-0.1-0.4-0.3-1.2-0.2-2.1l0-1
		l-0.4-0.1l0.1-1.7h0.3v-1.1l0.3-0.1l0.2-0.5h1l0-2.2c0.1,0,0.1,0,0.2,0l1.8,0l0-3.2c0.2-0.2,0.3-0.3,0.5-0.4
		c0.2-0.2,0.2-0.3,0.5-0.3l1-0.3V72c0.5-0.1,0.9-0.2,1.3-0.6h1.4l-0.4-1.5v-0.7l1.1,0l0-0.8l0.9,0l1.4-0.3v-0.8l0.6-1.1
		c0.6,0.2,1.3,0.2,1.9,0l0.3-0.2l1.1,0l0-0.6c0.2-0.1,0.5-0.3,0.8-0.6c1.1-1,0.9-2.1,0.8-2.8c0-0.2-0.1-0.3-0.1-0.5l0-0.4l0.3-0.1
		l0.2-0.6l0.7-0.2l0.9-3.1c0,0,0.1,0,0.1,0l1.3-0.1l0-0.7l0.4,0.6l1.1,0l2.1,1.8L326,57l0.2-0.1c0.3-0.1,0.5-0.2,0.8-0.3
		c0.7-0.2,1.6-0.6,2.2-1.3C330.3,54.1,329.8,53,329.4,52.5z M187.6,147.3l0-0.6l-0.7,0.1V146l-1.4,0.7l0-1l-0.8-0.2
		c0.3-0.1,0.6-0.1,0.8-0.2c0.3-0.1,0.6-0.1,0.9-0.2l0.2,0.1c0,0,0.1,0.1,0.1,0.1l0.1,0.4l0.2,0c0,0,0,0,0,0l0,0.3l0.1,0
		c0.2,0.3,0.6,0.6,1,0.7l0,0.5L187.6,147.3z M191.8,151l-0.3-0.5l-0.3,0l-0.8-2c0.9,0.2,1.8,0.3,2.7,0.5l1.1,1.2l0,0.5l1.1,0.4
		l-2,0.3l-0.3-0.5L191.8,151z M338.4,338.2c-0.4,0-0.7,0.1-1,0.2c-0.1-0.8-0.5-1.3-1.3-1.7l0.1-1.6h-0.8c-0.2-0.3-0.5-0.6-0.8-0.7
		l0-0.7l-1.7-0.4l-1.1-2.4H331c-0.2-0.1-0.4-0.2-0.6-0.2l-1-0.3c0.1-0.1,0.1-0.3,0.2-0.5l0.3-0.9l-0.3-0.3l0.3-0.3l2.7,0.6l0-3.3
		l-0.7-0.4c-0.2-0.1-0.3-0.2-0.3-0.8l-0.3-1.1l-1.3-0.3l-0.1-0.5l-1.6-1.3l0-1.3l-0.9-0.4c-0.7-0.3-1.4-0.4-2.3-0.4l-0.6,0l-0.3-0.6
		l-0.1-0.1l0-1.1l2-2.2l-4.4-0.1l-1.2,0.3l-0.1,0.5l-3.4-0.8l-1.3-0.1l0-0.4l-1.9-0.7l-0.4-0.8l-0.7,0l-0.6-0.4l-0.7-0.2
		c-0.1,0-0.2,0-0.3,0l0.4-1.1H310c-0.4-0.3-0.8-0.5-1.1-0.6l-0.6-1.1l-0.8-0.2c-0.1-0.3-0.3-0.8-0.9-1.3l-0.4-0.3h-0.2l0-0.3
		l-0.2-1.4h-0.7l-1.3-1.7h-1l-0.8-1.1l0-0.6l-3,0c-0.4-0.5-1-0.6-1.3-0.6l-1.2,0.2l-0.2,0.4l-1.2,0.3l-2.2,0l-0.4,0.8l-0.5,0.2
		l-0.7-0.1l-0.4-1.2l-1.2,0.2c-0.2,0-0.4,0.1-0.7,0.2c-0.1,0-0.2,0.1-0.3,0.1l-0.3-0.7l-1.3,0.2v-0.3l-0.7,0l-0.8-0.5
		c-0.3-0.2-0.6-0.3-0.9-0.4l-0.4-1.2l-1.1,0.2l-0.3,0v-0.3l-2.5,0l-1.7-0.6l-0.6-0.9v-0.4l-1.3,0l-0.2-0.3l-0.5-0.2l-0.1-0.4
		l-1.4-0.3l-1.5-1.8l-0.3,0v-0.3l-0.5,0v-0.3l-2.3,0l-0.5-0.4c-0.2-0.3-0.3-0.5-0.6-0.7l0.1-0.3l-0.5-0.4c-0.1-0.2-0.2-0.6-0.6-0.9
		l-0.4-0.1l-0.3-0.7l-0.6,0l0,0c0-0.4-0.2-0.9-0.8-1.3l-0.4-0.3l-0.3,0l-0.1-0.3l-0.7,0l-0.6-0.5h-0.1l-0.3-0.3
		c-0.5-0.5-0.6-0.6-0.7-1.2l-0.1-0.8l-0.8-0.3l-0.2-0.9c0.3-0.3,0.4-0.7,0.6-1.3l-0.1-1.2c0.2-0.3,0.4-0.7,0.6-1.2
		c0.4-1.2,0-2.9-0.4-3.5l-0.2-0.4l-0.2-2.1l-0.7-0.3L261,275l-0.5-0.8v-0.5l-0.8-0.5l0-0.7l-0.6-0.3l-0.2-1.1l-0.2,0l-0.1-0.5
		l-0.8-0.7l0-1l-0.5-0.2v-0.5l-1.1-0.5v-0.9l-1.1-0.8v-1l-1.3,0.1c-0.5-0.7-1.3-2.3-1.5-2.7l-0.5-0.9l-0.3-0.1
		c-0.1-0.1-0.2-0.3-0.3-0.4l-1-0.7c-0.3-0.2-0.5-0.4-0.8-0.5l-0.4-1.4l-0.7,0c0.5-0.4,0.8-1,0.9-1.9l0.3-1.7l-1,0l-0.7-0.4
		c-0.5-0.2-0.9-0.4-1.5-0.5l-0.4-1.4l-0.8-0.3c-0.2-0.1-0.4-0.1-0.5-0.2l-0.5-3.1l-1.8,0.1l-0.4-1.6l-0.3,0c0,0,0,0,0,0l-0.1-1
		l-1.8-0.4l0-2.6l-1.3,0.1c-0.1-0.2-0.1-0.4-0.3-0.6l-1-0.8c-0.5-0.7-0.9-1.8-1-2.8l-0.1-1.4l-0.9,0.1l-0.4-1.2l-0.2-0.1l0.1-1.5
		l-0.1-1.6l-1,0.1c-0.1-0.1-0.2-0.1-0.3-0.2c0-0.1,0-0.3,0-0.6l-0.1-1.6l-2.6,0.6l-1.2,0.5c-0.5-0.4-1.2-0.7-2.5-0.7l-1.8,0.3v1.3
		l0.1,0.5c-0.1,0.6-0.3,1.4-0.3,1.9l0,0.8l0.7,0.4l0.1,0.7l0.7,0.3l0.3,1.3l0.4,0.2l0.1,0.6l-0.9-0.2l0-0.4l-1.1-0.5l-0.2-1.1
		l-0.5,0c-0.2-0.2-0.3-0.3-0.5-0.4l-0.4-1.3l-0.2-0.1c0.2-0.5,0.3-1.2-0.3-2l-0.9-0.7l0-1.1l-1-0.6l-0.4-1.4l-0.1,0l-0.1-0.5
		c0-0.4-0.1-0.7-0.1-0.9l-0.3-0.4l-0.2-1.1l0,0l-0.3-1.6l-0.7,0.1l-0.6-0.8l-0.3,0l-1.2-1c-0.3-0.7-0.8-1.2-2-1.4l-0.3,0l-0.2-1.1
		l-3.2-0.3l-0.2-0.4l-0.6,0.1l-0.1-0.2l-0.5-0.2c-0.4-0.1-0.9-0.2-1.3-0.1v-2l-1.1-0.5l0.3-0.9l-0.9-0.4v-0.2l-0.7-0.7l-0.8-0.5
		l-0.4-0.7l0-1l-0.5-0.2l-0.2-0.4c-0.1-0.2-0.4-0.6-0.8-0.9l0.9-0.4v-0.9l-0.3-2.3l-0.1,0l-1-0.1l0-1.9l-0.7-0.4
		c0-0.2,0.2-0.6,0.3-0.7l1.1-2.2l-1.6,0.2l0-0.3l-1.4,0.1l-1.1,0.1l-0.3-0.8l-0.5-0.1l-0.8-1.2l-0.3-0.1l-0.2-2L197,198l0-1.2
		l-0.6-0.2l-0.3-1.3l-0.1,0l-0.5-0.2l0.7-0.1l-0.3-2.1c-0.1-0.6-0.2-1.1-0.1-1.7l0.3,0l0.1-1c0.1-0.5,0-1-0.3-1.3l-0.1-1.2l0.4-0.2
		l-0.1-2.2l-0.8-0.3c-0.5-0.2-0.6-0.3-0.6-2.1l0.2-0.3l-0.4-0.4c-0.1-0.3-0.2-1-0.2-1.4c0.4-0.4,0.7-0.9,0.6-1.7l0-0.5l-0.1-0.1
		c0-0.6,0-1.9,0.1-2.8l0.3,0l0.1-1.1c0-0.3,0-0.6-0.1-0.7l0.3-2.2l0-1.7l-0.1,0l0.7-3.1l-0.8,0.1l-0.1-0.5l0.5-0.3l-0.1-1.3l0,0
		l0.3,0l-0.1-5.1l-0.6,0.1l-0.2-1.3l-0.5,0.1c-0.3-1.1-0.9-1.8-1.4-2.5l-0.4-0.5l1-0.3l3.5,0.1c0,0.1,0.1,0.3,0.1,0.4l0.2,0.6
		l0.4,0.1c0,0.1,0.1,0.3,0.1,0.4c-0.3,0.2-0.6,0.5-0.8,0.7c-0.2,0.1-0.3,0.3-0.5,0.4l-0.6,0.4l0.1,3.5l1.8-0.7
		c0.4-0.2,1.2-0.5,1.4-1.1l0.5-0.2v-0.3l0.8-0.7l-0.1-1.3l1.2-0.1l-0.8-1.7c-0.2-0.6-0.2-0.7,0.1-1.4c0.2-0.4,0.3-0.8,0.5-1.4
		l0.1-1.8l-0.5,0.1l-0.1-0.9l-1.2,0.6c0.2-0.4,0.4-0.8,0.4-1.5l0.1-0.8l-1.5-1l0-1.9l-0.8,0.1l0-0.3l-0.9,0c0,0,0-0.1,0-0.1l0.1-1.4
		L196,144c-0.3-0.1-0.5-0.1-0.9-0.1l-0.1,0l0-0.8l-0.6,0.1l0-0.8l-1.7,0.5v0l-1,0.1l-0.2,0c0-0.2-0.1-0.3-0.2-0.5l-0.3-0.5l-0.5-0.1
		l0-2.2l-1.9,0.8c-0.7,0.3-0.9,0.4-1.4,0.9l-0.3,0.4l-0.2-0.1c-0.3,0-0.5,0-0.7,0l0.2-0.4l-1.8-0.4c-0.1,0-0.2,0-0.3-0.1v-0.8
		l-1.9,0.6l-0.4-2.4l-0.4,0l-0.2-2.6l-0.2,0l0.4-1.1l-1.9,0.3c-0.2-0.1-0.5-0.3-0.9-0.3l-0.2-0.7l-0.1,0c0-0.1,0-0.1,0-0.2L178,132
		l-0.6,0.1l-0.2-1.1l-0.2,0l0.4-0.3l-0.3-0.8l0-1.1l-0.3-2.1l-2.7,0.5l0,1.1l-0.2,0v0.4l-0.5,0.3l-0.4,0l-0.1-2l-0.5-0.1l0-1.8
		l-0.4,0.1l0-1l0.9-0.9c0.3-0.1,0.5-0.2,0.6-0.3l1-0.6l-0.4-1.1l-0.9-1.5l-2.7-0.4l-0.1,0.7c0,0,0-0.1,0-0.1l0-1.8l-0.8,0.1
		c-0.1-0.2-0.2-0.3-0.3-0.5l0-1.2l-0.9,0.2l-0.2-1.1l-1.1-0.2c-0.4-0.1-0.5-0.1-1.3-0.1l0-0.8l-0.7-0.4l-0.2-0.8l-1,0.2l-0.7-0.3
		l-0.5-1.3l-0.7,0.1l-0.1-2.1l-1.7,0.3l-0.1-1.2l-0.3-0.1l0-0.2l-0.1-1.8l-0.9,0.2l-0.2-0.7l0.3-2.4l-1.9,0.8l-0.2-1l0,0l-0.1-0.9
		l-1.9,1.1c-0.5,0.3-0.6,0.2-0.9,0.1c-0.1-0.7-0.4-1.4-0.7-2.1l-0.3-0.4c14.8-13.7,31.6-25.4,49.9-34.4l0,1.2l1.5-0.2
		c0.4,0.3,1,0.4,1.4,0.3l0,0l2.3-0.3l0.1,0.2l0.6,0.1c0.2,0.1,0.5,0.1,0.7,0.1c1.3,0,2.6-0.8,3.4-1.3c0.1-0.1,0.2-0.1,0.3-0.2
		l0.9-0.1l1.8-0.5v-0.7l0.9-2.9l-4.6,1l0-0.2l0,0l0-0.8l-0.1,0c25.7-11.2,54.1-17.5,83.9-17.5c7.8,0,15.4,0.5,23,1.3l-0.2,0.1
		l-0.8-0.1l-1.2,0l-1.3,3.5l2.3,0c0.7,0.2,2.1,0.1,3.5,0c0.7-0.1,1.4-0.1,1.8-0.1c1.3,0.1,2.5,0.2,3.8,0.3l0.3,0.6l0.2,0
		c0,0,0,0.1-0.1,0.1c-0.3,0.9-0.1,1.6,0.1,2.2c-0.2,0.2-0.5,0.3-1,0.5c-0.2,0.1-0.5,0.2-0.7,0.3l-1.4,0l-0.3-0.6l-1.1,0l0-0.3
		l-3.1-0.1l0,0.3l-0.4,0v0.9l-1.8-0.5l-0.2,1.6c0,0.3-0.1,0.5-0.2,0.7c-0.2,0.5-0.4,1.2,0,1.9c0,0-0.1,0.1-0.1,0.1l-1-0.2l-1.6,0
		v1.6l0.3,1.3l0,1.7l0.9,0c-0.1,0-0.3,0.1-0.4,0.2l-1.1,0.3c-0.1,0-0.2-0.1-0.3-0.1c-0.3-0.1-0.5-0.3-0.8-0.3l-0.7-0.1
		c-0.6,0-1,0.2-1.2,0.4l-1.7,0.6l0.6,0.8l-0.7,0.1v0.4l-1.1-0.3l0,1.6h-1.2v1.1h-0.7l0.4,1.7v0l-2.1-0.1v1.6
		c-0.4,0.2-0.6,0.5-0.8,0.6c-0.2,0.2-0.3,0.3-0.5,0.3l-0.9,0.2l-0.2,1.6c0,0.2-0.1,0.4-0.1,0.7c-0.6,0.1-1.1,0.2-1.5,0.3l-1.1,0.6
		l0.6,1.9l0.1,0.1l-0.2,0.5l-0.8,0.4l-0.3,0.1l0,3.1c-0.4,0.3-0.9,0.8-0.9,1.6l0.3,1.3l0.1,0.2l0.7,0.2c0.1,2.3,1,3.8,2.4,4.2
		l0.5,0.1c0.4,0,0.6-0.1,0.9-0.3l2.5-0.2l0,0.5l0.6,0.3l0.5,1.5l0,0.3l0.9,0.6l0,0.9l0.3,1.4h0.2l0.1,0.6h0.4l0.4,1.6
		c0,0.7,0.2,1.2,0.4,1.7l0.4,1.1l1.2-0.3c0.5-0.1,0.9-0.3,1.2-0.5l2.1,0l0-0.4l1.2-0.3c0.4,0.4,0.7,0.5,1.1,0.6c0.1,0,0.1,0,0.2,0.1
		l0.4,0.9l1.5,0l0.5,0.7l0.8,0.2l0,0.5l2.2,0l1.1,1.4l1.5,0l0.3,1.1l0.5,0c0.2,0.5,0.3,0.8,0.3,1.7l0,1.4h1.4c0.3,0,0.6,0,0.9-0.1
		c0.2,0,0.3,0,0.5,0l0.6,1h0.3l0.1,0.4l0.8,0.4c0.6,0.3,1.5,0.3,2.2,0.2l0.5,1l1.5,0.3v0.4l1.5,0.4l0.4,0.7l2.2,0.1l0.5,0l0.1,0
		l0.7,0l0.8-0.1l0.6,0.2l0,0.9l1.5-0.2l0.9,0l0.3,0.2c0.5,0.3,0.9,0.4,1.4,0.6l-0.1,1.1l-0.1,0l-0.6,2.5l-0.1,1.6l0.7,0l0.2,0.3
		c0,0.1-0.1,0.2-0.1,0.3c-0.1,0.3-0.2,0.5-0.2,0.8l0,1.7l0.2,0.9l-0.4,3l1.3,0.2c0.4,0.1,0.4,0.1,0.7,0.7c0.1,0.2,0.2,0.5,0.4,0.7
		c-0.1,0.2-0.2,0.4-0.3,0.8l-0.1,1.4l1.3,0.4c0,0,0,0.1,0.1,0.3l0.2,0.8l0.8,0.2c0.4,0.1,1,0.4,1.2,1l0,0.1l-0.6,1.6l6.8,0.9
		l0.1-1.6l2.2,0.6l0-0.6l0.6,0.1l-0.2-1.7l0.1-1l0.3-0.1v-0.5l0.5-0.2l0.3-1.6c0.2-0.7-0.1-1.3-0.5-1.6l0-0.9l-0.3-0.6h0.1l-0.3-6.1
		l-0.6-0.4c-0.1-0.1-0.2-0.2-0.4-0.3c-0.2-0.2-0.4-0.4-0.6-0.6l0.1-1.9c0.2-0.1,0.3-0.2,0.5-0.2c1-0.5,2-1,2.9-1.2l1.2-0.1l0-0.9
		l1.1-1.2l1.2-0.3l0.4-1.4l1.9-1.4l0-0.5l0.2,0l0-0.1c0.1,0,0.2,0,0.4,0l1.9-0.2l-0.3-1.5c-0.1-0.6-0.3-1-0.4-1.3
		c-0.1-0.3-0.2-0.6-0.3-0.9l-0.5-1.1l-0.2,0c0.1-0.2,0.2-0.3,0.3-0.5c0.2-0.3,0.4-0.5,0.6-0.8l0.6-2l-1-0.1l0-0.2l-1.1-0.4l-1-3.2
		l-0.7-0.5l-0.4-1.9l-0.4-0.2l-0.3-1.6l-0.8-0.2c-0.6-0.2-1-0.4-1.2-0.5l-0.2-1.3l-0.5,0l-0.3-0.6l-0.7-0.1l0.6-0.2l0-0.4l1.4-0.3
		l1.5,0.1l0-1.7l0.8,0.3l0-0.8l0.3,0l0-0.8l0.6,0l0.1-3.8l-0.8-0.1l0.3-1.1l-0.8,0l-0.1-0.8c0.2-0.1,0.4-0.3,0.6-0.5l2-2.1l-2.8-0.2
		c-0.1,0-0.2,0-0.3,0l0.8-0.5l0.1-0.3l0.2,0l0.4-0.8c0.1-0.2,0.2-0.5,0.2-0.7l0.5-0.1l0.1-2.2l-0.1-1.2c0.1,0.1,0.2,0.1,0.3,0.1
		c0.2,0.1,0.4,0.2,0.6,0.3c0.4,0.1,0.8,0.2,1.1,0.2l0.1,0.3l0,0l0,0.4l1.4,0c1,0,1.9,0,2.9,0.1l0.5,0.1c0.7,0.3,1.5,0.6,2.7,0.8
		l0.8,0.1l0.5-0.7c0.2-0.3,0.5-0.4,1.1-0.7c0.3-0.1,0.6-0.2,0.9-0.4l0,0l0,0.1l2,0.6l0.5,0.8l0.4,0.4l0.1,0.1l-0.1,1.3l1.1,0.3
		c0.3,0.1,0.4,0.1,0.5,0.2c0.1,0,0.1,0.1,0.2,0.1l0.3,2.4l0.8-0.2c0,0.2,0.1,0.3,0.1,0.5l0.2,0.7l3.3,0.8l0.6,0l-0.4,1.7l0.5,0.1
		l0,0.3l2,0.3v0.3l0.7,0.2c-0.2,0.2-0.3,0.5-0.4,1l-0.1,0.2l-0.6,0.1l0,1.5c0,0.8-0.1,1.6,0.4,2.4l0.4,0.4c-0.1,0.3-0.2,0.7-0.5,1.2
		c-0.2,0.5-0.4,1-0.3,1.5l0.5,0.9l0.1,0c0.3,0.5,0.7,0.8,1,1.1c0.2,0.2,0.3,0.2,0.4,0.4l0.7,0.7l0.1,0l0,0.1l2.3,0.3l0.2,0.3
		l-0.1,1.4l0.5,0.4l0,2.1l1.9-1h0.8l0.1,0c0,0.1,0.1,0.3,0.2,0.5c0.1,0.2,0.1,0.5,0.2,0.7l0.5,1.5l1.9-1l1.9-0.3l0-0.2l0.5,0l0-0.2
		l0.6,0.1l0.1-1.4c0,0,0.1,0,0.1,0.1l2.2,0.9l-0.4-3l1.9-1l0-0.9c0.1-0.1,0.3-0.3,0.4-0.5l0.4-1l0.3,0l0.1-1.7l0.2,0l0.1,0.6
		l0.3,0.1c-0.4,0.6-0.5,1.4,0.1,2.5c0,0.1,0.1,0.2,0.1,0.2l-0.1,2l0.6,0.1l0.2,1.1l1.2,0.2h0.5l0,0.6l0.1,0l-0.5,1l0.5,0.1
		c-0.4,0.4-0.6,0.9-0.7,1.2l-0.5,1.5l1.5,0.3c0.1,0,0.4,0.2,0.5,0.2l0.5,0.2l0.3,0l-0.1,1.5l0.7,0.2l-0.4,1l2,0.3l0.4,0.4
		c0.1,0.1,0.3,0.3,0.5,0.4c0,0,0,0.1,0,0.1l-1.2,0.5l-0.3,2.3l1.8,0.3l0.2,0.3l-1.9-0.5l-0.2,3.7l0.5,0.1c-0.1,0.6,0.1,1.1,0.2,1.3
		l0.6,0.7l0.1,0l-0.2,0.5l1.4,0.2l-0.1,1.8l2.8,0.8l0.5,0.5c0.3,0.3,0.5,0.5,0.8,0.7l0,0.4l0.1,0.7l-0.5,2.4l2.4,0l0.3,0.7l0.7-0.1
		l0.1,0.8l1.1,0.2l0,0.3l0.8-0.3h0.8c0,0.2,0.1,0.3,0.1,0.6l0.1,0.8l2.4,1.1l0,0c-0.2-0.1-0.4-0.1-0.6-0.1l-1.2,0.3l-0.4,0.5
		l-0.9-0.2l-0.4,0.7l-1.5,0.4l0,0.1l-3.9,0l-0.1,1.3c0,1,0.1,1.5,0.3,2c0.1,0.1,0.1,0.3,0.2,0.5l0.2,0.9l3,0.5l0.6-1.3
		c0.1-0.1,0.1-0.2,0-0.2c0,0,0,0,0.1,0l0.5,0.1l1.2-0.3l1.4,0l0.3-0.5c0.2-0.2,0.5-0.5,0.7-0.7h1.3l2.5,0.4l-0.1-0.8l0.5,0.7
		l0.4,0.2l0,0.6l1.1,0.2l0.2,0.1c0,0,0,0,0,0.1l-0.1,1.7l1.5,0.3l0,0.6c0,0.7,0.2,1.2,0.3,1.6l-0.2,0.8l-1.3-0.3l-0.1,1.1
		c-0.5,0.1-1,0.3-1.5,0.4l-0.6,0.2l-2.4-0.4l-0.2,0.5c-0.1-0.1-0.3-0.1-0.4-0.2l-1.9-1.1l-0.1,1.7l-1.3,0l-0.1,1.2
		c0,0.2,0,0.3-0.1,0.4l-1.4-0.2l0.3,2.2l-2.3-0.4l-0.1,1.9c-0.4-0.2-1-0.3-1.6-0.1l-0.6,0.4c-0.5-0.4-0.8-0.5-1.6-0.7l-1.5-0.4
		l-0.1,0.6l-0.6-0.9h-1.1c-0.4,0-0.7,0.1-1.1,0.2l-0.1,0l-0.1,0l0-0.1l-0.7-0.4c-0.7-0.4-1.5-0.4-2.6-0.2l-1,0
		c-0.3-0.1-0.7-0.1-1.1,0l-0.6,0.1l-0.1-0.2v0l-1.3-0.2l0.6-0.1l-0.8-0.3h-0.3c-0.3,0-0.7,0.1-1.1,0.4l0,0l-0.5,0.1
		c-0.4-0.2-0.9-0.4-1.7-0.3l-0.2,0.1l-2.6-0.9l-1.9-3.4l-0.2,4.2l-1.5-1.5l-0.1,2l-1.4-0.2l0.8,2.1l-0.5,0.9l-2.1,0.4l0,0.7
		l-1.4,0.4l0,0.6c-0.1,0.1-0.1,0.1-0.2,0.2l-0.4,0l0,0.3l-1.4,0.1l0,0.5l-0.2,0l-0.5,0.7c-0.1,0.1-0.2,0.2-0.3,0.3
		c-0.3,0.3-0.6,0.6-0.8,1.1c-0.1,0-0.2,0.1-0.2,0.1l-0.7-0.1l-1.4,0.1l-0.1,2.1l0.5,0.4c0,0,0,0,0,0l0.3,0.4c0,0-0.1,0.1-0.1,0.1
		c-0.1,0.1-0.2,0.3-0.3,0.5l-1,0.9l0,0.7l-0.6,0.5l0,0.2l-0.4,0.2l-0.1,0.3l-1.1-0.1l0,0.4l-0.7,0.9l-0.7,0.2l0,0.6l-1.4,1.7
		l2.6,0.3l1.7,0.1l0.5-0.7c0.3,0,0.7-0.1,1.2-0.4c0,0,0,0,0,0l0.6,0.1l0-0.6c0.3-0.3,0.4-0.6,0.6-0.8l0.9-0.1l0.2-0.9
		c0.1-0.4,0.3-0.6,0.5-0.9c0.2-0.3,0.5-0.7,0.8-1.4l0.7,0.2l0.5-0.6l1.7,0l-0.4-1.7c1-0.4,2.4-1,2.8-1.4l0.3-0.4l0.8-0.2l0.5-0.6
		l1.5-0.2l0.4-0.5l1.4-0.2v-0.4l1.1-0.4l1.1,0l0.5-0.1l3.2,0.6l0.1,0.2l-0.1,1.3l-0.4,0l0.2,0.9l-1.2-0.5l-0.5,2.8l0,0l-0.2,0
		c0,0,0-0.1,0-0.2l-0.9-2.1l-2,1.4c-0.5,0.2-0.8,0.6-1.1,1.4l-0.4,1.2l0.8,0.3l-0.1,2.7l3.1-0.1l1-0.3c0,0.1,0,0.2-0.1,0.3l-0.5,0
		l-0.1,0.9c-0.2,0.2-0.3,0.5-0.5,0.7l-0.9,1.8l2.2,0.3c0.1,0,0.1,0,0.2,0.1c0,0.1-0.1,0.3-0.1,0.4l0,1.1l-0.1,0.6l-1.4-0.9l-0.1,2.4
		c0,1.1-0.1,1.3-0.2,1.4c0,0-0.1,0-0.3,0.1l-0.2,0l-0.1-0.1c0,0,0,0,0,0l-0.8-1.2l-1.1,0.9c-0.5,0.4-0.7,0.8-0.8,0.9l-1.1,0.7l0,0.4
		c-0.4-0.2-0.9-0.5-1.6-0.7l-0.8-0.2l-0.5,0.6l-0.9,0.5l0.5,1.4c0.1,0.4,0.2,0.7,0.3,1.1L396,172c-0.2,0.1-0.5,0.3-0.7,0.6
		c-0.2-0.2-0.4-0.5-0.7-0.6l-2.1-1.5l0,0.8l-1.3-0.2l-0.1,1.4c-0.3,0.3-0.5,0.7-0.6,1.1l-0.3,0.1l-1.3-0.6l0,0.9
		c-0.1,0-0.2,0.1-0.3,0.1c-0.2-0.1-0.4-0.1-0.7-0.2l-1.3-0.3l-0.3,1.3c-0.1,0.3-0.2,0.5-0.3,0.8c-0.2,0.3-0.4,0.7-0.5,1.2l-0.6-0.1
		l0,1.4l-1.7,0.6l0.7,1.3c0,0.1,0,0.1,0.1,0.2l-1.1,0.2l-0.1,1.8l-1.2-0.3l-0.2,1.4l-0.9-0.1l0.1,0.7c0,0-0.1,0-0.1,0h-0.4l-0.6,0
		l-1.1,0.2l-0.2,0.5l-0.8-0.8l-1,1.3c0,0.1-0.1,0.1-0.1,0.2l-0.3,0l-1.4,0.2l0,0.7l-0.8,0.5l0,0.6l-1.2,0.8l-0.8-0.1l-0.1,3.6l1,0.1
		l0,0.3l-0.3,1l-1-0.4l-0.4,1.6c-0.1,0.3-0.4,1-0.7,1.5l-0.1,0c-0.5-0.4-1.1-0.8-1.8-1.1l-0.3-0.2l0.1-0.6l-1.5-1.6l-0.9,0.5h-0.8
		l0,0.3l-0.5,0.1l0,0.2l-0.7-0.2l-0.5,0.8l-2,0.3l0.2,1.3c0,0.3,0.1,0.6,0.1,0.9l-0.5,1.8l-1-0.1l0.2,2l-0.9,0.1l0.4,1.7
		c0.1,0.7,0.4,1.1,0.9,1.4v1.7l0.1,0.1l-0.6,0l-0.1,2.3l0.8,0.6l0,0.5l0.2,0.4c0.3,0.5,1.2,1,2,1.4l-0.1,0.7c-0.1,0-0.2,0-0.4,0
		l-1.3,0.1l-0.1,2.3l-1.3-0.5l-0.1,3l0,0l-1-0.1l0.4,1.8c0.1,0.3,0.2,0.7,0.4,1c-0.1,0-0.1,0-0.2,0.1l-1,0.2l-0.1,1
		c0,0.3-0.1,0.3-0.1,0.3c-0.1,0.2-0.3,0.3-0.5,0.6c-0.3,0.2-0.6,0.4-0.9,0.7l-0.2,0l-0.3,0.1c-0.4,0.2-1.2,0.6-1.8,1l-1.7-0.5
		l-0.4,1.3c-0.1,0.2-0.1,0.4-0.2,0.5c-0.1,0.2-0.2,0.4-0.2,0.6l-1.3-0.1l0,1.4l-0.5,0.6l-1.6-0.6l-0.3,1.6c-0.1,0.3-0.1,0.5-0.1,0.5
		c-0.1,0-0.1,0-0.2,0.1c-0.2,0.1-0.4,0.1-0.7,0.2l-1.2,0.6l0.4,1.2c0,0-0.1,0-0.2,0l-1.4,0.5l0.4,1.2l-0.4,1.8l-1,0l0.3,2.7
		l-0.5,0.1l-0.2,0.7c0,0,0,0,0,0l-0.5,0.5l0.2,0.8c0.2,0.7,0.4,1.1,1,1.6l0.2,1.3h0l0,1.2l0.2,1.4l0.2,0l0.7,2.3l-0.3,1.4l1,0.7
		l0.1,0.4l-0.1,0.5l0,1.1l0.5,0.3l0,0.8l0.6,0.4l0.2,2.8l0.4,0.3l0,0.8l-0.3,0l-0.1,2.5l-0.2,0l-0.1,1.4l-0.6,0.3l0,0.4l-0.6-1.5
		l-0.6-0.4l0-0.7l-0.2-1.4l-0.5-0.3l0-0.3l-0.2-1.4l-0.7,0c-0.2-0.2-0.4-0.4-0.7-0.4l-0.1-0.1c-0.2-0.2-0.2-0.2-0.2-0.2
		c0-0.1,0-0.3,0-0.6c1-1,1.1-2.5,1.1-3l0.1-1.4l-1.9-0.1l-0.2-5.3l-0.7-0.4c-0.1-0.1-0.3-0.1-0.7-0.3l-0.6-0.7c0-0.1,0-0.3-0.1-0.5
		c-0.2-1.5-0.9-2.6-3.4-2.8l-0.9,0l-0.4,0.7c-0.1,0.2-0.2,0.4-0.4,0.5l-0.8,0.2l-0.4-0.6l-0.6,0l-0.5-1.4l-1.4,0l-0.2,0
		c-0.2,0-0.4-0.1-0.5-0.1l0.5-1.6l-4.3-0.8l-2.3-0.1l0,0.7l-0.4-0.7l-2.5,0v-0.2l-4.4,1.2l-0.2,0.5c0,0-0.1,0-0.1,0
		c-0.9-0.1-1.5-0.1-2,0.1l-1.7,0.5l1,1.5l0.2,0.4l-1.3-0.2v1.1c-0.2,0.2-0.4,0.4-0.5,0.6v-2.1l-0.8,0.5l-0.2-1.1l-3.3,0l0.1,0.5
		l-0.4,0.1c-0.6,0.2-0.9,0.4-1.2,0.5L305,239c-0.4-0.6-1.1-0.7-1.4-0.7h-0.4l-0.1,0c-0.3,0.1-0.5,0.2-0.7,0.3
		c-0.2-0.1-0.3-0.2-0.4-0.2l-1.9-0.9v2l-1.1,0.4l-2.9-1l0,2.6l-0.4,0.3c-0.4,0.4-0.6,1-0.7,1.5l-0.7,0.5l-0.7-0.1l-1.6,0v0.8l-1.5,0
		l0.4,1.4l-0.3,0l-0.2,0.5l-1.6,0.3v0.8c-0.1,0-0.1,0-0.2,0l-1.2,0.2l0,1.2c0,0.3,0,0.6,0,0.8l-1.1-0.2v1.4
		c-0.1,0.2-0.2,0.4-0.2,0.7l-0.4,1.8l0.7,0l-0.1,0.7l0.1,1.5h0.2l0.5,1.9h0.3l0.4,0.6l-0.4,2.1h0.7c0,0,0,0,0,0
		c0,0.1-0.1,0.2-0.1,0.3l-1.3,0l-0.1,1.2c-0.1,0.4-0.1,0.6-0.2,0.8l-1.1,0.6l0.2,1.1h-0.3l0.7,4.6c-0.2,0.5-0.5,1.3-0.2,2.3l0.4,0.6
		l0,0l0,1.1l0.3,1.4h0.1l0,0.3l-0.1,0.6h-0.7l-0.2,7.2h1.2l0.1,0.3l0.6,0.4l0.1,0.4l-0.1,0.2l0.3,1.3l0.4,0.2l0.6,1.2v0.9h0.6
		l0.6,0.4c0.2,0.1,0.3,0.2,0.5,0.7l0.4,0.8h0.5c0.2,0.9,0.5,1.5,0.8,2.1c0.3,0.6,0.6,1.1,0.6,1.9l0.1,1.5l1.5-0.2h1.5l0.4,0.2
		c0.2,0.1,0.4,0.1,0.6,0.2c0,0,0,0,0,0c0.2,0.4,0.3,0.6,0.4,1l0.2,1.1l1.1,0c0.6,0,1,0,1.3-0.1c0.5,0,0.9-0.1,1.6,0l1.6,0.3l0-1
		c0,0,0.1,0,0.1,0l2,0.8v-1.7c0.1-0.1,0.2-0.2,0.2-0.3l1.5-0.5c0.1,0.1,0.3,0.3,0.5,0.5l2.3,1.7v-1.6h0.6l0.4-0.8
		c0.2-0.5,0.8-1.5,1.1-1.9l1.4-0.5l0-1.8h0.3v-1.2l0.8-0.6l1-5.2l0.4-0.2l2.1,0l0.4-1l1.4-0.2l0.9-1.2c0.3-0.1,0.6-0.1,1-0.2v0.2
		l0.5,0v0.3l1.2,0l0.3,0.5c0,0.1,0,0.2,0,0.4c0,0,0,0,0,0l-0.4,0v0.6l-0.2,0l0,1.4l-0.4,0.3l-0.6,2.4c-0.2,0.7-0.2,1.2-0.1,1.7
		l0,0.6c0,1.1-0.3,2.1-0.7,3.1l-1.8-0.1l0,1.4c-0.4,0.5-0.7,1.1-1,1.6l-0.8,1.7l1.7,0.2c0,0,0,0,0,0.1l0.2,0.8l-0.1,1.1l-0.6,0.3
		l0,0.3l-1,0l0.9,2.2l-0.2,0.4c-0.2,0.5-0.2,1-0.2,1.5l-0.7,0.4l0,0.8l0,0.1c-0.1,0.1-0.2,0.2-0.2,0.3c-0.4,0.5-1,1-0.9,1.9l0.4,1.7
		l3.4,0.1c0.4,0,0.7-0.1,1-0.3l2,0c0.3,0.2,1.1,0.5,1.8,0.2l0.5-0.2l0.2-0.4l3.3-0.2l0.1-0.2l2.7,0.2l0.5,0.4
		c0.2,0.1,0.4,0.2,0.5,0.3l0.1,0.1l-0.1,1.8l1.1,0.2c0.5,0.1,1,0.3,1.6,0.5l-0.2,2l0.3,0l-0.5,0.3l-0.3,0l0,0.6h-0.3l0,1.3l-0.2,1.3
		c-0.4,1.1-0.3,2-0.2,2.9l-0.3,0l-0.5,4.3l0.1,1.5h0.1l0,0.1c-0.5,0.4-0.7,1.1-0.6,1.8l0.7,1.9l0.3,0.2l0.1,1.2l0.3,1l0.1,0.8l0.7,0
		c0.1,0.1,0.1,0.2,0.1,0.4l0.4,0.8l0.5,0.2c0,0,0,0,0,0l0,0.4l1.3,1.2l0,0.2l0.1,0.5l-0.3,2h1.1c0.4,0.4,0.8,0.6,1.3,0.8
		L338.4,338.2z M439.8,153.9l0.6,0l0.5,1.6l1.7-1l0.1-0.1l0.8,0.1l1.2,1.7v1l0.3,0.1l-0.3,0.8l0.9,0.2l-0.5,1.2l-0.4,0l0,0l-3.8-0.7
		l-0.2,0.4l-1.6,0l-0.5-1.5l-1.3,0.7l-0.6,0l-0.1,0.2l-0.4-0.1l0-0.3l-4.5-0.7l-0.6,0l-0.3-0.1l0.2,0l0-0.7l0.8,0l0.1-0.7
		c0,0,0,0,0.1-0.1l0.6,0.3l-0.2-1.3l0.2-0.4l1.2,0.9l0.3-2.1l0.8-0.1l0.1-1l1.4,0.3l0,0l2,0.4l-0.1,0.8L439.8,153.9z M407.2,144.6
		l-0.1,1.7l-1.3-0.2c-0.5-0.7-1.4-0.8-1.8-0.8l-0.6,0.2l-1.1,0.1l0,0.2l-1.9,0.3l0,0.2l-1,0.3l1.2-2.2l0.4-0.1l0-0.2
		c0.2-0.1,0.3-0.2,0.5-0.3l1.2-0.1l0,0l0.2-0.1l1.9,0.6l1.6,0.2C406.5,144.5,406.7,144.6,407.2,144.6L407.2,144.6z M407,173
		l-0.5-0.2l-0.1,2l-0.5-0.1l0.2,1.5c-0.3,0.1-0.4,0.3-0.7,0.6l-1.9-0.2l-0.1,0.2c-0.3-0.3-0.7-0.6-1.2-0.8l0-0.3l-0.2-0.1l0-0.5
		c0.3-0.2,0.5-0.4,0.8-0.5l0.6-0.4l1.6-0.1l0.1-1c0.2-0.2,0.3-0.4,0.3-0.7l0.4-0.1l0.3-0.3c0,0,0,0,0.1,0l0,0.3l1.9,0.7l-0.5,0v0
		L407,173L407,173z M399.2,171.8c0.2,0.1,0.5,0.2,0.8,0.3l0.6,0.1l0,0.5c-0.3,0.2-0.6,0.4-0.8,0.6l-0.5,0.3v-0.9
		C399.3,172.4,399.3,172.1,399.2,171.8z M366,201.2l-0.8-0.1l0.1-0.8l-0.1,0c0-0.2-0.1-0.5-0.2-0.7l1.1-0.8l0-0.8
		c0.1,0.4,0.3,0.9,0.7,1.2c-0.1,0.2-0.2,0.5-0.3,0.9l0,0l0,0.5l-0.5,0L366,201.2z M344.5,338.9c-0.1,0-0.2,0.1-0.2,0.1l-1.1,0.6
		l0.3,1.2l-0.9,0.1l-0.6-1.8h1l1.3-0.3l0-0.3l0.2-0.1L344.5,338.9z M379.9,448.6L379.9,448.6l-0.8-0.7l-0.1-0.4l-0.5-0.4
		c-0.2-0.2-0.4-0.3-0.7-0.3l-0.4-1.9h-0.3l-0.3-1.2l-3.4,0.9v1c0,0.5,0,0.7,0,0.9c0,0.3,0,0.4-0.1,1l-0.4,2l2.2-0.5l0.6,1.1
		c-1.8,0.7-3.6,1.4-5.4,2.1l-1-0.2l-0.2-0.5l-1-0.3l-0.3-0.8h-0.7l-0.2-0.6l-0.3,0v-0.3h-1.2l-0.1-0.3l-1.1-0.4l0-0.6l-1-0.3
		c-0.2-0.1-0.3-0.2-0.6-0.5c0,0,0,0-0.1-0.1v-1.1h-1.1l-0.7-1.1h-0.3l-0.1-0.3l-0.5-0.2l-0.5-2.1l0-0.1l-0.7-0.4l-0.5-1.8l0-0.6H358
		c0-1.5-0.1-2.7-0.3-3.8l-0.3-1.7h-0.4c0-0.2-0.1-0.4-0.2-0.6l-0.7-2.4h-0.6c0,0,0,0,0,0c0.1-0.7,0.2-1.4-0.2-2.2l-0.6-0.8l0-0.4
		l-0.5-0.4l0.1-1.4l-0.7-2.8h0l0-0.5l-0.2-1.4h-0.3l-0.2-0.5l0.1-1.9l-0.8-0.6l-0.2-1.8l-0.4-0.2v-0.5l-0.7-0.5l0-0.7l-0.5-0.3
		l0-0.3l-2.1-2.1l-0.4-1.3l-1.4-1.1l0-0.9l-0.7-0.6l0-0.6l-0.7-0.6v-1l-0.8,0l-0.1-0.4l-1.7-1.1l0.1-0.4c0.5-1.4-0.2-2.4-0.6-3.1
		c0.1-0.2,0.2-0.4,0.2-0.7l0.1-0.8l-0.7-0.5l-0.3-0.3l0.5-1.5c0.4-0.7,2-2.4,3-3.3l0.3,0.2l0-0.5c0.1-0.1,0.1-0.1,0.2-0.1l1.2-0.9
		l-0.2-0.2l0.4,0l0.1-2.7l-0.2-1.4l-2.5-0.1l0-0.5l-0.4-1.2h0.6l-0.1-1.5c-0.1-0.7-0.2-1.1-0.4-1.5c0.2-0.2,0.4-0.4,0.5-0.6l1.5,0
		l-0.5-2.8l-0.3-0.6l0.1-0.5l0.5,0l0.4-0.7c0.2-0.4,0.4-0.6,0.5-0.7l0.6-0.5l-0.1-0.8c0-0.2-0.1-0.5-0.2-0.8l0-0.9l0-0.3l0.3,0
		l0-0.6h0.2l0.4-0.7c0.1-0.2,0.2-0.3,0.5-0.5c0.5-0.4,1.2-0.9,1.5-2.1l1.6,0l0.1-1.9l-0.1-1.2l-0.4-0.1c0-0.1,0-0.2,0-0.3l0.5-0.7
		l1.1-0.2l0-0.2l1.3-0.2l0.2-0.8l0.5-0.1l0.1-1.3l0-0.1c0.1-0.2,0.3-0.3,0.4-0.4c0.4-0.4,0.9-0.9,1.2-1.9l0.8-2.5l-2.2,0.8l0.1-0.2
		c0.3-0.5,0.9-2.6,0.8-3.7l0.5-2.5c0.4-0.5,0.4-1.2,0.5-1.9l-0.1-0.6l0.3,0l-0.3-3.3l0-1.1l-0.2-1.4l0-0.2l-1.8,0l-0.4-0.2
		c-0.5-0.3-0.5-0.3-0.6-0.7l-0.2-0.4l0-0.4c0.1-0.1,0.1-0.2,0.2-0.3l1.1,0l0.1-1.6l0.5,0.3c0.2,0.7,0.4,1.2,0.8,1.7v1l3.3,0.1
		l0.3-2.2h0.2l0.2-1.1c0.1-0.5,0-0.9-0.2-1.1l0.7-1.3l1.6,0.2l0-0.4l0.5,0l-0.3-2.2l1.4-0.1l-0.2-1.4c-0.1-0.8-0.1-1.3,0-2l0-0.4
		c0.2-0.2,0.3-0.3,0.4-0.4c0.1,0.1,0.1,0.2,0.2,0.2l2.1,2.1l0.2-3c0-0.3,0-0.5,0.1-0.6c1.6,0,2.7-0.4,3.9-1.6l0.1-0.2l1.2,0v-0.3
		l0.4-0.1c0,0.1,0,0.2-0.1,0.3l-0.2,1.5l1.5,0.1c0,0,0,0.1,0,0.1l0.1,1.1c-0.7,0.6-1.4,1.5-1.2,2.9l0,1l0,1.3l0.6,0
		c0,0.2,0.1,0.3,0.2,0.5c0.1,0.1,0.1,0.2,0.1,0.4l0.4,0.7l0,0.1l0.5,1.4l2.7,0.1l0-1c0.1,0,0.1-0.1,0.2-0.1c0.2-0.1,0.3-0.2,0.7-0.2
		l1.4-0.1l-0.3-3.3l-0.1-0.3l0.2-1.5l-0.4-0.3c-0.1-0.2-0.2-0.4-0.3-0.7l-0.5-0.4l0-1.3c0.4-0.1,0.7-0.2,1.1-0.4
		c0.8-0.3,1.4-0.5,2.7-0.5c0,0,0,0,0,0l1.3,0l0-0.7c0.3,0,0.6,0,0.8,0l0.2,0.4l0.4,0.5c0,0,0,0,0,0l0.3,1.6c0.1,0.7,0.3,1.2,0.9,1.6
		l0.6,0.8l3-0.9l2.8,0.3l-0.1,1.2l1.6,0.4v0.6l5.2-0.1l1.3-0.6l0-0.2c0.1-0.1,0.3-0.1,0.4-0.2l0-0.1l0.3,0c0.5,0.2,1.3,0.2,1.9-0.1
		l0.3-0.3c0.1,0.6,0.4,1,0.8,1.6l0.5,2.5l2.3-0.7c0.3,0.3,0.7,0.7,1.4,0.9l0,0l-0.1,1.3l-0.1,0.1l-2.7-0.1l-0.2,0.3l-0.6,0.1
		l-0.2,0.9c-0.1,0.3-0.1,0.4-0.3,0.7c-0.1,0.2-0.2,0.3-0.4,0.6l-0.9,2l2.3,0.1l0.6-0.1l0.4-0.4c0.1-0.1,0.6-0.4,1-0.5l1.2,0.1
		l1.4-0.2l0-0.1l1.6,0.3l0.1-0.2l1,0.3l0.6,0.1c0.1,0,0.1,0,0.2,0l0.3,0.4c0.2,0.3,0.5,0.8,1.3,0.9l0.2,0.3l0,0.6l0.5,0.3l0,0.2
		l0.6,0.4c0.1,0.1,0.3,0.2,0.4,0.2l0,0.4c-0.3,0.4-0.4,0.8-0.6,1.1c-0.1,0-0.1,0.1-0.2,0.1l-1.2,0.5l0.1,1.2c0,0.5,0.1,1,0.1,1.5
		l0.4,1.2l0.7,0l0,0.3l2.8,0.2l0.1-1.4c0-0.6,0.1-1,0.2-1.4l0.1,0l-0.1,0.6l1.7,0.5l0.2,0.4l0.5,1.9l0.4,1.1l2.5,0.2l0.1-1.3l0.2,0
		l0,0.4l4.6-0.3l0.7,0.3l-0.1,1.2l2.1,0.1c0.2,0,0.3,0.1,0.5,0l0.4,0v0l0.5,0l0.2,0.1c0.5,0.3,0.9,0.4,1.2,0.6
		c0.5,0.2,0.6,0.2,0.7,0.4l0.2,1.5l0.2,0l0.1,0.5l0.3,0l0.2,0.8l1,0.6c0.2,0.3,0.5,0.5,0.8,0.6c0.2,0.6,0.4,1.4,0.8,1.8l0.3,0.2
		l0,0.1l0.2,1.4l0.2,0l0.4,1.3l0.1,0c0,0,0,0,0,0l0.2,0.4l0,0.1l0.1,0.7c-0.1,0.3-0.1,0.6-0.2,0.9l-0.1,1.6l0.7,0.3c0,0.3,0,0.7,0,1
		l-0.5,1.3l0.9,1l-0.4,0.2l-0.1,2.4l0.4,0.1c-0.1,0.3-0.3,0.5-0.4,0.8l-1.3,1.8l-0.6,0l-0.3,0.5l-0.7,0l-0.1,1.3l-0.2,0.1l-0.2,0
		l-0.1,1.3c0,0,0,0.1,0,0.1l-0.6,0.6c-0.1,0.2-0.2,0.6-0.5,1.5c-0.7,0.2-1.2,0.5-1.6,0.7c-0.1,0-0.1,0.1-0.2,0.1l-0.1,0l-2.5,0.4
		l0,0.2l-2,0.9l-0.1,1.2c-0.2,0.2-0.3,0.3-0.4,0.4c-0.1,0.2-0.2,0.3-0.4,0.4l-1.4-0.1c-0.8-0.5-2.4-0.3-3.3,0
		c-0.2,0.1-0.3,0.1-0.4,0.1l-1,0.5l-0.3,2.4l1.5,0.1l1,0.1l0.4-0.4c0,0,0.2-0.1,0.8-0.1c0.7,0,1.5,0.1,2.2,0.2
		c0.5,0.1,1,0.1,1.5,0.1l0.9,0.1l0.4-0.8c0.3-0.6,0.5-0.8,0.7-0.9l0.6-0.4l0.1-0.6l2.1-0.6l1-0.3l0.8-0.1v-0.3
		c0.1,0,0.1-0.1,0.2-0.1c0,0.2,0,0.4,0,0.6l-0.1,0l-0.8,3.8l1.7,0.1l0.8-0.1l0.7-0.9l0.6,0l0.2-2.6l0.3,0c0.3,0.4,0.6,0.9,0.9,1.3
		l0.3,0.8l2.1,0.1l0.9-0.3l0.4,0.1c0,0,0,0,0,0l0,0.3l3.1,0.1l0.2-1.2l0.9-0.8l1.6,0.1l0.1-1.9l-0.1-0.4c0.3-0.2,0.5-0.4,0.7-0.6
		c0.1-0.1,0.1-0.2,0.3-0.3l1.3-0.1c0.1,0.1,0.2,0.2,0.3,0.2l0.8,1.1l0.6,0.8l0.6,0l0,0.2l0.9,0.3l0.5,0.5c0,0.1-0.1,0.2-0.1,0.3
		l-0.2,1.7l1.8,0.1l0.3-0.1l-0.2,0.5l0.4,0.1C436.1,415.6,409.8,435.5,379.9,448.6z M375,334.3c0-0.1-0.1-0.2-0.1-0.3
		c0-0.1,0.1-0.2,0.3-0.3c0,0,0.1,0.1,0.1,0.1c0.1,0.1,0.2,0.2,0.3,0.3l0.2,0.1c0,0.1,0.1,0.2,0.1,0.2l-0.2,1.7l-0.3,0c0,0,0,0,0,0
		c0,0,0-0.1,0-0.5l0-1.3L375,334.3z M445.8,384.2l-0.4,0.1l-0.3,1.2c-0.3,0.1-0.5,0.3-0.6,0.6l-0.8,0.4l-1.6-0.3l-0.7,0l-0.3-0.3
		c-0.1-0.4-0.1-1.1,0-1.6l0.8-0.2l0.4-1.5c0.3-0.1,0.5-0.2,0.8-0.4l2.6,0.5l0.1,0C445.7,383.4,445.7,383.8,445.8,384.2z
		 M459.5,387.6L459.5,387.6l-0.3-1l-1.4,0l-1-1.3l-0.4,0.1l0.1-1.5l-1.9,0.5l-0.8-0.8c-0.2-0.2-0.4-0.4-0.8-0.7l-0.4-0.7l-3.4,0.2
		l-0.4,0.1l-0.2-2.8l-2,0.3c-0.1-0.3-0.2-0.6-0.4-0.9l-0.4-1l-1.6,0.3c0.2-0.7,0.4-1.4,0.6-2.1l0.3-1.7h-1l0.1-0.3c0,0,0,0,0-0.1
		l0.3-0.3l0-0.6c0-0.8,0-1.1-0.2-1.7l-0.1-0.5l0.2-1.7l-1.8-0.1l-0.5-1l-0.1-0.4c0.1-0.3,0.1-0.6,0.2-1l0-1.5l-0.3,0l-0.1-0.8
		l-0.3,0l-0.6-1.9l0.1-1.2l-1.1-0.5c-0.1-0.4-0.3-0.9-0.3-1.1l-0.4-1l-0.9-0.2c0,0,0,0-0.1-0.1l0.1-1.3l-0.9,0l-0.4-2.1l-0.7-0.1
		c-0.5-0.6-1.2-0.8-1.7-1c0,0,0,0,0,0v-0.7l-0.8-0.1l-0.4-0.2c-0.4-0.2-0.8-0.3-1.2-0.2l0.2-0.9l-1.6-0.2c-0.5,0-0.6-0.1-0.9-0.3
		c-0.3-0.2-0.7-0.4-1.2-0.6l-1.7-0.5l0,0.3l-0.7-0.3l-0.1,1.1l-1.8-0.4l-0.5-0.1c-0.2,0-0.4,0-0.6,0.1l-0.5-0.2l-0.4-0.6l-0.2-0.1
		c0-0.1-0.1-0.1-0.1-0.2l-0.3-0.6l-1.1-0.3l-0.3-0.3c-0.2-0.2-0.3-0.3-0.5-0.4l-0.2-1l-1.4,0.3l0.1-2l-0.1-0.3
		c-0.1-0.3-0.4-0.8-1.2-1l-0.2-1.2l-0.6,0l-0.5-0.6c-0.1-0.1-0.3-0.2-0.4-0.2l0-0.8l-0.8-0.1l0-0.2l-1.3-0.8h-0.2l0-0.8l-0.8-0.4
		c-0.4-0.2-0.6-0.3-1.2-0.4l-0.2,0l0.3-0.2l0-0.7c-0.1-0.8-0.2-1.1-0.5-1.8l-0.1-0.3c0.1,0,0.2-0.1,0.2-0.2l0.6,0l0.4-0.9
		c0.3-0.6,0.1-1.3-0.1-1.8l0.3-0.6l0.1-1.8l-4.2-0.2l0,0.3l-1.1,0l0.4,1.2l-0.8-0.7l-0.7-0.1c-0.7-0.1-1.5-0.2-2.4,0.1l0,0l0.2-1.9
		l-3.6-0.2l-0.1,1.9l-0.9,0.1l0.3,0.7l-1,0l0,0.7l-1,0.5l-1.4,0l-1.3-0.3l0.1-1.5l-5.9-0.7l-0.7,0.2l0.1-0.7l-0.6-0.4
		c0-0.3-0.2-0.5-0.4-0.7c-0.2-0.3-0.5-0.9-1.3-1.1l-0.4-0.7l-0.3-0.2c-0.6-0.4-1.3-0.4-1.9-0.4c-0.2,0-0.6,0-0.6,0l-0.2-0.4
		c-0.1-0.3-0.1-0.9-0.7-1.6c-0.2-0.3-0.6-0.5-1-0.6l-0.9-0.3l-0.6,0.7c0,0-0.1,0-0.3,0.2l-0.8,0.7v0.9c0,0.4,0,1,0.3,1.6
		c-0.2,0.1-0.5,0.2-0.7,0.3c-0.3,0.1-0.6,0.2-1,0.3l0-0.8c0.2-0.1,0.4-0.2,0.6-0.3l0.7-0.4l0.1-1.6l-0.2-1.1l-0.7-0.2l0.1-0.8
		l-0.7,0l0-0.3l-2.7-0.2l0,0.3l-0.3,0l-0.3,0.5l-1,0l0,1.3l-0.2,0.7c-0.1,0-0.2,0.1-0.2,0.1l-0.1,0l-0.9,0l0,0.3l-0.6,0l0,0.3
		l-0.7,0l-0.8,1.5c-0.5,0.5-1.2,0.7-2.6,0.6l-1.1,0.2l-0.4,0.8l-1.9-0.1l-0.1,0.7c-0.3,0.2-0.6,0.5-0.8,0.8l-0.6,0.4l-0.2,1.6
		c-0.1,0.5-0.1,1-0.1,1.5c-0.2,0.1-0.3,0.2-0.5,0.3l-0.8,0.4l0.1,0.9l-0.4-0.1l-2,3.9c0,0.1-0.1,0.2-0.1,0.3l-1.6-1l0-1.4l-1-0.3
		c-0.3-0.1-0.4-0.2-0.6-0.4c-0.1-0.1-0.1-0.1-0.2-0.2l-0.2-2.4l-1.1-0.1c-0.8-0.1-1.6-0.3-2.3-0.5c-0.5-0.1-1-0.3-1.4-0.4l-1.4-0.3
		l-0.4,1.7l-2.1,0.2l-0.2,0.4l-0.6,0l-0.7,1l-0.3,0.1c-0.2-0.1-0.2-0.1-0.4-0.3c-0.3-0.2-0.7-0.6-1.4-0.8l-0.9,0l0.2-1.5h-0.4
		l-1.3-1.2l-0.2-1.3l-0.8,0c-0.1-0.1-0.2-0.2-0.3-0.3c-0.2-0.4-0.4-0.7-0.7-1.1l-0.2-1.2h-0.2l-0.1-1.4l-0.6-0.3l0-0.2l0.3-3l-0.2-1
		l0.1-0.7l0.7,0l0-1.4c0-0.6,0-1.1-0.1-1.6c0-0.4-0.1-0.7-0.1-1h0.4l0-1.7h0.3l0-0.5l0.3,0l0-1.1l0.5-0.3l0-0.3l0.2,0l0.1-1.7
		l-0.3-1.7l0.3-1.5l-0.8-0.5c-0.5-0.3-1.3-0.7-2.2-1l0-0.3l-0.2-1.4l-0.4,0c-0.2-0.4-0.5-0.7-1-0.7l-0.3-0.6l-3.9-0.4
		c-0.3-0.3-0.7-0.5-1.2-0.6l-1.2-0.3l-0.4,1.1l-3,0.2l-0.1,0.3c-0.1,0-0.2,0-0.3-0.1l-2.9,0l-0.3-0.1l0.2-0.3
		c0.3-0.4,0.3-0.9,0.4-1.2l0.4,0v-0.7l1,0l-1-2.1l0-0.2l0.5-0.2l0.4-3.4l1.5,0l-0.4-3.3c0.1-0.4,0.2-0.8,0.3-1.2
		c0.3-0.9,0.6-1.9,0.7-3.2c0.2-0.2,0.3-0.4,0.4-0.7c0.1-0.5,0-0.8-0.2-1.1l0.3-1.9l0.6-0.3l0-0.3l0.2,0l0.1-0.9l0.2-0.6
		c0.2-0.6,0.2-1.2,0.3-1.8c0-0.3,0-0.6,0.1-0.7l-0.1-1.4l-0.6-0.3l-0.4-1.2l-0.8,0l-0.1-0.3l-0.9-0.2l-0.8-0.1c-0.9,0-3,0.4-3.6,0.7
		l-0.8,0.9l-1.8,0.4l-0.2,0.5l-1,0.2v0l-1.6,0l0,0.7l-0.7,0.2l-0.8,3.8h-0.5l0,2l-0.6,0.4l-0.4,0l0,2.7l-0.3,0.2
		c-0.4,0.3-0.9,1-1.2,1.6v-0.8l-1.8,0.6l-1.3,0.2c-1.5,0.2-2.1,1-2.5,1.5c-0.1,0.1-0.1,0.1-0.2,0.2c-0.3,0-0.5,0-0.8,0.1
		c-0.2,0-0.4,0.1-0.7,0.1l-1.3,0v0.4c-0.2,0-0.4,0-0.7,0c0,0-0.1,0-0.2,0c-0.1-0.2-0.2-0.4-0.2-0.5c-0.1-0.2-0.2-0.3-0.2-0.5
		l-0.2-0.5l-0.5-0.2c-0.1,0-0.2-0.1-0.2-0.1v-0.6h-0.8v-0.5l-2.1,0.3c-0.2-0.6-0.4-1.1-0.7-1.5c-0.4-0.7-0.6-1.2-0.6-2.2v-1.4
		l-1.3,0c-0.1-0.2-0.3-0.5-0.5-0.7v-1.3l-0.8,0l-0.2-0.6l-0.3,0l-0.1-0.6l-0.1-0.1l0.2-1.8h-0.5l-0.7-0.4l0-0.4l-0.3-1.4v-1.5
		l-0.4,0.2l0-0.6l0.6-2.6l0.2-2.2H289l-0.2-1.1l0-0.6l-0.5-1c0,0,0,0,0,0c0.1-0.2,0.2-0.4,0.2-0.7l0-0.3l-0.3-1.9l0.3,0l-0.3-2.3
		l0.1-0.2c0.3-0.4,0.5-0.8,0.6-1.1l1,0l0.2-1c0.1-0.3,0.2-0.5,0.3-0.8c0.2-0.5,0.5-1.1,0.6-2.1l0.2,0l-0.2-0.6l0-0.6l-0.2-0.1
		l-0.4-1.3l-0.6-0.7c-0.1-0.2-0.1-0.4-0.3-0.6l-0.5-2.1l0-0.3l0.1,0l0.4-1.2c0.2-0.5,0.3-1.1,0.4-1.9c0.3-0.2,0.6-0.4,0.9-0.8l1.1,0
		l0.3-0.6l1.2,0l0-0.3h0.7l-0.3-1.1l0.3-0.7l0.4,0.1l1.6,0v-0.8h1.3l0.1-1.8c0,0,0-0.1,0-0.1l1.1-0.4l0-0.4h1.7l0.4-0.8l1.5-0.5
		c0.4,0,0.9-0.1,1.2-0.3l0.9,0.2v0.7l1.5-0.2c0.2,0,0.4-0.1,0.5-0.1l0,0.2l1,0.3l0.4,0.8l0.5,0l0.2,1.1h1c0.8,0.5,2.1,0.8,3,0.5
		l0.5-0.2l0.6,0.1c0.3,0.2,0.6,0.3,0.9,0.4l1,0.4l0.6-0.8c0,0,0,0,0,0l0.2-0.2l0,0.7l2.9,0l0.4-0.5c0,0,0,0,0,0l0.7-0.5l-0.5-2.7
		l0.3-0.1l-0.3-1.4c0-0.2-0.1-0.3-0.1-0.5l2-0.5l0.1,0.4l3.6,0.1l0-0.5l0,0l0.9-0.1c0.4,0,0.7-0.1,1-0.2c0.5,1.2,1.6,1.5,2.8,1.7
		l0.5,1.4l0.9,0l0.7,1.1l0.3-0.1l0,0.3l1.8-0.4c0.9-0.2,1.7-0.7,2.3-1.5c0,0,0,0,0,0c0,0.1,0,0.2,0,0.3c0.1,0.5,0.2,1.3,0.7,2.1
		l0.4,0.4l0,0l0.4,0.5c0.2,0.1,0.3,0.2,0.6,0.3l0.1,2l-0.1,0.4c-0.2,0.5-0.7,3,0,4.2l0.3,0.3l0.1,0.4l0.5,0c0,1.3,0,2.1,0.7,3v0.4
		l0.6,0.4c0.2,0.1,0.4,0.3,0.7,0.3l0,1l0.6,0.3l0.2,1h0l0,0.8l1,0.7l0.5,1.9l1,0.4c0.1,0.2,0.2,0.4,0.4,0.7l0.2,1.7l1.5-0.7l1.4,0.3
		l0.6-2.3l0.1-0.6l0.5-0.3l0-0.3l0.2,0l0.1-2.5l0.3,0l0-1.1l0.2,0l0.1-1.7l-0.2-1.2l0-1.3l-0.6-0.3l-0.1-2l-0.5-0.9l0-0.1l-0.4-0.9
		l0.2-2.2l-0.4,0l-0.5-0.4l0.2-2.1l-0.4,0l-0.4-1.4l-0.2,0l-0.3-1.1l0-1.7l-0.4-1.7l0.3-0.1l-0.2-1.8l0.1,0l0.6-2.8l1,0l-0.4-1.5
		c0.1-0.1,0.2-0.2,0.4-0.3l0.8-0.4l-0.1-0.9c0,0,0-0.1,0-0.1c0.6-0.2,0.9-0.5,1.2-1l0.2,0.1l2.8-2.2l0-0.1l1,0.1l0.1-1.4
		c0-0.3,0-0.4,0.1-0.6l0.7,0.2l0.6-0.7c0.2-0.2,0.7-0.6,1.1-0.8l0.5,0l1.4-0.2l0-0.8c0,0,0,0,0,0c0,0,0,0,0,0l0.9-0.5l0.2-0.8
		c0.2-0.3,0.4-0.5,0.6-0.9c0.3-0.1,0.5-0.3,0.7-0.4l0.6,0.1c0.4,0,0.7-0.1,1-0.3l1.1,0.1l0.1-3l-0.3,0l-0.1-0.3h0
		c0.7,0,1.3-0.4,1.7-0.7l1.1,0.1l0.1-3l-0.8-0.1l-0.2-0.3l0.7,0l-0.8-2.7l-0.1-0.1l0.4-1.8l-1.2-0.4c-0.2-0.1-0.7-0.3-1.1-0.4
		l1.3-0.1l-0.2-1.5c0-0.1,0-0.1,0-0.1l0.3-0.2l0,0.7l2.5,0.1l0.4-0.9c0.1-0.2,0.3-0.6,0.4-1.1l1-0.1l-0.2-1.4c0,0,0,0,0,0l0-0.8
		l0.1-0.1c0.3-0.5,0.4-0.9,0.5-1.6l0.2-1.5l-0.2,0c0-0.1,0.1-0.3,0.1-0.5v-0.4l1.1,0.1l0.3-0.1c0.7-0.3,1.3-1.2,1.7-2.1l0.9,0.4
		l1.5-4.4l-0.1-0.6l0.8,0.1l1.4-0.2l0-0.4c0.1,0,0.3-0.1,0.4-0.1l0.4,0.4l0.6,0c1.1,0,1.9-0.2,2.4-1.2l1.1-0.1l0.1-2.5l1,0.1l0-0.7
		l0.1-0.3l2.1-0.2l0,0.1l2.8-0.5l0.5,0l-0.1-0.1l0.5-0.1l0.1-3.3l-2.6,0.4c-0.2-0.2-0.3-0.3-0.5-0.4h0.6l-0.1-1.5
		c0-0.5-0.1-0.8-0.2-1.1c0.2-0.2,0.3-0.4,0.4-0.6l0.1-0.2c0.6-0.3,0.9-0.8,1.1-1.5l0-0.3l0.3,0.3l0.5-0.4l2.2,0.2l0-0.5l1.4,0.2
		l0.1-1.4l0.9-0.2l2.2,0.2l-0.1-0.2l1.2-0.2l0.3-1c0.1-0.1,0.2-0.2,0.4-0.3l1.1,0.1l-0.1,2l0.1,0.9l0.4,0.2l-0.1,1l1.2,0.2
		c0.7,0.1,0.8,0.2,1.2,0.7c0.2,0.3,0.6,0.7,1.1,1.1l1.3,0.9l0.3-0.5h0.4c0.8,0,1.3-0.5,2.2-1.5l2.4,0.9l-0.3-2.2l0-0.7l1.6,1.3
		l1-2.6l3.2-0.3l1.5-1.5l1.2-0.2l0-0.2l2.1,0.3l0-1.9l1.5-0.1c0.4,0,0.7,0,1-0.1l0.5,0.1l0-0.2c0.1,0,0.2,0,0.5,0l1.3-0.3l0.1-0.7
		l1.2,0.8V171l0.6,0.2l-0.4-1.9c0-0.1,0.1-0.4,0-0.6l0.1-2.4l-0.9-0.1l-0.5-0.6l0,0l0.4-1.1l0.8-0.1l0.2-2.9h-1.5
		c-0.3,0-0.6,0.1-0.9,0.1l-0.6-0.1l-0.1,0.3c-0.3,0.1-0.6,0.2-0.9,0.2c-0.3-0.3-0.4-0.4-0.4-0.5l-1.4-1.1l-0.7,1.6
		c-0.1,0.1-0.1,0.2-0.2,0.4c-0.1,0.1-0.2,0.1-0.3,0.2l-1,0.5l0.2,0.9l0,0.2c-0.2,0.1-0.4,0.3-0.6,0.6l-0.5,0.1l-0.3,0.5
		c-0.1,0.2-0.2,0.4-0.2,0.7l0,0l-0.4-0.2v-2.1l-3.7-0.2l-0.3-0.8l-1.8-0.2c0.1-0.3,0.2-0.7,0.2-1.1l0.2-1.8l-1.8,0.3
		c-0.1,0-0.2,0-0.3,0l0-0.6h-1.1l-0.1-0.3l1.2,0.1l-1.2-4.2l-0.4,0l0-0.2l0.3,0l1.4-0.1l0.7,0.1l-0.4-2.1c0-0.1,0.1-0.1,0.1-0.2
		l0.9,0.4l0-2c0-0.2,0-0.4,0-0.6l2.1,0.9l0,0.1l0.2,0.6l1.6,0.5l0.3,0.7l2.1,0.3l1.4-0.2l0.1-1.1l0.3-0.4v-1.1l-0.8-1.1l-0.2-0.6
		l-1.3-0.4l-0.3-0.3c-0.2-0.4-0.4-0.6-0.8-0.8l0,0l0.1-0.9l-2.8-0.8c-0.2-0.1-0.4-0.2-0.6-0.4c0,0,0,0,0,0c0,0,0,0,0.1,0l1.7,0.6
		l0-0.8c0.4,0.3,1.1,0.9,2.3,0.9c0,0,0,0,0.1,0l0.5-0.2l0.2,0.9l2.2,0.3l1.1,0.9l0.4-0.8h1.2c0.7,0,1.2,0,1.8-0.6
		c0.2,0.1,0.5,0.2,0.8,0.2h1.2l0-0.4c0.2-0.1,0.3-0.3,0.3-0.3l0.8-0.3l0.1-0.8c0.9-0.2,2.2-0.8,2.5-1.5l0.1-0.3l-0.1-0.8l0.1-0.1
		c0.3-0.3,0.5-0.5,0.7-1l1.6,0l0-0.3c0.1,0,0.2,0,0.3,0.1l1,0.2l0.3-0.6l0.9,0.3l-0.6,0.8c-0.1,0.2-0.2,0.5-0.3,0.7l-1.3-0.1l-0.1,2
		l-0.3-0.1l0,0.8l-0.3,0l-0.2,2.6l0.1,0.8l-0.1,0.5c0,0-0.1,0.1-0.2,0.1l-1.5-0.1l0.4,1.7l-0.4-0.1l-0.3,0.8l-0.9-0.2l0.1,0.9
		l-1.3,0l-0.3,0l-0.2,3.8h0.1c-0.1,0.1-0.2,0.1-0.2,0.2l-1.6-0.2l0.6,2l0.8,2.5l-0.1,0.6l2.5-0.1l1.4-0.3l0-0.1l1.7,0.4l0,0l0.6,0.1
		c0.1,0,0.2,0.1,0.4,0.1l1.1,0.2l0.7,0.8h0.7c0.2,0,0.5-0.1,0.7-0.2l1.4,0.2l0,0l1.5,0.3h0.1l-0.4,0.5l-0.7,0.4l0,0.8
		c0,0.8,0.1,1.3,0.5,2l0,0.4l0.3,0.4l1.2-0.7l-1.1,0.8l1.3,1.7l1-1.9c0,0,0,0,0-0.1l0.7,0c1.1,0,2-0.4,2.6-1.1l1.1,0.2l0,0.2l0,1.4
		l0.4,0.1l0.1,0.3l1.6,0.3l0.1,0.8h1.6l0.4-0.1c0.7,0.1,1.1,0.1,1.6,0l0.7-0.1l0.3-0.6c0-0.1,0.1-0.2,0.1-0.3l0.5,0.1l0.1-1.3l0.3,0
		l0.1-1.2l0,0c0.4-0.5,0.5-0.9,0.6-1.6l0.3-1.8l-1.2,0.1c0.1-0.2,0.2-0.5,0.2-0.8l0.4-1.8l-1.8,0.1c-0.1,0-0.2,0-0.3,0l0.1-1
		l-0.1-2.2l-1.9,0.9l-1.2-0.2l0-1.7l-0.9,0.4c0,0,0-0.1,0.1-0.1c0.1-0.2,0.2-0.4,0.3-0.5l0.7-1l-1-0.8c-0.3-0.2-0.4-0.4-0.6-0.8
		l-0.3-0.6l-1.2-0.2l-0.4,0l0.1-1.3l-2,0.8c-0.1,0-0.3,0.1-0.9,0.6l-0.5-0.2l-0.6-0.5l0.3-0.3l-1.2-0.9c-0.2-0.2-0.2-0.2-0.4-0.5
		l-0.3-0.6l-0.3-0.1l0-0.5l-1.6-0.3l0.1-0.8l0.9,0.4v-0.1l1.8,0.6v-3.3l-0.8-0.2c0-0.1,0.1-0.3,0.1-0.4l0.8-0.2l0.3-3.4l-1.8-0.1
		c-0.1,0-0.1,0-0.2,0l0-0.4l-0.8,0l0.8-0.2l0.4-1l1.4,0.3l-0.3-1.9c-0.1-0.4-0.1-0.6-0.2-0.9l0.1,0l0-1.6c0-0.4,0-0.7,0-0.9
		c0-0.4,0-0.4,0.1-0.9l0.2-0.9l-0.7-0.4l0.1-1.5l-2,0.6v0.1c-0.1-0.1-0.1-0.2-0.2-0.3v-0.9l-0.9-0.2l-1-0.5l-0.7-1.1l-0.3-0.1
		l0.3-0.3l0.1-1.7l-0.8-0.9H435l0,0l-0.1,0l0-0.4l-0.2-1.3l-0.2,0l0-0.3l-1.2-0.2h-1.6v0.9c0,0-0.1,0.1-0.1,0.1l0,0
		c0-0.2-0.1-0.4-0.2-0.5c-0.1-0.3-0.1-0.4-0.1-1l0.1-1.5l-1.1,0.1l0-0.3l-1.6,0.1c0,0-0.1,0-0.1,0v-0.5l-1.4,0.2l-0.2-0.4l-0.8,0
		l0-1.4l-0.2,0l0.1-1.2l-1-0.3c-0.4-0.1-0.4-0.1-0.6-0.3v-0.7l-2.4-0.7l0.1-2l-0.8-0.1l0-0.2l1.3,0.2l0.7-2.5l0.1-1.5l-0.6-0.1
		l-0.2-0.7l-1.6-0.5v-1l-0.1,0c0.1-0.5,0.2-1,0.2-1.4l0.1-1l-0.9-0.4c-0.3-0.1-0.3-0.2-0.5-0.4v-0.9l-0.7-0.1l0.1-0.4l-0.4-0.3
		l0.8-1.5l-1.2-0.7c-0.1-0.1-0.3-0.2-0.5-0.3l0,0l-0.1-1.1c0-0.7-0.2-1.2-0.8-1.7c0,0,0-0.1,0-0.1l0.4-1.5l-1.2-0.2l-0.2-0.7
		l-0.9-0.4c-0.2-0.1-0.4-0.2-0.7-0.2l0-0.7l-0.6-0.1l0-0.1l-0.1-0.2c-0.1-0.2-0.2-0.5-0.3-0.8l0.5-0.4l0-0.8c0-0.9-0.1-1.5-0.7-2
		l0-0.3l-0.1-0.6l0.6-2.4l-2.8,0l-1.7,0l-0.4,1.9l-1-0.2l-0.1,1.8l-1.2,0.7l0,1c0,0.4,0,0.7,0.1,1l-0.2,0.6l-2.2,1.2l0,0.2l-0.5-0.1
		l-0.4,0.8l-0.7-0.1l-0.1,1.6l-1-0.1c-0.1-0.2-0.3-0.3-0.4-0.4l0-0.9l-2.3-1.1l-0.1-0.7l-0.3,0l-0.2-0.9l-1.8-0.2l-0.1-0.7h-0.6
		l-0.3-1l-1.2-1.4c0.1-0.6,0.1-1.2-0.1-1.8l-0.2-0.3l0.6,0l0.4,0.1l0.1-3.1l0.2-0.4c0.3-0.3,0.7-0.7,1-1.5l0.5-1.6l-2.8-0.4
		l-0.5,0.2l-0.2,0l0.1-1.9l-1.4-0.2v-0.3l-4.2-0.5l0,0.1l-0.2,0c0-0.1,0-0.3,0-0.5l0.1-1.4c0.1,0.3,0.2,0.6,0.5,0.9l0.5,0.7l3.2,0.4
		l0.1-1.9c0.4,0,0.8,0,1.2-0.1l0.1,1.1l1.7-1.3l1,0.4l0.1,0.5l1.2,0.1c0.7,0.1,1,0.1,1.3,0l0,0.3l1.4,0.1c0.5,0,1,0,1.5,0.1l0.5,0.2
		l0,0.3l0.6,0.1v0.3l2.6,0.7l0,0c0.6,0.3,1,0.5,1.5,0.6c0.2,0.1,0.5,0.3,0.7,0.5l0.8,3l0.9,0.1c0.4,0.1,0.7,0.1,0.9,0.1
		c0.7,0,1.1-0.2,1.5-0.5c57,37.7,94.7,102.3,94.7,175.6C506,305.8,488.5,351.6,459.5,387.6z M415.5,171.4l-0.4,0.1l-1.4,1.4
		l-3.5,0.3l-0.3-0.6c0.1-0.1,0.2-0.1,0.3-0.2l0.3,0l0.4-1l1.4-0.5l0.1,0.3l2.3,0.3l0.5-0.7c0,0,0-0.1,0.1-0.1l-0.1,0.6L415.5,171.4z
		"/>
	<path d="M130.5,209.8h-40H85h-57c-15.1,0-27.4,12.3-27.4,27.4v207.2c0,15.1,12.3,27.4,27.4,27.4h158.7c11.4,0,21.2-7,25.3-17
		c0.7-1.7,1.2-3.5,1.6-5.3c0.3-1.6,0.5-3.3,0.5-5.1V293.2h-83.4V209.8z"/>
	<polygon points="146.9,214.5 141.8,209.4 141.8,281.8 214.3,281.8 205.5,273.1 	"/>
</g>
</svg>
