<?xml version="1.0" encoding="utf-8"?>
<!-- Generator: Adobe Illustrator 16.0.0, SVG Export Plug-In . SVG Version: 6.00 Build 0)  -->
<!DOCTYPE svg PUBLIC "-//W3C//DTD SVG 1.1//EN" "http://www.w3.org/Graphics/SVG/1.1/DTD/svg11.dtd">
<svg version="1.1"
	 id="svg2" xmlns:sodipodi="http://sodipodi.sourceforge.net/DTD/sodipodi-0.dtd" xmlns:rdf="http://www.w3.org/1999/02/22-rdf-syntax-ns#" xmlns:dc="http://purl.org/dc/elements/1.1/" xmlns:svg="http://www.w3.org/2000/svg" xmlns:cc="http://creativecommons.org/ns#" xmlns:inkscape="http://www.inkscape.org/namespaces/inkscape" inkscape:export-filename="R:\Media\Pictures\Logos\Facebook Home (Clear).png" sodipodi:docname="Facebook Home (Clear).svg" inkscape:version="0.48.3.1 r9886" inkscape:export-ydpi="230.97745" inkscape:export-xdpi="230.97745"
	 xmlns="http://www.w3.org/2000/svg" xmlns:xlink="http://www.w3.org/1999/xlink" x="0px" y="0px" width="512px" height="512px"
	 viewBox="0 0 512 512" style="enable-background:new 0 0 512 512;" xml:space="preserve">
<g>
	<path d="M464.3,19.8H166c-26,0-47.3,21.2-47.3,47.3v92.7l18.9,18.9V67c0-15.7,12.7-28.4,28.4-28.4h298.3
		c15.7,0,28.4,12.7,28.4,28.4v257.5h-95.6c-26.1,0-47.3,21.2-47.3,47.3v101.5H166c-14.9,0-27.2-11.9-28.4-26.6V341l-18.9-18.9v124.7
		c1.2,25,21.9,45.5,47.3,45.5c0,0,200.4,0,202.7,0c5.1,0,10-2,13.7-5.9l123.9-129.9c5.2-5.3,5.2-13.1,5.2-16.6V67
		C511.6,41,490.4,19.8,464.3,19.8z M368.8,473.3V371.8c0-15.6,12.7-28.4,28.3-28.4h95.6L368.8,473.3z"/>
	<path d="M202.2,378.8c0.8,0.7,1.7,1.1,2.7,1.4l57.1,10.9c0.4,0.1,0.8,0.3,1.1,0.3c1.5,0,3-0.8,4-1.7c0-0.3,0.1-0.3,0.1-0.3
		c0.1,0,0.1,0,0.1-0.1c1.3-1.3,1.9-3.3,1.5-5.1l-11.1-57.1c-0.2-1-0.7-1.9-1.4-2.7l-23.9,23.9l-6.4,6.4L202.2,378.8z"/>
	<polygon points="137.7,314.3 183.2,359.8 237.6,305.4 137.7,205.4 118.8,186.5 90.8,158.5 90.5,158.3 36.1,212.7 36.1,212.7 
		118.8,295.4 	"/>
	<path d="M58.8,126.5c-2.6-2.6-6-3.9-9.5-3.9c-3.4,0-6.9,1.3-9.5,3.9L4.3,162c-5.2,5.3-5.2,13.7,0,19L17,193.5L71.4,139L58.8,126.5z
		"/>
</g>
</svg>
