<?xml version="1.0" encoding="utf-8"?>
<!-- Generator: Adobe Illustrator 16.0.0, SVG Export Plug-In . SVG Version: 6.00 Build 0)  -->
<!DOCTYPE svg PUBLIC "-//W3C//DTD SVG 1.1//EN" "http://www.w3.org/Graphics/SVG/1.1/DTD/svg11.dtd">
<svg version="1.1"
	 id="svg2" inkscape:export-filename="R:\Media\Pictures\Logos\Facebook Home (Clear).png" inkscape:export-ydpi="230.97745" inkscape:export-xdpi="230.97745" sodipodi:docname="Facebook Home (Clear).svg" inkscape:version="0.48.3.1 r9886" xmlns:sodipodi="http://sodipodi.sourceforge.net/DTD/sodipodi-0.dtd" xmlns:inkscape="http://www.inkscape.org/namespaces/inkscape" xmlns:cc="http://creativecommons.org/ns#" xmlns:svg="http://www.w3.org/2000/svg" xmlns:rdf="http://www.w3.org/1999/02/22-rdf-syntax-ns#" xmlns:dc="http://purl.org/dc/elements/1.1/"
	 xmlns="http://www.w3.org/2000/svg" xmlns:xlink="http://www.w3.org/1999/xlink" x="0px" y="0px" width="512px" height="512px"
	 viewBox="0 0 512 512" style="enable-background:new 0 0 512 512;" xml:space="preserve">
<g>
	<path d="M511.8,178.4v-28.7l-39.6-8.7L438,92.9c3.3-3.3,13.1-14.2,13.1-27.3c0-15.7-14.2-28.4-14.2-28.4s-14.2,12.7-14.2,28.4
		c0,2.5,0.4,4.8,1,7.1L393,29.4c-2.3-3.2-6.7-4-9.9-1.7c-3.2,2.3-4,6.7-1.7,9.9l21.5,30.3c-4.5-2.5-9.9-4.4-15.7-4.4
		c-15.7,0-28.4,14.2-28.4,14.2S371.5,92,387.2,92c10.9,0,20.2-6.7,25-10.9l39.4,55.5L293,101.8L268,66.6
		c3.3-3.3,13.1-14.2,13.1-27.3c0-15.7-14.2-28.4-14.2-28.4s-14.2,12.7-14.2,28.4c0,2.5,0.4,4.8,1,7.1L223,3.2
		c-2.3-3.2-6.7-4-9.9-1.7c-3.2,2.3-4,6.7-1.7,9.9l21.5,30.3c-4.5-2.4-9.9-4.4-15.7-4.4c-15.7,0-28.4,14.2-28.4,14.2
		s12.7,14.2,28.4,14.2c10.9,0,20.2-6.7,25-10.9l30.1,42.5L92.8,57.9C90,47.3,85.1,35.8,76.1,26.8C53.9,4.6,15.8,6.7,15.8,6.7
		S13.7,44.8,35.9,67C54.4,85.5,84,87.1,93.2,87.1l17,3.7c-12.9,1.8-30.3,6.6-42.7,19.1c-22.2,22.2-20.1,60.3-20.1,60.3
		s38.1,2.1,60.3-20.1c17.4-17.4,19.9-44.5,20.1-55.4l211.4,46.1c-5.1,14.3-3.7,39.1-3.8,51.6c0-3.8-0.5-22.2-11.9-33.6
		c-12.8-12.8-34.4-11.9-34.4-11.9s-0.8,21.6,11.9,34.4c12.8,12.8,34.4,11.9,34.4,11.9c-18.1,2.9-31.9,17.8-31.9,35.9
		c0,25.8-23.2,64.2-26.5,85.8h0c-1,4.4-1.6,9-1.6,13.8c0,34.9,29.7,63.1,66.3,63.1c36.6,0,66.3-28.3,66.3-63.1
		c0-4.7-0.6-9.3-1.6-13.8h0c-3.3-21.6-26.5-60-26.5-85.8c0-18-13.8-33-31.9-35.9v-0.5c0-7.7-1.1-33.3,5.1-48.8L511.8,178.4z"/>
	<path d="M128.7,366.7C128.8,365.2,128.5,368.2,128.7,366.7L128.7,366.7z"/>
	<path d="M206.8,301.5c-3.9,2.2-7.8,4.5-12.2,7.1c-9.4,5.5-21.3,12.4-41.2,23.7c-4.6,2.6-16.7,10.3-21.3,20.6c0.1-0.3-0.3,0.5,0,0
		c0,0,0,0,0,0c28.2-14.4,84.6-39.2,85.2-39.4c8-2.8,12.2-11.6,9.4-19.5c-1.1-3.2-3.2-5.8-5.9-7.6c0,0,0,0,0-0.1
		C218.3,292.3,213.5,297.6,206.8,301.5z"/>
	<path d="M212.9,388.2c-4.8,0.8-15.3,6-25.5,11c-18.3,9-30.7,14.6-38,14c-9.8-0.9-17.4-5.7-23.4-14.7c-8.1-12.3-10.2-26.8-6.3-43.1
		c4.4-18.5,28.2-32.2,28.4-32.3c19.8-11.3,31.7-18.2,41-23.7c4.5-2.6,8.4-4.9,12.3-7.1c7-4,12.9-11.7,10.1-19.7
		c-2.7-7.8-11.6-12.2-19.4-9.5c-4.1,1.8-86.6,45.7-92.3,50.5c-10.6,11.4-21,31.1-31.1,50.2c-7.8,14.8-15.2,28.8-22.9,39.5
		c-20.2,28.1-38.9,40.4-45.7,44.2l40.6,64.5l0.6,0c12.6-0.8,44.2-3.7,65-14.3c9.8-5,19-12.6,29.7-21.3c8.8-7.2,18.7-15.3,30.7-23.5
		c30.3-20.6,60.7-39.2,71.7-45.8C232.7,396.2,223.6,386.4,212.9,388.2z"/>
	<path d="M210.2,328.3c-21.3,9.5-66.1,29.8-81.5,38.4c-1,5.9-0.4,7,0.7,12.2c33-17.3,67.5-30.5,71.7-32.1
		C208.5,343.9,212.4,335.8,210.2,328.3z"/>
	<path d="M193.3,361.3c-13.9,5.6-37.6,15.7-60.4,27.8c0.6,1.2,1.3,2.4,2.1,3.6c2.9,4.3,6.6,7,5.2,5.8c22.9-10.8,43.3-19.5,43.5-19.6
		C191.9,375.6,195.3,369.1,193.3,361.3z"/>
</g>
</svg>
