<?xml version="1.0" encoding="utf-8"?>
<!-- Generator: Adobe Illustrator 16.0.0, SVG Export Plug-In . SVG Version: 6.00 Build 0)  -->
<!DOCTYPE svg PUBLIC "-//W3C//DTD SVG 1.1//EN" "http://www.w3.org/Graphics/SVG/1.1/DTD/svg11.dtd">
<svg version="1.1"
	 id="svg2" inkscape:export-filename="R:\Media\Pictures\Logos\Facebook Home (Clear).png" inkscape:export-ydpi="230.97745" inkscape:version="0.48.3.1 r9886" sodipodi:docname="Facebook Home (Clear).svg" inkscape:export-xdpi="230.97745" xmlns:sodipodi="http://sodipodi.sourceforge.net/DTD/sodipodi-0.dtd" xmlns:rdf="http://www.w3.org/1999/02/22-rdf-syntax-ns#" xmlns:dc="http://purl.org/dc/elements/1.1/" xmlns:svg="http://www.w3.org/2000/svg" xmlns:cc="http://creativecommons.org/ns#" xmlns:inkscape="http://www.inkscape.org/namespaces/inkscape"
	 xmlns="http://www.w3.org/2000/svg" xmlns:xlink="http://www.w3.org/1999/xlink" x="0px" y="0px" width="512px" height="512px"
	 viewBox="0 0 512 512" style="enable-background:new 0 0 512 512;" xml:space="preserve">
<style type="text/css">
<![CDATA[
	.st0{fill:#9B9B9B;}
]]>
</style>
<g>
	<path class="st0" d="M407.3,511.2L267.5,402H111c-54.4,0-98.6-44.2-98.6-98.7v-204C12.4,45,56.6,0.8,111,0.8h290
		c54.4,0,98.6,44.2,98.6,98.6v204c0,52.3-40.9,95.2-92.4,98.4V511.2z M111,18.7c-44.5,0-80.7,36.2-80.7,80.7v204
		c0,44.5,36.2,80.7,80.7,80.7h162.6l115.7,90.4v-90.4H401c44.5,0,80.7-36.2,80.7-80.7v-204c0-44.5-36.2-80.7-80.7-80.7H111z"/>
</g>
</svg>
