<?xml version="1.0" encoding="utf-8"?>
<!-- Generator: Adobe Illustrator 16.0.0, SVG Export Plug-In . SVG Version: 6.00 Build 0)  -->
<!DOCTYPE svg PUBLIC "-//W3C//DTD SVG 1.1//EN" "http://www.w3.org/Graphics/SVG/1.1/DTD/svg11.dtd">
<svg version="1.1"
	 id="svg2" inkscape:version="0.48.3.1 r9886" inkscape:export-ydpi="230.97745" inkscape:export-filename="R:\Media\Pictures\Logos\Facebook Home (Clear).png" inkscape:export-xdpi="230.97745" sodipodi:docname="Facebook Home (Clear).svg" xmlns:dc="http://purl.org/dc/elements/1.1/" xmlns:svg="http://www.w3.org/2000/svg" xmlns:cc="http://creativecommons.org/ns#" xmlns:inkscape="http://www.inkscape.org/namespaces/inkscape" xmlns:sodipodi="http://sodipodi.sourceforge.net/DTD/sodipodi-0.dtd" xmlns:rdf="http://www.w3.org/1999/02/22-rdf-syntax-ns#"
	 xmlns="http://www.w3.org/2000/svg" xmlns:xlink="http://www.w3.org/1999/xlink" x="0px" y="0px" width="512px" height="512px"
	 viewBox="0 0 512 512" style="enable-background:new 0 0 512 512;" xml:space="preserve">
<g>
	<path d="M484.3,334.5H457c-15.1,0-27.3,12.2-27.3,27.3v48.7H82.4v-48.7c0-15.1-12.3-27.3-27.3-27.3H27.7
		c-15.1,0-27.3,12.2-27.3,27.3v76v27.3c0,3.8,0.8,7.4,2.2,10.7c0,0,0,0,0,0.1c4.2,9.8,13.8,16.6,25.2,16.6H55h402h27.3
		c15.1,0,27.3-12.3,27.3-27.3v-27.3v-76C511.7,346.7,499.4,334.5,484.3,334.5z"/>
	<path d="M233.9,350.3c6,6.1,14.2,8.3,22.1,7.5c7.9,0.8,16-1.4,22.1-7.5l153.1-153.1c10.7-10.7,10.7-28,0-38.7L412.6,140
		c-10.7-10.7-28-10.7-38.7,0l-74.8,74.8v-168c0-15.1-12.3-27.3-27.3-27.3h-26.2c-15.1,0-27.3,12.2-27.3,27.3v173.4L138,140
		c-10.7-10.7-28-10.7-38.7,0l-18.5,18.6c-10.7,10.7-10.7,28,0,38.7L233.9,350.3z"/>
</g>
</svg>
