<?xml version="1.0" encoding="utf-8"?>
<!-- Generator: Adobe Illustrator 16.0.0, SVG Export Plug-In . SVG Version: 6.00 Build 0)  -->
<!DOCTYPE svg PUBLIC "-//W3C//DTD SVG 1.1//EN" "http://www.w3.org/Graphics/SVG/1.1/DTD/svg11.dtd">
<svg version="1.1"
	 id="svg2" inkscape:export-xdpi="230.97745" inkscape:version="0.48.3.1 r9886" inkscape:export-ydpi="230.97745" sodipodi:docname="Facebook Home (Clear).svg" inkscape:export-filename="R:\Media\Pictures\Logos\Facebook Home (Clear).png" xmlns:sodipodi="http://sodipodi.sourceforge.net/DTD/sodipodi-0.dtd" xmlns:rdf="http://www.w3.org/1999/02/22-rdf-syntax-ns#" xmlns:dc="http://purl.org/dc/elements/1.1/" xmlns:svg="http://www.w3.org/2000/svg" xmlns:cc="http://creativecommons.org/ns#" xmlns:inkscape="http://www.inkscape.org/namespaces/inkscape"
	 xmlns="http://www.w3.org/2000/svg" xmlns:xlink="http://www.w3.org/1999/xlink" x="0px" y="0px" width="512px" height="512px"
	 viewBox="0 0 512 512" style="enable-background:new 0 0 512 512;" xml:space="preserve">
<style type="text/css">
<![CDATA[
	.st0{fill:#010101;}
]]>
</style>
<g>
	<path class="st0" d="M458.2,225.6c0.7,3.4,1.1,6.9,1.1,10.5v133.5c0,31.1-25.2,56.2-56.2,56.2H187.6c-31,0-56.2-25.2-56.2-56.2
		v-0.1v-37.5v-96c0-31.1,25.2-56.2,56.2-56.2h111.3l37.5-37.5H187.6c-51.7,0-93.7,42-93.7,93.7v96h-0.1c-31,0-56.2-25.2-56.2-56.2
		V142.3c0-31.1,25.2-56.2,56.2-56.2h215.5c22.6,0,41.9,13.4,50.8,32.6l27.5-27.5c-16.7-25.6-45.5-42.5-78.3-42.5H93.8
		c-51.7,0-93.7,42-93.7,93.7v133.5c0,51.7,42,93.7,93.7,93.7h0.1v0.1c0,51.7,42,93.7,93.7,93.7h215.5c51.7,0,93.7-42,93.7-93.7
		V236.1c0-14.3-3.5-27.7-9.2-39.8L458.2,225.6z"/>
	<polygon class="st0" points="295.9,235.9 345.4,285.4 477.9,152.9 428.4,103.4 	"/>
	<path class="st0" d="M277.5,255.7l-2.4,12.4l-7.7,39.6c-0.3,1.6,0.1,3.4,1.4,4.6c0,0,0.1,0,0.1,0.1c0,0,0.1,0,0.1,0.2
		c1,0.8,2.3,1.5,3.7,1.5c0.3,0,0.6-0.2,1-0.3l39.7-7.6l12.3-2.3c1-0.2,1.8-0.6,2.5-1.3l-49.4-49.5
		C278.1,254,277.7,254.8,277.5,255.7z"/>
	<path class="st0" d="M508.3,105.3L476,73c-2.4-2.4-5.5-3.6-8.6-3.6s-6.3,1.2-8.7,3.6l-2.4,2.4l-9.1,9l49.6,49.6l9.1-9.1l2.4-2.4
		C513.1,117.8,513.1,110.2,508.3,105.3z"/>
</g>
</svg>
