<?xml version="1.0" encoding="utf-8"?>
<!-- Generator: Adobe Illustrator 16.0.0, SVG Export Plug-In . SVG Version: 6.00 Build 0)  -->
<!DOCTYPE svg PUBLIC "-//W3C//DTD SVG 1.1//EN" "http://www.w3.org/Graphics/SVG/1.1/DTD/svg11.dtd">
<svg version="1.1"
	 id="svg2" xmlns:dc="http://purl.org/dc/elements/1.1/" xmlns:svg="http://www.w3.org/2000/svg" xmlns:cc="http://creativecommons.org/ns#" xmlns:inkscape="http://www.inkscape.org/namespaces/inkscape" xmlns:rdf="http://www.w3.org/1999/02/22-rdf-syntax-ns#" xmlns:sodipodi="http://sodipodi.sourceforge.net/DTD/sodipodi-0.dtd" inkscape:export-filename="R:\Media\Pictures\Logos\Facebook Home (Clear).png" inkscape:version="0.48.3.1 r9886" inkscape:export-ydpi="230.97745" inkscape:export-xdpi="230.97745" sodipodi:docname="Facebook Home (Clear).svg"
	 xmlns="http://www.w3.org/2000/svg" xmlns:xlink="http://www.w3.org/1999/xlink" x="0px" y="0px" width="512px" height="512px"
	 viewBox="0 0 512 512" style="enable-background:new 0 0 512 512;" xml:space="preserve">
<style type="text/css">
<![CDATA[
	.st0{fill:#9B9B9B;}
]]>
</style>
<g>
	<path class="st0" d="M82.7,441.3l-12.2-12.2l-45.2-45.3c-1.3,1.4-2.2,3.2-2.6,5.1l-21,108.2c-0.7,3.5,0.4,7.1,2.9,9.7
		c0,0,0.1,0.1,0.2,0.1c0.1,0,0.1,0.1,0.2,0.5c2,1.7,4.8,3.2,7.6,3.2c0.6,0,1.3-0.4,2-0.5l108.2-20.6c2-0.5,3.7-1.4,5.1-2.7
		L82.7,441.3z"/>
	<polygon class="st0" points="442.9,172.1 442.9,172 339.7,68.9 339.3,69.4 60.9,347.7 164.1,450.8 	"/>
	<path class="st0" d="M376,32.4l103.2,103.3l23.9-23.9c10-9.9,10-25.9,0-36L435.8,8.7c-4.9-5-11.5-7.5-18-7.5s-13,2.5-18,7.5
		L376,32.4z"/>
</g>
</svg>
