<?xml version="1.0" encoding="utf-8"?>
<!-- Generator: Adobe Illustrator 16.0.0, SVG Export Plug-In . SVG Version: 6.00 Build 0)  -->
<!DOCTYPE svg PUBLIC "-//W3C//DTD SVG 1.1//EN" "http://www.w3.org/Graphics/SVG/1.1/DTD/svg11.dtd">
<svg version="1.1"
	 id="svg2" inkscape:export-filename="R:\Media\Pictures\Logos\Facebook Home (Clear).png" sodipodi:docname="Facebook Home (Clear).svg" inkscape:export-xdpi="230.97745" inkscape:export-ydpi="230.97745" inkscape:version="0.48.3.1 r9886" xmlns:svg="http://www.w3.org/2000/svg" xmlns:cc="http://creativecommons.org/ns#" xmlns:rdf="http://www.w3.org/1999/02/22-rdf-syntax-ns#" xmlns:inkscape="http://www.inkscape.org/namespaces/inkscape" xmlns:dc="http://purl.org/dc/elements/1.1/" xmlns:sodipodi="http://sodipodi.sourceforge.net/DTD/sodipodi-0.dtd"
	 xmlns="http://www.w3.org/2000/svg" xmlns:xlink="http://www.w3.org/1999/xlink" x="0px" y="0px" width="512px" height="512px"
	 viewBox="0 0 512 512" style="enable-background:new 0 0 512 512;" xml:space="preserve">
<style type="text/css">
<![CDATA[
	.st0{fill:#010101;}
]]>
</style>
<g>
	<path class="st0" d="M88.8,165.6h13.5c2.8,0,5.1-1.3,5.1-2.9l-5.1-38.4c-2.1,0.7-4.3,1.3-6.6,1.3c-2.4,0-4.7-0.6-6.8-1.4L83.7,163
		C83.7,164.4,86.3,165.6,88.8,165.6z"/>
	<path class="st0" d="M99.9,87.3l0-20.9l-1.1-0.2L94,65.3l-2.4-0.4v22.4c1.4-0.3,2.7-0.8,4.2-0.8C97.2,86.5,98.5,87,99.9,87.3z"/>
	<path class="st0" d="M490.1,433.2c-5.3-11.2-19.7-28.5-55.6-46.9c-53.1-27.4-96.7-41.4-114.2-88.2c-0.5-1-0.9-1.8-1.4-2.9
		c0,0,1.4-1.4,3.4-3.1c3.4-3.6,9.3-10.5,11.2-21l1.4-18.2l0.5-7.3c0,0,0.5-0.5,2-0.5c6.3-1.7,25.9-10.9,28.7-54.8
		c0,0-0.2-9.7-6.3-14.3c-1.9-1.5-4.4-2.4-7.6-2.4c-0.5,0-0.5,0-0.5,0c0,0,3.6-17.7,4.6-47.1l-6.7-6.6c-4.4-2.4-21.8-10.9-44.5-10.9
		c-15.4,0-30,3.9-43.4,11.6l-5.8,3.4l-5.8-3.3c-13.5-7.7-28.1-11.6-43.4-11.6c-26,0-45.5,11.4-45.6,11.5l-5.9,3.6
		c0.3,30.6,5.3,49.3,5.3,49.3c-0.5-0.3-0.5-0.3-0.5-0.3c-13.7,0-14.1,17-14.1,17c3.4,52.1,30.7,55.2,30.7,55.2l2.4,25.8
		c3.4,15.6,14.1,23.9,14.1,23.9c-16.8,49.2-60.9,62.9-115.5,91.1C41.9,404.6,27.5,421.8,22,433c-4.4,8.5-3.4,16.2-3.4,20.2
		c0,7.1,0,18.5,0,27.4c0,8.4,1.6,19.2,4.2,22.9c2.4,3.5,5.4,6,7.3,7.3c1.5,0.7,6.9,1.2,6.9,1.2h175.3h23.3h85.3v0h0.1l0,0l0.1-0.1
		h154.2l0.5,0c0.5,0,5.1-0.4,6.3-1.1c2.4-1.1,5.4-3.2,7.3-7c1.4-2.4,2.4-6.5,3.4-11.4c0.5-3.8,0.6-7.9,0.6-11.6c0-5.7,0-12.2,0-18
		c0-3.4,0-6.7,0-9.3C493.5,449.3,494.1,441.6,490.1,433.2z"/>
	<path class="st0" d="M351.3,77.1l-2.5,0.4l-3.1,0.5l-8.1,1.4l-77.3,13.7c-1.5,0.2-2.9,0.4-4.4,0.4c-1.5,0-3.1-0.1-4.5-0.4
		l-75.7-13.4l-9.6-1.7l-3-0.5l-2.5-0.4c-3.1,10.9-5.1,23.4-5.7,33.4c0,0,21.8-13.2,51.7-13.2c14.9,0,31.9,3.3,49.2,13.2
		c17.1-9.9,34.3-13.2,49.2-13.2c29.7,0,51.4,13.1,51.5,13.2c0,0,0,0,0,0c-0.1-3.2-0.5-6.7-0.9-10.3c-0.2-1.3-0.4-2.4-0.5-3.7
		C354.4,90,353,83.3,351.3,77.1z"/>
	<path class="st0" d="M87.8,106.1c0,4.4,3.5,7.9,7.9,7.9c4.4,0,7.9-3.5,7.9-7.9s-3.5-7.9-7.9-7.9C91.3,98.2,87.8,101.7,87.8,106.1z"
		/>
	<path class="st0" d="M64.1,48.1L91.5,53l4.5,0.8l3.9,0.7l0.9,0.1l52.2,9.2l5.8,1.1l3.3,0.6l2.5,0.4l0.6,0.1l3.1,0.5l9.6,1.7
		l75.7,13.4c0.8,0.1,1.6,0.2,2.4,0.2c0.8,0,1.6-0.1,2.4-0.2L335.6,68l8.1-1.4l3.1-0.5l0.6-0.1l2.4-0.4l3.4-0.6l5.9-1.1L448,48.1
		c4.5-0.8,7.8-3.8,7.8-7.2c0-3.4-3.2-6.3-7.8-7.1L258.4,0.3c-0.8-0.1-1.6-0.2-2.4-0.2c-0.8,0-1.6,0.1-2.4,0.2L64,33.8
		c-4.5,0.8-7.8,3.7-7.8,7.1C56.2,44.4,59.5,47.3,64.1,48.1z M256,20.1c6,0,10.9,3.2,10.9,7.1c0,3.9-4.9,7.1-10.9,7.1
		c-6,0-10.9-3.2-10.9-7.1C245.1,23.3,250,20.1,256,20.1z"/>
</g>
</svg>
