<?xml version="1.0" encoding="utf-8"?>
<!-- Generator: Adobe Illustrator 16.0.0, SVG Export Plug-In . SVG Version: 6.00 Build 0)  -->
<!DOCTYPE svg PUBLIC "-//W3C//DTD SVG 1.1//EN" "http://www.w3.org/Graphics/SVG/1.1/DTD/svg11.dtd">
<svg version="1.1"
	 id="svg2" xmlns:sodipodi="http://sodipodi.sourceforge.net/DTD/sodipodi-0.dtd" xmlns:rdf="http://www.w3.org/1999/02/22-rdf-syntax-ns#" xmlns:dc="http://purl.org/dc/elements/1.1/" xmlns:svg="http://www.w3.org/2000/svg" xmlns:cc="http://creativecommons.org/ns#" xmlns:inkscape="http://www.inkscape.org/namespaces/inkscape" inkscape:export-filename="R:\Media\Pictures\Logos\Facebook Home (Clear).png" sodipodi:docname="Facebook Home (Clear).svg" inkscape:export-ydpi="230.97745" inkscape:version="0.48.3.1 r9886" inkscape:export-xdpi="230.97745"
	 xmlns="http://www.w3.org/2000/svg" xmlns:xlink="http://www.w3.org/1999/xlink" x="0px" y="0px" width="512px" height="512px"
	 viewBox="0 0 512 512" style="enable-background:new 0 0 512 512;" xml:space="preserve">
<g>
	<path d="M443.7,59.8H68.4c-37.7,0-68.3,30.6-68.3,68.3v255.8c0,37.7,30.6,68.3,68.3,68.3h375.3c37.7,0,68.3-30.6,68.3-68.3V128.1
		C512,90.4,481.4,59.8,443.7,59.8z M176.7,340.6l-5.3,5.3c-2.2,2.3-5.2,3.6-8.3,3.6c-3.2,0-6.1-1.3-7.9-3.1l-96.9-74.4
		c-2.2-2.2-3.4-5.2-3.4-8.4c0-3.3,1.2-6.2,3.8-8.8l96.1-73.7c2.2-2.2,5.2-3.4,8.3-3.4c3.1,0,6.1,1.2,8.3,3.4l5.3,5.3
		c4.6,4.5,4.6,12-0.4,17l-81.4,60.2l81.8,60.6c2.2,2.2,3.5,5.2,3.5,8.3C180.2,335.5,178.9,338.4,176.7,340.6z M309.6,162.6
		l-74.9,189.2c-2.6,5.4-8.1,8.8-14,8.8c-2.2,0-4.4-0.5-6.7-1.5c-3.8-1.8-6.6-4.9-8-8.8c-1.4-3.9-1.2-8.1,0.5-11.5l75-189.2
		c2.6-5.3,8.1-8.8,14.2-8.8c2.3,0,4.5,0.5,6.4,1.4c3.7,1.7,6.6,4.9,8,8.8C311.5,154.9,311.2,159.2,309.6,162.6z M453.3,272.2
		l-96.1,73.7c-2.2,2.2-5.2,3.4-8.3,3.4c-3.1,0-6.1-1.2-8.3-3.4l-5.3-5.3c-2.2-2.2-3.5-5.2-3.5-8.3c0-3.1,1.2-6.1,3.9-8.7l81.3-60.2
		l-81.8-60.5c-4.6-4.6-4.6-12,0-16.6l5.3-5.3c2.2-2.3,5.2-3.5,8.3-3.5c3.2,0,6.1,1.2,7.9,3.1l96.9,74.4c2.3,2.3,3.5,5.4,3.4,8.4
		C457.2,266.7,455.9,269.7,453.3,272.2z"/>
</g>
</svg>
