<?xml version="1.0" encoding="utf-8"?>
<!-- Generator: Adobe Illustrator 16.0.0, SVG Export Plug-In . SVG Version: 6.00 Build 0)  -->
<!DOCTYPE svg PUBLIC "-//W3C//DTD SVG 1.1//EN" "http://www.w3.org/Graphics/SVG/1.1/DTD/svg11.dtd">
<svg version="1.1"
	 id="svg2" xmlns:dc="http://purl.org/dc/elements/1.1/" xmlns:svg="http://www.w3.org/2000/svg" xmlns:cc="http://creativecommons.org/ns#" xmlns:inkscape="http://www.inkscape.org/namespaces/inkscape" xmlns:rdf="http://www.w3.org/1999/02/22-rdf-syntax-ns#" xmlns:sodipodi="http://sodipodi.sourceforge.net/DTD/sodipodi-0.dtd" inkscape:export-filename="R:\Media\Pictures\Logos\Facebook Home (Clear).png" inkscape:export-ydpi="230.97745" inkscape:export-xdpi="230.97745" inkscape:version="0.48.3.1 r9886" sodipodi:docname="Facebook Home (Clear).svg"
	 xmlns="http://www.w3.org/2000/svg" xmlns:xlink="http://www.w3.org/1999/xlink" x="0px" y="0px" width="512px" height="512px"
	 viewBox="0 0 512 512" style="enable-background:new 0 0 512 512;" xml:space="preserve">
<g>
	<path d="M459,128.9C414.9,52.9,332.9,1.5,238.8,1.5v15.3c88.5,0,165.7,48.2,207,119.7c20.4,35.2,32.2,75.9,32.2,119.5
		c0,43.6-11.8,84.3-32.2,119.5c-41.4,71.5-118.5,119.7-207,119.7c-88.5,0-165.7-48.2-207-119.7l-13.2,7.6
		c44.1,76,126.2,127.4,220.2,127.4c94,0,176.1-51.4,220.2-127.4c21.7-37.5,34.4-80.8,34.4-127.1S480.7,166.3,459,128.9z"/>
	<path d="M228,275.5h27.7V339c0,10.8,5.7,17.8,13.7,17.8c3.9,0,8.4-1.7,13.1-5.4l126.2-104.7c3.8-4.1,5.6-9.5,5.6-15
		c0-5.4-1.7-10.8-5.6-14.9L282.4,114.8c-4.7-3.7-9.2-5.4-13.1-5.4c-8,0-13.7,7-13.7,17.8v62.7H228c-75.5,0-136.7,48.8-136.7,177.3
		v8.5C91.2,379,90,275.5,228,275.5z"/>
</g>
</svg>
