<?xml version="1.0" encoding="utf-8"?>
<!-- Generator: Adobe Illustrator 16.0.0, SVG Export Plug-In . SVG Version: 6.00 Build 0)  -->
<!DOCTYPE svg PUBLIC "-//W3C//DTD SVG 1.1//EN" "http://www.w3.org/Graphics/SVG/1.1/DTD/svg11.dtd">
<svg version="1.1"
	 id="svg2" xmlns:dc="http://purl.org/dc/elements/1.1/" xmlns:svg="http://www.w3.org/2000/svg" xmlns:cc="http://creativecommons.org/ns#" xmlns:inkscape="http://www.inkscape.org/namespaces/inkscape" xmlns:rdf="http://www.w3.org/1999/02/22-rdf-syntax-ns#" xmlns:sodipodi="http://sodipodi.sourceforge.net/DTD/sodipodi-0.dtd" inkscape:export-filename="R:\Media\Pictures\Logos\Facebook Home (Clear).png" inkscape:export-ydpi="230.97745" inkscape:export-xdpi="230.97745" inkscape:version="0.48.3.1 r9886" sodipodi:docname="Facebook Home (Clear).svg"
	 xmlns="http://www.w3.org/2000/svg" xmlns:xlink="http://www.w3.org/1999/xlink" x="0px" y="0px" width="512px" height="512px"
	 viewBox="0 0 512 512" style="enable-background:new 0 0 512 512;" xml:space="preserve">
<g>
	<path d="M375.7,148.6c-6.9-6.9-17.9-6.9-24.8,0L212.1,287.3l-50.9-50.9c-6.9-6.9-17.9-6.9-24.8,0L117,256c-6.9,6.9-6.9,18,0,24.8
		l62.7,62.7c0.2,0.2,0.2,0.4,0.3,0.4l19.5,19.5c3.4,3.4,8,5.1,12.5,5.1c4.5,0,9.1-1.6,12.5-5.1l19.5-19.5c0.2-0.2,0.3-0.4,0.4-0.4
		L395,192.9c7-6.9,7-18,0-24.8L375.7,148.6z"/>
	<path d="M476.6,128.6C432.5,52.5,350.2,1,256,1C161.8,1,79.6,52.5,35.4,128.6C13.6,166.2,1,209.6,1,256s12.7,89.8,34.4,127.4
		C79.6,459.5,161.8,511,256,511c94.2,0,176.4-51.5,220.6-127.6c21.8-37.5,34.4-81,34.4-127.4S498.4,166.2,476.6,128.6z M463.4,375.8
		C422,447.4,344.7,495.7,256,495.7c-88.7,0-166-48.3-207.4-119.9C28.2,340.5,16.3,299.7,16.3,256c0-43.7,11.9-84.5,32.3-119.7
		C90,64.6,167.3,16.3,256,16.3c88.7,0,165.9,48.3,207.4,119.9c20.4,35.3,32.3,76.1,32.3,119.7C495.7,299.7,483.8,340.5,463.4,375.8z
		"/>
</g>
</svg>
