<?xml version="1.0" encoding="utf-8"?>
<!-- Generator: Adobe Illustrator 16.0.0, SVG Export Plug-In . SVG Version: 6.00 Build 0)  -->
<!DOCTYPE svg PUBLIC "-//W3C//DTD SVG 1.1//EN" "http://www.w3.org/Graphics/SVG/1.1/DTD/svg11.dtd">
<svg version="1.1"
	 id="svg2" xmlns:dc="http://purl.org/dc/elements/1.1/" xmlns:svg="http://www.w3.org/2000/svg" xmlns:cc="http://creativecommons.org/ns#" xmlns:inkscape="http://www.inkscape.org/namespaces/inkscape" xmlns:rdf="http://www.w3.org/1999/02/22-rdf-syntax-ns#" xmlns:sodipodi="http://sodipodi.sourceforge.net/DTD/sodipodi-0.dtd" inkscape:export-filename="R:\Media\Pictures\Logos\Facebook Home (Clear).png" inkscape:export-ydpi="230.97745" inkscape:export-xdpi="230.97745" inkscape:version="0.48.3.1 r9886" sodipodi:docname="Facebook Home (Clear).svg"
	 xmlns="http://www.w3.org/2000/svg" xmlns:xlink="http://www.w3.org/1999/xlink" x="0px" y="0px" width="512px" height="512px"
	 viewBox="0 0 512 512" style="enable-background:new 0 0 512 512;" xml:space="preserve">
<g>
	<path d="M306.4,482.3H102.9c-46.4,0-83.6-37.1-83.6-83.6V244.1V105.3c0-32.1,17.8-59.2,43.8-73.1c4.5-2.5,9.5-4.5,14.4-6.1
		c1.9-0.6,3.6-1.2,5.6-1.7c1.9-0.5,3.8-0.8,5.8-1.1c4.6-0.8,9.2-1.1,14-1.1h241.4c4.9,0,9.5,0.4,14,1.1c2,0.4,3.8,0.7,5.8,1.1
		c1.9,0.4,3.7,1.1,5.6,1.7c5,1.7,9.9,3.6,14.4,6.1c26,14.1,43.7,41.3,43.7,73.1l0,138.8v28.4c6.4,1.3,12.5,3.2,18.5,5.5
		c0-1.7,0-3.3,0-5c0-3.2,0-6.4,0-9.7c0-4.7,0-9.4,0-14.1c0-73.3-0.1-146.2-0.2-146.6C444.3,60.3,415.6,24.4,377,11
		c-2.9-1.1-5.9-2-9-2.8c-2.1-0.5-4.2-1.1-6.5-1.4c-5.6-1-11.2-1.7-17.1-1.7H102.9c-5.8,0-11.5,0.7-17.1,1.7
		c-2.2,0.4-4.3,0.9-6.5,1.4c-3.1,0.8-6,1.7-9,2.8C31.7,24.4,3,60.1,1,102.6c0,0.5-0.1,73.3-0.2,146.6c0,4.7,0,9.4,0,14.1
		c0,3.2,0,6.5,0,9.7c-0.1,50.2-0.1,96.9-0.1,116.3c0,0.5,0,1.2,0,1.5c0,2.2,0,3.9,0,5.3c0,1.7,0,2.8,0,2.8
		c0,55.7,46.4,102.1,102.1,102.1h223.9C319.4,495.4,312.6,489.2,306.4,482.3z"/>
	<path d="M323.8,139.2L177.2,285.9l-53.8-53.8c-7.3-7.3-19-7.3-26.2,0l-20.6,20.6c-7.3,7.3-7.3,19,0,26.3l66.3,66.3
		c0.2,0.2,0.3,0.4,0.4,0.4l20.6,20.6c3.6,3.6,8.5,5.4,13.2,5.4c4.8,0,9.7-1.7,13.2-5.4l20.6-20.6c0.3-0.2,0.3-0.4,0.4-0.4L370.6,186
		c7.4-7.3,7.4-19,0-26.2l-20.5-20.6C342.8,131.9,331.1,131.9,323.8,139.2z"/>
	<path d="M446.4,297.9c-5.9-2.6-12.1-4.7-18.5-6.3c-8.3-2-17-3.2-25.9-3.2c-60.3,0-109.3,48.9-109.3,109.3
		c0,34.1,15.7,64.5,40.2,84.6c8.6,7,18.4,12.7,28.9,16.9c12.5,5,26,7.8,40.2,7.8c60.3,0,109.2-48.9,109.2-109.3
		C511.2,353.2,484.6,315,446.4,297.9z M411.6,474.9c-3.2,0.4-6.3,0.9-9.6,0.9c-6.9,0-13.5-1.2-20-2.9c-33.5-8.9-58.3-39.1-58.3-75.4
		c0-43.2,35-78.2,78.3-78.2c9.1,0,17.8,1.9,25.9,4.8c6.6,2.3,12.9,5.3,18.5,9.2c20.4,14.1,33.8,37.6,33.8,64.2
		C480.2,437.6,450.2,470.2,411.6,474.9z"/>
	<path d="M434.9,397h-7H403v-50.2c0-2.2-1.8-4.1-4-4.1h-9.4c-2.2,0-4,1.8-4,4.1v63.7c0,2.2,1.8,4.1,4,4.1h36.8h8.6
		c2.2,0,4-1.8,4-4.1V401C438.9,398.8,437.1,397,434.9,397z"/>
</g>
</svg>
