<?xml version="1.0" encoding="utf-8"?>
<!-- Generator: Adobe Illustrator 16.0.0, SVG Export Plug-In . SVG Version: 6.00 Build 0)  -->
<!DOCTYPE svg PUBLIC "-//W3C//DTD SVG 1.1//EN" "http://www.w3.org/Graphics/SVG/1.1/DTD/svg11.dtd">
<svg version="1.1"
	 id="svg2" xmlns:dc="http://purl.org/dc/elements/1.1/" xmlns:svg="http://www.w3.org/2000/svg" xmlns:cc="http://creativecommons.org/ns#" xmlns:inkscape="http://www.inkscape.org/namespaces/inkscape" xmlns:rdf="http://www.w3.org/1999/02/22-rdf-syntax-ns#" xmlns:sodipodi="http://sodipodi.sourceforge.net/DTD/sodipodi-0.dtd" inkscape:export-filename="R:\Media\Pictures\Logos\Facebook Home (Clear).png" inkscape:export-ydpi="230.97745" inkscape:export-xdpi="230.97745" inkscape:version="0.48.3.1 r9886" sodipodi:docname="Facebook Home (Clear).svg"
	 xmlns="http://www.w3.org/2000/svg" xmlns:xlink="http://www.w3.org/1999/xlink" x="0px" y="0px" width="512px" height="512px"
	 viewBox="0 0 512 512" style="enable-background:new 0 0 512 512;" xml:space="preserve">
<g>
	<path d="M49.1,454.5l-30.8-30.9c-0.9,1-1.5,2.2-1.8,3.5L2.1,500.8c-0.5,2.5,0.3,4.9,2,6.6c0,0,0.1,0,0.2,0.1c0,0,0.1,0,0.1,0.4
		c1.4,1.1,3.3,2.2,5.2,2.2c0.4,0,0.9-0.4,1.4-0.4l73.8-14.2c1.4-0.4,2.5-0.9,3.5-1.8l-30.9-31L49.1,454.5z"/>
	<polygon points="232.7,208.7 232.4,209 42.6,398.8 112.9,469.2 303.1,279 303,279 	"/>
	<path d="M298.2,167.6c-3.4-3.4-7.8-5.1-12.2-5.1c-4.5,0-8.9,1.8-12.3,5.1l-16.3,16.2l70.4,70.5l16.3-16.3c6.8-6.8,6.8-17.7,0-24.5
		L298.2,167.6z"/>
	<path d="M464.9,169.3C407,69.4,299.1,1.9,175.6,1.9V22c116.3,0,217.6,63.4,272,157.3c26.8,46.2,42.3,99.8,42.3,157
		c0,57.3-15.6,110.8-42.3,157.1l17.3,10c28.5-49.2,45.1-106.2,45.1-167C510,275.5,493.4,218.5,464.9,169.3z"/>
</g>
</svg>
