<?xml version="1.0" encoding="utf-8"?>
<!-- Generator: Adobe Illustrator 16.0.0, SVG Export Plug-In . SVG Version: 6.00 Build 0)  -->
<!DOCTYPE svg PUBLIC "-//W3C//DTD SVG 1.1//EN" "http://www.w3.org/Graphics/SVG/1.1/DTD/svg11.dtd">
<svg version="1.1"
	 id="svg2" xmlns:dc="http://purl.org/dc/elements/1.1/" xmlns:svg="http://www.w3.org/2000/svg" xmlns:cc="http://creativecommons.org/ns#" xmlns:inkscape="http://www.inkscape.org/namespaces/inkscape" xmlns:rdf="http://www.w3.org/1999/02/22-rdf-syntax-ns#" xmlns:sodipodi="http://sodipodi.sourceforge.net/DTD/sodipodi-0.dtd" inkscape:export-filename="R:\Media\Pictures\Logos\Facebook Home (Clear).png" inkscape:export-ydpi="230.97745" inkscape:export-xdpi="230.97745" inkscape:version="0.48.3.1 r9886" sodipodi:docname="Facebook Home (Clear).svg"
	 xmlns="http://www.w3.org/2000/svg" xmlns:xlink="http://www.w3.org/1999/xlink" x="0px" y="0px" width="512px" height="512px"
	 viewBox="0 0 512 512" style="enable-background:new 0 0 512 512;" xml:space="preserve">
<g>
	<path d="M469.5,407.9c0-0.4,0-0.9,0-1.4c0-18,0-61.5-0.1-108.2c0-3,0-6,0-9c0-4.4,0-8.7,0-13.3c-0.1-68.1-0.1-135.9-0.1-136.5
		c-1.8-39.3-28.6-72.7-64.5-85.3c-2.8-1.1-5.5-1.8-8.4-2.5c-2-0.5-3.9-1.1-6-1.3c-5.2-1-10.5-1.6-15.9-1.6h-31.6l-1.1,15.5h32.7
		c4.5,0,8.8,0.5,13.1,1.2c1.8,0.4,3.5,0.6,5.3,1.1c1.8,0.4,3.5,1.1,5.2,1.7c4.7,1.6,9.2,3.3,13.5,5.7c24.2,13.1,40.8,38.4,40.8,68.1
		v129.3v143.8c0,43.2-34.6,77.8-77.8,77.8H149.9c-43.2,0-77.8-34.6-77.8-77.8V271.4V142.1c0-29.7,16.5-55,40.7-68.1
		c4.3-2.4,8.8-4.2,13.5-5.7c1.7-0.5,3.4-1.2,5.2-1.6c1.8-0.4,3.5-0.8,5.3-1.1c4.3-0.7,8.6-1.2,13.1-1.2h32.7l-1.1-15.5h-31.6
		c-5.5,0-10.7,0.6-15.9,1.6c-2.1,0.4-4,0.8-6,1.3c-2.9,0.7-5.7,1.6-8.4,2.5C83.6,67,56.9,100.1,55,139.7c0,0.4-0.1,68.3-0.1,136.5
		c0,4.6,0,9,0,13.3c0,3,0,6,0,9c0,46.7-0.1,90.2-0.1,108.2c0,0.4,0,1.1,0,1.4c0,2.1,0,3.7,0,4.9c0,1.6,0,2.6,0,2.6
		c0,51.9,43.2,95.1,95.1,95.1h224.6c51.9,0,95.1-43.2,95.1-95.1c0,0,0-1.1,0-2.6C469.6,411.6,469.6,410,469.5,407.9z"/>
	<path d="M262.2,324c-21.8,0-39.5,17.7-39.5,39.5c0,21.8,17.7,39.5,39.5,39.5s39.5-17.7,39.5-39.5C301.7,341.7,284,324,262.2,324z"
		/>
	<path d="M217.2,64.6l14.1,202c0,9.5,7.8,17.3,17.3,17.3h27.2c9.5,0,17.3-7.7,17.3-17.3l14.1-202l1.1-15.5l2.1-30.4
		c0-9.7-7.8-17.3-17.3-17.3h-61.8c-9.5,0-17.3,7.6-17.3,17.3l2.1,30.4L217.2,64.6z"/>
</g>
</svg>
