<?xml version="1.0" encoding="utf-8"?>
<!-- Generator: Adobe Illustrator 16.0.0, SVG Export Plug-In . SVG Version: 6.00 Build 0)  -->
<!DOCTYPE svg PUBLIC "-//W3C//DTD SVG 1.1//EN" "http://www.w3.org/Graphics/SVG/1.1/DTD/svg11.dtd">
<svg version="1.1"
	 id="svg2" xmlns:dc="http://purl.org/dc/elements/1.1/" xmlns:svg="http://www.w3.org/2000/svg" xmlns:cc="http://creativecommons.org/ns#" xmlns:inkscape="http://www.inkscape.org/namespaces/inkscape" xmlns:rdf="http://www.w3.org/1999/02/22-rdf-syntax-ns#" xmlns:sodipodi="http://sodipodi.sourceforge.net/DTD/sodipodi-0.dtd" inkscape:export-filename="R:\Media\Pictures\Logos\Facebook Home (Clear).png" inkscape:export-ydpi="230.97745" inkscape:export-xdpi="230.97745" inkscape:version="0.48.3.1 r9886" sodipodi:docname="Facebook Home (Clear).svg"
	 xmlns="http://www.w3.org/2000/svg" xmlns:xlink="http://www.w3.org/1999/xlink" x="0px" y="0px" width="512px" height="512px"
	 viewBox="0 0 512 512" style="enable-background:new 0 0 512 512;" xml:space="preserve">
<g>
	<path d="M334.1,450.8H159.3c-34.9,0-63.7-24.4-70.5-57.3l-12.8,13.2c11.9,34.6,45,60,83.2,60h192.4
		C345.2,462.1,339.3,456.8,334.1,450.8z"/>
	<path d="M87.4,126.3c0-27.7,15.3-51,37.7-63c3.9-2.1,8.2-3.8,12.4-5.3c1.7-0.5,3.1-1,4.8-1.5c1.7-0.4,3.2-0.7,5-1c4-0.7,8-1,12.1-1
		h207.8c4.2,0,8.2,0.3,12.1,1c1.7,0.3,3.3,0.6,5,1c1.7,0.3,3.2,1,4.8,1.5c4.3,1.4,8.5,3.1,12.4,5.3c22.4,12.1,37.7,35.5,37.7,63
		l0,119.5v24.5c5.5,1.2,10.8,2.8,15.9,4.8c0-1.5,0-3,0-4.5c0-2.8,0-5.5,0-8.3c0-4,0-8.1,0-12.1c0-63.1-0.1-125.9-0.2-126.3
		c-1.7-36.4-26.4-67.3-59.6-78.9c-2.5-1-5.1-1.7-7.8-2.4c-1.8-0.5-3.7-0.9-5.6-1.2c-4.8-0.9-9.7-1.5-14.7-1.5H159.3
		c-5,0-9.9,0.6-14.7,1.5c-1.9,0.3-3.7,0.8-5.6,1.2c-2.7,0.7-5.2,1.5-7.7,2.4C98,56.6,73.3,87.4,71.6,123.9c0,0.1,0,7.2,0,18.9
		c4.9-5.5,10.1-10.6,15.8-15.1V126.3z"/>
	<path d="M455.1,292.3c-5.1-2.3-10.4-4.1-15.9-5.5c-7.3-1.8-14.9-2.9-22.8-2.9c-52,0-94.1,42.1-94.1,94.1
		c0,29.4,13.5,55.6,34.6,72.8c7.5,6.1,15.9,11,25,14.6c10.7,4.2,22.3,6.6,34.5,6.6c51.9,0,94.1-42.1,94.1-94.1
		C510.4,339.8,487.7,307.1,455.1,292.3z M425.1,444.4c-2.9,0.4-5.8,0.9-8.8,0.9c-5.9,0-11.5-1-16.9-2.4c-29-7.5-50.5-33.6-50.5-65
		c0-37.2,30.1-67.4,67.4-67.4c8,0,15.6,1.6,22.8,4.2c5.7,2.1,11.1,4.7,16,8.2c17.3,12.2,28.6,32.2,28.6,55
		C483.7,412.2,458.1,440.1,425.1,444.4z"/>
	<path d="M444.7,377.4h-5.6h-21.9v-43.3c0-1.9-1.5-3.5-3.5-3.5h-8.1c-1.9,0-3.5,1.6-3.5,3.5V389c0,1.9,1.5,3.5,3.5,3.5h32.1h6.9
		c1.9,0,3.5-1.6,3.5-3.5v-8.1C448.2,378.9,446.6,377.4,444.7,377.4z"/>
	<path d="M114.2,326.9c16.6,10.8,35.8,16.6,56.5,16.6c59,0,106.3-49.1,106.3-108.8c0-59.9-47.4-108.9-106.3-108.9
		c-33.9,0-64,16.3-83.4,41.5c-6.7,8.6-12,18.3-15.9,28.7c-4.5,12-7,25-7,38.6c0,13.4,2.5,26.3,7,38.5c2.2,5.9,4.7,11.6,8,17l-8,7.9
		L3.6,365.3c-2.5,2.5-2.5,6.7-0.8,9.2L31,403.6c1.2,1.3,2.9,1.9,4.6,1.9c1.7,0,3.3-0.6,4.6-1.9l31.2-32.3l16-16.6L114.2,326.9z
		 M170.7,158.9c41.1,0,74.2,33.1,74.2,74.1c0,41.1-33.1,74.1-74.2,74.1c-41,0-74.1-33.1-74.1-74.1C96.6,192,129.7,158.9,170.7,158.9
		z"/>
</g>
</svg>
