<?xml version="1.0" encoding="utf-8"?>
<!-- Generator: Adobe Illustrator 16.0.0, SVG Export Plug-In . SVG Version: 6.00 Build 0)  -->
<!DOCTYPE svg PUBLIC "-//W3C//DTD SVG 1.1//EN" "http://www.w3.org/Graphics/SVG/1.1/DTD/svg11.dtd">
<svg version="1.1"
	 id="svg2" xmlns:dc="http://purl.org/dc/elements/1.1/" xmlns:svg="http://www.w3.org/2000/svg" xmlns:cc="http://creativecommons.org/ns#" xmlns:inkscape="http://www.inkscape.org/namespaces/inkscape" xmlns:rdf="http://www.w3.org/1999/02/22-rdf-syntax-ns#" xmlns:sodipodi="http://sodipodi.sourceforge.net/DTD/sodipodi-0.dtd" inkscape:export-filename="R:\Media\Pictures\Logos\Facebook Home (Clear).png" inkscape:export-ydpi="230.97745" inkscape:export-xdpi="230.97745" inkscape:version="0.48.3.1 r9886" sodipodi:docname="Facebook Home (Clear).svg"
	 xmlns="http://www.w3.org/2000/svg" xmlns:xlink="http://www.w3.org/1999/xlink" x="0px" y="0px" width="512px" height="512px"
	 viewBox="0 0 512 512" style="enable-background:new 0 0 512 512;" xml:space="preserve">
<g>
	<path d="M510.6,347.6c0-0.3,0-0.7,0-1c0-13.2,0-44.9-0.1-79.1c0-2.2,0-4.4,0-6.6c0-3.2,0-6.4,0-9.7c0-49.8-0.1-99.3-0.1-99.8
		c-1.3-28.8-20.9-53.2-47.1-62.4c-2-0.8-4-1.3-6.1-1.9c-1.5-0.3-2.9-0.8-4.4-1c-3.8-0.7-7.7-1.2-11.6-1.2H418l-0.8,11.3h23.9
		c3.3,0,6.4,0.4,9.6,0.9c1.3,0.3,2.6,0.5,3.9,0.8c1.3,0.3,2.5,0.8,3.8,1.3c3.4,1.1,6.7,2.4,9.8,4.2c17.7,9.6,29.8,28.1,29.8,49.8
		v94.5v105.1c0,31.6-25.3,56.9-56.9,56.9H276.9c-2.2,0-4.2-0.4-6.4-0.6c23.8-27.1,38.3-62.5,38.3-101.3
		c0-61.6-36.5-114.7-88.9-139.2v-15.3c0-21.7,12.1-40.2,29.8-49.8c3.1-1.8,6.4-3,9.8-4.2c1.3-0.4,2.5-0.9,3.8-1.2
		c1.3-0.3,2.6-0.6,3.9-0.8c3.1-0.5,6.3-0.9,9.6-0.9h23.9L300,85.2h-23.1c-4,0-7.8,0.5-11.7,1.2c-1.5,0.3-2.9,0.6-4.4,1
		c-2.1,0.5-4.1,1.2-6.1,1.9c-26.3,9.2-45.8,33.4-47.1,62.4c0,0.1,0,4.5,0,11.9c-16.4-6-34-9.4-52.4-9.4
		c-84.8,0-153.8,69-153.8,153.8c0,40.8,16.1,77.8,42,105.3c28.1,29.8,67.7,48.5,111.7,48.5c40.3,0,77-15.7,104.4-41.2
		c5.4,1.4,11,2.3,16.8,2.3c0.2,0,0.4,0,0.6,0h164.2c37.9,0,69.5-31.6,69.5-69.5c0,0,0-0.8,0-1.9
		C510.6,350.3,510.6,349.2,510.6,347.6z M256.5,405.9c-2.6-1-5.1-2.2-7.5-3.5c-0.1,0-0.2-0.1-0.2-0.1c-12.5-6.4-23.9-11.5-33.5-17.4
		c-11.7-7.1-20.9-15.5-26-28.9c-0.3-0.6-0.5-1-0.8-1.5c0,0,0.8-0.8,1.8-1.7c1.8-1.9,4.9-5.5,5.9-11.2l0.8-9.7l0.3-3.9
		c0,0,0.2-0.3,1-0.3c1.8-0.5,5.6-2.2,9-7.3c2.9-4.3,5.5-11.1,6.2-21.9c0,0-0.1-5.1-3.4-7.6c-0.7-0.6-1.7-0.9-2.8-1.1
		c0-3.4,0-6.9,0-10.4c0.6-5.7,1.2-13.5,1.2-23.2c0-3.3-0.5-6.4-1.2-9.5c-2-8.1-6.4-15.1-12.5-19.8c-1.4-1.3-2.8-2.3-4.4-3.4
		c-1-0.5-2.8-1.7-4.6-1.7c-1.3,0-2.3,0.5-3.4,2.1c0,0-1.3-2.9-3.9-4.9c-0.1-0.2-0.2-0.2-0.2-0.2c-0.7-0.5-1.3-0.8-2.3-1.3
		c-3.1-1.3-7.3-1.8-9.3-2.1c-4.4-0.4-8-0.5-10.1-0.5c-1,0-1.6,0-1.6,0s-51.7,0.1-53.6,41.1c-0.8,20.6,2.9,33.4,2.9,33.4
		c-0.3-0.2-0.3-0.2-0.3-0.2c-7.3,0-7.4,9.1-7.4,9.1c1.7,27.7,16.3,29.3,16.3,29.3l1.3,13.7c1.7,8.3,7.5,12.7,7.5,12.7
		c-8.9,26.2-32.4,33.4-61.3,48.4c-2.3,1.2-4.5,2.4-6.4,3.6c-24.7-25.4-39.9-60-39.9-98.2c0-77.9,63.2-141.1,141.1-141.1
		c18.5,0,36.2,3.7,52.4,10.2c4.3,1.7,8.4,3.6,12.5,5.7c45.3,23.5,76.2,70.7,76.2,125.2C296.2,345.9,281.1,380.5,256.5,405.9z"/>
	<path d="M359,286.3c-15.9,0-28.9,12.9-28.9,28.9c0,16,12.9,28.9,28.9,28.9c15.9,0,28.9-12.9,28.9-28.9
		C387.9,299.2,374.9,286.3,359,286.3z"/>
	<path d="M326.1,96.6l10.3,147.7c0,7,5.7,12.6,12.6,12.6h19.9c7,0,12.6-5.7,12.6-12.6l10.3-147.7l0.8-11.3l1.6-22.3
		c0-7.1-5.7-12.6-12.6-12.6h-45.2c-7,0-12.6,5.5-12.6,12.6l1.6,22.3L326.1,96.6z"/>
</g>
</svg>
