<?xml version="1.0" encoding="utf-8"?>
<!-- Generator: Adobe Illustrator 16.0.0, SVG Export Plug-In . SVG Version: 6.00 Build 0)  -->
<!DOCTYPE svg PUBLIC "-//W3C//DTD SVG 1.1//EN" "http://www.w3.org/Graphics/SVG/1.1/DTD/svg11.dtd">
<svg version="1.1"
	 id="svg2" xmlns:sodipodi="http://sodipodi.sourceforge.net/DTD/sodipodi-0.dtd" xmlns:rdf="http://www.w3.org/1999/02/22-rdf-syntax-ns#" xmlns:dc="http://purl.org/dc/elements/1.1/" xmlns:svg="http://www.w3.org/2000/svg" xmlns:cc="http://creativecommons.org/ns#" xmlns:inkscape="http://www.inkscape.org/namespaces/inkscape" inkscape:export-filename="R:\Media\Pictures\Logos\Facebook Home (Clear).png" inkscape:export-ydpi="230.97745" inkscape:version="0.48.3.1 r9886" sodipodi:docname="Facebook Home (Clear).svg" inkscape:export-xdpi="230.97745"
	 xmlns="http://www.w3.org/2000/svg" xmlns:xlink="http://www.w3.org/1999/xlink" x="0px" y="0px" width="512px" height="512px"
	 viewBox="0 0 512 512" style="enable-background:new 0 0 512 512;" xml:space="preserve">
<g>
	<path d="M501.8,376.4L307.1,70.5C296,53,276.7,42.5,256,42.5c-20.7,0-40.1,10.6-51.2,28.1L10.2,376.4c-11.9,18.7-12.6,42.3-2,61.7
		c10.6,19.4,31,31.4,53.1,31.4h389.4c22.1,0,42.5-12,53.1-31.4C514.5,418.7,513.7,395.1,501.8,376.4z M231.7,164.9h48.5v63
		l-12.7,101h-23.3l-12.5-101L231.7,164.9L231.7,164.9z M281.9,399.1h-51.5v-50.5h51.5V399.1z"/>
</g>
</svg>
