<svg width="510" height="398" viewBox="0 0 510 398" xmlns="http://www.w3.org/2000/svg" xmlns:sketch="http://www.bohemiancoding.com/sketch/ns"><title>Type something</title><desc>Created with Sketch.</desc><path d="M400.714 240.458c0-4.664-3.984-8.292-9.107-8.292h-18.214c-5.123 0-9.107 3.628-9.107 8.292v82.917c0 22.802-20.491 41.458-45.536 41.458h-236.786c-25.045 0-45.536-18.656-45.536-41.458v-215.583c0-22.802 20.491-41.458 45.536-41.458h200.357c5.123 0 9.107-3.628 9.107-8.292v-16.583c0-4.664-3.984-8.292-9.107-8.292h-200.357c-45.251 0-81.964 33.426-81.964 74.625v215.583c0 41.199 36.713 74.625 81.964 74.625h236.786c45.251 0 81.964-33.426 81.964-74.625v-82.917zm109.286-223.875c0-9.069-8.253-16.583-18.214-16.583h-145.714c-9.961 0-18.214 7.514-18.214 16.583 0 4.405 1.992 8.551 5.407 11.66l50.089 45.604-185.558 168.943c-1.708 1.555-2.846 3.887-2.846 5.96s1.138 4.405 2.846 5.96l32.444 29.539c1.708 1.555 4.269 2.591 6.546 2.591s4.838-1.036 6.546-2.591l185.558-168.943 50.089 45.604c3.415 3.109 7.969 4.923 12.807 4.923 9.961 0 18.214-7.514 18.214-16.583v-132.667z" fill="#262626" sketch:type="MSShapeGroup"/></svg>