<?xml version="1.0" encoding="utf-8"?>
<!-- Generator: Adobe Illustrator 16.0.0, SVG Export Plug-In . SVG Version: 6.00 Build 0)  -->
<!DOCTYPE svg PUBLIC "-//W3C//DTD SVG 1.1//EN" "http://www.w3.org/Graphics/SVG/1.1/DTD/svg11.dtd">
<svg version="1.1"
	 id="svg2" sodipodi:docname="Facebook Home (Clear).svg" inkscape:export-xdpi="230.97745" inkscape:version="0.48.3.1 r9886" inkscape:export-ydpi="230.97745" inkscape:export-filename="R:\Media\Pictures\Logos\Facebook Home (Clear).png" xmlns:dc="http://purl.org/dc/elements/1.1/" xmlns:svg="http://www.w3.org/2000/svg" xmlns:cc="http://creativecommons.org/ns#" xmlns:inkscape="http://www.inkscape.org/namespaces/inkscape" xmlns:rdf="http://www.w3.org/1999/02/22-rdf-syntax-ns#" xmlns:sodipodi="http://sodipodi.sourceforge.net/DTD/sodipodi-0.dtd"
	 xmlns="http://www.w3.org/2000/svg" xmlns:xlink="http://www.w3.org/1999/xlink" x="0px" y="0px" width="512px" height="512px"
	 viewBox="0 0 512 512" style="enable-background:new 0 0 512 512;" xml:space="preserve">
<path d="M507.9,249.2C502.6,242.7,417.5,89,256,89C94.5,89,9.4,242.7,4.1,249.2c-3.3,4-3.3,9.6,0,13.6C9.4,269.3,94.5,423,256,423
	c161.5,0,246.6-153.6,251.9-160.2C511.2,258.8,511.2,253.2,507.9,249.2z M256,127.6c8.9,0,16.1,7.2,16.1,16.1
	c0,8.9-7.2,16.1-16.1,16.1c-33.1,0-60.1,27-60.1,60.1c0,8.9-7.2,16.1-16.1,16.1c-8.9,0-16.1-7.2-16.1-16.1
	C163.8,168.9,205.2,127.6,256,127.6z M256,401.5c-132.6,0-202.8-116-229.4-145.5c21.9-24.3,59.2-106.7,160.5-135.4
	c-33.6,22.3-55.8,60.5-55.8,103.9c0,68.9,55.8,124.7,124.7,124.7c68.9,0,124.7-55.8,124.7-124.7c0-43.4-22.2-81.6-55.8-103.9
	C426.3,149.3,463.6,231.7,485.5,256C458.8,285.6,388.8,401.5,256,401.5z"/>
</svg>
