<?xml version="1.0" encoding="utf-8"?>
<!-- Generator: Adobe Illustrator 16.0.0, SVG Export Plug-In . SVG Version: 6.00 Build 0)  -->
<!DOCTYPE svg PUBLIC "-//W3C//DTD SVG 1.0//EN" "http://www.w3.org/TR/2001/REC-SVG-20010904/DTD/svg10.dtd">
<svg version="1.0"
	 id="svg2" xmlns:sodipodi="http://sodipodi.sourceforge.net/DTD/sodipodi-0.dtd" xmlns:rdf="http://www.w3.org/1999/02/22-rdf-syntax-ns#" xmlns:dc="http://purl.org/dc/elements/1.1/" xmlns:svg="http://www.w3.org/2000/svg" xmlns:cc="http://creativecommons.org/ns#" xmlns:inkscape="http://www.inkscape.org/namespaces/inkscape" inkscape:version="0.48.3.1 r9886" inkscape:export-ydpi="230.97745" inkscape:export-xdpi="230.97745" sodipodi:docname="Facebook Home (Clear).svg" inkscape:export-filename="R:\Media\Pictures\Logos\Facebook Home (Clear).png"
	 xmlns="http://www.w3.org/2000/svg" xmlns:xlink="http://www.w3.org/1999/xlink" x="0px" y="0px" width="512px" height="512px"
	 viewBox="0 0 512 512" style="enable-background:new 0 0 512 512;" xml:space="preserve">
<g>
	<rect x="233.5" y="270.5" width="45" height="41"/>
	<polygon points="265.9,245.5 276.5,143.7 276.5,75.5 235.5,75.5 235.5,143.7 246.4,245.5 	"/>
	<path d="M408.3,0.5H103.7c-45.5,0-82.2,36.7-82.2,82.3v234.7c0,43,33,78.4,75,82.2v112.1l146-111.3h165.9c45.5,0,82.1-37.5,82.1-83
		V82.8C490.5,37.2,453.8,0.5,408.3,0.5z M475.5,317.5c0,37.2-29.9,68-67.1,68h-171l-125.9,96v-96h-7.8c-37.2,0-67.2-30.8-67.2-68
		V82.8c0-37.2,30-67.3,67.2-67.3h304.7c37.2,0,67.1,30.1,67.1,67.3V317.5z"/>
</g>
</svg>
