<?xml version="1.0" encoding="utf-8"?>
<!-- Generator: Adobe Illustrator 16.0.0, SVG Export Plug-In . SVG Version: 6.00 Build 0)  -->
<!DOCTYPE svg PUBLIC "-//W3C//DTD SVG 1.1//EN" "http://www.w3.org/Graphics/SVG/1.1/DTD/svg11.dtd">
<svg version="1.1"
	 id="svg2" xmlns:dc="http://purl.org/dc/elements/1.1/" xmlns:svg="http://www.w3.org/2000/svg" xmlns:cc="http://creativecommons.org/ns#" xmlns:inkscape="http://www.inkscape.org/namespaces/inkscape" xmlns:rdf="http://www.w3.org/1999/02/22-rdf-syntax-ns#" xmlns:sodipodi="http://sodipodi.sourceforge.net/DTD/sodipodi-0.dtd" inkscape:export-filename="R:\Media\Pictures\Logos\Facebook Home (Clear).png" inkscape:export-xdpi="230.97745" inkscape:version="0.48.3.1 r9886" inkscape:export-ydpi="230.97745" sodipodi:docname="Facebook Home (Clear).svg"
	 xmlns="http://www.w3.org/2000/svg" xmlns:xlink="http://www.w3.org/1999/xlink" x="0px" y="0px" width="512px" height="512px"
	 viewBox="0 0 512 512" style="enable-background:new 0 0 512 512;" xml:space="preserve">
<g>
	<path d="M460.7,54.2H117.1c-27.2,0-49.3,22.1-49.3,49.3v0.1h327c36.2,0,65.7,29.5,65.7,65.7V392h0.1c27.2,0,49.3-22.1,49.3-49.3
		V103.5C510,76.3,487.9,54.2,460.7,54.2z"/>
	<path d="M394.9,120h-327h-8.2h-8.2h-0.1C24.1,120,2,142,2,169.3v239.2c0,27.2,22.1,49.3,49.3,49.3h343.5
		c27.2,0,49.3-22.1,49.3-49.3v-0.1v-8.2V392V169.3C444.2,142.1,422.1,120,394.9,120z M276.7,234.8h-80v40.6h70.2v22.2h-70.2v68.9
		h-27.2V211.3h107.2L276.7,234.8L276.7,234.8z"/>
</g>
</svg>
