<?xml version="1.0" encoding="utf-8"?>
<!-- Generator: Adobe Illustrator 16.0.0, SVG Export Plug-In . SVG Version: 6.00 Build 0)  -->
<!DOCTYPE svg PUBLIC "-//W3C//DTD SVG 1.1//EN" "http://www.w3.org/Graphics/SVG/1.1/DTD/svg11.dtd">
<svg version="1.1"
	 id="svg2" inkscape:export-ydpi="230.97745" inkscape:version="0.48.3.1 r9886" inkscape:export-filename="R:\Media\Pictures\Logos\Facebook Home (Clear).png" inkscape:export-xdpi="230.97745" sodipodi:docname="Facebook Home (Clear).svg" xmlns:cc="http://creativecommons.org/ns#" xmlns:dc="http://purl.org/dc/elements/1.1/" xmlns:svg="http://www.w3.org/2000/svg" xmlns:inkscape="http://www.inkscape.org/namespaces/inkscape" xmlns:rdf="http://www.w3.org/1999/02/22-rdf-syntax-ns#" xmlns:sodipodi="http://sodipodi.sourceforge.net/DTD/sodipodi-0.dtd"
	 xmlns="http://www.w3.org/2000/svg" xmlns:xlink="http://www.w3.org/1999/xlink" x="0px" y="0px" width="512px" height="512px"
	 viewBox="0 0 512 512" style="enable-background:new 0 0 512 512;" xml:space="preserve">
<path d="M472.4,42.9H310.3v15.8h162.1c13.1,0,23.7,10.6,23.7,23.3l-31.7,347.6c0,13.1-10.6,23.7-23.7,23.7h-2.4
	c2.7-4.7,4.4-10,4.4-15.8V120c0-17.5-14.2-31.6-31.6-31.6H253V74.5c0-17.5-14.2-31.6-31.6-31.6H31.7C14.2,42.9,0.1,57,0.1,74.5V120
	v272v45.5c0,17.5,14.2,31.6,31.6,31.6h45.5h334h29.6c21.8,0,39.5-17.7,39.5-39.1l31.6-347.6C511.9,60.6,494.2,42.9,472.4,42.9z"/>
</svg>
