<?xml version="1.0" encoding="utf-8"?>
<!-- Generator: Adobe Illustrator 16.0.0, SVG Export Plug-In . SVG Version: 6.00 Build 0)  -->
<!DOCTYPE svg PUBLIC "-//W3C//DTD SVG 1.1//EN" "http://www.w3.org/Graphics/SVG/1.1/DTD/svg11.dtd">
<svg version="1.1"
	 id="svg2" inkscape:export-xdpi="230.97745" sodipodi:docname="Facebook Home (Clear).svg" inkscape:version="0.48.3.1 r9886" inkscape:export-ydpi="230.97745" inkscape:export-filename="R:\Media\Pictures\Logos\Facebook Home (Clear).png" xmlns:sodipodi="http://sodipodi.sourceforge.net/DTD/sodipodi-0.dtd" xmlns:rdf="http://www.w3.org/1999/02/22-rdf-syntax-ns#" xmlns:dc="http://purl.org/dc/elements/1.1/" xmlns:svg="http://www.w3.org/2000/svg" xmlns:cc="http://creativecommons.org/ns#" xmlns:inkscape="http://www.inkscape.org/namespaces/inkscape"
	 xmlns="http://www.w3.org/2000/svg" xmlns:xlink="http://www.w3.org/1999/xlink" x="0px" y="0px" width="512px" height="512px"
	 viewBox="0 0 512 512" style="enable-background:new 0 0 512 512;" xml:space="preserve">
<g>
	<path d="M509.1,388.3c-4.5-8.6-16.2-22.8-45.9-38.1c-7.4-3.8-14.5-7.2-21.3-10.6c-3.3-1.6-6.6-3.2-9.7-4.8
		c-3.3-1.6-6.2-3.2-9.4-4.9c-24.8-12.9-44.2-26.7-53.8-52.6c-0.3-0.8-0.8-1.5-1.1-2.4c0,0,1.2-1.1,2.7-2.5c3-2.9,7.5-8.7,9.3-17.3
		l1.3-15l0.5-6.2c0,0,0.6-0.1,1.7-0.4c5.2-1.2,21.6-8.7,23.8-45.3c0,0-0.1-8-5.1-11.9c-1.6-1.2-3.7-2.1-6.4-2.1c-0.2,0-0.4,0-0.6,0
		c0,0,4.2-19.6,4.2-51.9c0-22.2-10.8-41.9-28.5-50.7c-1.5-0.8-4.4-2.6-7.2-2.6c-1.9,0-3.8,0.8-5.2,3.2c0,0-1.8-4.6-6.2-7.9
		c-1-0.4-2.3-1.2-3.6-1.9c-4.9-2-11.3-2.9-14.4-3.3c-7.1-0.6-12.7-0.8-15.7-0.8c-1.5,0-2.4,0-2.4,0s-80.5,0.4-83.3,63.8
		c-1.4,32.1,4.2,51.9,4.2,51.9c-0.2,0-0.4,0-0.6,0c-11.2,0-11.4,14-11.4,14c2.6,43.2,25.4,45.7,25.4,45.7l1.9,21.2
		c2.6,12.9,12,19.8,12,19.8c-3.6,10.5-8.7,19.1-15.1,26.4c4.3,7.2,6.9,15.4,6.9,24.4v32c0,26.4-21.5,48-48,48h-32v32
		c0,5.6-1.2,11-2.9,16h323.8c0,0,0.2-0.1,0.2-0.1c0.6,0,4.2-0.4,5.4-1c1.9-1,4.5-2.8,6.3-5.7c1.1-1.9,1.9-5.4,2.5-9.6
		c0.3-2.1,0.8-8.4,0.8-9.4c0-4.6,0-23.2,0-23.3C512,400.9,512.3,394.9,509.1,388.3z"/>
	<path d="M223.9,357.6v-32c0-1.3-0.5-2.4-0.7-3.6c-1.7-7-7.7-12.4-15.3-12.4h-64v-64c0-8.8-7.2-16-16-16H96c-8.8,0-16,7.2-16,16v64
		H16c-8.8,0-16,7.1-16,16v32c0,8.8,7.2,16,16,16h64v64c0,8.8,7.2,16,16,16h32c1.1,0,2-0.4,3.1-0.6c7.3-1.5,12.9-7.6,12.9-15.4v-64
		h64C216.7,373.6,223.9,366.4,223.9,357.6z"/>
</g>
</svg>
