<?xml version="1.0" encoding="utf-8"?>
<!-- Generator: Adobe Illustrator 16.0.0, SVG Export Plug-In . SVG Version: 6.00 Build 0)  -->
<!DOCTYPE svg PUBLIC "-//W3C//DTD SVG 1.1//EN" "http://www.w3.org/Graphics/SVG/1.1/DTD/svg11.dtd">
<svg version="1.1"
	 id="svg2" xmlns:dc="http://purl.org/dc/elements/1.1/" xmlns:svg="http://www.w3.org/2000/svg" xmlns:cc="http://creativecommons.org/ns#" xmlns:inkscape="http://www.inkscape.org/namespaces/inkscape" xmlns:rdf="http://www.w3.org/1999/02/22-rdf-syntax-ns#" xmlns:sodipodi="http://sodipodi.sourceforge.net/DTD/sodipodi-0.dtd" sodipodi:docname="Facebook Home (Clear).svg" inkscape:version="0.48.3.1 r9886" inkscape:export-xdpi="230.97745" inkscape:export-ydpi="230.97745" inkscape:export-filename="R:\Media\Pictures\Logos\Facebook Home (Clear).png"
	 xmlns="http://www.w3.org/2000/svg" xmlns:xlink="http://www.w3.org/1999/xlink" x="0px" y="0px" width="512px" height="512px"
	 viewBox="0 0 512 512" style="enable-background:new 0 0 512 512;" xml:space="preserve">
<g>
	<path d="M275.9,311.7c0.3-0.7,0.6-1.3,0.9-2c0.1-0.2,0.2-0.4,0.3-0.7c1.2-2.4,2.3-4.8,3.4-7.3c0.4-1.1,0.8-2.1,1.2-3.2
		c0.5-1.2,1-2.5,1.4-3.8c0.1-0.1,0.1-0.2,0.1-0.3c0.3-0.8,0.6-1.7,0.9-2.4l47.2-5c0,0,0,0,0,0c3.4,0,6.2-2.7,6.2-6.2v-50.2
		c-0.1-3.2-2.8-6-6.3-6l-47.2-5c-0.1-0.2-0.2-0.5-0.3-0.7c-0.5-1.6-1.1-3.2-1.7-4.8c-0.6-1.6-1.1-3.2-1.8-4.8
		c-0.1-0.2-0.2-0.4-0.2-0.6c-0.5-1.2-1.1-2.4-1.7-3.6c-0.2-0.5-0.5-1.1-0.7-1.6c-0.2-0.5-0.4-1-0.7-1.4c-0.3-0.6-0.6-1.3-0.9-2
		l29.9-37c2.4-2.4,2.4-6.3,0-8.8L270.4,119c-1.2-1.2-2.8-1.8-4.4-1.8c-1.6,0-3.2,0.6-4.4,1.8l-37,29.9c-0.5-0.2-1-0.4-1.5-0.7
		c-1.2-0.6-2.5-1.2-3.8-1.8c-3.3-1.5-6.6-2.8-10-4.1c-1.1-0.4-2.2-0.8-3.3-1.2c-0.1-0.1-0.3-0.1-0.4-0.2c-0.2,0-0.3-0.1-0.5-0.2
		l-5-47.4c0-3.4-2.8-6.2-6.2-6.2h-50.1c-3.4,0-6.2,2.7-6.2,6.2l-5,47.3c-2.5,0.8-4.9,1.7-7.4,2.7c-0.7,0.3-1.5,0.5-2.2,0.8
		c-2.4,1-4.6,2.1-6.9,3.1c-0.5,0.2-1,0.5-1.4,0.7c-0.2,0.1-0.4,0.2-0.6,0.2c-0.4,0.2-0.7,0.3-1.1,0.5l-37-29.9
		c-1.2-1.2-2.8-1.8-4.4-1.8c-1.6,0-3.2,0.6-4.4,1.8l-18.5,18.5l-17,17c-2.4,2.4-2.4,6.3,0,8.8l17,21l12.9,16
		c-3.3,6.3-6.1,12.9-8.3,19.7l-4.7,0.5l-42.5,4.5c-3.4,0-6.2,2.8-6.2,6.2v32.3v17.8c0,3.4,2.8,6.2,6.2,6.2l47.3,5
		c0.2,0.6,0.4,1.2,0.7,1.7c0.3,1.1,0.8,2.2,1.2,3.3c1.5,4,3.1,7.8,4.9,11.6c0.5,1,0.9,2,1.4,2.9l-29.9,37c-2.4,2.4-2.4,6.3,0,8.8
		l35.5,35.4c1.2,1.2,2.8,1.8,4.4,1.8c1.6,0,3.2-0.6,4.4-1.8l37-29.9c0.1,0,0.2,0.1,0.3,0.1c2,1,4,2,6,2.9c0.8,0.3,1.5,0.7,2.2,1
		c0.3,0.1,0.5,0.2,0.8,0.4c1.7,0.7,3.6,1.4,5.3,2c1.1,0.4,2.3,0.9,3.4,1.2c0.4,0.2,0.9,0.3,1.3,0.5l5,47.4c0,3.4,2.8,6.2,6.2,6.2
		h50.1c3.4,0,6.2-2.8,6.2-6.2l5-47.3c2.3-0.7,4.5-1.6,6.7-2.5c0.8-0.3,1.7-0.6,2.5-0.9h0c0,0,0,0,0.1,0c2.1-0.9,4.2-1.8,6.3-2.8
		c1-0.5,2.1-1,3.1-1.5c0.3-0.2,0.7-0.3,1-0.4c0,0,0,0,0,0l37,29.9c1.2,1.2,2.8,1.8,4.4,1.8s3.2-0.6,4.4-1.8l35.4-35.4
		c2.4-2.4,2.4-6.4,0-8.8L275.9,311.7z M185.5,308.1c-0.2,0.1-0.4,0.1-0.6,0.2c-1.3,0.4-2.6,0.7-3.9,1c-0.5,0.1-0.9,0.3-1.4,0.3
		c-1.1,0.2-2.3,0.4-3.4,0.5c-0.7,0.1-1.3,0.2-2,0.3c-0.8,0.1-1.6,0.1-2.4,0.2c-1,0-1.9,0.1-2.9,0.1c-1.1,0-2.1,0-3.2-0.1
		c-12.9-0.8-25.6-6.1-35.4-15.9c-6.7-6.7-11.3-14.6-13.8-23.1c0-0.2-0.1-0.3-0.1-0.4c-0.4-1.5-0.8-3.1-1.1-4.6
		c-0.1-0.6-0.2-1.1-0.3-1.7c-0.2-1.1-0.4-2.2-0.5-3.4c-0.2-1.7-0.3-3.5-0.3-5.3c0-3.7,0.4-7.5,1.1-11c0,0,0-0.1,0.1-0.2
		c5.2-24.9,27.2-43.6,53.6-43.6c1.9,0,3.7,0.1,5.6,0.2c12.8,1.3,24.3,7.1,33,15.7c9.9,9.9,16,23.6,16,38.7
		C223.4,280.4,207.5,301,185.5,308.1z"/>
	<path d="M507.3,94.6l-36.4-3.6c-0.2-0.5-0.4-0.9-0.7-1.4c-0.1-0.2-0.2-0.3-0.2-0.5c-0.4-0.9-0.9-1.8-1.4-2.7
		c-0.2-0.3-0.4-0.7-0.6-1c-0.4-0.7-0.8-1.4-1.2-2.1c-0.3-0.5-0.6-1-1-1.5c-0.3-0.5-0.6-1-1-1.5c-0.2-0.3-0.4-0.6-0.6-0.9l15.6-33
		c1.3-2.2,0.6-4.9-1.6-6.2l-31.6-18.9c-2.2-1.3-4.9-0.6-6.2,1.5l-21.7,29.4c-0.3,0-0.6-0.1-1-0.1c-0.2,0-0.5,0-0.7-0.1
		c-1-0.1-1.9-0.2-2.9-0.2c-0.5,0-0.9,0-1.4-0.1c-0.7,0-1.5,0-2.2,0c-0.7,0-1.5,0-2.2,0c-0.5,0-0.9,0-1.4,0.1c-1,0.1-1.9,0.1-2.9,0.2
		c-0.2,0-0.5,0-0.7,0.1c-0.3,0-0.6,0.1-1,0.1l-21.7-29.4c-1.3-2.2-4.1-2.8-6.2-1.5l-31.6,18.9c-2.2,1.3-2.9,4.1-1.6,6.2l15.7,33
		c-0.2,0.3-0.5,0.7-0.7,1.1c-0.2,0.3-0.4,0.7-0.7,1c-0.4,0.7-0.9,1.3-1.3,2c-0.3,0.5-0.6,1-0.9,1.6c-0.3,0.5-0.6,1-0.8,1.5
		c-0.4,0.7-0.7,1.4-1.1,2.2c-0.2,0.3-0.3,0.7-0.5,1c-0.2,0.4-0.4,0.8-0.6,1.2L314,94.6c-2.5,0-4.5,2-4.5,4.6V136
		c0,2.5,2,4.6,4.5,4.6l36.4,3.6c0.1,0.3,0.3,0.6,0.4,0.9c0.2,0.5,0.5,1.1,0.8,1.6c0.3,0.5,0.5,1.1,0.8,1.6c0.4,0.7,0.7,1.4,1.1,2.1
		c0.2,0.4,0.4,0.7,0.6,1.1c0.5,0.8,1,1.7,1.6,2.5c0.1,0.2,0.2,0.3,0.3,0.5c0.3,0.4,0.5,0.8,0.8,1.3l-15.7,33
		c-1.3,2.2-0.6,4.9,1.6,6.2l31.6,18.9c2.2,1.3,4.9,0.6,6.2-1.5l21.7-29.4c0.3,0,0.6,0.1,1,0.1c0.2,0,0.4,0,0.7,0.1
		c1,0.1,2,0.2,3,0.2c0.5,0,0.9,0,1.4,0.1c0.7,0,1.5,0,2.2,0c0.7,0,1.5,0,2.2,0c0.5,0,0.9,0,1.4-0.1c1-0.1,2-0.1,3-0.2
		c0.2,0,0.4,0,0.7-0.1c0.3,0,0.6-0.1,1-0.1l21.7,29.4c1.3,2.2,4.1,2.8,6.2,1.5l31.6-18.9c2.2-1.3,2.9-4.1,1.6-6.2l-15.7-33
		c0.2-0.3,0.5-0.7,0.7-1c0.2-0.3,0.5-0.7,0.7-1c0.4-0.7,0.9-1.3,1.3-2c0.3-0.5,0.6-1,0.9-1.6c0.3-0.5,0.6-1,0.8-1.5
		c0.4-0.7,0.7-1.4,1.1-2.2c0.2-0.3,0.3-0.7,0.5-1c0.2-0.4,0.4-0.8,0.6-1.2l36.4-3.6c2.5,0,4.5-2,4.5-4.6V99.2
		C511.8,96.6,509.8,94.6,507.3,94.6z M443.7,118.8c0,0.4,0,0.9-0.1,1.3c0,0.7-0.1,1.3-0.2,2c0,0.2-0.1,0.5-0.1,0.7
		c-0.1,0.8-0.3,1.5-0.4,2.3c0,0.1-0.1,0.2-0.1,0.3c-0.2,0.8-0.4,1.5-0.6,2.3c-0.2,0.5-0.4,1.1-0.6,1.6c-0.4,1-0.8,1.9-1.2,2.8
		c-0.2,0.5-0.5,0.9-0.7,1.4c-0.3,0.5-0.6,1.1-0.9,1.6c-0.4,0.6-0.8,1.2-1.2,1.8c-0.5,0.6-0.9,1.2-1.4,1.8c-0.5,0.5-0.9,1.1-1.4,1.6
		c-0.5,0.5-0.9,1-1.4,1.4c-0.2,0.2-0.4,0.3-0.6,0.5c-0.6,0.5-1.2,1.1-1.9,1.6c-0.2,0.2-0.4,0.3-0.6,0.5c-0.7,0.5-1.4,1-2.2,1.5
		c-0.2,0.1-0.4,0.2-0.5,0.3c-0.7,0.4-1.5,0.8-2.2,1.2c-0.2,0.1-0.4,0.2-0.6,0.3c-0.6,0.3-1.2,0.5-1.7,0.7c-0.1,0.1-0.3,0.1-0.4,0.2
		c0,0,0,0-0.1,0c-0.2,0.1-0.4,0.2-0.7,0.3c-0.6,0.2-1.1,0.4-1.7,0.5c-0.3,0.1-0.6,0.2-0.9,0.3c-0.1,0-0.2,0.1-0.3,0.1
		c-0.4,0.1-0.9,0.2-1.3,0.3c-0.9,0.2-1.8,0.4-2.7,0.5c0,0,0,0,0,0c-0.6,0.1-1.1,0.1-1.7,0.1c-0.8,0.1-1.6,0.1-2.4,0.1
		c-0.8,0-1.6-0.1-2.4-0.1c-0.6,0-1.1,0-1.7-0.1c0,0,0,0-0.1,0c-0.9-0.1-1.8-0.3-2.7-0.5c-0.4-0.1-0.9-0.1-1.3-0.3
		c-0.2,0-0.3-0.1-0.5-0.1c-0.2-0.1-0.5-0.1-0.7-0.2c-0.6-0.2-1.1-0.3-1.7-0.5c-0.3-0.1-0.6-0.2-0.9-0.3c-0.1,0-0.2-0.1-0.3-0.1
		c-0.6-0.2-1.1-0.4-1.7-0.7c-0.3-0.1-0.5-0.3-0.8-0.4c-0.7-0.3-1.3-0.7-2-1.1c-0.2-0.1-0.5-0.3-0.7-0.4c-0.7-0.4-1.4-0.9-2-1.3
		c-0.3-0.2-0.5-0.4-0.8-0.6c-0.6-0.5-1.2-0.9-1.7-1.4c-0.3-0.2-0.5-0.5-0.8-0.7c-0.4-0.4-0.8-0.8-1.2-1.3c-0.6-0.6-1.2-1.3-1.7-1.9
		c-0.3-0.4-0.6-0.8-0.9-1.2c-0.6-0.8-1.1-1.6-1.6-2.4c-0.3-0.5-0.5-0.9-0.8-1.4c-0.3-0.6-0.6-1.2-0.9-1.8c-0.3-0.5-0.5-1.1-0.7-1.6
		c-0.4-0.9-0.7-1.8-1-2.6c-0.2-0.6-0.4-1.3-0.5-1.9c-0.1-0.3-0.1-0.5-0.2-0.8c-0.1-0.6-0.3-1.3-0.4-1.9c0,0,0,0,0,0
		c-0.1-0.4-0.1-0.7-0.2-1.1c-0.1-0.5-0.1-1.1-0.2-1.6c0-0.6-0.1-1.2-0.1-1.9c0-0.3,0-0.6,0-0.9c0-0.1,0-0.1,0-0.2
		c0-0.9,0.1-1.8,0.1-2.7c0-0.2,0-0.5,0.1-0.7c0.1-0.8,0.2-1.7,0.4-2.5c0-0.2,0.1-0.5,0.1-0.7c0.1-0.7,0.3-1.3,0.5-1.9
		c0.2-0.7,0.4-1.4,0.7-2.1c0.3-0.7,0.5-1.4,0.8-2.2c0.3-0.7,0.6-1.3,0.9-2c0.3-0.6,0.6-1.1,0.9-1.6c0.3-0.5,0.5-0.9,0.8-1.3
		c0.6-0.9,1.2-1.7,1.8-2.5c0.3-0.4,0.7-0.9,1-1.3c0.5-0.6,1.1-1.2,1.6-1.7c0.1-0.1,0.2-0.2,0.3-0.3c0.6-0.5,1.1-1,1.7-1.5
		c0.2-0.2,0.4-0.3,0.6-0.5c0.5-0.4,1-0.8,1.6-1.2c0.4-0.3,0.7-0.5,1.1-0.8c0.4-0.3,0.8-0.6,1.3-0.8c0.6-0.4,1.3-0.7,2-1.1
		c0.3-0.1,0.6-0.3,0.9-0.4c0.9-0.4,1.8-0.8,2.7-1.1c0.5-0.2,1-0.3,1.4-0.4c0.4-0.1,0.9-0.3,1.3-0.4c0.6-0.1,1.1-0.3,1.7-0.4
		c0.3-0.1,0.7-0.2,1-0.2c0.6-0.1,1.1-0.2,1.7-0.2c0.4,0,0.7-0.1,1.1-0.1c0.5,0,1-0.1,1.5-0.1c0.4,0,0.9,0,1.3,0c0.4,0,0.9,0,1.3,0
		c0.5,0,1,0,1.5,0.1c0.4,0,0.7,0.1,1.1,0.1c0.6,0.1,1.1,0.1,1.7,0.2c0.3,0.1,0.7,0.1,1,0.2c0.6,0.1,1.1,0.2,1.7,0.4
		c0.4,0.1,0.9,0.3,1.3,0.4c0.5,0.1,1,0.3,1.4,0.4c0.9,0.3,1.8,0.7,2.7,1.1c0.3,0.1,0.6,0.3,0.9,0.4c0.7,0.3,1.3,0.7,2,1.1
		c0.1,0.1,0.2,0.1,0.3,0.2c0.3,0.2,0.5,0.3,0.8,0.5c0.5,0.3,0.9,0.6,1.4,0.9c0.5,0.3,0.9,0.7,1.4,1c0.3,0.2,0.5,0.4,0.8,0.6
		c0.5,0.4,1,0.9,1.5,1.4c0.2,0.2,0.3,0.3,0.5,0.5c0.5,0.5,1,1,1.4,1.5c0.6,0.6,1.1,1.3,1.6,2c0.4,0.5,0.8,1.1,1.1,1.6
		c0.4,0.5,0.7,1.1,1,1.7c0.3,0.5,0.5,0.9,0.8,1.4c0.4,0.9,0.9,1.7,1.2,2.7c0.2,0.4,0.3,0.8,0.5,1.3c0.3,0.8,0.6,1.7,0.8,2.5
		c0.1,0.5,0.3,1.1,0.4,1.6c0.1,0.4,0.2,0.7,0.2,1.1c0.1,0.7,0.2,1.4,0.3,2.1c0,0.4,0.1,0.7,0.1,1.1c0.1,0.8,0.1,1.5,0.1,2.3
		c0,0.2,0,0.3,0,0.5C443.7,117.9,443.7,118.4,443.7,118.8z"/>
	<path d="M507.3,371.4l-36.4-3.6c-0.2-0.5-0.4-0.9-0.7-1.4c-0.1-0.2-0.2-0.3-0.2-0.5c-0.4-0.9-0.9-1.8-1.4-2.7
		c-0.2-0.3-0.4-0.7-0.6-1c-0.4-0.7-0.8-1.4-1.2-2.1c-0.3-0.5-0.6-1-1-1.5c-0.3-0.5-0.6-1-1-1.5c-0.2-0.3-0.4-0.6-0.6-0.9l15.6-33
		c1.3-2.2,0.6-4.9-1.6-6.2l-31.6-18.9c-2.2-1.3-4.9-0.6-6.2,1.5L418.9,329c-0.3,0-0.6-0.1-1-0.1c-0.2,0-0.5,0-0.7-0.1
		c-1-0.1-1.9-0.2-2.9-0.2c-0.5,0-0.9,0-1.4-0.1c-0.7,0-1.5,0-2.2,0c-0.7,0-1.5,0-2.2,0c-0.5,0-0.9,0-1.4,0.1c-1,0.1-1.9,0.1-2.9,0.2
		c-0.2,0-0.5,0-0.7,0.1c-0.3,0-0.6,0.1-1,0.1l-21.7-29.4c-1.3-2.2-4.1-2.8-6.2-1.5l-31.6,18.9c-2.2,1.3-2.9,4.1-1.6,6.2l15.7,33
		c-0.2,0.3-0.5,0.7-0.7,1.1c-0.2,0.3-0.4,0.7-0.7,1c-0.4,0.7-0.9,1.3-1.3,2c-0.3,0.5-0.6,1-0.9,1.6c-0.3,0.5-0.6,1-0.8,1.5
		c-0.4,0.7-0.7,1.4-1.1,2.2c-0.2,0.3-0.3,0.7-0.5,1c-0.2,0.4-0.4,0.8-0.6,1.2l-36.4,3.6c-2.5,0-4.5,2-4.5,4.6v36.9
		c0,2.5,2,4.6,4.5,4.6l36.4,3.6c0.1,0.3,0.3,0.6,0.4,0.9c0.2,0.5,0.5,1.1,0.8,1.6c0.3,0.5,0.5,1.1,0.8,1.6c0.4,0.7,0.7,1.4,1.1,2.1
		c0.2,0.4,0.4,0.7,0.6,1.1c0.5,0.8,1,1.7,1.6,2.5c0.1,0.2,0.2,0.3,0.3,0.5c0.3,0.4,0.5,0.8,0.8,1.3l-15.7,33
		c-1.3,2.2-0.6,4.9,1.6,6.2l31.6,18.9c2.2,1.3,4.9,0.6,6.2-1.5l21.7-29.4c0.3,0,0.6,0.1,1,0.1c0.2,0,0.4,0,0.7,0.1
		c1,0.1,2,0.2,3,0.2c0.5,0,0.9,0,1.4,0.1c0.7,0,1.5,0,2.2,0c0.7,0,1.5,0,2.2,0c0.5,0,0.9,0,1.4-0.1c1-0.1,2-0.1,3-0.2
		c0.2,0,0.4,0,0.7-0.1c0.3,0,0.6-0.1,1-0.1l21.7,29.4c1.3,2.2,4.1,2.8,6.2,1.5l31.6-18.9c2.2-1.3,2.9-4.1,1.6-6.2l-15.7-33
		c0.2-0.3,0.5-0.7,0.7-1c0.2-0.3,0.5-0.7,0.7-1c0.4-0.7,0.9-1.3,1.3-2c0.3-0.5,0.6-1,0.9-1.6c0.3-0.5,0.6-1,0.8-1.5
		c0.4-0.7,0.7-1.4,1.1-2.2c0.2-0.3,0.3-0.7,0.5-1c0.2-0.4,0.4-0.8,0.6-1.2l36.4-3.6c2.5,0,4.5-2,4.5-4.6V376
		C511.8,373.4,509.8,371.4,507.3,371.4z M443.7,395.6c0,0.4,0,0.9-0.1,1.3c0,0.7-0.1,1.3-0.2,2c0,0.2-0.1,0.5-0.1,0.7
		c-0.1,0.8-0.3,1.5-0.4,2.3c0,0.1-0.1,0.2-0.1,0.3c-0.2,0.8-0.4,1.5-0.6,2.3c-0.2,0.5-0.4,1.1-0.6,1.6c-0.4,1-0.8,1.9-1.2,2.8
		c-0.2,0.5-0.5,0.9-0.7,1.4c-0.3,0.5-0.6,1.1-0.9,1.6c-0.4,0.6-0.8,1.2-1.2,1.8c-0.5,0.6-0.9,1.2-1.4,1.8c-0.5,0.5-0.9,1.1-1.4,1.6
		c-0.5,0.5-0.9,1-1.4,1.4c-0.2,0.2-0.4,0.3-0.6,0.5c-0.6,0.5-1.2,1.1-1.9,1.6c-0.2,0.2-0.4,0.3-0.6,0.5c-0.7,0.5-1.4,1-2.2,1.5
		c-0.2,0.1-0.4,0.2-0.5,0.3c-0.7,0.4-1.5,0.8-2.2,1.2c-0.2,0.1-0.4,0.2-0.6,0.3c-0.6,0.3-1.2,0.5-1.7,0.7c-0.1,0.1-0.3,0.1-0.4,0.2
		c0,0,0,0-0.1,0c-0.2,0.1-0.4,0.2-0.7,0.3c-0.6,0.2-1.1,0.4-1.7,0.5c-0.3,0.1-0.6,0.2-0.9,0.3c-0.1,0-0.2,0.1-0.3,0.1
		c-0.4,0.1-0.9,0.2-1.3,0.3c-0.9,0.2-1.8,0.4-2.7,0.5c0,0,0,0,0,0c-0.6,0.1-1.1,0.1-1.7,0.1c-0.8,0.1-1.6,0.1-2.4,0.1
		c-0.8,0-1.6-0.1-2.4-0.1c-0.6,0-1.1,0-1.7-0.1c0,0,0,0-0.1,0c-0.9-0.1-1.8-0.3-2.7-0.5c-0.4-0.1-0.9-0.1-1.3-0.3
		c-0.2,0-0.3-0.1-0.5-0.1c-0.2-0.1-0.5-0.1-0.7-0.2c-0.6-0.2-1.1-0.3-1.7-0.5c-0.3-0.1-0.6-0.2-0.9-0.3c-0.1,0-0.2-0.1-0.3-0.1
		c-0.6-0.2-1.1-0.4-1.7-0.7c-0.3-0.1-0.5-0.3-0.8-0.4c-0.7-0.3-1.3-0.7-2-1.1c-0.2-0.1-0.5-0.3-0.7-0.4c-0.7-0.4-1.4-0.9-2-1.3
		c-0.3-0.2-0.5-0.4-0.8-0.6c-0.6-0.5-1.2-0.9-1.7-1.4c-0.3-0.2-0.5-0.5-0.8-0.7c-0.4-0.4-0.8-0.8-1.2-1.3c-0.6-0.6-1.2-1.3-1.7-1.9
		c-0.3-0.4-0.6-0.8-0.9-1.2c-0.6-0.8-1.1-1.6-1.6-2.4c-0.3-0.5-0.5-0.9-0.8-1.4c-0.3-0.6-0.6-1.2-0.9-1.8c-0.3-0.5-0.5-1.1-0.7-1.6
		c-0.4-0.9-0.7-1.8-1-2.6c-0.2-0.6-0.4-1.3-0.5-1.9c-0.1-0.3-0.1-0.5-0.2-0.8c-0.1-0.6-0.3-1.3-0.4-1.9c0,0,0,0,0,0
		c-0.1-0.4-0.1-0.7-0.2-1.1c-0.1-0.5-0.1-1.1-0.2-1.6c0-0.6-0.1-1.2-0.1-1.9c0-0.3,0-0.6,0-0.9c0-0.1,0-0.1,0-0.2
		c0-0.9,0.1-1.8,0.1-2.7c0-0.2,0-0.5,0.1-0.7c0.1-0.8,0.2-1.7,0.4-2.5c0-0.2,0.1-0.5,0.1-0.7c0.1-0.7,0.3-1.3,0.5-1.9
		c0.2-0.7,0.4-1.4,0.7-2.1c0.3-0.7,0.5-1.4,0.8-2.2c0.3-0.7,0.6-1.3,0.9-2c0.3-0.6,0.6-1.1,0.9-1.6c0.3-0.5,0.5-0.9,0.8-1.3
		c0.6-0.9,1.2-1.7,1.8-2.5c0.3-0.4,0.7-0.9,1-1.3c0.5-0.6,1.1-1.2,1.6-1.7c0.1-0.1,0.2-0.2,0.3-0.3c0.6-0.5,1.1-1,1.7-1.5
		c0.2-0.2,0.4-0.3,0.6-0.5c0.5-0.4,1-0.8,1.6-1.2c0.4-0.3,0.7-0.5,1.1-0.8c0.4-0.3,0.8-0.6,1.3-0.8c0.6-0.4,1.3-0.7,2-1.1
		c0.3-0.1,0.6-0.3,0.9-0.4c0.9-0.4,1.8-0.8,2.7-1.1c0.5-0.2,1-0.3,1.4-0.4c0.4-0.1,0.9-0.3,1.3-0.4c0.6-0.1,1.1-0.3,1.7-0.4
		c0.3-0.1,0.7-0.2,1-0.2c0.6-0.1,1.1-0.2,1.7-0.2c0.4,0,0.7-0.1,1.1-0.1c0.5,0,1-0.1,1.5-0.1c0.4,0,0.9,0,1.3,0c0.4,0,0.9,0,1.3,0
		c0.5,0,1,0,1.5,0.1c0.4,0,0.7,0.1,1.1,0.1c0.6,0.1,1.1,0.1,1.7,0.2c0.3,0.1,0.7,0.1,1,0.2c0.6,0.1,1.1,0.2,1.7,0.4
		c0.4,0.1,0.9,0.3,1.3,0.4c0.5,0.1,1,0.3,1.4,0.4c0.9,0.3,1.8,0.7,2.7,1.1c0.3,0.1,0.6,0.3,0.9,0.4c0.7,0.3,1.3,0.7,2,1.1
		c0.1,0.1,0.2,0.1,0.3,0.2c0.3,0.2,0.5,0.3,0.8,0.5c0.5,0.3,0.9,0.6,1.4,0.9c0.5,0.3,0.9,0.7,1.4,1c0.3,0.2,0.5,0.4,0.8,0.6
		c0.5,0.4,1,0.9,1.5,1.4c0.2,0.2,0.3,0.3,0.5,0.5c0.5,0.5,1,1,1.4,1.5c0.6,0.6,1.1,1.3,1.6,2c0.4,0.5,0.8,1.1,1.1,1.6
		c0.4,0.5,0.7,1.1,1,1.7c0.3,0.5,0.5,0.9,0.8,1.4c0.4,0.9,0.9,1.7,1.2,2.7c0.2,0.4,0.3,0.8,0.5,1.3c0.3,0.8,0.6,1.7,0.8,2.5
		c0.1,0.5,0.3,1.1,0.4,1.6c0.1,0.4,0.2,0.8,0.2,1.1c0.1,0.7,0.2,1.4,0.3,2.1c0,0.4,0.1,0.7,0.1,1.1c0.1,0.8,0.1,1.5,0.1,2.3
		c0,0.2,0,0.3,0,0.5C443.7,394.7,443.7,395.2,443.7,395.6z"/>
</g>
</svg>
