<?xml version="1.0" encoding="utf-8"?>
<!-- Generator: Adobe Illustrator 16.0.0, SVG Export Plug-In . SVG Version: 6.00 Build 0)  -->
<!DOCTYPE svg PUBLIC "-//W3C//DTD SVG 1.1//EN" "http://www.w3.org/Graphics/SVG/1.1/DTD/svg11.dtd">
<svg version="1.1"
	 id="svg2" inkscape:version="0.48.3.1 r9886" inkscape:export-xdpi="230.97745" inkscape:export-ydpi="230.97745" sodipodi:docname="Facebook Home (Clear).svg" inkscape:export-filename="R:\Media\Pictures\Logos\Facebook Home (Clear).png" xmlns:dc="http://purl.org/dc/elements/1.1/" xmlns:inkscape="http://www.inkscape.org/namespaces/inkscape" xmlns:cc="http://creativecommons.org/ns#" xmlns:sodipodi="http://sodipodi.sourceforge.net/DTD/sodipodi-0.dtd" xmlns:svg="http://www.w3.org/2000/svg" xmlns:rdf="http://www.w3.org/1999/02/22-rdf-syntax-ns#"
	 xmlns="http://www.w3.org/2000/svg" xmlns:xlink="http://www.w3.org/1999/xlink" x="0px" y="0px" width="512px" height="512px"
	 viewBox="0 0 512 512" style="enable-background:new 0 0 512 512;" xml:space="preserve">
<g>
	<g>
		<path d="M269.6,292.3l-24-18.6c-7.3-6.1-17.3-14.1-17.3-28.7c0-14.7,10-24.1,18.7-32.7c28-22,55.9-45.4,55.9-94.8
			c0-50.8-31.9-77.5-47.2-90.1h41.3l43.3-27.2H209c-36,0-87.9,8.5-125.9,39.9c-28.6,24.7-42.6,58.8-42.6,89.4
			c0,52.1,40,104.8,110.6,104.8c6.7,0,14-0.6,21.3-1.3c-3.3,8-6.6,14.7-6.6,26c0,20.7,10.6,33.3,20,45.4c-30,2.1-86,5.4-127.3,30.8
			c-39.3,23.4-51.3,57.4-51.3,81.4c0,49.4,46.6,95.5,143.2,95.5c114.6,0,175.2-63.4,175.2-126.1C325.6,339.7,299,317,269.6,292.3z
			 M182.4,215.5c-57.3,0-83.3-74.1-83.3-118.8c0-17.4,3.3-35.4,14.6-49.4c10.7-13.4,29.3-22,46.7-22c55.3,0,83.9,74.8,83.9,122.8
			c0,12-1.3,33.3-16.6,48.8C216.9,207.6,199,215.5,182.4,215.5z M183,484c-71.3,0-117.2-34.1-117.2-81.5c0-47.4,42.6-63.4,57.3-68.7
			c28-9.4,63.9-10.7,70-10.7c6.7,0,10,0,15.3,0.7c50.7,36,72.7,54,72.7,88.2C281,453.2,247,484,183,484z"/>
		<polygon points="437.9,214.5 437.9,147.8 404.9,147.8 404.9,214.5 338.3,214.5 338.3,247.8 404.9,247.8 404.9,315 437.9,315 
			437.9,247.8 504.8,247.8 504.8,214.5 		"/>
	</g>
</g>
</svg>
