<?xml version="1.0" encoding="utf-8"?>
<!-- Generator: Adobe Illustrator 16.0.0, SVG Export Plug-In . SVG Version: 6.00 Build 0)  -->
<!DOCTYPE svg PUBLIC "-//W3C//DTD SVG 1.1//EN" "http://www.w3.org/Graphics/SVG/1.1/DTD/svg11.dtd">
<svg version="1.1"
	 id="svg2" xmlns:sodipodi="http://sodipodi.sourceforge.net/DTD/sodipodi-0.dtd" xmlns:rdf="http://www.w3.org/1999/02/22-rdf-syntax-ns#" xmlns:dc="http://purl.org/dc/elements/1.1/" xmlns:svg="http://www.w3.org/2000/svg" xmlns:cc="http://creativecommons.org/ns#" xmlns:inkscape="http://www.inkscape.org/namespaces/inkscape" inkscape:export-filename="R:\Media\Pictures\Logos\Facebook Home (Clear).png" sodipodi:docname="Facebook Home (Clear).svg" inkscape:export-ydpi="230.97745" inkscape:version="0.48.3.1 r9886" inkscape:export-xdpi="230.97745"
	 xmlns="http://www.w3.org/2000/svg" xmlns:xlink="http://www.w3.org/1999/xlink" x="0px" y="0px" width="512px" height="512px"
	 viewBox="0 0 512 512" style="enable-background:new 0 0 512 512;" xml:space="preserve">
<g>
	<path d="M125.5,355.7h43.8l-59.8,75.2l-59.7-75.2h49.9c5.7-37.7,22.1-72.5,67-93.2H0v121.5c0,37.7,30.6,68.3,68.3,68.3h181.3V269.4
		C160.8,276.1,133.4,310.1,125.5,355.7z"/>
	<path d="M262.4,268.2v184h181.3c37.7,0,68.3-30.6,68.3-68.3V262.4H303.1C290.9,265.1,277.4,267.1,262.4,268.2z"/>
	<path d="M0,128.1v121.5h205.8c12.9-2.8,27.6-4.7,43.7-5.9V59.8H68.3C30.6,59.8,0,90.4,0,128.1z"/>
	<path d="M443.7,59.8H262.4v182.7c89.2-7.1,116.9-48.2,125.3-87.6h-43.1l59.8-75.2l59.8,75.2h-50.4c-6.1,33.9-23.4,72.1-72,94.7H512
		V128.1C512,90.4,481.4,59.8,443.7,59.8z"/>
</g>
</svg>
