<?xml version="1.0" encoding="utf-8"?>
<!-- Generator: Adobe Illustrator 16.0.0, SVG Export Plug-In . SVG Version: 6.00 Build 0)  -->
<!DOCTYPE svg PUBLIC "-//W3C//DTD SVG 1.1//EN" "http://www.w3.org/Graphics/SVG/1.1/DTD/svg11.dtd">
<svg version="1.1"
	 id="svg2" inkscape:export-filename="R:\Media\Pictures\Logos\Facebook Home (Clear).png" inkscape:export-ydpi="230.97745" inkscape:version="0.48.3.1 r9886" sodipodi:docname="Facebook Home (Clear).svg" inkscape:export-xdpi="230.97745" xmlns:sodipodi="http://sodipodi.sourceforge.net/DTD/sodipodi-0.dtd" xmlns:rdf="http://www.w3.org/1999/02/22-rdf-syntax-ns#" xmlns:dc="http://purl.org/dc/elements/1.1/" xmlns:svg="http://www.w3.org/2000/svg" xmlns:cc="http://creativecommons.org/ns#" xmlns:inkscape="http://www.inkscape.org/namespaces/inkscape"
	 xmlns="http://www.w3.org/2000/svg" xmlns:xlink="http://www.w3.org/1999/xlink" x="0px" y="0px" width="512px" height="512px"
	 viewBox="0 0 512 512" style="enable-background:new 0 0 512 512;" xml:space="preserve">
<g>
	<path d="M288.2,32.8C165.1,32.8,65,132.9,65,256H8.5c-10,0-9.5,13.3-4.5,18.3l67.5,93.4c2.6,2.5,5.9,3.8,9.3,3.8
		c3.3,0,6.6-1.2,9.2-3.8l67.5-93.4c5.1-5.1,5.4-18.3-4.6-18.3H96.4c0-105.8,86.1-191.9,191.9-191.9S480.1,150.2,480.1,256
		c0,105.8-86.1,191.9-191.9,191.9c-8.7,0-15.7,7-15.7,15.7c0,8.7,7,15.7,15.7,15.7c123.1,0,223.3-100.1,223.3-223.3
		C511.5,132.9,411.4,32.8,288.2,32.8z"/>
	<path d="M288.2,99.1c-8.7,0-15.7,7-15.7,15.7V256c0,8.7,7,15.7,15.7,15.7c0.2,0,0.4-0.1,0.6-0.1c0.2,0,0.4,0.1,0.6,0.1H415
		c8.7,0,15.7-7,15.7-15.7c0-8.7-7-15.7-15.7-15.7h-111V114.8C303.9,106.1,296.9,99.1,288.2,99.1z"/>
</g>
</svg>
