<?xml version="1.0" encoding="utf-8"?>
<!-- Generator: Adobe Illustrator 16.0.0, SVG Export Plug-In . SVG Version: 6.00 Build 0)  -->
<!DOCTYPE svg PUBLIC "-//W3C//DTD SVG 1.0//EN" "http://www.w3.org/TR/2001/REC-SVG-20010904/DTD/svg10.dtd">
<svg version="1.0"
	 id="svg2" xmlns:sodipodi="http://sodipodi.sourceforge.net/DTD/sodipodi-0.dtd" xmlns:rdf="http://www.w3.org/1999/02/22-rdf-syntax-ns#" xmlns:dc="http://purl.org/dc/elements/1.1/" xmlns:svg="http://www.w3.org/2000/svg" xmlns:cc="http://creativecommons.org/ns#" xmlns:inkscape="http://www.inkscape.org/namespaces/inkscape" inkscape:export-xdpi="230.97745" inkscape:export-ydpi="230.97745" sodipodi:docname="Facebook Home (Clear).svg" inkscape:version="0.48.3.1 r9886" inkscape:export-filename="R:\Media\Pictures\Logos\Facebook Home (Clear).png"
	 xmlns="http://www.w3.org/2000/svg" xmlns:xlink="http://www.w3.org/1999/xlink" x="0px" y="0px" width="512px" height="512px"
	 viewBox="0 0 512 512" style="enable-background:new 0 0 512 512;" xml:space="preserve">
<g>
	<path d="M465.2,30.1c0-0.1-0.1-0.3-0.2-0.4c0,0,0,0,0,0c-1.4-3.3-3.2-6.4-5.3-9.3c-0.6-0.8-1.3-1.5-1.9-2.3c-1.7-2-3.4-3.9-5.4-5.6
		c-0.9-0.8-1.8-1.5-2.7-2.2c-2.1-1.5-4.2-2.9-6.5-4.1c-0.9-0.5-1.8-1.1-2.8-1.5c-6-2.7-12.6-4.2-19.7-4.3c-0.3,0-0.6-0.1-1-0.1h0
		h-213H92.4C64.4,0.3,43,21.6,43,49.6V271v191.5c0,7,1.3,13.6,3.8,19.5c0,0.1,0.2,0.3,0.2,0.4c0,0,0,0,0,0.1
		c1.4,3.3,3.2,6.4,5.3,9.2c0.6,0.8,1.2,1.5,1.9,2.3c1.7,2,3.4,3.9,5.4,5.6c0.9,0.8,1.7,1.5,2.7,2.2c2.1,1.5,4.2,2.9,6.6,4.1
		c0.9,0.5,1.8,1.1,2.8,1.5c6,2.7,12.6,4.2,19.7,4.3c0.3,0,0.6,0.1,1,0.1h0h213h114.2c28,0,49.3-21.4,49.3-49.3V241.1V49.6
		C468.9,42.6,467.6,36,465.2,30.1z M237.7,140.3h37v60.9l-9.8,91.4h-17.4l-9.8-91.4V140.3z M275.8,351.5h-39.6v-37h39.6V351.5z"/>
</g>
</svg>
