<?xml version="1.0" encoding="utf-8"?>
<!-- Generator: Adobe Illustrator 16.0.0, SVG Export Plug-In . SVG Version: 6.00 Build 0)  -->
<!DOCTYPE svg PUBLIC "-//W3C//DTD SVG 1.1//EN" "http://www.w3.org/Graphics/SVG/1.1/DTD/svg11.dtd">
<svg version="1.1"
	 id="svg2" inkscape:export-filename="R:\Media\Pictures\Logos\Facebook Home (Clear).png" inkscape:export-ydpi="230.97745" inkscape:export-xdpi="230.97745" sodipodi:docname="Facebook Home (Clear).svg" inkscape:version="0.48.3.1 r9886" xmlns:sodipodi="http://sodipodi.sourceforge.net/DTD/sodipodi-0.dtd" xmlns:inkscape="http://www.inkscape.org/namespaces/inkscape" xmlns:cc="http://creativecommons.org/ns#" xmlns:svg="http://www.w3.org/2000/svg" xmlns:rdf="http://www.w3.org/1999/02/22-rdf-syntax-ns#" xmlns:dc="http://purl.org/dc/elements/1.1/"
	 xmlns="http://www.w3.org/2000/svg" xmlns:xlink="http://www.w3.org/1999/xlink" x="0px" y="0px" width="512px" height="512px"
	 viewBox="0 0 512 512" style="enable-background:new 0 0 512 512;" xml:space="preserve">
<style type="text/css">
<![CDATA[
	.st0{fill:#010101;}
]]>
</style>
<g>
	<path class="st0" d="M279.5,140.4c17.9,0,32.4-14.5,32.4-32.4s-14.5-32.4-32.4-32.4c-17.9,0-32.4,14.5-32.4,32.4
		S261.6,140.4,279.5,140.4z"/>
	<path class="st0" d="M378.8,479.6l-67.7-105l27.4-91.3c0.5-1.6,0.7-3.1,0.8-4.7c0.2-0.5,0.3-1.1,0.3-1.7l-0.9-102.7l30.7-73.1
		c1.5-3.7,2-7.7,1.3-11.6l-15.1-71.8c-1.9-11.4-12.8-19-24.1-17.1c-11.4,2-19,12.8-17.1,24.1l14.1,66.5l-25.7,61.8h-32.1
		l-105.1-43.7c-10.7-4.4-22.9,0.4-27.3,11.1c-4.4,10.7,1.9,22.7,12.6,27.1l103.2,41.6v88.3l-35.8,73.4l-69.1,6.4
		c-11.5,1.1-20.2,11.3-19.2,22.8c1,10.8,10,19,20.7,19c0.6,0,1.2,0,1.9-0.1l80.4-7.5c7.4-0.7,13.8-5.2,16.9-11.9l45.1-96.5
		l-26.7,88.9c-1.8,5.9-0.9,12.2,2.4,17.4l72.9,113.1c4,6.2,10.7,9.6,17.6,9.6c3.9,0,7.8-1.1,11.3-3.3
		C382.2,502.2,385,489.3,378.8,479.6z"/>
</g>
</svg>
