<?xml version="1.0" encoding="utf-8"?>
<!-- Generator: Adobe Illustrator 16.0.0, SVG Export Plug-In . SVG Version: 6.00 Build 0)  -->
<!DOCTYPE svg PUBLIC "-//W3C//DTD SVG 1.1//EN" "http://www.w3.org/Graphics/SVG/1.1/DTD/svg11.dtd">
<svg version="1.1"
	 id="svg2" inkscape:export-filename="R:\Media\Pictures\Logos\Facebook Home (Clear).png" inkscape:export-ydpi="230.97745" inkscape:export-xdpi="230.97745" sodipodi:docname="Facebook Home (Clear).svg" inkscape:version="0.48.3.1 r9886" xmlns:sodipodi="http://sodipodi.sourceforge.net/DTD/sodipodi-0.dtd" xmlns:inkscape="http://www.inkscape.org/namespaces/inkscape" xmlns:cc="http://creativecommons.org/ns#" xmlns:svg="http://www.w3.org/2000/svg" xmlns:rdf="http://www.w3.org/1999/02/22-rdf-syntax-ns#" xmlns:dc="http://purl.org/dc/elements/1.1/"
	 xmlns="http://www.w3.org/2000/svg" xmlns:xlink="http://www.w3.org/1999/xlink" x="0px" y="0px" width="512px" height="512px"
	 viewBox="0 0 512 512" style="enable-background:new 0 0 512 512;" xml:space="preserve">
<g>
	<path d="M185.6,107.9H0v30.7h173.3C176.8,127,180.9,116.8,185.6,107.9z"/>
	<path d="M165.2,174.4H0v30.7h161.3C162.3,194.3,163.6,184,165.2,174.4z"/>
	<path d="M158.8,259l0-0.3l0-3.2l0-0.3c0.1-4.9,0.2-9.6,0.4-14.3H0v30.7h159.1C159,267.5,158.8,263.3,158.8,259z"/>
	<path d="M161.3,307.5H0v30.7h165.3C163.7,328.6,162.3,318.4,161.3,307.5z"/>
	<path d="M0,374.1v30.7h186c-4.8-8.9-8.9-19.2-12.5-30.7H0z"/>
	<path d="M512,255.6L512,255.6c-0.3-40.3-21.9-77.4-62.7-107.4c-58.9-43.3-146.1-62.6-203-44.8C206,116,200.3,214,199.7,255.9h0
		c0,0.1,0,0.1,0,0.2c0,0,0,0,0,0.1c0.6,41.9,6.3,139.8,46.6,152.4c14.3,4.5,30.4,6.6,47.6,6.6c51.2,0,111.3-18.9,155.4-51.4
		c40.8-30,62.5-67.1,62.7-107.4h0c0-0.1,0-0.2,0-0.4C512,255.9,512,255.8,512,255.6z M431,339c-50,36.8-128.8,54.8-175.6,40.2
		c-10.8-3.4-24-57.8-25.1-123.2c1-65.4,14.3-119.9,25.1-123.3C302.2,118.1,381,136.2,431,173c22.8,16.8,50,44.8,50.2,83
		C481.1,294.2,453.9,322.2,431,339z"/>
</g>
</svg>
