<?xml version="1.0" encoding="utf-8"?>
<!-- Generator: Adobe Illustrator 16.0.0, SVG Export Plug-In . SVG Version: 6.00 Build 0)  -->
<!DOCTYPE svg PUBLIC "-//W3C//DTD SVG 1.1//EN" "http://www.w3.org/Graphics/SVG/1.1/DTD/svg11.dtd">
<svg version="1.1"
	 id="svg2" xmlns:svg="http://www.w3.org/2000/svg" xmlns:cc="http://creativecommons.org/ns#" xmlns:rdf="http://www.w3.org/1999/02/22-rdf-syntax-ns#" xmlns:inkscape="http://www.inkscape.org/namespaces/inkscape" xmlns:dc="http://purl.org/dc/elements/1.1/" xmlns:sodipodi="http://sodipodi.sourceforge.net/DTD/sodipodi-0.dtd" inkscape:version="0.48.3.1 r9886" inkscape:export-ydpi="230.97745" inkscape:export-xdpi="230.97745" sodipodi:docname="Facebook Home (Clear).svg" inkscape:export-filename="R:\Media\Pictures\Logos\Facebook Home (Clear).png"
	 xmlns="http://www.w3.org/2000/svg" xmlns:xlink="http://www.w3.org/1999/xlink" x="0px" y="0px" width="512px" height="512px"
	 viewBox="0 0 512 512" style="enable-background:new 0 0 512 512;" xml:space="preserve">
<g>
	<path d="M443,53.7C407,15.8,347-2.1,263.4,0.6C135.2,4.7,92.1,80.3,82,103.3C74.6,120,70,133.5,68,139.7c-0.5,1.4-1.1,3-1.8,4.7
		c-4.1,10.1-11,27.1,1,41.2c3.9,4.7-4.9,22.3-26.2,52.5c-7.7,10.9-11.2,15.9-12.1,19.8c-4.2,17.8,14.6,25.1,27,29.9
		c4.6,1.8,9,3.5,11.9,5.2c1.9,2.5-0.2,14.6-1,19.8c-0.7,4.1-1.4,8-1.6,11.2c-0.4,6.1,2.9,13.7,4.2,16.7l5.2,8.8l-1.4,61.6l4.9,2.3
		c1.6,0.7,16.7,7.2,58.3,7.2c11.3,0,23.7-0.5,38-1.5c9.9,0,13.7,11.4,14.4,13.8c0.5,4.3,3.8,17.5,22.9,29
		c5.4,3.3,18.4,23.6,27.2,40.6l4.7,9l7.9-6.3c87.8-70.5,150-55.7,150.1-55.7l12.7,3.2l-2.6-12.9c-0.1-0.3-6.7-35,0.1-85.4
		c3.2-24.1,17.1-45.4,31.7-68c18.5-28.6,37.7-58.1,39.8-97.8C486.3,130.6,472.8,85.1,443,53.7z M466.7,188
		c-1.8,35.2-19.7,62.9-37.1,89.6c-15.7,24.2-30.5,47-34.3,74.8c-4.9,36.4-3.2,64.8-1.5,79.6c-21.8-1.3-75.4,1.4-144.9,54.3
		c-7.2-12.9-19.4-32.9-28.7-38.4c-13.9-8.3-14.9-16.4-14.9-16.5l-0.2-1.7c-2.3-9.3-11.5-27-30.7-27c-0.8,0-1.6,0-2.4,0.1
		c-12.8,0.9-24.7,1.4-35.6,1.4c-25.1,0-39.5-2.5-46.4-4.2l1.2-54.7l-7.2-12.1c-1.1-2.5-2.4-6.6-2.4-7.9c0.2-2.7,0.8-6,1.4-9.5
		c2.3-13.2,5.1-29.7-6.6-36.7c-4.3-2.6-9.5-4.6-14.6-6.6c-9.7-3.8-17.6-7.2-16.9-10.3c0.7-2,5.6-8.9,9.6-14.4
		c17.6-24.9,39.6-56,25.3-72.8c-5.1-6-2.4-14.2,1.7-24.3c0.8-2,1.6-3.9,2.3-6c1.9-5.5,6.3-18.5,13.3-34.6
		c11.7-26.7,51.5-89.1,166.7-92.8c78.7-2.5,134.5,13.6,167.1,47.9C457.5,93.1,469.5,134.4,466.7,188z"/>
	<path d="M348.5,95.6c-0.8-5.8-17-31.2-48.1-32.8c-28.8-1.4-45.2,21.4-45.2,21.4C242.3,71,223.8,72,213.4,74.1
		c-21.6,4.2-29.3,25.2-29.3,25.2c-21.7-3.7-33.6,5.2-38,12.9c-9.7,16.9,4.7,34.5,4.7,34.5c-10.5,7.8-15.8,25.6-9.5,39.4
		c13.3,29,41.7,17.2,41.7,17.2c0,0,2.4,31.8,39.2,38c37.9,6.5,61-22.8,61-22.8c18.1,27.3,53.8,32.2,77.9,21.8
		c53.5-23.2,39.6-72.9,39.6-72.9c23-9,22.4-43.8,12.8-58.8C389.1,70.1,348.5,95.6,348.5,95.6z"/>
</g>
</svg>
