<?xml version="1.0" encoding="utf-8"?>
<!-- Generator: Adobe Illustrator 16.0.0, SVG Export Plug-In . SVG Version: 6.00 Build 0)  -->
<!DOCTYPE svg PUBLIC "-//W3C//DTD SVG 1.1//EN" "http://www.w3.org/Graphics/SVG/1.1/DTD/svg11.dtd">
<svg version="1.1"
	 id="svg2" sodipodi:docname="Facebook Home (Clear).svg" inkscape:export-ydpi="230.97745" inkscape:export-xdpi="230.97745" inkscape:version="0.48.3.1 r9886" inkscape:export-filename="R:\Media\Pictures\Logos\Facebook Home (Clear).png" xmlns:dc="http://purl.org/dc/elements/1.1/" xmlns:svg="http://www.w3.org/2000/svg" xmlns:cc="http://creativecommons.org/ns#" xmlns:inkscape="http://www.inkscape.org/namespaces/inkscape" xmlns:rdf="http://www.w3.org/1999/02/22-rdf-syntax-ns#" xmlns:sodipodi="http://sodipodi.sourceforge.net/DTD/sodipodi-0.dtd"
	 xmlns="http://www.w3.org/2000/svg" xmlns:xlink="http://www.w3.org/1999/xlink" x="0px" y="0px" width="512px" height="512px"
	 viewBox="0 0 512 512" style="enable-background:new 0 0 512 512;" xml:space="preserve">
<g>
	<path d="M496.2,88C496.2,88,496.2,88,496.2,88c0,0.1,0,0.2,0,0.3V88z"/>
	<path d="M15.9,88v0.3C15.9,88.2,15.9,88.1,15.9,88C15.9,88,15.9,88,15.9,88z"/>
	<path d="M449.8,72.7c17.6,0,33.5,5.8,46.3,15.4C496,61.9,476,42,449.8,42H261.6c0,0,0-0.1,0-0.2v-2.3c0-17-13.8-30.9-30.9-30.9
		H86.4c-17.1,0-30.9,13.8-30.9,30.9v2.3c0,0,0,0.1,0,0.2c-14.2,0-39.4,19.9-39.7,46c12.8-9.5,28.7-15.4,46.3-15.4H449.8z"/>
	<path d="M465.3,103.5H46.7c-26.3,0-46.3,20.1-46.3,46.3v60.3v246.8c0,26.3,20.1,46.3,46.3,46.3h418.6c26.3,0,46.3-20.1,46.3-46.3
		V210.2v-60.3C511.6,123.6,491.5,103.5,465.3,103.5z"/>
</g>
</svg>
