<?xml version="1.0" encoding="utf-8"?>
<!-- Generator: Adobe Illustrator 16.0.0, SVG Export Plug-In . SVG Version: 6.00 Build 0)  -->
<!DOCTYPE svg PUBLIC "-//W3C//DTD SVG 1.1//EN" "http://www.w3.org/Graphics/SVG/1.1/DTD/svg11.dtd">
<svg version="1.1"
	 id="svg2" inkscape:export-xdpi="230.97745" sodipodi:docname="Facebook Home (Clear).svg" inkscape:version="0.48.3.1 r9886" inkscape:export-ydpi="230.97745" inkscape:export-filename="R:\Media\Pictures\Logos\Facebook Home (Clear).png" xmlns:sodipodi="http://sodipodi.sourceforge.net/DTD/sodipodi-0.dtd" xmlns:rdf="http://www.w3.org/1999/02/22-rdf-syntax-ns#" xmlns:dc="http://purl.org/dc/elements/1.1/" xmlns:svg="http://www.w3.org/2000/svg" xmlns:cc="http://creativecommons.org/ns#" xmlns:inkscape="http://www.inkscape.org/namespaces/inkscape"
	 xmlns="http://www.w3.org/2000/svg" xmlns:xlink="http://www.w3.org/1999/xlink" x="0px" y="0px" width="512px" height="512px"
	 viewBox="0 0 512 512" style="enable-background:new 0 0 512 512;" xml:space="preserve">
<g>
	<path d="M197.3,426h-89.4c-39.5,0-71.6-32.1-71.6-71.6V157.6c0-39.5,32.1-71.6,71.6-71.6h89.4c9.9,0,17.9-8,17.9-17.9
		c0-9.9-8-17.9-17.9-17.9h-89.4C48.7,50.2,0.5,98.4,0.5,157.6v196.8c0,59.2,48.2,107.4,107.4,107.4h89.4c9.9,0,17.9-8,17.9-17.9
		C215.2,434,207.2,426,197.3,426z"/>
	<path d="M506.3,243.3L321.1,58.2c-7-7-25.3-9.5-25.3,9.6v104H143.6c-9.9,0-17.9,8-17.9,17.9v132.7c0,9.9,8,17.9,17.9,17.9h152.2
		v104.4c0,19,18.3,16.5,25.3,9.6L506.3,269c3.5-3.5,5.3-8.2,5.2-12.8C511.5,251.5,509.8,246.9,506.3,243.3z"/>
</g>
</svg>
