<?xml version="1.0" encoding="utf-8"?>
<!-- Generator: Adobe Illustrator 16.0.0, SVG Export Plug-In . SVG Version: 6.00 Build 0)  -->
<!DOCTYPE svg PUBLIC "-//W3C//DTD SVG 1.1//EN" "http://www.w3.org/Graphics/SVG/1.1/DTD/svg11.dtd">
<svg version="1.1"
	 id="svg2" xmlns:sodipodi="http://sodipodi.sourceforge.net/DTD/sodipodi-0.dtd" xmlns:inkscape="http://www.inkscape.org/namespaces/inkscape" xmlns:rdf="http://www.w3.org/1999/02/22-rdf-syntax-ns#" xmlns:cc="http://creativecommons.org/ns#" xmlns:svg="http://www.w3.org/2000/svg" xmlns:dc="http://purl.org/dc/elements/1.1/" inkscape:export-xdpi="230.97745" inkscape:export-filename="R:\Media\Pictures\Logos\Facebook Home (Clear).png" inkscape:version="0.48.3.1 r9886" inkscape:export-ydpi="230.97745" sodipodi:docname="Facebook Home (Clear).svg"
	 xmlns="http://www.w3.org/2000/svg" xmlns:xlink="http://www.w3.org/1999/xlink" x="0px" y="0px" width="512px" height="512px"
	 viewBox="0 0 512 512" style="enable-background:new 0 0 512 512;" xml:space="preserve">
<g>
	<polygon points="324.5,104.7 352.3,88.6 352.3,56.1 324.5,85.4 324.5,33.9 292.2,93 292.2,20.5 266.1,93.4 270.6,135.8 
		292.2,123.3 	"/>
	<polygon points="222.7,124.5 244.1,136.8 248.8,93.4 222.7,20.5 222.7,93 190.4,33.9 190.4,85.4 162.6,56.1 162.6,89.7 
		190.4,105.8 	"/>
	<polygon points="270.6,135.8 257.5,17.3 244.1,136.8 256.5,143.9 	"/>
	<polygon points="372.7,85 256.5,152.1 140.3,85 140.3,219.2 256.5,286.3 372.7,219.2 	"/>
	<polygon points="412,491.4 400.4,452.7 383.8,443 383.8,475.1 	"/>
	<polygon points="445,478.4 410.1,420.9 383.8,405.7 383.8,443 	"/>
	<polygon points="472.8,457.1 422.8,398.1 383.8,380.8 383.8,405.7 	"/>
	<polygon points="507.6,396.9 444.8,360.7 512.1,362.2 467.5,336.5 506.8,327.1 477.7,310.3 449.9,326.3 417.6,345 396.1,357.3 
		431.5,383.1 	"/>
	<polygon points="383.8,380.8 493,428.6 396.1,357.3 383.8,364.5 	"/>
	<polygon points="376.7,226.2 260.6,293.3 260.6,427.5 376.7,494.5 376.7,360.4 492.9,293.3 	"/>
	<polygon points="61.1,325.3 33.3,309.3 5.2,325.6 44.5,334.9 -0.1,360.7 67.2,359.2 4.4,395.4 80.6,381.6 115,356.4 93.5,344 	"/>
	<polygon points="39.2,455.6 101.9,419.3 67,476.9 111.6,451.1 100,489.9 129.2,473 129.2,441 129.2,403.6 129.2,378.9 89.2,396.6 	
		"/>
	<polygon points="19,427.1 129.2,378.9 129.2,364.6 115,356.4 	"/>
	<polygon points="20.1,293.5 136.2,360.5 136.2,494.7 252.4,427.6 252.4,293.5 136.2,226.4 	"/>
</g>
</svg>
