<?xml version="1.0" encoding="utf-8"?>
<!-- Generator: Adobe Illustrator 16.0.0, SVG Export Plug-In . SVG Version: 6.00 Build 0)  -->
<!DOCTYPE svg PUBLIC "-//W3C//DTD SVG 1.1//EN" "http://www.w3.org/Graphics/SVG/1.1/DTD/svg11.dtd">
<svg version="1.1"
	 id="svg2" xmlns:dc="http://purl.org/dc/elements/1.1/" xmlns:svg="http://www.w3.org/2000/svg" xmlns:cc="http://creativecommons.org/ns#" xmlns:inkscape="http://www.inkscape.org/namespaces/inkscape" xmlns:rdf="http://www.w3.org/1999/02/22-rdf-syntax-ns#" xmlns:sodipodi="http://sodipodi.sourceforge.net/DTD/sodipodi-0.dtd" inkscape:export-filename="R:\Media\Pictures\Logos\Facebook Home (Clear).png" inkscape:version="0.48.3.1 r9886" inkscape:export-ydpi="230.97745" inkscape:export-xdpi="230.97745" sodipodi:docname="Facebook Home (Clear).svg"
	 xmlns="http://www.w3.org/2000/svg" xmlns:xlink="http://www.w3.org/1999/xlink" x="0px" y="0px" width="512px" height="512px"
	 viewBox="0 0 512 512" style="enable-background:new 0 0 512 512;" xml:space="preserve">
<style type="text/css">
<![CDATA[
	.st0{fill:#9B9B9B;}
]]>
</style>
<g>
	<path class="st0" d="M456.5,371.3v8.2c0,39.3-31.4,70.7-70.7,70.7h-55.7h-1H181.5c-39.3,0-70.7-31.4-70.7-70.7v-86.8H95.2
		c-0.1,34.6-0.1,64.8-0.1,78.6c0,0.4,0,1,0,1.3c0,1.9,0,3.3,0,4.5c0,1.5,0,2.3,0,2.3c0,47.1,39.3,86.4,86.4,86.4h204.2
		c47.1,0,86.4-39.3,86.4-86.4c0,0,0-1,0-2.3c0-1.1,0-2.5,0-4.5c0-0.4,0-0.9,0-1.3H456.5z"/>
	<path class="st0" d="M385.8,60.3c4.1,0,8.1,0.5,11.9,1.2c1.6,0.3,3.2,0.6,4.8,1c1.7,0.3,3.1,1,4.9,1.5c4.2,1.4,8.2,3.1,12.1,5.2
		c22,11.9,37,34.9,37,61.9v29.7H472c0-19.3-0.1-31.8-0.1-31.9c-1.6-35.8-25.9-66.1-58.6-77.6c-2.5-1-5-1.6-7.6-2.3
		c-1.7-0.4-3.6-0.9-5.5-1.2c-4.9-0.9-9.5-1.5-14.7-1.5h-86.1c2,4.4,2.9,9.1,3.1,14H385.8z"/>
	<path class="st0" d="M110.9,261.2H147l72.6,62.1v-62.1h35.9c8.7,0,15.7-7,15.7-15.7V61.9c0-0.6-0.3-1-0.3-1.6
		c-0.8-7.9-7.3-14.1-15.4-14.1h-73.9H15.9c-8.7,0-15.7,7-15.7,15.7v183.5c0,8.7,7,15.7,15.7,15.7h79.3H110.9z"/>
	<path class="st0" d="M500.6,192h-28.5h-15.4H335.9c-6,0-10.8,4.8-10.8,10.8v126.3c0,6,4.9,10.8,10.8,10.8h24.7v42.7l50-42.7h46.2
		h15.7H501c6,0,10.8-4.9,10.8-10.8V202.8C511.4,196.9,506.6,192,500.6,192z"/>
</g>
</svg>
