<?xml version="1.0" encoding="utf-8"?>
<!-- Generator: Adobe Illustrator 16.0.0, SVG Export Plug-In . SVG Version: 6.00 Build 0)  -->
<!DOCTYPE svg PUBLIC "-//W3C//DTD SVG 1.1//EN" "http://www.w3.org/Graphics/SVG/1.1/DTD/svg11.dtd">
<svg version="1.1"
	 id="svg2" inkscape:export-filename="R:\Media\Pictures\Logos\Facebook Home (Clear).png" inkscape:export-ydpi="230.97745" inkscape:export-xdpi="230.97745" sodipodi:docname="Facebook Home (Clear).svg" inkscape:version="0.48.3.1 r9886" xmlns:sodipodi="http://sodipodi.sourceforge.net/DTD/sodipodi-0.dtd" xmlns:inkscape="http://www.inkscape.org/namespaces/inkscape" xmlns:cc="http://creativecommons.org/ns#" xmlns:svg="http://www.w3.org/2000/svg" xmlns:rdf="http://www.w3.org/1999/02/22-rdf-syntax-ns#" xmlns:dc="http://purl.org/dc/elements/1.1/"
	 xmlns="http://www.w3.org/2000/svg" xmlns:xlink="http://www.w3.org/1999/xlink" x="0px" y="0px" width="512px" height="512px"
	 viewBox="0 0 512 512" style="enable-background:new 0 0 512 512;" xml:space="preserve">
<g>
	<rect x="123.6" y="451.7" width="107.3" height="60.2"/>
	<rect x="281.2" y="451.7" width="107.3" height="60.2"/>
	<path d="M123.6,447.6h264.9V64.1H123.6V447.6z M311.1,90.8h50.3V153h-50.3V90.8z M311.1,172.1h50.3v62.2h-50.3V172.1z M311.1,256.1
		h50.3v62.3h-50.3V256.1z M311.1,348h50.3v62.2h-50.3V348z M230.8,90.8h50.3V153h-50.3V90.8z M230.8,172.1h50.3v62.2h-50.3V172.1z
		 M230.8,256.1h50.3v62.3h-50.3V256.1z M230.8,348h50.3v62.2h-50.3V348z M152,90.8h50.3V153H152V90.8z M152,172.1h50.3v62.2H152
		V172.1z M152,256.1h50.3v62.3H152V256.1z M152,348h50.3v62.2H152V348z"/>
	<polygon points="336.3,24.1 336.3,0.1 175.7,0.1 175.7,24.1 123.6,24.1 123.6,60 388.4,60 388.4,24.1 	"/>
</g>
</svg>
