<?xml version="1.0" encoding="utf-8"?>
<!-- Generator: Adobe Illustrator 16.0.0, SVG Export Plug-In . SVG Version: 6.00 Build 0)  -->
<!DOCTYPE svg PUBLIC "-//W3C//DTD SVG 1.1//EN" "http://www.w3.org/Graphics/SVG/1.1/DTD/svg11.dtd">
<svg version="1.1"
	 id="svg2" xmlns:dc="http://purl.org/dc/elements/1.1/" xmlns:svg="http://www.w3.org/2000/svg" xmlns:cc="http://creativecommons.org/ns#" xmlns:inkscape="http://www.inkscape.org/namespaces/inkscape" xmlns:rdf="http://www.w3.org/1999/02/22-rdf-syntax-ns#" xmlns:sodipodi="http://sodipodi.sourceforge.net/DTD/sodipodi-0.dtd" inkscape:export-filename="R:\Media\Pictures\Logos\Facebook Home (Clear).png" inkscape:version="0.48.3.1 r9886" inkscape:export-ydpi="230.97745" inkscape:export-xdpi="230.97745" sodipodi:docname="Facebook Home (Clear).svg"
	 xmlns="http://www.w3.org/2000/svg" xmlns:xlink="http://www.w3.org/1999/xlink" x="0px" y="0px" width="512px" height="512px"
	 viewBox="0 0 512 512" style="enable-background:new 0 0 512 512;" xml:space="preserve">
<style type="text/css">
<![CDATA[
	.st0{fill:#9B9B9B;}
]]>
</style>
<g>
	<path class="st0" d="M463.3,408c0-0.4,0-0.9,0-1.4c0-18,0-61.5-0.1-108.2c0-3,0-6,0-9c0-4.4,0-8.7,0-13.3
		c-0.1-68-0.1-135.9-0.1-136.5c-1.8-39.4-28.6-72.7-64.5-85.3c-2.8-1.1-5.5-1.8-8.4-2.5c-2-0.5-4-1-6-1.3
		c-5.2-0.9-10.5-1.6-15.9-1.6h-31.6l-1.1,15.5h32.7c4.5,0,8.8,0.5,13.1,1.3c1.8,0.4,3.6,0.6,5.3,1.1c1.8,0.4,3.5,1.1,5.2,1.7
		c4.7,1.5,9.2,3.3,13.5,5.7c24.2,13.1,40.8,38.4,40.8,68v129.3v143.8c0,43.2-34.6,77.8-77.8,77.8H143.7c-43.2,0-77.8-34.6-77.8-77.8
		V271.4V142.2c0-29.7,16.5-55,40.8-68c4.3-2.4,8.8-4.2,13.5-5.7c1.7-0.6,3.4-1.2,5.2-1.6c1.7-0.4,3.5-0.8,5.3-1.1
		c4.3-0.7,8.6-1.2,13.1-1.2h32.7L175.3,49h-31.6c-5.4,0-10.7,0.7-15.9,1.6c-2,0.4-4,0.8-6,1.3c-2.9,0.7-5.7,1.6-8.4,2.5
		C77.4,67,50.7,100.2,48.8,139.7c0,0.4-0.1,68.2-0.1,136.5c0,4.6,0,8.9,0,13.3c0,3,0,6,0,9c0,46.7-0.1,90.1-0.1,108.2
		c0,0.5,0,1.1,0,1.4c0,2.1,0,3.7,0,4.9c0,1.6,0,2.6,0,2.6c0,51.8,43.2,95.1,95.1,95.1h224.6c51.8,0,95.1-43.2,95.1-95.1
		c0,0,0-1.1,0-2.6C463.3,411.6,463.3,410.1,463.3,408z"/>
	<path class="st0" d="M255.9,324.1c-21.8,0-39.5,17.7-39.5,39.5c0,21.8,17.7,39.5,39.5,39.5c21.8,0,39.5-17.7,39.5-39.5
		C295.4,341.8,277.8,324.1,255.9,324.1z"/>
	<path class="st0" d="M211,64.7l14.1,202c0,9.5,7.7,17.3,17.3,17.3h27.1c9.5,0,17.3-7.7,17.3-17.3l14.1-202l1.1-15.5l2.1-30.4
		c0-9.7-7.7-17.3-17.3-17.3h-61.7c-9.5,0-17.3,7.6-17.3,17.3l2.1,30.4L211,64.7z"/>
</g>
</svg>
