<?xml version="1.0" encoding="utf-8"?>
<!-- Generator: Adobe Illustrator 16.0.0, SVG Export Plug-In . SVG Version: 6.00 Build 0)  -->
<!DOCTYPE svg PUBLIC "-//W3C//DTD SVG 1.1//EN" "http://www.w3.org/Graphics/SVG/1.1/DTD/svg11.dtd">
<svg version="1.1"
	 id="svg2" xmlns:svg="http://www.w3.org/2000/svg" xmlns:cc="http://creativecommons.org/ns#" xmlns:rdf="http://www.w3.org/1999/02/22-rdf-syntax-ns#" xmlns:inkscape="http://www.inkscape.org/namespaces/inkscape" xmlns:dc="http://purl.org/dc/elements/1.1/" xmlns:sodipodi="http://sodipodi.sourceforge.net/DTD/sodipodi-0.dtd" inkscape:version="0.48.3.1 r9886" inkscape:export-ydpi="230.97745" inkscape:export-xdpi="230.97745" sodipodi:docname="Facebook Home (Clear).svg" inkscape:export-filename="R:\Media\Pictures\Logos\Facebook Home (Clear).png"
	 xmlns="http://www.w3.org/2000/svg" xmlns:xlink="http://www.w3.org/1999/xlink" x="0px" y="0px" width="512px" height="512px"
	 viewBox="0 0 512 512" style="enable-background:new 0 0 512 512;" xml:space="preserve">
<g>
	<path d="M511.1,132.4l-80.9-80.9c-0.9-0.9-2.2-1.1-3.3-0.7c-1.1,0.5-1.9,1.6-1.9,2.8v80.9c0,1.7,1.4,3.1,3.1,3.1h80.9
		c1.2,0,2.4-0.7,2.8-1.9C512.2,134.6,512,133.3,511.1,132.4z M431.1,131.5V61.1l70.5,70.5H431.1z"/>
	<path d="M338.2,106.6c-1.1,0.5-1.9,1.6-1.9,2.8v80.9c0,1.7,1.4,3.1,3.1,3.1h80.9c1.2,0,2.3-0.7,2.8-1.9c0.5-1.1,0.2-2.5-0.7-3.3
		l-80.9-80.9C340.6,106.3,339.3,106.1,338.2,106.6z M342.4,116.7l70.5,70.5h-70.5V116.7z"/>
	<path d="M332.3,349.7v-6.1V262h-58.9h-6.1h-28.1v-93.1h-22.7h-31.8h-6.1H158h-33.4c-16.9,0-30.5,13.7-30.5,30.5v7.2l83.4,83.4
		c0,0,11,10.3,11.9,14.6l10.7,48.2c0.9,4.1-0.3,8.3-3.3,11.3c-2.3,2.3-5.4,3.6-8.6,3.6c-0.9,0-1.8-0.1-2.7-0.3l-48.2-10.7
		c-4.4-1-14.6-11.9-14.6-11.9l-28.6-28.6v114.7c0,16.9,13.7,30.5,30.5,30.5h177.1c16.9,0,30.5-13.7,30.5-30.5v-25.4h0v-6.1h0V349.7z
		"/>
	<path d="M508.6,144.3h-90.1V54.2c0-1.7-1.4-3.1-3.1-3.1H300.9c-18.5,0-33.6,15.1-33.6,33.6v22.1h-55.1c-18.5,0-33.6,15.1-33.6,33.6
		v10.8h6.1v-10.8c0-15.2,12.3-27.5,27.5-27.5h55.1h6.1h50.3V203c0,1.7,1.4,3.1,3.1,3.1h90.1v137.5v6.1v22.1
		c0,15.2-12.3,27.5-27.5,27.5H350v6.1h39.3c18.5,0,33.6-15.1,33.6-33.6v-22.1H478c18.5,0,33.6-15.1,33.6-33.6V147.3
		C511.6,145.7,510.2,144.3,508.6,144.3z M505.5,316.1c0,15.2-12.3,27.5-27.5,27.5h-55.1V203c0-1.7-1.4-3.1-3.1-3.1h-90.1v-90.1
		c0-1.7-1.4-3.1-3.1-3.1h-53.4V84.8c0-15.2,12.3-27.5,27.5-27.5h111.5v90.1c0,1.7,1.4,3.1,3.1,3.1h90.1V316.1z"/>
	<polygon points="251.8,249.3 332.7,249.3 251.8,168.4 	"/>
	<polygon points="131.4,336.1 168.8,298.7 94.1,224 57.2,187.1 19.8,224.5 94.1,298.8 	"/>
	<polygon points="177.5,307.3 140,344.8 188.2,355.5 	"/>
	<path d="M39.2,169.1c-1.2-1.2-2.8-1.8-4.3-1.8s-3.1,0.6-4.3,1.8L1.8,197.9c-2.4,2.4-2.4,6.3,0,8.6l9.3,9.4l37.4-37.4L39.2,169.1z"
		/>
</g>
</svg>
