<?xml version="1.0" encoding="utf-8"?>
<!-- Generator: Adobe Illustrator 16.0.0, SVG Export Plug-In . SVG Version: 6.00 Build 0)  -->
<!DOCTYPE svg PUBLIC "-//W3C//DTD SVG 1.1//EN" "http://www.w3.org/Graphics/SVG/1.1/DTD/svg11.dtd">
<svg version="1.1"
	 id="svg2" inkscape:export-filename="R:\Media\Pictures\Logos\Facebook Home (Clear).png" sodipodi:docname="Facebook Home (Clear).svg" inkscape:export-xdpi="230.97745" inkscape:export-ydpi="230.97745" inkscape:version="0.48.3.1 r9886" xmlns:svg="http://www.w3.org/2000/svg" xmlns:cc="http://creativecommons.org/ns#" xmlns:rdf="http://www.w3.org/1999/02/22-rdf-syntax-ns#" xmlns:inkscape="http://www.inkscape.org/namespaces/inkscape" xmlns:dc="http://purl.org/dc/elements/1.1/" xmlns:sodipodi="http://sodipodi.sourceforge.net/DTD/sodipodi-0.dtd"
	 xmlns="http://www.w3.org/2000/svg" xmlns:xlink="http://www.w3.org/1999/xlink" x="0px" y="0px" width="512px" height="512px"
	 viewBox="0 0 512 512" style="enable-background:new 0 0 512 512;" xml:space="preserve">
<g>
	<path d="M416.1,47.9H113c-26.4,0-47.9,21.4-47.9,47.8v69.8H24.1c-13.2,0-23.9,10.7-23.9,23.9v148.9c0,13.2,10.7,23.9,23.9,23.9
		h41.1v101.9c0,26.4,21.4,47.9,47.9,47.9h303c26.4,0,47.9-21.4,47.9-47.9V95.7C463.9,69.3,442.5,47.9,416.1,47.9z M353.7,338.4
		c0,4.4-3.6,8-8,8H65.2H24.1c-4.4,0-8-3.6-8-8V189.5c0-4.4,3.6-8,8-8h41.1h280.6c4.4,0,8,3.6,8,8V338.4z"/>
	<path d="M511.8,463.2c0,0-0.2-379.1-0.2-379.4c-1.7-36.3-26.3-67.1-59.5-78.8c-2.5-0.9-5.1-1.7-7.7-2.3c-1.8-0.5-3.7-1-5.6-1.2
		C434,0.6,429.1,0,424.1,0H116.6l-0.2,14.3h307.8c4.2,0,8.1,0.5,12.1,1.2c1.7,0.3,3.3,0.6,4.9,1c1.7,0.3,3.2,1,4.8,1.5
		c4.3,1.4,8.5,3,12.4,5.2c22.3,12.1,37.5,35.5,37.5,62.8l0,377.2L511.8,463.2z"/>
	<path d="M126.4,228.3c-2.2-2.8-5.4-5.1-9.4-7c-4.1-1.9-9.4-2.9-15.8-2.9H65.2h-4.3v91.1h4.3l11.7-0.1v-34.9h24.2
		c6.5,0,11.7-1,15.8-2.7c4.1-1.8,7.2-4.3,9.4-7c2.2-2.8,3.7-5.9,4.5-9c0.8-3.2,1.2-6.3,1.2-9.1c0-2.8-0.4-5.9-1.2-9.2
		C130.1,234.2,128.6,231.2,126.4,228.3z M114.7,253.6c-1,1.9-2.3,3.6-3.8,4.6c-1.6,1.1-3.3,2-5.2,2.5c-1.9,0.5-3.7,0.8-5.5,0.8H76.8
		l0-30.1h23.6c2.1,0,4.1,0.2,6,0.6c1.9,0.4,3.5,1.2,5,2.3c1.5,1.1,2.6,2.7,3.4,4.7c0.9,1.9,1.3,4.4,1.3,7.5
		C116.1,249.4,115.7,251.8,114.7,253.6z"/>
	<path d="M214,231.7c-3.2-4.1-7.4-7.4-12.5-9.8c-5.1-2.4-11.1-3.6-18.1-3.6h-37.8v91.1h37.8c7,0,13-1.2,18.1-3.6
		c5.1-2.4,9.3-5.6,12.5-9.8c3.2-4.1,5.6-9,7.2-14.5c1.6-5.5,2.4-11.4,2.4-17.7c0-6.3-0.8-12.2-2.4-17.7
		C219.7,240.7,217.3,235.8,214,231.7z M206.5,276.8c-0.8,3.9-2.3,7.4-4.6,10.3c-2.3,2.9-5.4,5.2-9.3,6.9c-4,1.7-9,2.5-15.2,2.5
		h-15.7v-65.1h15.7c6.2,0,11.3,0.8,15.2,2.5c4,1.7,7.1,4,9.3,6.9c2.3,2.9,3.8,6.4,4.6,10.3c0.8,4,1.2,8.2,1.2,12.8
		C207.7,268.5,207.3,272.8,206.5,276.8z"/>
	<polygon points="237.8,309.5 253.7,309.5 253.7,269 294.9,269 294.9,256 253.7,256 253.7,232.2 300.7,232.2 300.7,218.4 
		237.8,218.4 	"/>
</g>
</svg>
