<?xml version="1.0" encoding="utf-8"?>
<!-- Generator: Adobe Illustrator 16.0.0, SVG Export Plug-In . SVG Version: 6.00 Build 0)  -->
<!DOCTYPE svg PUBLIC "-//W3C//DTD SVG 1.1//EN" "http://www.w3.org/Graphics/SVG/1.1/DTD/svg11.dtd">
<svg version="1.1"
	 id="svg2" xmlns:svg="http://www.w3.org/2000/svg" xmlns:cc="http://creativecommons.org/ns#" xmlns:rdf="http://www.w3.org/1999/02/22-rdf-syntax-ns#" xmlns:inkscape="http://www.inkscape.org/namespaces/inkscape" xmlns:dc="http://purl.org/dc/elements/1.1/" xmlns:sodipodi="http://sodipodi.sourceforge.net/DTD/sodipodi-0.dtd" inkscape:version="0.48.3.1 r9886" inkscape:export-ydpi="230.97745" inkscape:export-xdpi="230.97745" sodipodi:docname="Facebook Home (Clear).svg" inkscape:export-filename="R:\Media\Pictures\Logos\Facebook Home (Clear).png"
	 xmlns="http://www.w3.org/2000/svg" xmlns:xlink="http://www.w3.org/1999/xlink" x="0px" y="0px" width="512px" height="512px"
	 viewBox="0 0 512 512" style="enable-background:new 0 0 512 512;" xml:space="preserve">
<g>
	<polygon points="148.5,203.4 148.5,279.3 224.6,279.3 	"/>
	<path d="M460.9,357.5c-7.2-3.7-14.3-7.2-21-10.4c-33.8-16.5-60.6-29.5-72.2-61.2c3-2.8,9.3-9.7,11.4-20.4l1.7-19.3
		c6.4-1.9,23.4-10.5,25.6-48c-0.1-5.2-2.6-14.7-11.3-16.5c1.4-6.4,4-21.6,3.6-43.2l0.2,0.1l-0.3-6.2c0,0,0-0.1,0-0.1
		c-0.7-14.9-5.6-27.7-14.5-38l125-18.9c1.6-0.2,2.7-1.6,2.8-3.1c0-1.6-1.1-3-2.6-3.2L310.7,32.6c-0.4-0.1-0.8-0.1-1.2,0L111,69
		c-1.6,0.3-2.7,1.7-2.6,3.2c0,1.6,1.2,2.9,2.8,3.1l79,11.9c0,0.2-0.1,0.4-0.1,0.7v57.4l-13,31c-0.8,2-0.6,4.3,0.6,6.1
		c1.2,1.8,3.2,2.9,5.4,2.9H217l0,0c0.7,0,1.4-0.3,2.1-0.5c0.7-0.7,1.6-1.3,2.5-1.8c0.9-1.1,1.5-2.5,1.5-4.1c0-1.3-0.4-2.5-1.1-3.6
		l-12.5-29.9V95.7l14.7-3.3l12,1.8c-8.9,10.3-13.8,23.1-14.5,38c0,0.1,0,0.1,0,0.1l-0.3,6.2l0.2-0.1c-0.4,21.6,2.2,36.8,3.6,43.2
		c-1.3,0.3-2.5,0.8-3.6,1.4c-0.7,0.8-1.5,1.4-2.5,1.8c-3.9,3.7-5.2,9.6-5.3,13.5c2.2,37.3,19.2,45.9,25.6,47.8l1.8,19.6
		c2.1,10.5,8.4,17.3,11.4,20.1c-5.8,15.9-15.5,27.1-27.9,36.4v-31.4h-87.7V204L29,203.7c-16.2,0-28.8,12.7-28.8,28.8v218.1
		c0,16.2,12.7,28.8,28.8,28.8h149.5l-5.8-5.8l-6.3-6.3l-10.8-10.8l-1.3-1.3l0-0.1l-39.4-39.4l-5.7-5.7l-3.2-3.2
		c-6.7-6.7-6.7-17.7,0-24.5l29.2-29.2c3.3-3.3,7.6-5.1,12.2-5.1s9,1.8,12.2,5.1l2.8,2.8l4.3,4.3l29.6,29.6l28.4-29.4v-31
		c15.4-10.7,27.3-23.7,34.1-43.6c0.4-1.2,0-2.5-1-3.2c-0.1-0.1-8.5-6.5-10.8-17.7l-1.9-21.4c-0.1-1.4-1.2-2.5-2.6-2.6
		c-0.2,0-20.5-2.6-22.9-42.7c0-1.1,0.4-11.1,8.7-11.1c1,0.2,2-0.2,2.6-0.9c0.7-0.7,0.9-1.8,0.6-2.7c-0.1-0.2-5.2-19.2-4.1-49.6
		c6.8-4.9,48.5-29.6,82.6,8.5l0-0.6l0,0.6c38.3-38.3,75.8-13.3,82.6-8.5c1.1,30.4-4,49.4-4.1,49.6c-0.3,1,0,2,0.7,2.7
		c0.7,0.7,1.7,1.1,2.7,0.9c8.1,0,8.5,9.9,8.6,10.9c-2.4,39.9-22.1,42.8-22.9,42.9c-1.4,0.1-2.4,1.2-2.6,2.6l-1.9,21.1
		c-2.3,11.5-10.7,18-10.8,18c-1,0.7-1.4,2.1-1,3.2c12,35.3,40.1,49,75.8,66.4c6.7,3.3,13.7,6.7,20.9,10.4
		c29,14.9,40.3,28.6,44.6,37.4c2.7,5.6,2.6,10.7,2.5,14.1l0,23.9c0,7.2-1.5,15.2-2.9,17.5c-1.7,2.9-4.2,4.3-5,4.6
		c-18.2,8.4-107,11.8-184,12.2c-0.1,0-0.2,0-0.3,0l-3,0l-3,0c-0.1,0-0.2,0-0.3,0c-32.8-0.2-67.6-0.9-98.3-2.3l15.9-16.5l130.7-135.7
		c2.3-2.3,2.3-5.9,0-8.2l-29.2-29.2c-1.1-1.1-2.6-1.7-4.1-1.7c-1.5,0-3,0.6-4.1,1.7L224.6,377l-28.2,29.3L156,365.8l-4.2-4.2
		l-0.3-0.3c-1.1-1.1-2.6-1.7-4.1-1.7c-1.5,0-3,0.6-4.1,1.7l-29.2,29.2c-1.6,1.6-2,3.9-1.3,5.9c0.3,0.8,0.7,1.6,1.3,2.3l2.8,2.8
		l46.8,46.8c0.1,0.1,0.1,0.1,0.1,0.2l20.3,20.3l6.2,6.2l2.7,2.7c1.1,1.1,2.6,1.7,4.1,1.7c0,0,0,0,0,0c0,0,0,0,0,0
		c1.5,0,3-0.6,4.1-1.7l1.9-2c40.2,2,83.4,2.5,103.2,2.6c0.1,0,0.2,0,0.4,0l3.4,0l3.4,0c0.1,0,0.3,0,0.4,0
		c38.1-0.2,162.2-1.7,186-12.7c1.5-0.7,5.1-2.7,7.5-6.9c2.3-3.9,3.7-13.4,3.7-20.4v-22.6l0-1.2c0.1-3.7,0.2-9.9-3.1-16.7
		C503.3,387.9,491.3,373.1,460.9,357.5z M131.3,71.9l178.8-32.8l178.8,32.8L378.4,88.5l-9.3,1.4l-59,8.9L251,89.9l-9.2-1.4l-0.2,0
		l62.3-14c1.6,0.3,3.2,0.6,5,0.6c9.2,0,16.5-5,16.5-11.5c0-6.4-7.2-11.5-16.5-11.5c-5.8,0-10.8,2-13.7,5.1l-97.5,21.3
		c-1.8,0.4-3.4,1.4-4.7,2.7L131.3,71.9z M298.2,63.6c0-0.1,0.1-0.3,0.1-0.4c0.4-2.6,4.6-5.3,10.6-5.3c0.6,0,1.2,0,1.7,0.1
		c5.4,0.5,9,3.2,9,5.6c0,1.4-1.3,2.9-3.4,4c-1.9,1-4.4,1.7-7.3,1.7c-2.4,0-4.5-0.5-6.2-1.2C299.9,67,298.2,65.2,298.2,63.6z
		 M223.9,85.8l-17.4,3.9l-3.5,0.8V146l13.2,32.1l0.4,0.7l-0.2,0l-33.4,0.1l13.3-31.6l0.2-59V88c0-1.5,1.1-2.8,2.5-3.2l7.3-1.6
		l86.2-18.8c0.2,2,1.1,3.9,2.5,5.4L223.9,85.8z M310.1,135.3c-32.3-32.2-68.8-16.5-82-8.7c0-0.2,0-0.5,0.1-0.7
		c2.1-13,8.3-22.9,16.2-30.4l65.2,9.8c0.2,0,0.3,0,0.5,0c0.2,0,0.3,0,0.5,0l65.2-9.8c8,7.6,14.2,17.4,16.3,30.4c0,0.2,0,0.5,0.1,0.7
		C378.9,118.8,342.4,103,310.1,135.3z"/>
</g>
</svg>
