<?xml version="1.0" encoding="utf-8"?>
<!-- Generator: Adobe Illustrator 16.0.0, SVG Export Plug-In . SVG Version: 6.00 Build 0)  -->
<!DOCTYPE svg PUBLIC "-//W3C//DTD SVG 1.1//EN" "http://www.w3.org/Graphics/SVG/1.1/DTD/svg11.dtd">
<svg version="1.1"
	 id="svg2" inkscape:export-filename="R:\Media\Pictures\Logos\Facebook Home (Clear).png" inkscape:export-ydpi="230.97745" inkscape:export-xdpi="230.97745" sodipodi:docname="Facebook Home (Clear).svg" inkscape:version="0.48.3.1 r9886" xmlns:sodipodi="http://sodipodi.sourceforge.net/DTD/sodipodi-0.dtd" xmlns:inkscape="http://www.inkscape.org/namespaces/inkscape" xmlns:cc="http://creativecommons.org/ns#" xmlns:svg="http://www.w3.org/2000/svg" xmlns:rdf="http://www.w3.org/1999/02/22-rdf-syntax-ns#" xmlns:dc="http://purl.org/dc/elements/1.1/"
	 xmlns="http://www.w3.org/2000/svg" xmlns:xlink="http://www.w3.org/1999/xlink" x="0px" y="0px" width="512px" height="512px"
	 viewBox="0 0 512 512" style="enable-background:new 0 0 512 512;" xml:space="preserve">
<g>
	<path d="M60.2,210.8L27.1,192c-8.5-4.8-19.3-1.8-24.2,6.7c-4.8,8.5-1.8,19.3,6.7,24.2l40.7,23.1v184.8c0,15.7,12.7,28.4,28.4,28.4
		c15.7,0,28.4-12.7,28.4-28.4v-74.8l53.7,89.4c0,0,0,0,0,0c8.1,13.4,25.5,17.8,38.9,9.7c13.4-8.1,17.8-25.5,9.7-38.9l-46.6-77.6
		h107.4v92.2c0,15.7,12.7,28.4,28.4,28.4s28.4-12.7,28.4-28.4v-92.9c4.1-1.5,7.1-5.4,7.1-10v-74.5l0.1-0.2l-99.6-42.4H60.2z"/>
	<rect x="440.4" y="168.2" width="70.9" height="14.2"/>
	<rect x="425.3" y="118.4" transform="matrix(0.8673 -0.4978 0.4978 0.8673 -1.3069 246.0232)" width="70.9" height="14.2"/>
	<rect x="389.3" y="80.2" transform="matrix(0.4966 -0.868 0.868 0.4966 138.0909 412.678)" width="70.9" height="14.2"/>
	<path d="M390.8,132.7L355.3,76L291,147.9l-35-8.1l9.2,36.9L249.7,194l99.5,42.4l48.7-54.1h-35.5L390.8,132.7z M323.4,161.1
		c-5.9,0-10.6-4.8-10.6-10.6s4.8-10.6,10.6-10.6c5.9,0,10.6,4.8,10.6,10.6C334,156.3,329.3,161.1,323.4,161.1z"/>
</g>
</svg>
