<?xml version="1.0" encoding="utf-8"?>
<!-- Generator: Adobe Illustrator 16.0.0, SVG Export Plug-In . SVG Version: 6.00 Build 0)  -->
<!DOCTYPE svg PUBLIC "-//W3C//DTD SVG 1.1//EN" "http://www.w3.org/Graphics/SVG/1.1/DTD/svg11.dtd">
<svg version="1.1"
	 id="svg2" inkscape:export-filename="R:\Media\Pictures\Logos\Facebook Home (Clear).png" inkscape:export-ydpi="230.97745" inkscape:export-xdpi="230.97745" sodipodi:docname="Facebook Home (Clear).svg" inkscape:version="0.48.3.1 r9886" xmlns:sodipodi="http://sodipodi.sourceforge.net/DTD/sodipodi-0.dtd" xmlns:inkscape="http://www.inkscape.org/namespaces/inkscape" xmlns:cc="http://creativecommons.org/ns#" xmlns:svg="http://www.w3.org/2000/svg" xmlns:rdf="http://www.w3.org/1999/02/22-rdf-syntax-ns#" xmlns:dc="http://purl.org/dc/elements/1.1/"
	 xmlns="http://www.w3.org/2000/svg" xmlns:xlink="http://www.w3.org/1999/xlink" x="0px" y="0px" width="512px" height="512px"
	 viewBox="0 0 512 512" style="enable-background:new 0 0 512 512;" xml:space="preserve">
<g>
	<path d="M52.1,247.6c-10.7,0-19.5,8.8-19.5,19.5c0,10.7,8.8,19.4,19.5,19.4c10.7,0,19.4-8.7,19.4-19.4
		C71.5,256.4,62.8,247.6,52.1,247.6z"/>
	<path d="M322.9,85c23.3,0,42.3-18.9,42.3-42.3c0-23.4-19-42.4-42.3-42.4c-23.4,0-42.4,19-42.4,42.4C280.4,66.1,299.5,85,322.9,85z"
		/>
	<path d="M504.9,462.4l-68.8-81.2c0,0-21.5-125.5-21.5-125.8c0-0.1-3.2-14.2-3.2-14.2c0.1,0.1-8.7-39.6-15.4-70.6
		c10.7,6.2,20.4,11.8,21,12c0.5,1.2,36.5,69.6,36.5,69.6c2.7,5,7.2,8.8,12.7,10.5c5.6,1.7,11.4,1.2,16.4-1.6
		c5-2.6,8.8-7.1,10.5-12.7c1.8-5.4,1.3-11.3-1.4-16.3l-39.5-75.2c0,0-1.6-2.7-3.6-4.8c-2.9-2.8-9.1-6.3-9.1-6.3l-76.6-43.6
		c-9.7-4.9-20.4-6.6-31.2-4.3c-4.4,0.9-8.5,2.6-13.2,5.2c-0.5,0.1-17.5,7.6-27.3,30.7l-39.3,79.2c0,0-59.9,11.6-62,12
		c-0.5,0.1-1,0.3-1.4,0.5l-55.9-39.6c-12.6-8.8-14.1-35.2-14.2-36.2c-1.6-18.1-11.9-35.2-28.5-47c-15-10.6-33.1-15.1-49.7-12.4
		C27.3,92.5,16.3,99.2,9.3,109C3.8,116.7,1,125.9,1,135.7c0,0.1,0.8,8.5,0.8,8.5c2.8,16.7,13.1,32.2,28.1,43
		C45,197.9,63,202.4,79.5,199.6l3.9-0.8c0.4-0.3,25.2-7.9,37.4,0.4c0,0.1,41.8,29.6,52.9,37.5c-1.2,1.8-3.2,5.8-3.1,10
		c0,1.3,0.1,2.6,0.4,3.9c2.2,11.6,13.6,19.4,25.2,17.1l74.3-14.5c0,0,6.3-1.9,9.1-3.9c3.5-2.5,6.1-7.6,6.1-7.6l19.5-39.3
		c0,0,13.4,63.5,13.7,64.7c-1.6,1.6-60.9,64.6-60.9,64.6l-1,1.3c-5.8,5.3-9.1,12.3-9.1,19.7V486c0,14.2,11.7,25.7,25.9,25.7
		c14.1,0,25.7-11.5,25.7-25.7c0,0,0-109.7,0-111.5c5.4-5.7,51-53.7,63.1-66.4c1.3,7.5,13.1,75.2,13.1,75.2c1,6,3.9,11.4,8.1,15.8
		c0,0.1,81.8,96.6,81.8,96.6c4.5,5.2,10.7,8.4,17.6,9.1c6.9,0.5,13.5-1.7,18.8-6.1c6-5,9.1-12.4,9.1-19.7
		C511,473.1,509.1,467.3,504.9,462.4z M96.9,171.3c-4.5,6.3-11.5,10.5-20.2,12c-12.2,2.1-25.7-1.4-37.1-9.7
		c-11.5-8.2-19.3-19.8-21.3-32l-0.5-6.1c0-6.3,1.7-12,5.2-16.9c11.3-15.8,37-16.8,57.4-2.3C100.6,130.8,108.1,155.5,96.9,171.3z"/>
</g>
</svg>
