<?xml version="1.0" encoding="utf-8"?>
<!-- Generator: Adobe Illustrator 16.0.0, SVG Export Plug-In . SVG Version: 6.00 Build 0)  -->
<!DOCTYPE svg PUBLIC "-//W3C//DTD SVG 1.1//EN" "http://www.w3.org/Graphics/SVG/1.1/DTD/svg11.dtd">
<svg version="1.1"
	 id="svg2" xmlns:dc="http://purl.org/dc/elements/1.1/" xmlns:svg="http://www.w3.org/2000/svg" xmlns:cc="http://creativecommons.org/ns#" xmlns:inkscape="http://www.inkscape.org/namespaces/inkscape" xmlns:rdf="http://www.w3.org/1999/02/22-rdf-syntax-ns#" xmlns:sodipodi="http://sodipodi.sourceforge.net/DTD/sodipodi-0.dtd" sodipodi:docname="Facebook Home (Clear).svg" inkscape:export-xdpi="230.97745" inkscape:export-ydpi="230.97745" inkscape:version="0.48.3.1 r9886" inkscape:export-filename="R:\Media\Pictures\Logos\Facebook Home (Clear).png"
	 xmlns="http://www.w3.org/2000/svg" xmlns:xlink="http://www.w3.org/1999/xlink" x="0px" y="0px" width="512px" height="512px"
	 viewBox="0 0 512 512" style="enable-background:new 0 0 512 512;" xml:space="preserve">
<g>
	<path style="fill:#010101;" d="M321.9,387.8V512l147.3-157.1H354.8C336.6,354.8,321.9,369.6,321.9,387.8z M346.6,449.5v-61.8
		c0-4.5,3.7-8.2,8.2-8.2h57.4L346.6,449.5z"/>
	<path style="fill:#010101;" d="M419.8,0H92.2c-28,0-49.4,21.4-49.4,49.4V271v191.6c0,7,1.3,13.6,3.8,19.5c0,0.1,0.1,0.3,0.2,0.4
		c6.2,14.6,19.1,25.3,35.2,28.5c3.3,0.6,6.7,1,10.2,1h213.2V387.8c0-27.2,22.2-49.4,49.4-49.4h114.3v-61.9V271v-84V49.4
		C469.2,21.4,447.8,0,419.8,0z M444.5,313.7h-89.6c-40.8,0-74.1,33.2-74.1,74.1v99.5H92.2c-1.8,0-3.7-0.2-5.4-0.5
		c-7.9-1.5-14.2-6.6-17.6-14.6c-1.1-3-1.7-6.2-1.7-9.5V49.4c0-14.3,10.4-24.7,24.7-24.7h327.6c14.3,0,24.7,10.4,24.7,24.7V313.7z"/>
	<path style="fill:#010101;" d="M322.3,111.5c-4.9-5.3-11.1-9.5-18.9-12.7c-7.7-3.2-17.1-4.8-28.1-4.8h-79.4v176h38.7v-63.1h40.7
		c11,0,20.4-1.6,28.1-4.8c7.7-3.2,14-7.4,18.9-12.7c4.8-5.3,8.4-11.3,10.6-18.1c2.2-6.8,3.3-13.8,3.3-20.8c0-7.2-1.1-14.2-3.3-21
		C330.6,122.7,327.1,116.7,322.3,111.5z M295.9,164c-1.9,3.4-4.4,6.1-7.5,8c-3.1,1.9-6.7,3.2-10.8,3.8c-4.1,0.7-8.4,1-12.8,1h-30.1
		V124h30.1c4.4,0,8.7,0.3,12.8,1c4.1,0.7,7.7,1.9,10.8,3.8c3.1,1.9,5.6,4.6,7.5,8c1.9,3.4,2.8,8,2.8,13.6S297.8,160.5,295.9,164z"/>
</g>
</svg>
