<?xml version="1.0" encoding="utf-8"?>
<!-- Generator: Adobe Illustrator 16.0.0, SVG Export Plug-In . SVG Version: 6.00 Build 0)  -->
<!DOCTYPE svg PUBLIC "-//W3C//DTD SVG 1.1//EN" "http://www.w3.org/Graphics/SVG/1.1/DTD/svg11.dtd">
<svg version="1.1"
	 id="svg2" xmlns:inkscape="http://www.inkscape.org/namespaces/inkscape" xmlns:rdf="http://www.w3.org/1999/02/22-rdf-syntax-ns#" xmlns:cc="http://creativecommons.org/ns#" xmlns:sodipodi="http://sodipodi.sourceforge.net/DTD/sodipodi-0.dtd" xmlns:svg="http://www.w3.org/2000/svg" xmlns:dc="http://purl.org/dc/elements/1.1/" inkscape:export-filename="R:\Media\Pictures\Logos\Facebook Home (Clear).png" inkscape:export-ydpi="230.97745" sodipodi:docname="Facebook Home (Clear).svg" inkscape:export-xdpi="230.97745" inkscape:version="0.48.3.1 r9886"
	 xmlns="http://www.w3.org/2000/svg" xmlns:xlink="http://www.w3.org/1999/xlink" x="0px" y="0px" width="512px" height="512px"
	 viewBox="0 0 512 512" style="enable-background:new 0 0 512 512;" xml:space="preserve">
<g>
	<path d="M415,49.2H114c-26.3,0-47.5,21.3-47.5,47.5v69.4H25.6c-13.1,0-23.8,10.6-23.8,23.8v147.9c0,13.1,10.7,23.8,23.8,23.8h40.8
		v101.2c0,26.2,21.3,47.5,47.5,47.5h301c26.3,0,47.5-21.3,47.5-47.5v-366C462.5,70.5,441.3,49.2,415,49.2z M353.1,337.8
		c0,4.4-3.6,7.9-7.9,7.9H66.5H25.6c-4.3,0-7.9-3.5-7.9-7.9V189.9c0-4.4,3.6-7.9,7.9-7.9h40.8h278.7c4.4,0,7.9,3.5,7.9,7.9V337.8z"/>
	<path d="M510.1,461.8c0,0-0.2-376.6-0.3-376.9c-1.6-36.1-26.2-66.7-59.1-78.2c-2.5-0.9-5.1-1.7-7.7-2.3c-1.8-0.5-3.6-0.9-5.5-1.2
		c-4.8-0.9-9.6-1.5-14.6-1.5H117.5l-0.2,14.2H423c4.1,0,8.1,0.6,12,1.2c1.6,0.3,3.2,0.6,4.9,1c1.6,0.3,3.2,1,4.8,1.5
		c4.3,1.4,8.4,3.1,12.3,5.2c22.2,12,37.3,35.2,37.3,62.4l0,374.6L510.1,461.8z"/>
	<path d="M127.2,228.4c-2.2-2.8-5.3-5.1-9.4-6.9c-4.1-1.9-9.3-2.8-15.7-2.8H66.5h-4.3v90.5h4.3l11.6,0v-34.7h24.1
		c6.4,0,11.7-0.9,15.7-2.7c4.1-1.8,7.2-4.1,9.4-6.9c2.2-2.8,3.7-5.8,4.5-9.1c0.8-3.2,1.2-6.3,1.2-9c0-2.8-0.4-5.8-1.2-9.1
		C130.9,234.2,129.4,231.2,127.2,228.4z M115.6,253.6c-1,1.9-2.2,3.4-3.8,4.5c-1.6,1.1-3.3,2-5.1,2.5c-1.9,0.5-3.7,0.8-5.5,0.8H78
		v-29.9h23.4c2.1,0,4.1,0.2,6,0.6c1.9,0.4,3.5,1.2,5,2.3c1.4,1.1,2.6,2.7,3.4,4.6c0.9,1.9,1.3,4.4,1.3,7.4
		C117.1,249.4,116.6,251.8,115.6,253.6z"/>
	<path d="M218.1,228.4c-2.2-2.8-5.3-5.1-9.4-6.9c-4.1-1.9-9.3-2.8-15.7-2.8h-39.9v90.5h15.8v-34.8H193c6.4,0,11.7-0.9,15.7-2.7
		c4.1-1.8,7.2-4.1,9.4-6.9c2.2-2.8,3.7-5.8,4.5-9.1c0.8-3.2,1.2-6.3,1.2-9c0-2.8-0.4-5.8-1.2-9.1
		C221.8,234.2,220.3,231.2,218.1,228.4z M206.5,253.6c-1,1.9-2.2,3.4-3.8,4.5c-1.6,1.1-3.3,2-5.1,2.5c-1.9,0.5-3.7,0.8-5.5,0.8
		h-23.2v-29.9h23.4c2.1,0,4.1,0.2,6,0.6c1.9,0.4,3.5,1.2,4.9,2.3c1.4,1.1,2.6,2.7,3.4,4.6c0.9,1.9,1.3,4.4,1.3,7.4
		C208,249.4,207.5,251.8,206.5,253.6z"/>
	<polygon points="235.3,232.3 264,232.3 264,309.1 279.8,309.1 279.8,232.3 308.6,232.3 308.6,218.6 235.3,218.6 	"/>
</g>
</svg>
