<?xml version="1.0" encoding="utf-8"?>
<!-- Generator: Adobe Illustrator 16.0.0, SVG Export Plug-In . SVG Version: 6.00 Build 0)  -->
<!DOCTYPE svg PUBLIC "-//W3C//DTD SVG 1.1//EN" "http://www.w3.org/Graphics/SVG/1.1/DTD/svg11.dtd">
<svg version="1.1"
	 id="svg2" xmlns:dc="http://purl.org/dc/elements/1.1/" xmlns:svg="http://www.w3.org/2000/svg" xmlns:cc="http://creativecommons.org/ns#" xmlns:inkscape="http://www.inkscape.org/namespaces/inkscape" xmlns:rdf="http://www.w3.org/1999/02/22-rdf-syntax-ns#" xmlns:sodipodi="http://sodipodi.sourceforge.net/DTD/sodipodi-0.dtd" inkscape:export-filename="R:\Media\Pictures\Logos\Facebook Home (Clear).png" inkscape:export-xdpi="230.97745" inkscape:version="0.48.3.1 r9886" inkscape:export-ydpi="230.97745" sodipodi:docname="Facebook Home (Clear).svg"
	 xmlns="http://www.w3.org/2000/svg" xmlns:xlink="http://www.w3.org/1999/xlink" x="0px" y="0px" width="512px" height="512px"
	 viewBox="0 0 512 512" style="enable-background:new 0 0 512 512;" xml:space="preserve">
<g id="vfUEPm_1_">
</g>
<g>
	<path d="M281.5,118.7c-2.5-2-5.3-3.3-8.5-4c-3.2-0.7-6.6-1.1-10.2-1.1h-40.3V165h39.9c3.1,0,6.2-0.4,9.4-1.3
		c3.2-0.9,6.1-2.3,8.8-4.3c2.7-2,4.9-4.6,6.5-7.8c1.7-3.3,2.5-7.4,2.5-12.3c0-5.1-0.7-9.3-2.2-12.7
		C285.9,123.3,284,120.6,281.5,118.7z"/>
	<path d="M419.6,0.3H92.4C64.4,0.3,43,21.6,43,49.6V271v191.5c0,7,1.3,13.6,3.8,19.5c0,0.1,0.1,0.3,0.2,0.4
		c6.2,14.6,19,25.3,35.2,28.4c3.3,0.6,6.7,1,10.1,1h213.1V387.6c0-27.2,22.1-49.3,49.3-49.3H469v-61.8V49.6
		C469,21.6,447.6,0.3,419.6,0.3z M314.7,155.1c-1.4,5.6-4,10.8-7.7,15.6c-3.8,4.8-9.2,8.8-16.1,11.9c-7,3.1-16,4.7-27,4.7h-41.4
		v59.7h-27.2V91.3h68.6c11,0,20.1,1.6,27,4.8c7,3.2,12.4,7.2,16.1,12c3.8,4.8,6.4,10,7.7,15.7c1.4,5.7,2.1,10.9,2.1,15.7
		C316.8,144.3,316.1,149.4,314.7,155.1z"/>
	<path d="M321.8,387.6v124.1l147.1-157H354.7C336.6,354.8,321.8,369.5,321.8,387.6z"/>
</g>
</svg>
