<?xml version="1.0" encoding="utf-8"?>
<!-- Generator: Adobe Illustrator 16.0.0, SVG Export Plug-In . SVG Version: 6.00 Build 0)  -->
<!DOCTYPE svg PUBLIC "-//W3C//DTD SVG 1.1//EN" "http://www.w3.org/Graphics/SVG/1.1/DTD/svg11.dtd">
<svg version="1.1"
	 id="svg2" xmlns:dc="http://purl.org/dc/elements/1.1/" xmlns:svg="http://www.w3.org/2000/svg" xmlns:cc="http://creativecommons.org/ns#" xmlns:inkscape="http://www.inkscape.org/namespaces/inkscape" xmlns:rdf="http://www.w3.org/1999/02/22-rdf-syntax-ns#" xmlns:sodipodi="http://sodipodi.sourceforge.net/DTD/sodipodi-0.dtd" inkscape:export-filename="R:\Media\Pictures\Logos\Facebook Home (Clear).png" inkscape:version="0.48.3.1 r9886" inkscape:export-ydpi="230.97745" inkscape:export-xdpi="230.97745" sodipodi:docname="Facebook Home (Clear).svg"
	 xmlns="http://www.w3.org/2000/svg" xmlns:xlink="http://www.w3.org/1999/xlink" x="0px" y="0px" width="512px" height="512px"
	 viewBox="0 0 512 512" style="enable-background:new 0 0 512 512;" xml:space="preserve">
<style type="text/css">
<![CDATA[
	.st0{fill:#9B9B9B;}
]]>
</style>
<g>
	<path class="st0" d="M511.3,110.9c-2.4-51.7-46.1-94.1-98.3-94.1H180.1c-18.3,0-35.4,5.4-50.2,14.4L141.7,43
		c11.5-6.2,24.4-10.1,38.4-10.1H413c44.8,0,80.6,35.8,80.6,80.6v283.1c0,44.8-35.8,80.6-80.6,80.6H180.1
		c-44.8,0-80.6-35.8-80.6-80.6V247.5l-17.8-17.8c-0.1,78.5-0.1,167-0.1,167c0,53.8,44.8,98.6,98.6,98.6H413
		c53.8,0,98.6-44.8,98.6-98.6C511.6,396.7,511.4,111.8,511.3,110.9z"/>
	<path class="st0" d="M269.8,367.1c1,0.9,2.2,1.5,3.6,1.9l76.2,14.6c0.5,0.1,1,0.4,1.4,0.4c2,0,3.9-1,5.4-2.2c0-0.3,0.1-0.4,0.1-0.4
		c0.1,0,0.1-0.1,0.2-0.1c1.8-1.8,2.6-4.3,2.1-6.8l-14.8-76.2c-0.3-1.4-0.9-2.6-1.8-3.6l-31.9,31.9l-8.6,8.6L269.8,367.1z"/>
	<polygon class="st0" points="244.4,341.7 317.1,269.1 121,73 120.7,72.7 48,145.3 48,145.3 	"/>
	<path class="st0" d="M78.3,30.3c-3.5-3.5-8.1-5.2-12.7-5.2c-4.6,0-9.2,1.7-12.7,5.2L5.6,77.6c-7,7.1-7,18.3,0,25.3l16.8,16.8
		L95.2,47L78.3,30.3z"/>
</g>
</svg>
