<?xml version="1.0" encoding="utf-8"?>
<!-- Generator: Adobe Illustrator 16.0.0, SVG Export Plug-In . SVG Version: 6.00 Build 0)  -->
<!DOCTYPE svg PUBLIC "-//W3C//DTD SVG 1.0//EN" "http://www.w3.org/TR/2001/REC-SVG-20010904/DTD/svg10.dtd">
<svg version="1.0"
	 id="svg2" xmlns:sodipodi="http://sodipodi.sourceforge.net/DTD/sodipodi-0.dtd" xmlns:rdf="http://www.w3.org/1999/02/22-rdf-syntax-ns#" xmlns:dc="http://purl.org/dc/elements/1.1/" xmlns:svg="http://www.w3.org/2000/svg" xmlns:cc="http://creativecommons.org/ns#" xmlns:inkscape="http://www.inkscape.org/namespaces/inkscape" inkscape:export-filename="R:\Media\Pictures\Logos\Facebook Home (Clear).png" sodipodi:docname="Facebook Home (Clear).svg" inkscape:version="0.48.3.1 r9886" inkscape:export-ydpi="230.97745" inkscape:export-xdpi="230.97745"
	 xmlns="http://www.w3.org/2000/svg" xmlns:xlink="http://www.w3.org/1999/xlink" x="0px" y="0px" width="512px" height="512px"
	 viewBox="0 0 512 512" style="enable-background:new 0 0 512 512;" xml:space="preserve">
<g>
	<path d="M465.4,29.8c0-0.2-0.2-0.3-0.2-0.4c0,0,0,0,0,0c-1.4-3.3-3.2-6.4-5.3-9.3c-0.6-0.8-1.3-1.5-1.9-2.3c-1.6-2-3.4-3.9-5.4-5.6
		c-0.9-0.8-1.8-1.5-2.7-2.2c-2-1.5-4.2-2.9-6.5-4.1c-1-0.5-1.8-1-2.8-1.5c-6-2.7-12.6-4.2-19.8-4.3c-0.3,0-0.6-0.1-1-0.1h0H206.5
		H92.2c-28,0-49.4,21.4-49.4,49.4V271v191.7c0,7,1.4,13.6,3.8,19.6c0.1,0.1,0.2,0.3,0.2,0.4c0,0,0,0,0,0.1c1.4,3.3,3.2,6.4,5.3,9.3
		c0.6,0.8,1.3,1.5,1.9,2.3c1.7,2,3.4,3.9,5.4,5.6c0.9,0.8,1.8,1.5,2.7,2.2c2.1,1.5,4.2,2.9,6.6,4.1c0.9,0.5,1.8,1.1,2.8,1.5
		c6,2.7,12.6,4.2,19.7,4.3c0.3,0,0.6,0.1,1,0.1h0h213.3h114.4c28,0,49.4-21.4,49.4-49.4V241V49.3C469.2,42.3,467.9,35.8,465.4,29.8z
		 M274.4,351.2h-38.5v-35.9h38.5V351.2z M319.6,216.6c-1.4,4.9-3.3,9.1-5.8,12.6c-2.4,3.6-5.1,6.7-8.2,9.5c-3.1,2.8-6.1,5.5-9.2,8.2
		c-3.6,3-7,6-10.1,8.9c-3.1,2.9-5.7,6.1-8,9.6c-2.3,3.5-4.1,7.7-5.3,12.5c-1.3,4.8-1.9,10.6-1.9,17.5h-31c0-8.4,0.4-15.5,1.3-21.4
		c0.9-5.8,2.2-10.9,4.2-15.4c1.9-4.4,4.3-8.3,7.1-11.6c2.8-3.3,6-6.7,9.9-9.9c3.1-2.7,6-5.2,8.8-7.5c2.8-2.3,5.3-4.8,7.5-7.6
		c2.2-2.8,3.9-5.9,5.2-9.3c1.3-3.5,1.9-7.6,1.9-12.3c0-5.8-1-10.7-3-14.8c-2-4.1-4.5-7.4-7.3-9.9c-2.9-2.5-5.9-4.3-9.2-5.5
		c-3.3-1.1-6.1-1.7-8.6-1.7c-11.9,0-20.6,3.9-26.3,11.6c-5.6,7.8-8.5,18.2-8.5,31.1h-32.8c0-10.5,1.6-20.1,4.7-28.7
		c3.2-8.6,7.8-16,13.8-22.1c6-6.1,13.3-10.9,21.9-14.2c8.5-3.3,18-5,28.6-5c8.8,0,17,1.3,24.6,3.9c7.6,2.6,14.2,6.3,19.8,11.2
		c5.6,4.9,10.1,11,13.4,18.2c3.2,7.3,4.9,15.5,4.9,24.7C321.8,205.9,321.1,211.7,319.6,216.6z"/>
</g>
</svg>
