<?xml version="1.0" encoding="utf-8"?>
<!-- Generator: Adobe Illustrator 16.0.0, SVG Export Plug-In . SVG Version: 6.00 Build 0)  -->
<!DOCTYPE svg PUBLIC "-//W3C//DTD SVG 1.1//EN" "http://www.w3.org/Graphics/SVG/1.1/DTD/svg11.dtd">
<svg version="1.1"
	 id="svg2" xmlns:sodipodi="http://sodipodi.sourceforge.net/DTD/sodipodi-0.dtd" xmlns:rdf="http://www.w3.org/1999/02/22-rdf-syntax-ns#" xmlns:dc="http://purl.org/dc/elements/1.1/" xmlns:svg="http://www.w3.org/2000/svg" xmlns:cc="http://creativecommons.org/ns#" xmlns:inkscape="http://www.inkscape.org/namespaces/inkscape" inkscape:export-xdpi="230.97745" sodipodi:docname="Facebook Home (Clear).svg" inkscape:export-ydpi="230.97745" inkscape:version="0.48.3.1 r9886" inkscape:export-filename="R:\Media\Pictures\Logos\Facebook Home (Clear).png"
	 xmlns="http://www.w3.org/2000/svg" xmlns:xlink="http://www.w3.org/1999/xlink" x="0px" y="0px" width="512px" height="512px"
	 viewBox="0 0 512 512" style="enable-background:new 0 0 512 512;" xml:space="preserve">
<g>
	<path d="M363.3,0.4H116.1v16.3h247.1c58.4,0,105.9,47.5,105.9,105.9v299.5h16.3V122.6C485.5,55.2,430.6,0.4,363.3,0.4z"/>
	<path d="M346.9,49.3H116.1c-49.4,0-89.6,40.2-89.6,89.6V422c0,49.4,40.2,89.6,89.6,89.6h230.8c49.4,0,89.6-40.2,89.6-89.6V138.9
		C436.5,89.5,396.3,49.3,346.9,49.3z M420.2,422c0,40.4-32.9,73.3-73.3,73.3H116.1c-40.4,0-73.3-32.9-73.3-73.3V138.9
		c0-40.4,32.9-73.3,73.3-73.3h230.8c40.4,0,73.3,32.9,73.3,73.3V422z"/>
	<path d="M306.9,194.4c-8.8-10.2-19.6-18.3-32.3-24.3c-12.7-6-27.1-9-43.1-9c-16,0-30.4,3-43.1,9c-12.7,6-23.5,14.1-32.3,24.3
		c-8.8,10.2-15.6,22.1-20.3,35.7c-4.7,13.6-7,28-7,43.2c0,15.4,2.3,29.9,7,43.5c4.7,13.6,11.5,25.5,20.3,35.7
		c8.8,10.2,19.6,18.2,32.3,24.2c12.7,5.9,27,8.8,43.1,8.8c8.4,0,16.9-1,25.5-3c8.6-2,16.9-5.3,24.9-9.9l31.2,27.3l18.3-20.4
		l-27.6-24c5.4-5,10-10.8,13.8-17.2c3.8-6.5,6.9-13.4,9.3-20.6c2.4-7.2,4.2-14.5,5.4-22.1c1.2-7.5,1.8-14.9,1.8-22.3
		c0-15.2-2.4-29.6-7.1-43.2C322.4,216.5,315.6,204.6,306.9,194.4z M292.4,305.1c-2.8,10.4-7.6,19.7-14.4,27.9l-26.1-22.8l-18,20.7
		l21.6,18.9c-3.8,1.8-7.7,3.1-11.9,3.9c-4.1,0.8-8.1,1.2-12.1,1.2c-11.4,0-21.3-2.3-29.6-6.9c-8.3-4.6-15.1-10.8-20.3-18.5
		c-5.2-7.7-9-16.5-11.6-26.3c-2.5-9.8-3.7-19.8-3.7-30c0-10.2,1.3-20.2,3.7-30c2.5-9.8,6.4-18.6,11.6-26.3
		c5.2-7.7,12-13.8,20.3-18.4c8.3-4.6,18.2-6.9,29.6-6.9c11.4,0,21.3,2.3,29.6,6.9c8.3,4.6,15,10.8,20.2,18.4
		c5.2,7.7,9.1,16.5,11.6,26.3c2.5,9.8,3.7,19.8,3.7,30C296.6,284.1,295.2,294.7,292.4,305.1z"/>
</g>
</svg>
