<?xml version="1.0" encoding="utf-8"?>
<!-- Generator: Adobe Illustrator 16.0.0, SVG Export Plug-In . SVG Version: 6.00 Build 0)  -->
<!DOCTYPE svg PUBLIC "-//W3C//DTD SVG 1.1//EN" "http://www.w3.org/Graphics/SVG/1.1/DTD/svg11.dtd">
<svg version="1.1"
	 id="svg2" xmlns:dc="http://purl.org/dc/elements/1.1/" xmlns:svg="http://www.w3.org/2000/svg" xmlns:cc="http://creativecommons.org/ns#" xmlns:inkscape="http://www.inkscape.org/namespaces/inkscape" xmlns:rdf="http://www.w3.org/1999/02/22-rdf-syntax-ns#" xmlns:sodipodi="http://sodipodi.sourceforge.net/DTD/sodipodi-0.dtd" inkscape:export-filename="R:\Media\Pictures\Logos\Facebook Home (Clear).png" inkscape:export-xdpi="230.97745" inkscape:version="0.48.3.1 r9886" inkscape:export-ydpi="230.97745" sodipodi:docname="Facebook Home (Clear).svg"
	 xmlns="http://www.w3.org/2000/svg" xmlns:xlink="http://www.w3.org/1999/xlink" x="0px" y="0px" width="512px" height="512px"
	 viewBox="0 0 512 512" style="enable-background:new 0 0 512 512;" xml:space="preserve">
<g>
	<path d="M291.7,128.8c-3.7-5.5-8.6-9.9-14.5-13.2c-6-3.3-13-5-21.2-5c-8.2,0-15.2,1.7-21.2,5c-6,3.3-10.8,7.7-14.5,13.2
		c-3.7,5.5-6.5,11.8-8.3,18.9c-1.8,7-2.7,14.2-2.7,21.5c0,7.3,0.9,14.5,2.7,21.5c1.8,7,4.6,13.3,8.3,18.9c3.7,5.5,8.6,9.9,14.5,13.2
		c6,3.3,13,4.9,21.2,4.9c2.9,0,5.8-0.3,8.7-0.9c3-0.6,5.8-1.5,8.5-2.8l-15.5-13.6l12.9-14.9l18.7,16.4c4.9-5.9,8.3-12.6,10.3-20
		c2-7.5,3-15.1,3-22.8c0-7.3-0.9-14.5-2.7-21.5C298.2,140.6,295.5,134.3,291.7,128.8z"/>
	<path d="M419.7,0.2H92.3C64.4,0.2,43,21.6,43,49.5V271v191.5c0,7,1.3,13.6,3.8,19.5c0,0.1,0.2,0.3,0.2,0.4
		c6.2,14.6,19.1,25.3,35.2,28.5c3.3,0.6,6.7,1,10.2,1h213.1V387.7c0-27.2,22.1-49.4,49.3-49.4H469v-61.9V49.5
		C469,21.6,447.6,0.2,419.7,0.2z M328.4,185.2c-0.9,5.4-2.1,10.7-3.9,15.8c-1.7,5.2-3.9,10.1-6.7,14.8c-2.7,4.7-6,8.8-9.9,12.4
		l19.8,17.2L314.6,260l-22.4-19.6c-5.7,3.3-11.7,5.7-17.9,7.1c-6.2,1.4-12.3,2.1-18.3,2.1c-11.5,0-21.8-2.1-30.9-6.3
		c-9.1-4.2-16.8-10-23.2-17.3c-6.3-7.3-11.1-15.9-14.5-25.6c-3.4-9.8-5.1-20.2-5.1-31.2c0-10.9,1.7-21.3,5.1-31
		c3.4-9.8,8.2-18.3,14.5-25.6c6.3-7.3,14-13.1,23.2-17.4c9.1-4.3,19.4-6.5,30.9-6.5c11.5,0,21.8,2.2,30.9,6.5
		c9.1,4.3,16.8,10.1,23.2,17.4c6.3,7.3,11.2,15.9,14.5,25.6c3.4,9.8,5.1,20.1,5.1,31C329.7,174.5,329.2,179.8,328.4,185.2z"/>
	<path d="M321.8,387.7v124.1l147.2-157H354.7C336.6,354.8,321.8,369.5,321.8,387.7z"/>
</g>
</svg>
