<?xml version="1.0" encoding="utf-8"?>
<!-- Generator: Adobe Illustrator 16.0.0, SVG Export Plug-In . SVG Version: 6.00 Build 0)  -->
<!DOCTYPE svg PUBLIC "-//W3C//DTD SVG 1.1//EN" "http://www.w3.org/Graphics/SVG/1.1/DTD/svg11.dtd">
<svg version="1.1"
	 id="svg2" inkscape:version="0.48.3.1 r9886" sodipodi:docname="Facebook Home (Clear).svg" inkscape:export-ydpi="230.97745" inkscape:export-xdpi="230.97745" inkscape:export-filename="R:\Media\Pictures\Logos\Facebook Home (Clear).png" xmlns:svg="http://www.w3.org/2000/svg" xmlns:cc="http://creativecommons.org/ns#" xmlns:rdf="http://www.w3.org/1999/02/22-rdf-syntax-ns#" xmlns:inkscape="http://www.inkscape.org/namespaces/inkscape" xmlns:dc="http://purl.org/dc/elements/1.1/" xmlns:sodipodi="http://sodipodi.sourceforge.net/DTD/sodipodi-0.dtd"
	 xmlns="http://www.w3.org/2000/svg" xmlns:xlink="http://www.w3.org/1999/xlink" x="0px" y="0px" width="512px" height="512px"
	 viewBox="0 0 512 512" style="enable-background:new 0 0 512 512;" xml:space="preserve">
<g>
	<path d="M389.7,47H72c-26.5,0-48,21.5-48,48v369c0,26.5,21.5,48,48,48h317.6c26.5,0,48-21.5,48-48V95C437.7,68.5,416.2,47,389.7,47
		z M307,372.1l-29.4-22.4c-6.5,3.3-13.4,6-20.7,8.1c-8.3,2.3-17.4,3.5-27.1,3.5c-29.6,0-53.1-9.9-70-29.4
		c-14.9-18.9-22.4-42.7-22.4-70.9c0-25.5,6.5-47.8,19.2-66c16.5-23.7,41.3-35.7,73.5-35.7c33.6,0,58.9,11.1,75.2,32.8
		c12.6,16.9,19,38.7,19,64.8c0,12.1-1.5,23.9-4.5,35.1c-4.1,15.6-11,28.8-20.3,39.3l25,19.5L307,372.1z"/>
	<path d="M231.6,189.5c-18.6,0-33.4,5.9-44.2,17.7c-10.8,11.8-16.3,30.6-16.3,55.7c0,21,5.3,37.9,15.8,50.2
		c10.3,12.1,25.8,18.2,46,18.2c4.9,0,9.6-0.3,13.9-1c1.7-0.3,3.3-0.6,4.8-1.1l-18.3-14.2l17.5-21.6l24,18.7
		c5.8-7.4,9.9-15.7,12.2-24.6c2.6-10.4,3.9-20.5,3.9-29.9c0-20.5-5.4-37.2-16-49.6C264.3,195.5,250.1,189.5,231.6,189.5z"/>
	<path d="M400,0H71.8v16H400c39.7,0,72,32.3,72,72v375.6h16V88C488,39.5,448.5,0,400,0z"/>
</g>
</svg>
