<?xml version="1.0" encoding="utf-8"?>
<!-- Generator: Adobe Illustrator 16.0.0, SVG Export Plug-In . SVG Version: 6.00 Build 0)  -->
<!DOCTYPE svg PUBLIC "-//W3C//DTD SVG 1.1//EN" "http://www.w3.org/Graphics/SVG/1.1/DTD/svg11.dtd">
<svg version="1.1"
	 id="svg2" xmlns:dc="http://purl.org/dc/elements/1.1/" xmlns:svg="http://www.w3.org/2000/svg" xmlns:cc="http://creativecommons.org/ns#" xmlns:inkscape="http://www.inkscape.org/namespaces/inkscape" xmlns:rdf="http://www.w3.org/1999/02/22-rdf-syntax-ns#" xmlns:sodipodi="http://sodipodi.sourceforge.net/DTD/sodipodi-0.dtd" sodipodi:docname="Facebook Home (Clear).svg" inkscape:version="0.48.3.1 r9886" inkscape:export-ydpi="230.97745" inkscape:export-xdpi="230.97745" inkscape:export-filename="R:\Media\Pictures\Logos\Facebook Home (Clear).png"
	 xmlns="http://www.w3.org/2000/svg" xmlns:xlink="http://www.w3.org/1999/xlink" x="0px" y="0px" width="512px" height="512px"
	 viewBox="0 0 512 512" style="enable-background:new 0 0 512 512;" xml:space="preserve">
<g>
	<path d="M0,480.6V287.4c0-34.8,3.8-67.6,11.3-98.4c7.5-30.7,19.1-57.7,34.8-81c15.7-23.2,35.7-41.8,60.1-55.7
		c24.4-13.9,52.8-20.9,85.3-20.9v87.1c-19.8,0-36,5-48.8,14.8c-12.8,9.9-23.2,22.9-31.3,39.2c-8.1,16.3-13.7,34.5-16.5,54.8
		c-2.9,20.3-4.4,40.4-4.4,60.1h102.7v193.3H0z M318.7,480.6V287.4c0-34.8,3.8-67.6,11.3-98.4c7.5-30.7,19.1-57.7,34.8-81
		c15.7-23.2,35.7-41.8,60.1-55.7c24.4-13.9,52.8-20.9,85.3-20.9v87.1c-19.8,0-36,5-48.7,14.8c-12.8,9.9-23.2,22.9-31.4,39.2
		c-8.1,16.3-13.7,34.5-16.5,54.8c-2.9,20.3-4.3,40.4-4.3,60.1H512v193.3H318.7z"/>
</g>
</svg>
