<?xml version="1.0" encoding="utf-8"?>
<!-- Generator: Adobe Illustrator 16.0.0, SVG Export Plug-In . SVG Version: 6.00 Build 0)  -->
<!DOCTYPE svg PUBLIC "-//W3C//DTD SVG 1.1//EN" "http://www.w3.org/Graphics/SVG/1.1/DTD/svg11.dtd">
<svg version="1.1"
	 id="svg2" xmlns:svg="http://www.w3.org/2000/svg" xmlns:cc="http://creativecommons.org/ns#" xmlns:rdf="http://www.w3.org/1999/02/22-rdf-syntax-ns#" xmlns:inkscape="http://www.inkscape.org/namespaces/inkscape" xmlns:dc="http://purl.org/dc/elements/1.1/" xmlns:sodipodi="http://sodipodi.sourceforge.net/DTD/sodipodi-0.dtd" inkscape:version="0.48.3.1 r9886" inkscape:export-ydpi="230.97745" inkscape:export-xdpi="230.97745" sodipodi:docname="Facebook Home (Clear).svg" inkscape:export-filename="R:\Media\Pictures\Logos\Facebook Home (Clear).png"
	 xmlns="http://www.w3.org/2000/svg" xmlns:xlink="http://www.w3.org/1999/xlink" x="0px" y="0px" width="512px" height="512px"
	 viewBox="0 0 512 512" style="enable-background:new 0 0 512 512;" xml:space="preserve">
<g>
	<path d="M511.9,379.8c0-0.4,0-0.9,0-1.3c0-17.4,0-59.4-0.1-104.5c0-2.9,0-5.8,0-8.7c0-4.2,0-8.4,0-12.6
		c-0.1-65.9-0.1-131.5-0.1-131.9c-1.8-38-27.6-70.2-62.3-82.3c-2.7-1-5.4-1.8-8.1-2.5c-1.9-0.5-3.8-0.9-5.8-1.3
		c-5-0.9-10.1-1.6-15.4-1.6H268.6c11.8,4.3,22.9,9.4,33.5,15h118c4.3,0,8.5,0.6,12.6,1.3c1.7,0.3,3.4,0.6,5.1,1c1.7,0.4,3.4,1,5,1.5
		c4.5,1.5,8.9,3.3,13,5.5c23.4,12.7,39.4,37.1,39.4,65.8V248v139c0,41.7-33.4,75.1-75.1,75.1h-217c-41.7,0-75.1-33.4-75.1-75.1v-57
		c-5.6-1.7-11.2-3.6-16.7-5.7c0,23.9,0,43.5,0,54.1c0,0.4,0,1,0,1.3c0,2,0,3.6,0,4.7c0,1.6,0,2.5,0,2.5c0,50.1,41.7,91.8,91.8,91.8
		h217c50.1,0,91.8-41.7,91.8-91.8c0,0,0-1,0-2.5C511.9,383.4,511.9,381.9,511.9,379.8z"/>
	<path d="M127.9,295c19.6,6.8,40.6,11,62.5,11c22.2,0,43.5-4.4,63.5-11.4h174.5c4.6,0,8.4-3.8,8.4-8.4c0-4.6-3.8-8.3-8.4-8.3H290.8
		c34.1-19.1,61.1-44.8,76.3-66.8h61.3c4.6,0,8.4-3.8,8.4-8.3c0-4.6-3.8-8.3-8.4-8.3h-51.6c2.6-5.9,4-11.2,4-15.6
		c0-1.9-0.3-4.1-0.9-6.4c-0.1-0.4-0.2-0.9-0.3-1.3c-0.5-2-1.3-4.1-2.2-6.3c-0.4-1-0.9-2.1-1.4-3.1c-0.8-1.6-1.6-3.2-2.5-4.9
		c-1.1-1.9-2.2-3.9-3.5-5.9c-0.1-0.2-0.3-0.4-0.4-0.6c-2.2-3.5-4.8-7.1-7.7-10.8c0,0,0,0,0,0c-3-3.9-6.4-7.8-10.1-11.8h76.7
		c4.6,0,8.4-3.7,8.4-8.3c0-4.6-3.8-8.3-8.4-8.3h-93.9C305.8,85.6,266,62.3,220.9,54.6c-2.8-0.5-5.6-1-8.4-1.3
		c-2.1-0.2-4.1-0.4-6.1-0.6c-5.3-0.5-10.6-0.9-16-0.9c-3.8,0-7.4,0.3-11.1,0.6c-1.6,0.1-3.3,0.1-4.9,0.3c-2,0.2-4.1,0.4-6.1,0.6
		c-2.8,0.3-5.6,0.9-8.4,1.3c-6.8,1.2-13.5,2.8-20.1,4.6C86.8,74,42.7,108.9,19,139.4c0,0,0,0,0,0c-2.9,3.7-5.4,7.3-7.7,10.8
		c-0.1,0.2-0.3,0.4-0.4,0.6c-1.3,2-2.5,4-3.5,5.9c-0.9,1.7-1.8,3.3-2.5,4.9c-0.5,1-0.9,2.1-1.4,3.1c-0.9,2.2-1.7,4.3-2.2,6.3
		c-0.1,0.5-0.2,0.9-0.3,1.3c-0.6,2.3-0.9,4.5-0.9,6.4c0,25.4,46.1,81.2,111.3,109.6C116.7,291,122.3,293.1,127.9,295z M127.9,123.2
		c10.1-21.6,31.8-36.7,57.2-36.7c2.3,0,4.3,0.8,6.1,2c3.2,2,5.4,5.4,5.4,9.5c0,6.3-5.1,11.5-11.5,11.5c-22.3,0-40.4,18.1-40.4,40.4
		c0,6.4-5.1,11.5-11.5,11.5c-2,0-3.8-0.6-5.4-1.5c-1.7-1-3.1-2.3-4.1-3.9c-1.1-1.7-2-3.8-2-6C121.8,140.3,124.1,131.3,127.9,123.2z
		 M30.7,178.9c1.8-11.6,33.9-51.6,81.8-76.3c-4.4,6.6-7.8,13.7-10.5,21.3c0,0,0,0,0,0c-0.7,2.2-1.4,4.4-2.1,6.6
		c-0.8,2.9-1.5,5.8-2,8.7c-0.2,1.2-0.4,2.5-0.5,3.8c-0.5,3.9-0.9,7.9-0.9,12c0,18.6,5.5,35.9,14.8,50.4c4.6,7.2,10.2,13.7,16.6,19.4
		c16.6,14.9,38.5,24,62.5,24c51.8,0,93.9-42.1,93.9-93.9c0-4.1-0.4-8.1-0.9-12c-0.2-1.3-0.3-2.5-0.5-3.8c-0.5-3-1.2-5.9-2-8.7
		c-0.6-2.3-1.3-4.5-2.1-6.6v0c-2.7-7.6-6.1-14.7-10.5-21.3c47.9,24.7,80,64.6,81.8,76.3c-2.4,16-63,86.8-143.3,95.6
		c-5.4,0.6-10.8,0.9-16.4,0.9c-5.5,0-11-0.3-16.4-0.9c-16.3-1.8-31.7-6.2-46.1-12.2c-5.7-2.4-11.3-5-16.6-7.8
		C64.1,229.8,32.5,190.4,30.7,178.9z"/>
	<path d="M428.4,361.5H194.8c-4.6,0-8.3,3.7-8.3,8.3c0,4.6,3.7,8.3,8.3,8.3h233.6c4.6,0,8.4-3.8,8.4-8.3
		C436.8,365.2,433,361.5,428.4,361.5z"/>
</g>
</svg>
