<?xml version="1.0" encoding="utf-8"?>
<!-- Generator: Adobe Illustrator 16.0.0, SVG Export Plug-In . SVG Version: 6.00 Build 0)  -->
<!DOCTYPE svg PUBLIC "-//W3C//DTD SVG 1.1//EN" "http://www.w3.org/Graphics/SVG/1.1/DTD/svg11.dtd">
<svg version="1.1"
	 id="svg2" xmlns:sodipodi="http://sodipodi.sourceforge.net/DTD/sodipodi-0.dtd" xmlns:rdf="http://www.w3.org/1999/02/22-rdf-syntax-ns#" xmlns:dc="http://purl.org/dc/elements/1.1/" xmlns:svg="http://www.w3.org/2000/svg" xmlns:cc="http://creativecommons.org/ns#" xmlns:inkscape="http://www.inkscape.org/namespaces/inkscape" inkscape:export-xdpi="230.97745" sodipodi:docname="Facebook Home (Clear).svg" inkscape:export-ydpi="230.97745" inkscape:version="0.48.3.1 r9886" inkscape:export-filename="R:\Media\Pictures\Logos\Facebook Home (Clear).png"
	 xmlns="http://www.w3.org/2000/svg" xmlns:xlink="http://www.w3.org/1999/xlink" x="0px" y="0px" width="512px" height="512px"
	 viewBox="0 0 512 512" style="enable-background:new 0 0 512 512;" xml:space="preserve">
<g>
	<path d="M363.2,0.5h-247v16.3h247.1c58.4,0,105.9,47.5,105.9,105.9V422h16.3V122.6C485.4,55.2,430.6,0.5,363.2,0.5z"/>
	<path d="M346.9,49.4H116.2c-49.4,0-89.6,40.2-89.6,89.6v283c0,49.4,40.2,89.6,89.6,89.6h230.7c49.4,0,89.6-40.2,89.6-89.6V139
		C436.5,89.5,396.3,49.4,346.9,49.4z M420.2,422c0,40.4-32.9,73.3-73.3,73.3H116.2c-40.4,0-73.3-32.9-73.3-73.3V139
		c0-40.4,32.9-73.3,73.3-73.3h230.7c40.4,0,73.3,32.9,73.3,73.3V422z"/>
	<path d="M314.5,329.9c0-8.2-1-15-3.1-20.5c-2.1-5.5-4.6-9.9-7.8-13.3c-3.1-3.4-6.5-5.9-10.1-7.5c-3.6-1.6-7-2.5-10.1-2.9v-0.6
		c1.8-0.6,4.5-1.8,8.3-3.5c3.8-1.8,7.7-4.6,11.6-8.6c3.9-4,7.3-9.3,10.2-15.8s4.4-14.8,4.4-24.7c0-17.8-5.8-31.6-17.3-41.6
		C289.2,180.9,272,176,249,176h-99.8v209h36.6v-86.1h53.9c8.4,0,15.3,1.1,20.6,3.2c5.4,2.1,9.6,5.5,12.7,10.1
		c3.1,4.6,5.3,10.3,6.5,17.3c1.2,6.9,1.8,15.2,1.8,24.7c0,5.1,0.2,10.3,0.7,15.8s2.1,10.4,4.8,14.9H326c-3.9-4.3-6.8-11.5-8.6-21.5
		C315.4,353.4,314.5,342.2,314.5,329.9z M272.4,262.8c-6.1,5.6-14.9,8.3-26.6,8.3h-60v-65.3h59.4c4.7,0,9.2,0.4,13.6,1.2
		c4.4,0.8,8.3,2.3,11.7,4.7c3.4,2.3,6.1,5.6,8,9.8c2,4.2,2.9,9.6,2.9,16.3C281.4,248.8,278.4,257.2,272.4,262.8z"/>
</g>
</svg>
