<?xml version="1.0" encoding="utf-8"?>
<!-- Generator: Adobe Illustrator 16.0.0, SVG Export Plug-In . SVG Version: 6.00 Build 0)  -->
<!DOCTYPE svg PUBLIC "-//W3C//DTD SVG 1.1//EN" "http://www.w3.org/Graphics/SVG/1.1/DTD/svg11.dtd">
<svg version="1.1"
	 id="svg2" xmlns:dc="http://purl.org/dc/elements/1.1/" xmlns:svg="http://www.w3.org/2000/svg" xmlns:cc="http://creativecommons.org/ns#" xmlns:inkscape="http://www.inkscape.org/namespaces/inkscape" xmlns:rdf="http://www.w3.org/1999/02/22-rdf-syntax-ns#" xmlns:sodipodi="http://sodipodi.sourceforge.net/DTD/sodipodi-0.dtd" inkscape:export-filename="R:\Media\Pictures\Logos\Facebook Home (Clear).png" inkscape:version="0.48.3.1 r9886" inkscape:export-ydpi="230.97745" inkscape:export-xdpi="230.97745" sodipodi:docname="Facebook Home (Clear).svg"
	 xmlns="http://www.w3.org/2000/svg" xmlns:xlink="http://www.w3.org/1999/xlink" x="0px" y="0px" width="512px" height="512px"
	 viewBox="0 0 512 512" style="enable-background:new 0 0 512 512;" xml:space="preserve">
<style type="text/css">
<![CDATA[
	.st0{fill:#9B9B9B;}
]]>
</style>
<g>
	<path class="st0" d="M485.6,276.6c0-3.3,0-6.6,0-10c0-4.8,0-9.6,0-14.5c-0.1-75.6-0.1-150.7-0.2-151.1c-2-43.6-31.6-80.5-71.4-94.4
		c-3-1.2-6.1-2.1-9.2-2.9c-2.1-0.5-4.4-1.1-6.7-1.5c-5.8-1-11.6-1.8-17.6-1.8H131.7c-6,0-11.8,0.7-17.7,1.8
		c-2.3,0.4-4.4,0.9-6.7,1.5c-3.2,0.8-6.3,1.8-9.3,2.9C58.3,20.4,28.7,57.2,26.6,101c0,0.5-0.1,75.6-0.2,151.1c0,4.8,0,9.7,0,14.5
		c0,3.3,0,6.7,0,10c0,51.7-0.1,99.8-0.1,119.8c0,0.5,0,1.2,0,1.5c0,2.3,0,4.1,0,5.4c0,1.8,0,2.9,0,2.9
		c0,57.4,47.9,105.3,105.3,105.3h248.8c57.4,0,105.3-47.9,105.3-105.3c0,0,0-1.2,0-2.9c0-1.4,0-3.1,0-5.4c0-0.4,0-1,0-1.5
		C485.7,376.4,485.7,328.3,485.6,276.6z M466.6,246.9v159.3c0,47.9-38.3,86.1-86.1,86.1H131.7c-47.9,0-86.1-38.3-86.1-86.1V246.9
		V103.8c0-33.1,18.3-61,45.1-75.4c4.7-2.6,9.8-4.6,14.9-6.3c1.9-0.6,3.7-1.2,5.8-1.8c2-0.5,3.8-0.8,5.9-1.2
		c4.7-0.8,9.5-1.2,14.5-1.2h248.8c5,0,9.8,0.4,14.5,1.2c2,0.4,3.9,0.7,5.9,1.2c2,0.4,3.8,1.2,5.8,1.8c5.2,1.7,10.1,3.7,14.8,6.3
		c26.8,14.5,45.1,42.5,45.1,75.4L466.6,246.9z"/>
	<path class="st0" d="M373.2,160.1l-21.1-21.3c-7.6-7.5-19.6-7.5-27.1,0l-69,69l-69-69c-7.6-7.5-19.5-7.5-27.1,0L138.9,160
		c-7.6,7.5-7.6,19.6,0,27.1l69,68.9l-68.9,69c-7.6,7.5-7.6,19.5,0,27.1l21.1,21.1c7.6,7.6,19.6,7.6,27.1,0l69-68.9l68.9,68.9
		c7.6,7.6,19.6,7.6,27.1,0l21.1-21.1c7.6-7.6,7.6-19.6,0-27.1l-68.9-69l68.9-68.9C380.8,179.6,380.8,167.5,373.2,160.1z"/>
</g>
</svg>
