<?xml version="1.0" encoding="utf-8"?>
<!-- Generator: Adobe Illustrator 16.0.0, SVG Export Plug-In . SVG Version: 6.00 Build 0)  -->
<!DOCTYPE svg PUBLIC "-//W3C//DTD SVG 1.1//EN" "http://www.w3.org/Graphics/SVG/1.1/DTD/svg11.dtd">
<svg version="1.1"
	 id="svg2" xmlns:dc="http://purl.org/dc/elements/1.1/" xmlns:svg="http://www.w3.org/2000/svg" xmlns:cc="http://creativecommons.org/ns#" xmlns:inkscape="http://www.inkscape.org/namespaces/inkscape" xmlns:rdf="http://www.w3.org/1999/02/22-rdf-syntax-ns#" xmlns:sodipodi="http://sodipodi.sourceforge.net/DTD/sodipodi-0.dtd" inkscape:export-filename="R:\Media\Pictures\Logos\Facebook Home (Clear).png" inkscape:version="0.48.3.1 r9886" inkscape:export-ydpi="230.97745" inkscape:export-xdpi="230.97745" sodipodi:docname="Facebook Home (Clear).svg"
	 xmlns="http://www.w3.org/2000/svg" xmlns:xlink="http://www.w3.org/1999/xlink" x="0px" y="0px" width="512px" height="512px"
	 viewBox="0 0 512 512" style="enable-background:new 0 0 512 512;" xml:space="preserve">
<style type="text/css">
<![CDATA[
	.st0{fill:#9B9B9B;}
]]>
</style>
<g>
	<path class="st0" d="M141.1,493.1c-43.2,0-77.8-34.6-77.8-77.8V271.5V145.6v-3.4c0-7.6,1.2-15.2,3.3-22c2-6.8,4.7-12.7,8.3-18.4
		l26.9,38.7c1.1,1.6,2.5,2.2,4,2.2c3.4,0,7.2-3.4,7.8-6.7l24-71l2.5-7.5l0-0.2c0.4-2.3-0.1-4.7-1.4-6.5c-0.4-0.4-1.1-1.1-1.6-1.6
		c-1.1-0.9-2.4-1.7-4-2l0,0.2l-82.9-2.5c-0.3-0.1-0.7-0.1-1.1-0.1c-4.6,0-10.6,4.7-7.2,9.5l23.3,33.6c-3.8,5-7,10.4-9.7,16.2
		c-3.1,6.4-5.5,13.2-7.1,20.1c-1.1,5.1-1.9,10.5-2.1,15.6c0,0.4-0.1,68.3-0.1,136.5c0,4.4,0,8.9,0,13.3c0,3,0,6,0,9
		c0,46.7-0.1,90.2-0.1,108.2c0,0.4,0,1.1,0,1.3c0,2.1,0,3.7,0,4.9c0,1.7,0,2.6,0,2.6c0,51.9,43.2,95.1,95.1,95.1h179l0-17.3
		L141.1,493.1z"/>
	<path class="st0" d="M253.4,324c-21.8,0-39.5,17.7-39.5,39.5c0,21.8,17.7,39.5,39.5,39.5c21.8,0,39.5-17.7,39.5-39.5
		C292.9,341.7,275.2,324,253.4,324z"/>
	<path class="st0" d="M208.5,64.6l14.1,202c0,9.5,7.7,17.3,17.3,17.3H267c9.5,0,17.3-7.7,17.3-17.3l14.1-202l1.1-15.5l2.1-30.4
		c0-9.7-7.7-17.3-17.3-17.3h-61.8c-9.5,0-17.3,7.6-17.3,17.3l2.1,30.4L208.5,64.6z"/>
	<path class="st0" d="M470.1,491.3l-21.1-30.4c3.3-5.9,6-12.3,7.9-18.9c2.4-7.9,3.7-16.2,3.9-24.9c0-0.5,0.1-1.1,0.1-1.8
		c0,0,0-1.1,0-2.6c-0.1-1.2-0.1-2.8-0.1-4.9c0-0.4,0-0.9,0-1.4c0-18,0-61.5-0.1-108.2c0-3,0-6,0-9c0-4.4,0-8.7,0-13.3
		c-0.1-68.1-0.1-135.9-0.1-136.5c-1.8-39.4-28.6-72.7-64.5-85.4c-2.8-1.1-5.5-1.8-8.4-2.5c-2-0.5-4-1-6-1.3
		c-5.2-0.9-10.5-1.6-15.9-1.6h-14.3v15.5h14.3c4.5,0,8.8,0.5,13.1,1.2c1.8,0.4,3.6,0.6,5.3,1.1c1.8,0.4,3.5,1.1,5.2,1.7
		c4.7,1.5,9.2,3.3,13.5,5.7c24.2,13.1,40.8,38.4,40.8,68.1v129.3v121.2v22.7c0,2.3-0.5,4.5-0.7,6.7c-0.7,8-2.2,15.7-5.1,22.8
		l-27.6-39.7c-1.1-1.6-2.5-2.2-4-2.2c-3.4,0-7.2,3.4-7.8,6.9L371.9,488l0,0c-0.3,1.5,0,2.9,0.4,4.2c0.3,0.8,0.5,1.6,1,2.3
		c1.3,1.8,3.2,3.2,5.6,3.6l0,0l31.1,0.9l51.7,1.6c0.4,0.1,0.7,0.1,1.1,0.1C467.4,500.9,473.4,496.1,470.1,491.3z"/>
</g>
</svg>
