<?xml version="1.0" encoding="utf-8"?>
<!-- Generator: Adobe Illustrator 16.0.0, SVG Export Plug-In . SVG Version: 6.00 Build 0)  -->
<!DOCTYPE svg PUBLIC "-//W3C//DTD SVG 1.1//EN" "http://www.w3.org/Graphics/SVG/1.1/DTD/svg11.dtd">
<svg version="1.1"
	 id="svg2" xmlns:sodipodi="http://sodipodi.sourceforge.net/DTD/sodipodi-0.dtd" xmlns:rdf="http://www.w3.org/1999/02/22-rdf-syntax-ns#" xmlns:dc="http://purl.org/dc/elements/1.1/" xmlns:svg="http://www.w3.org/2000/svg" xmlns:cc="http://creativecommons.org/ns#" xmlns:inkscape="http://www.inkscape.org/namespaces/inkscape" inkscape:export-filename="R:\Media\Pictures\Logos\Facebook Home (Clear).png" sodipodi:docname="Facebook Home (Clear).svg" inkscape:version="0.48.3.1 r9886" inkscape:export-ydpi="230.97745" inkscape:export-xdpi="230.97745"
	 xmlns="http://www.w3.org/2000/svg" xmlns:xlink="http://www.w3.org/1999/xlink" x="0px" y="0px" width="512px" height="512px"
	 viewBox="0 0 512 512" style="enable-background:new 0 0 512 512;" xml:space="preserve">
<g>
	<path d="M502.1,158.6L502,149c-0.2-18.6-12.4-34.6-26.4-42.1c-5.2-14.4-19.1-24.8-35.3-24.8h-87.8c-14.5,0-27.1,8.2-33.3,20.3h-106
		c0.2,0.2,0.4,0.5,0.6,0.7l3,3.8c0.5,0.6,0.9,1.2,1.3,1.9c0.6,1,1.3,2,1.9,3.1c0.3,0.5,0.6,1,1,1.5l0.6,0.9l1.1,1.7
		c1.2,1.8,2.3,3.6,3.4,5.4h107.6c0,0,0-0.1,0-0.1v-1.4c0-10.4,8.4-18.8,18.8-18.8h87.8c10.4,0,18.8,8.4,18.8,18.8v1.4
		c0,0,0,0.1,0,0.1c6.9,0,17.8,7.7,22.2,18.8c0.4,1.1,0.9,2.2,1.2,3.3c-2.3-0.9-4.7-1.6-7.1-2.2c-3.5-0.8-7.1-1.3-10.9-1.3h-9.4
		H236.2l3.1,6.3c0.2,0.5,0.5,1,0.7,1.5c0.2,0.5,0.4,1,0.6,1.6c1.2,3.2,2.4,6.4,3.6,9.4h210.9h9.4c13.1,0,23.5,8.3,26.9,20
		c0.7,2.6,1.3,5.3,1.3,8.2v36.7v216c0,16-12.2,28.2-28.2,28.2H96.9c-16,0-28.2-12.2-28.2-28.2v-216v-36.7c0-2.9,0.5-5.6,1.3-8.2
		c3.4-11.7,13.8-20,26.9-20h9.4h59.4c-0.5-2-1.4-4.3-2.2-6.1c-0.5-1.1-1-2.2-1.4-3.3c-0.3-0.7-0.6-1.3-0.9-2c-1-2.3-2.1-4.6-3.1-7
		c-0.1-0.2-0.2-0.3-0.3-0.5h-51.5h-9.4c-6.4,0-12.5,1.2-18.1,3.5c2.7-12.9,13.7-22.2,27.6-22.2h40c-0.3-0.4-0.6-0.8-0.8-1.2
		c-1.1-1.7-2.7-3.7-4.4-5.7l-0.5-0.6c-0.5-0.7-1.1-1.3-1.7-1.9c-2.1-2.6-4.3-5.1-6.5-7.6l-1.5-1.8h-24.6c-26.1,0-46.8,20.5-47,46.7
		l-0.1,9.6c-6,8-9.4,17.8-9.4,28.2v36.7v216c0,26.3,20.6,47,47,47h367.5c26.3,0,47-20.6,47-47v-216v-36.7
		C511.4,176.1,507.9,166.4,502.1,158.6z"/>
	<path d="M62.8,38.5c3.8,1.5,7.7,3.1,11.7,4.7c8.2,2.9,15.9,7.6,24.2,11.6c7.7,5,16,9.5,23.2,15.7c7.7,5.5,14.4,12.2,21.2,18.6
		c3.9,4.5,7.7,8.8,11.3,13.2c0,0,0,0,0,0c2.1,2.6,4.3,5.1,6,7.9c0.4,0.5,0.7,1,1,1.4c2.3,3.1,4.3,6.2,6.1,9.4
		c0.5,0.9,1.1,1.8,1.6,2.7c1.6,2.8,3.2,5.7,4.8,8.5c1.1,2.6,2.2,5,3.3,7.5c0.9,1.9,1.7,3.9,2.5,5.7c0.5,1.2,1,2.5,1.5,3.7
		c0.6,1.7,1.2,3.4,1.6,5.1c0.5,1.5,0.9,2.9,1.4,4.3c0.6,2,1.3,4,1.9,6c0.7,3.4,1.3,6.7,2,9.8c1.6,6.3,1.8,11.8,2.2,16.6
		c0.2,2.4,0.4,4.6,0.6,6.7c0,2.5-0.1,4.7-0.1,6.8c-0.1,5.8-0.2,9.7-0.3,11.6c0,0-46.3,0-46.5,0c-14,0-16,7.2-9,15.3l71,94.8
		c2.4,2.1,5.5,3.2,8.5,3.2c3.1,0,6.2-1.1,8.5-3.2l71-94.8c8-10.3,2.8-15.3-9.4-15.3h-46.2c-0.2-2.4-0.8-7.7-1.6-13.8
		c-0.3-2-0.6-4.3-1-6.8c-0.7-2.8-1.4-5.9-2.1-9.1c-1.5-6.5-3.2-13.9-6.2-21c-0.8-2.2-1.7-4.5-2.6-6.8c-0.6-1.6-1.1-3-1.7-4.6
		c-0.8-1.6-1.6-3.2-2.4-4.8c-0.6-1.2-1.2-2.4-1.8-3.7c-0.6-1.1-1.1-2.2-1.6-3.3c-0.4-0.8-0.9-1.6-1.3-2.4c-2.7-5.4-6-10.6-9.6-15.9
		c-0.6-0.9-1.2-1.8-1.8-2.7c-0.7-1-1.3-2.1-2-3.1c-1.7-2.1-3.4-4.2-5.1-6.3c-2.5-3.1-5-6.2-7.7-9.4c0,0,0,0,0,0
		c-2.2-2.5-4.3-5.1-6.8-7.5c-6.9-7.7-15.4-14.3-23.3-21.1c-8.7-6.1-17.2-12.5-26.5-17.4c-8.8-5.5-18.7-9.3-27.6-13.5
		c-9.6-3.2-18.4-7-27.4-8.9c-4.4-1.1-8.7-2.2-12.9-3.3c-4.3-0.7-8.4-1.4-12.3-2C45.4,27,38,26.7,31.6,26.2c-3.2-0.2-6.2-0.4-9-0.6
		c-2.8,0.1-5.4,0.1-7.7,0.1C5.8,25.9,0.6,26,0.6,26s5.2,0.6,14.3,1.6c2.3,0.3,4.8,0.6,7.5,0.8c2.7,0.5,5.6,1.1,8.7,1.8
		c6.2,1.2,13.1,2.5,20.4,5C55,36.2,58.8,37.4,62.8,38.5z"/>
</g>
</svg>
