<?xml version="1.0" encoding="utf-8"?>
<!-- Generator: Adobe Illustrator 16.0.0, SVG Export Plug-In . SVG Version: 6.00 Build 0)  -->
<!DOCTYPE svg PUBLIC "-//W3C//DTD SVG 1.1//EN" "http://www.w3.org/Graphics/SVG/1.1/DTD/svg11.dtd">
<svg version="1.1"
	 id="svg2" inkscape:export-filename="R:\Media\Pictures\Logos\Facebook Home (Clear).png" inkscape:export-ydpi="230.97745" inkscape:export-xdpi="230.97745" sodipodi:docname="Facebook Home (Clear).svg" inkscape:version="0.48.3.1 r9886" xmlns:sodipodi="http://sodipodi.sourceforge.net/DTD/sodipodi-0.dtd" xmlns:inkscape="http://www.inkscape.org/namespaces/inkscape" xmlns:cc="http://creativecommons.org/ns#" xmlns:svg="http://www.w3.org/2000/svg" xmlns:rdf="http://www.w3.org/1999/02/22-rdf-syntax-ns#" xmlns:dc="http://purl.org/dc/elements/1.1/"
	 xmlns="http://www.w3.org/2000/svg" xmlns:xlink="http://www.w3.org/1999/xlink" x="0px" y="0px" width="512px" height="512px"
	 viewBox="0 0 512 512" style="enable-background:new 0 0 512 512;" xml:space="preserve">
<g>
	<path d="M511.7,55.5c-0.5-6.6-6-11.8-12.7-11.8H13c-6.7,0-12.2,5.2-12.7,11.8L0.2,383.9c0,7.1,5.7,12.8,12.8,12.8H499
		c7.1,0,12.8-5.7,12.8-12.8L511.7,55.5z M491.4,335.3H20.6V64.1h470.7V335.3z"/>
	<path d="M337.9,458.1c-20.5-5.1-25.6-20.5-25.6-40.9v-5.1H256h-56.3v5.1c0,20.5-5.1,35.8-25.6,40.9c-5,1.2-5.1,10.2,0,10.2H256
		h81.9C343,468.3,342.9,459.3,337.9,458.1z"/>
</g>
</svg>
