<?xml version="1.0" encoding="utf-8"?>
<!-- Generator: Adobe Illustrator 16.0.0, SVG Export Plug-In . SVG Version: 6.00 Build 0)  -->
<!DOCTYPE svg PUBLIC "-//W3C//DTD SVG 1.1//EN" "http://www.w3.org/Graphics/SVG/1.1/DTD/svg11.dtd">
<svg version="1.1"
	 id="svg2" inkscape:version="0.48.3.1 r9886" sodipodi:docname="Facebook Home (Clear).svg" inkscape:export-ydpi="230.97745" inkscape:export-xdpi="230.97745" inkscape:export-filename="R:\Media\Pictures\Logos\Facebook Home (Clear).png" xmlns:svg="http://www.w3.org/2000/svg" xmlns:cc="http://creativecommons.org/ns#" xmlns:rdf="http://www.w3.org/1999/02/22-rdf-syntax-ns#" xmlns:inkscape="http://www.inkscape.org/namespaces/inkscape" xmlns:dc="http://purl.org/dc/elements/1.1/" xmlns:sodipodi="http://sodipodi.sourceforge.net/DTD/sodipodi-0.dtd"
	 xmlns="http://www.w3.org/2000/svg" xmlns:xlink="http://www.w3.org/1999/xlink" x="0px" y="0px" width="512px" height="512px"
	 viewBox="0 0 512 512" style="enable-background:new 0 0 512 512;" xml:space="preserve">
<g>
	<path d="M504.2,434L387.5,319.7c18.7-31.7,29.7-68.8,29.7-108.6C417.1,94.5,324.6,0,210.6,0C96.6,0,4.1,94.5,4.1,211.1
		c0,116.6,92.5,211.1,206.5,211.1c40,0,77.1-11.8,108.8-31.9L432,508.2c4.9,5,12.9,5,17.8,0l54.4-56
		C509.1,447.2,509.1,439.1,504.2,434z M210.3,359.7c-83.9,0-151.9-68-151.9-151.9C58.4,124,126.4,56,210.3,56
		c83.9,0,151.9,68,151.9,151.9C362.2,291.7,294.2,359.7,210.3,359.7z"/>
</g>
</svg>
