<?xml version="1.0" encoding="utf-8"?>
<!-- Generator: Adobe Illustrator 16.0.0, SVG Export Plug-In . SVG Version: 6.00 Build 0)  -->
<!DOCTYPE svg PUBLIC "-//W3C//DTD SVG 1.1//EN" "http://www.w3.org/Graphics/SVG/1.1/DTD/svg11.dtd">
<svg version="1.1"
	 id="svg2" xmlns:svg="http://www.w3.org/2000/svg" xmlns:cc="http://creativecommons.org/ns#" xmlns:rdf="http://www.w3.org/1999/02/22-rdf-syntax-ns#" xmlns:inkscape="http://www.inkscape.org/namespaces/inkscape" xmlns:dc="http://purl.org/dc/elements/1.1/" xmlns:sodipodi="http://sodipodi.sourceforge.net/DTD/sodipodi-0.dtd" inkscape:version="0.48.3.1 r9886" inkscape:export-ydpi="230.97745" inkscape:export-xdpi="230.97745" sodipodi:docname="Facebook Home (Clear).svg" inkscape:export-filename="R:\Media\Pictures\Logos\Facebook Home (Clear).png"
	 xmlns="http://www.w3.org/2000/svg" xmlns:xlink="http://www.w3.org/1999/xlink" x="0px" y="0px" width="512px" height="512px"
	 viewBox="0 0 512 512" style="enable-background:new 0 0 512 512;" xml:space="preserve">
<path d="M502.3,208.4l-71.6-7.5c-0.1-0.4-0.3-0.7-0.4-1.1c-0.8-2.5-1.7-4.9-2.6-7.3c-0.9-2.4-1.7-4.9-2.7-7.3
	c-0.1-0.3-0.3-0.6-0.4-0.9c-0.8-1.9-1.7-3.7-2.6-5.5c-0.4-0.8-0.7-1.6-1.1-2.4c-0.4-0.7-0.6-1.5-1-2.2c-0.5-1-0.9-2-1.4-3l45.4-56.1
	c3.7-3.7,3.7-9.6,0-13.3l-53.8-53.8c-3.7-3.7-9.6-3.7-13.3,0l-56.1,45.4c-0.8-0.4-1.5-0.7-2.3-1.1c-1.9-0.9-3.8-1.8-5.7-2.7
	c-5-2.3-10-4.4-15.1-6.2c-1.7-0.6-3.4-1.2-5.1-1.8c-0.2-0.1-0.4-0.1-0.6-0.2c-0.3-0.1-0.5-0.2-0.8-0.3l-7.6-71.8
	c0-5.2-4.2-9.4-9.4-9.4h-76c-5.2,0-9.4,4.2-9.4,9.4l-7.5,71.6c-3.8,1.2-7.5,2.7-11.2,4.1c-1.1,0.4-2.2,0.8-3.3,1.2
	c-3.6,1.5-7,3.1-10.5,4.8c-0.7,0.3-1.4,0.7-2.2,1.1c-0.3,0.2-0.6,0.3-0.9,0.4c-0.6,0.3-1.1,0.5-1.6,0.8l-56.1-45.4
	c-3.7-3.7-9.6-3.7-13.3,0l-53.8,53.8c-3.7,3.7-3.7,9.6,0,13.3l45.4,56c-5,9.5-9.3,19.5-12.5,29.9l-71.5,7.5c-5.2,0-9.4,4.2-9.4,9.4
	V294c0,5.2,4.2,9.4,9.4,9.4l71.7,7.5c0.3,0.9,0.7,1.7,1,2.6c0.5,1.7,1.2,3.3,1.8,5c2.2,6,4.7,11.9,7.5,17.5c0.7,1.5,1.3,3,2.1,4.4
	l-45.4,56c-3.7,3.7-3.7,9.6,0,13.3l53.8,53.8c3.7,3.7,9.6,3.7,13.3,0l56.1-45.4c0.2,0.1,0.3,0.1,0.5,0.2c3,1.6,6.1,3,9.1,4.4
	c1.2,0.5,2.2,1.1,3.4,1.6c0.4,0.2,0.8,0.3,1.3,0.5c2.6,1.1,5.4,2.1,8.1,3.1c1.7,0.6,3.4,1.3,5.2,1.9c0.7,0.2,1.3,0.5,2,0.7l7.6,71.9
	c0,5.2,4.2,9.4,9.4,9.4h76c5.2,0,9.4-4.2,9.4-9.4l7.6-71.8c3.4-1.1,6.8-2.4,10.1-3.7c1.3-0.5,2.6-0.9,3.8-1.4h0c0,0,0,0,0.1,0
	c3.2-1.3,6.3-2.8,9.5-4.3c1.6-0.8,3.1-1.5,4.7-2.3c0.5-0.2,1-0.4,1.4-0.7c0,0,0.1,0,0.1,0l56.1,45.4c3.7,3.7,9.6,3.7,13.3,0
	l53.8-53.8c3.7-3.7,3.7-9.6,0-13.3l-45.4-56c0.5-1,0.9-2,1.4-3c0.2-0.3,0.3-0.7,0.5-1c1.8-3.6,3.6-7.3,5.1-11
	c0.6-1.6,1.2-3.2,1.7-4.8c0.7-1.9,1.4-3.8,2.1-5.7c0.1-0.2,0.1-0.3,0.2-0.5c0.4-1.2,1-2.4,1.4-3.7l71.5-7.5c5.2,0,9.4-4.2,9.4-9.4
	v-76.1C511.7,212.6,507.5,208.4,502.3,208.4z M197.4,314.5c-10.1-10.1-17.1-22.2-20.9-35c-0.1-0.2-0.1-0.5-0.2-0.7
	c-0.7-2.3-1.2-4.6-1.7-7c-0.2-0.9-0.3-1.7-0.4-2.6c-0.3-1.7-0.6-3.5-0.8-5.2c-0.3-2.7-0.4-5.3-0.4-8.1c0-5.7,0.6-11.3,1.7-16.7
	c0-0.1,0.1-0.2,0.1-0.2c7.8-37.7,41.3-66.1,81.3-66.1c2.8,0,5.7,0.1,8.4,0.4c19.5,2,36.9,10.7,50,23.8c15,15,24.3,35.8,24.3,58.7
	c0,37-24.2,68.3-57.6,79.1c-0.3,0.1-0.6,0.2-0.9,0.3c-1.9,0.6-3.9,1.1-6,1.5c-0.7,0.2-1.4,0.4-2.1,0.5c-1.7,0.3-3.4,0.6-5.2,0.8
	c-1,0.1-2,0.4-3.1,0.5c-1.2,0.1-2.4,0.1-3.7,0.2c-3.1,0.2-6.2,0.2-9.3,0C231.6,337.5,212.3,329.5,197.4,314.5z"/>
</svg>
