<?xml version="1.0" encoding="utf-8"?>
<!-- Generator: Adobe Illustrator 16.0.0, SVG Export Plug-In . SVG Version: 6.00 Build 0)  -->
<!DOCTYPE svg PUBLIC "-//W3C//DTD SVG 1.1//EN" "http://www.w3.org/Graphics/SVG/1.1/DTD/svg11.dtd">
<svg version="1.1"
	 id="svg2" xmlns:svg="http://www.w3.org/2000/svg" xmlns:sodipodi="http://sodipodi.sourceforge.net/DTD/sodipodi-0.dtd" xmlns:rdf="http://www.w3.org/1999/02/22-rdf-syntax-ns#" xmlns:cc="http://creativecommons.org/ns#" xmlns:inkscape="http://www.inkscape.org/namespaces/inkscape" xmlns:dc="http://purl.org/dc/elements/1.1/" inkscape:export-xdpi="230.97745" inkscape:export-ydpi="230.97745" sodipodi:docname="Facebook Home (Clear).svg" inkscape:version="0.48.3.1 r9886" inkscape:export-filename="R:\Media\Pictures\Logos\Facebook Home (Clear).png"
	 xmlns="http://www.w3.org/2000/svg" xmlns:xlink="http://www.w3.org/1999/xlink" x="0px" y="0px" width="512px" height="512px"
	 viewBox="0 0 512 512" style="enable-background:new 0 0 512 512;" xml:space="preserve">
<g>
	<path d="M508.4,388.2c-4.3-8.6-16.2-22.8-45.8-38c-7.4-3.8-14.3-7.2-21.3-10.6c-3.3-1.6-6.6-3.2-9.6-4.8c-3.3-1.6-6.3-3.2-9.4-4.9
		c-24.9-13-44.2-26.7-53.8-52.5c-0.3-0.8-0.8-1.5-1-2.4c0,0,1.2-1,2.7-2.5c3-2.9,7.7-8.7,9.2-17.2l1.3-15l0.5-6.2
		c0,0,0.6-0.1,1.7-0.4c5.2-1.2,21.6-8.7,23.7-45.2c0,0-0.3-8-5-11.9c-1.6-1.2-3.7-2.1-6.3-2.1c-0.2,0-0.3,0-0.6,0
		c0,0,4.3-19.5,4.3-51.9c0-22.1-11-41.8-28.5-50.6c-1.7-0.8-4.3-2.6-7.2-2.6c-1.9,0-3.6,0.8-5.2,3.2c0,0-1.7-4.6-6.2-7.9
		c-1-0.4-2.3-1.2-3.7-1.9c-5-2-11.3-2.9-14.3-3.3c-7-0.7-12.7-0.8-15.6-0.8c-1.7,0-2.3,0-2.3,0s-80.4,0.4-83.1,63.7
		c-1.4,32,4.2,51.9,4.2,51.9c-0.2,0-0.3,0-0.6,0c-11,0-11.4,13.9-11.4,13.9c2.6,43.1,25.4,45.6,25.4,45.6l1.9,21.2
		c2.6,12.9,11.9,19.8,11.9,19.8c-3.6,10.5-8.7,19.1-15,26.3c4.3,7.2,7,15.4,7,24.3v31.9c0,26.4-21.6,47.9-47.9,47.9h-31.9v31.9
		c0,5.6-1.2,10.9-3,16h323.3c0,0,0.3-0.1,0.3-0.1c0.5,0,4.3-0.4,5.4-1c1.8-1,4.5-2.7,6.3-5.7c1-1.9,1.9-5.4,2.5-9.6
		c0.3-2.1,0.8-8.4,0.8-9.4c0-4.6,0-23.2,0-23.3C511.2,400.7,511.5,394.7,508.4,388.2z"/>
	<path d="M223.6,357.5v-31.9c0-1.3-0.4-2.4-0.7-3.6c-1.7-7-7.7-12.3-15.2-12.3h-63.9v-63.9c0-8.8-7.1-16-16-16H95.8
		c-8.8,0-16,7.2-16,16v63.9H16c-8.8,0-16,7.1-16,16v31.9c0,8.8,7.1,16,16,16h63.9v63.9c0,8.8,7.1,16,16,16h31.9c1.1,0,2-0.4,3.1-0.6
		c7.3-1.5,12.9-7.6,12.9-15.3v-63.9h63.9C216.4,373.4,223.6,366.3,223.6,357.5z"/>
</g>
</svg>
