<?xml version="1.0" encoding="utf-8"?>
<!-- Generator: Adobe Illustrator 16.0.0, SVG Export Plug-In . SVG Version: 6.00 Build 0)  -->
<!DOCTYPE svg PUBLIC "-//W3C//DTD SVG 1.1//EN" "http://www.w3.org/Graphics/SVG/1.1/DTD/svg11.dtd">
<svg version="1.1"
	 id="svg2" inkscape:version="0.48.3.1 r9886" sodipodi:docname="Facebook Home (Clear).svg" inkscape:export-ydpi="230.97745" inkscape:export-xdpi="230.97745" inkscape:export-filename="R:\Media\Pictures\Logos\Facebook Home (Clear).png" xmlns:svg="http://www.w3.org/2000/svg" xmlns:cc="http://creativecommons.org/ns#" xmlns:rdf="http://www.w3.org/1999/02/22-rdf-syntax-ns#" xmlns:inkscape="http://www.inkscape.org/namespaces/inkscape" xmlns:dc="http://purl.org/dc/elements/1.1/" xmlns:sodipodi="http://sodipodi.sourceforge.net/DTD/sodipodi-0.dtd"
	 xmlns="http://www.w3.org/2000/svg" xmlns:xlink="http://www.w3.org/1999/xlink" x="0px" y="0px" width="512px" height="512px"
	 viewBox="0 0 512 512" style="enable-background:new 0 0 512 512;" xml:space="preserve">
<g>
	<path d="M453.3,81.6h-20H292.5h-9.3c-32.3,0-58.6,26.3-58.6,58.6v5.5v44l10.7,2.5v-46.4v-5.5c0-26.4,21.5-48,48-48h9.3h140.8h20
		c26.4,0,48,21.5,48,48v5.5v200.6v5.5c0,26.4-21.5,48-48,48h-20h-67.1c-1.2,3.8-3.1,7.3-5.7,10.7h72.8h20
		c32.3,0,58.6-26.3,58.6-58.6v-5.5V145.8v-5.5C511.9,107.9,485.6,81.6,453.3,81.6z"/>
	<rect x="288.5" y="134.9" width="159.6" height="21"/>
	<rect x="288.5" y="177.6" width="159.6" height="21"/>
	<path d="M58.5,313.7l-10.7-2.9v37.4l-10.4,36.2c0,5.9,4.8,10.7,10.7,10.7h10.2c5.9,0,10.7-4.8,10.7-10.7l-10.4-36.2V313.7z"/>
	<path d="M235.4,355.4l-3.6,1c-2.6,0.7-5.4,1.1-8.1,1.1s-5.5-0.4-8.1-1.1l-113.7-30.9v64.7c0,16.3,54.5,40.1,121.8,40.1
		c41.3,0,77.8-9,99.8-19.8c7.1-3.5,12.7-7.1,16.5-10.7c3.5-3.4,5.5-6.7,5.5-9.7v-64.7l-99.5,27L235.4,355.4z"/>
	<path d="M440.3,277.7c4.2-1.2,7.1-5,7.1-9.4c-0.1-4.4-3.1-8.1-7.4-9.1l-194-45l-10.7-2.5l-9.4-2.2c-0.7-0.2-1.4-0.3-2.2-0.3
		s-1.5,0.1-2.2,0.3L7.5,259.1c-4.3,1-7.3,4.8-7.4,9.1c-0.1,4.4,2.8,8.3,7.1,9.4l40.7,11.1l10.7,2.9l20.9,5.7l11.3,3.1l11.3,3.1
		l119.3,32.4c0.8,0.2,1.7,0.3,2.5,0.3c0.8,0,1.7-0.1,2.5-0.3l9.1-2.5l10.7-2.9l99.6-27l11.3-3.1l11.3-3.1L440.3,277.7z M243.1,266.4
		c-0.6,1.8-1.6,3.4-3.1,4.8c-3.7,3.7-9.5,6.3-16.4,6.3c-9.6,0-17.3-4.8-19.4-11.1c-0.4-1.1-0.9-2.1-0.9-3.2
		c0-5.6,4.7-10.4,11.4-12.7c2.7-1,5.7-1.6,9-1.6s6.3,0.7,9,1.6c3,1.1,5.4,2.7,7.4,4.6c2.3,2.3,4,5,4,8.1
		C244.1,264.3,243.5,265.3,243.1,266.4z"/>
</g>
</svg>
