<?xml version="1.0" encoding="utf-8"?>
<!-- Generator: Adobe Illustrator 16.0.0, SVG Export Plug-In . SVG Version: 6.00 Build 0)  -->
<!DOCTYPE svg PUBLIC "-//W3C//DTD SVG 1.1//EN" "http://www.w3.org/Graphics/SVG/1.1/DTD/svg11.dtd">
<svg version="1.1"
	 id="svg2" inkscape:export-filename="R:\Media\Pictures\Logos\Facebook Home (Clear).png" inkscape:export-xdpi="230.97745" inkscape:export-ydpi="230.97745" inkscape:version="0.48.3.1 r9886" sodipodi:docname="Facebook Home (Clear).svg" xmlns:dc="http://purl.org/dc/elements/1.1/" xmlns:svg="http://www.w3.org/2000/svg" xmlns:cc="http://creativecommons.org/ns#" xmlns:inkscape="http://www.inkscape.org/namespaces/inkscape" xmlns:rdf="http://www.w3.org/1999/02/22-rdf-syntax-ns#" xmlns:sodipodi="http://sodipodi.sourceforge.net/DTD/sodipodi-0.dtd"
	 xmlns="http://www.w3.org/2000/svg" xmlns:xlink="http://www.w3.org/1999/xlink" x="0px" y="0px" width="512px" height="512px"
	 viewBox="0 0 512 512" style="enable-background:new 0 0 512 512;" xml:space="preserve">
<g>
	<path d="M417.5,0.2h-323c-28.2,0-51.2,23-51.2,51.2v411.1c1.2,27.1,23.7,49.2,51.2,49.2c0,0,216.9,0,219.5,0
		c5.5,0,10.9-2.2,14.8-6.3L463,364.8c5.7-5.7,5.7-14.2,5.7-18V51.4C468.7,23.2,445.7,0.2,417.5,0.2z M314,491.3V381.4
		c0-16.9,13.8-30.7,30.7-30.7h103.5L314,491.3z M448.2,330.2H344.7c-28.2,0-51.2,23-51.2,51.2v109.9h-199
		c-16.2,0-29.5-12.9-30.7-28.8V51.4c0-17,13.8-30.7,30.7-30.7h323c16.9,0,30.7,13.7,30.7,30.7V330.2z"/>
	<path d="M322.8,179.3l-95.9-65.1c-4.7-3.2-10.8-3.5-15.8-0.9c-5,2.7-8.2,7.9-8.2,13.6v130.3c0,5.7,3.1,10.9,8.2,13.6
		c2.3,1.2,4.7,1.8,7.2,1.8c3,0,6-0.9,8.6-2.7l95.9-65.1c4.2-2.8,6.7-7.6,6.7-12.7S327,182.1,322.8,179.3z"/>
</g>
</svg>
