<?xml version="1.0" encoding="utf-8"?>
<!-- Generator: Adobe Illustrator 16.0.0, SVG Export Plug-In . SVG Version: 6.00 Build 0)  -->
<!DOCTYPE svg PUBLIC "-//W3C//DTD SVG 1.1//EN" "http://www.w3.org/Graphics/SVG/1.1/DTD/svg11.dtd">
<svg version="1.1"
	 id="svg2" xmlns:svg="http://www.w3.org/2000/svg" xmlns:cc="http://creativecommons.org/ns#" xmlns:rdf="http://www.w3.org/1999/02/22-rdf-syntax-ns#" xmlns:inkscape="http://www.inkscape.org/namespaces/inkscape" xmlns:dc="http://purl.org/dc/elements/1.1/" xmlns:sodipodi="http://sodipodi.sourceforge.net/DTD/sodipodi-0.dtd" inkscape:version="0.48.3.1 r9886" inkscape:export-ydpi="230.97745" inkscape:export-xdpi="230.97745" sodipodi:docname="Facebook Home (Clear).svg" inkscape:export-filename="R:\Media\Pictures\Logos\Facebook Home (Clear).png"
	 xmlns="http://www.w3.org/2000/svg" xmlns:xlink="http://www.w3.org/1999/xlink" x="0px" y="0px" width="512px" height="512px"
	 viewBox="0 0 512 512" style="enable-background:new 0 0 512 512;" xml:space="preserve">
<g>
	<path d="M266.4,391.4c-1.8-0.9-3.6-1.8-5.4-2.7L230.2,373c-16.8-9.3-29.8-19.7-36.6-37.9c-0.2-0.7-0.6-1.2-0.8-1.8
		c0,0,0.9-0.8,2.1-2c2.3-2.3,5.9-6.7,7.2-13.3l0.9-11.6l0.5-4.9c0,0,0.5-0.1,1.2-0.3c-31.4-20.3-51.9-55.2-51.9-93.8
		c0.1-16.6,0.2-30.1,0.3-41.3c-0.2,0-0.4,0-0.4,0s-62.1,0.1-64.3,49.3c-1.1,24.8,3.2,40.1,3.2,40.1c-0.2,0-0.3,0-0.4,0
		c-8.7,0-8.9,10.8-8.9,10.8c2.1,33.4,19.7,35.3,19.7,35.3l1.5,16.5c2.1,9.9,9.2,15.3,9.2,15.3c-10.7,31.5-38.9,40.2-73.7,58.1
		c-22.9,11.8-32,22.8-35.5,29.9c-2.6,5.4-2.2,10.3-2.2,12.9c0,4.5,0,11.8,0,17.5c0,5.4,1.1,12.3,2.6,14.7c1.4,2.4,3.4,3.7,4.8,4.5
		c1,0.5,4.4,0.7,4.4,0.7h111.9h14.9l54.2,0h98.4c0,0,0.1,0,0.2,0c0.4,0,3.3-0.2,4.1-0.7c1.5-0.7,3.5-2.1,4.9-4.5
		c0.8-1.4,1.5-4.2,2-7.3c0.3-2.4,0.6-5,0.6-7.4c0-3.6,0-7.8,0-11.6c0-2.2,0-4.3,0-5.9c0-2.6,0.4-7.5-2.2-12.9
		C298.4,414.1,289.3,403.2,266.4,391.4z"/>
	<path d="M510.6,132.5C508.8,94,482.6,59,445.4,46.1c-2.7-1-5.6-1.9-8.5-2.6c-2.2-0.5-4.2-1-6.4-1.4c-5.9-1.1-11.1-1.6-16.2-1.6
		H265.1c-5.1,0-10.3,0.5-16.4,1.6c-2,0.4-4,0.8-6.1,1.3c-3.1,0.8-5.9,1.7-8.8,2.7c-37.4,13-63.8,48-65.6,87c0,0.2-0.4,33.7-0.4,33.7
		l-0.3,25.7c0,35.1,19.9,66.6,48.9,83.7c8.8,5.2,18.4,9.2,28.6,11.3v49.2v29.2v1.5l1.1-0.9l23-18l75.1-58.8h69.4
		c52.6,0,97-44.4,97-97C510.8,192.5,510.6,153.8,510.6,132.5z M413.8,274.6h-74.6l-79.2,62v-62.2c-14-0.8-27-5.5-38.3-12.6
		c-23.3-14.6-39.2-40.2-39.2-69.3c0,0,0.2-2.1,0.3-19.8c0.2-19,0.4-38.8,0.4-38.9c1.6-34,24.7-62.8,55.7-73.6
		c2.4-0.9,4.8-1.6,7.3-2.2c1.7-0.4,3.4-0.8,5.2-1.1c4.5-0.8,9.1-1.4,13.8-1.4h149.2c4.7,0,9.3,0.6,13.8,1.4c1.8,0.3,3.5,0.7,5.2,1.1
		c2.5,0.6,4.9,1.4,7.3,2.2c31,10.8,53.6,39.6,55.2,73.6c0,0.3,0.2,58.7,0.2,58.7C495.9,237.3,458.6,274.6,413.8,274.6z"/>
</g>
</svg>
