<?xml version="1.0" encoding="utf-8"?>
<!-- Generator: Adobe Illustrator 16.0.0, SVG Export Plug-In . SVG Version: 6.00 Build 0)  -->
<!DOCTYPE svg PUBLIC "-//W3C//DTD SVG 1.1//EN" "http://www.w3.org/Graphics/SVG/1.1/DTD/svg11.dtd">
<svg version="1.1"
	 id="svg2" sodipodi:docname="Facebook Home (Clear).svg" inkscape:export-ydpi="230.97745" inkscape:export-xdpi="230.97745" inkscape:version="0.48.3.1 r9886" inkscape:export-filename="R:\Media\Pictures\Logos\Facebook Home (Clear).png" xmlns:dc="http://purl.org/dc/elements/1.1/" xmlns:svg="http://www.w3.org/2000/svg" xmlns:cc="http://creativecommons.org/ns#" xmlns:inkscape="http://www.inkscape.org/namespaces/inkscape" xmlns:rdf="http://www.w3.org/1999/02/22-rdf-syntax-ns#" xmlns:sodipodi="http://sodipodi.sourceforge.net/DTD/sodipodi-0.dtd"
	 xmlns="http://www.w3.org/2000/svg" xmlns:xlink="http://www.w3.org/1999/xlink" x="0px" y="0px" width="512px" height="512px"
	 viewBox="0 0 512 512" style="enable-background:new 0 0 512 512;" xml:space="preserve">
<g>
	<path d="M211.1,63.8h42.7l14.1-14.2h-80.5c8.1,2.1,15.5,6.1,21.7,12.2L211.1,63.8z"/>
	<path d="M445.3,277c0-2.7,0-5.5,0-8.2c0-4,0-8.1,0-12.1c0-62.1-0.1-124.2-0.1-124.5c-1.1-24.3-12.8-45.9-30.3-61l-7.3,7.3l-2.6,2.6
		c15,12.9,24.6,31.9,24.6,53.4l0,117.5H82.6V134.5c0-27.1,15.1-50.2,37.2-62.1c3.8-2.1,8-3.8,12.2-5.2c1.6-0.5,3.1-1,4.8-1.5
		c0.6-0.2,1.1-0.3,1.6-0.3l3.8-3.6c6-6.2,13.6-10.2,21.8-12.2h-10.5c-4.9,0-9.8,0.6-14.5,1.5c-1.8,0.3-3.6,0.8-5.6,1.2
		c-2.6,0.7-5.1,1.5-7.6,2.4C93,65.9,68.6,96.3,67,132.3c0,0.3-0.1,62.3-0.2,124.5c0,4,0,8.1,0,12.1c0,2.7,0,5.5,0,8.2
		c0,42.6-0.1,82.2-0.1,98.7c0,0.4,0,1,0,1.2c0,1.9,0,3.4,0,4.5c0,1.5,0,2.4,0,2.4c0,37.5,24.8,69.9,58.6,81.8
		c0.2-0.6,0.2-1.2,0.3-1.9c1.5-4.7,3.7-8.8,6.2-12.6c-28.7-9-49.6-35.5-49.6-67.4V268h346.9v116c0,31.9-20.7,58.2-49.6,67.4
		c2.6,3.8,4.9,7.9,6.3,12.5c0.2,0.6,0.2,1.3,0.3,2c33.9-11.9,58.6-44.3,58.6-81.8c0,0,0-1,0-2.4c0-1.1,0-2.6,0-4.5
		c0-0.3,0-0.8,0-1.2C445.3,359.3,445.3,319.6,445.3,277z"/>
	<path d="M352.7,331.1l-17.5-17.4c-3-3.1-7.1-4.6-11.2-4.6c-4,0-8.1,1.6-11.2,4.6l-56.8,56.8l-56.8-56.7c-3.1-3.1-7.1-4.6-11.2-4.6
		c-4,0-8.2,1.6-11.2,4.6l-17.5,17.4c-6.2,6.3-6.2,16.2,0,22.3l56.8,56.9l-44.6,44.6L159.6,467c-1.1,1.1-1.9,2.3-2.5,3.6
		c-0.4,0.9-0.9,1.7-1.2,2.8c-1.6,5.4-0.6,11.5,3.6,15.8c0,0,0,0.1,0.1,0.1l17.5,17.5c3,3,7.1,4.6,11.1,4.6c4,0,8.1-1.6,11.2-4.6
		l17.4-17.6l15.8-15.8l2.9-2.8l15.8-15.8l4.8-4.9l4.8,4.9l15.8,15.8l2.8,2.8l15.8,15.8l17.6,17.6c3.1,3,7.1,4.6,11.2,4.6
		c4.1,0,8.1-1.6,11.1-4.6l17.5-17.5c0,0,0-0.1,0.1-0.1c4.3-4.3,5.4-10.4,3.6-15.8c-0.3-1-0.7-1.9-1.2-2.8c-0.6-1.3-1.4-2.5-2.5-3.6
		l-12.2-12.2l-44.6-44.6l56.8-56.9C358.8,347.3,358.8,337.3,352.7,331.1z"/>
	<path d="M147,123.9l56.3,56.3c0.1,0.2,0.2,0.3,0.3,0.4l17.5,17.5c3,3.1,7.1,4.6,11.2,4.6c0,0,0,0,0.1,0c0,0,0.1,0,0.1,0
		c4,0,8.1-1.5,11.1-4.6l17.5-17.5c0.2-0.2,0.2-0.3,0.3-0.4L375.6,65.9l9.6-9.6l1.6-1.6l9.2-9.1l0.7-0.7c6.2-6.2,6.2-16.2,0-22.3
		L379.3,5.1c-3-3-6.9-4.6-11.1-4.6c-4.1,0-8.1,1.6-11.2,4.6l-31.2,31.4l-13,13l-1,1.1l-13.1,13.1l-66.1,65.9L186.9,84
		c-3.1-3-7.1-4.7-11.2-4.7c-4.1,0-8.1,1.6-11.1,4.7l-17.5,17.5C140.8,107.8,140.8,117.7,147,123.9z"/>
</g>
</svg>
