<?xml version="1.0" encoding="utf-8"?>
<!-- Generator: Adobe Illustrator 16.0.0, SVG Export Plug-In . SVG Version: 6.00 Build 0)  -->
<!DOCTYPE svg PUBLIC "-//W3C//DTD SVG 1.1//EN" "http://www.w3.org/Graphics/SVG/1.1/DTD/svg11.dtd">
<svg version="1.1"
	 id="svg2" inkscape:export-xdpi="230.97745" sodipodi:docname="Facebook Home (Clear).svg" inkscape:version="0.48.3.1 r9886" inkscape:export-ydpi="230.97745" inkscape:export-filename="R:\Media\Pictures\Logos\Facebook Home (Clear).png" xmlns:sodipodi="http://sodipodi.sourceforge.net/DTD/sodipodi-0.dtd" xmlns:rdf="http://www.w3.org/1999/02/22-rdf-syntax-ns#" xmlns:dc="http://purl.org/dc/elements/1.1/" xmlns:svg="http://www.w3.org/2000/svg" xmlns:cc="http://creativecommons.org/ns#" xmlns:inkscape="http://www.inkscape.org/namespaces/inkscape"
	 xmlns="http://www.w3.org/2000/svg" xmlns:xlink="http://www.w3.org/1999/xlink" x="0px" y="0px" width="512px" height="512px"
	 viewBox="0 0 512 512" style="enable-background:new 0 0 512 512;" xml:space="preserve">
<g>
	<path d="M191.6,444.9c-38.1,0-68.5-30.5-68.5-68.5V249.6L108,234.5l-0.1,141.9c0,45.7,38.1,83.7,83.7,83.7H221l-0.3-15.2H191.6
		L191.6,444.9z"/>
	<path d="M191.6,67.3h74.1v45.9c0,4.5,3.2,6.4,6.2,6.4c1.7,0,3.4-0.6,4.4-1.7l65-50.3l0.4-0.3l1.7-1.5c1.5-1.5,2.2-3.4,2.2-5.4
		c0-1.9-0.7-3.9-2.2-5.4l-1.6-1.2l-0.4-0.3l-65-50.4c-1-1-2.7-1.6-4.4-1.6c-3.1,0-6.2,1.9-6.2,6.4v45.6h-74.1
		c-15.5,0-30.1,4.6-42.6,12.2l10,10C168.7,70.6,179.6,67.3,191.6,67.3z"/>
	<path d="M473,133.6c-2.1-44-39.1-79.9-83.5-79.9v13.7c38.1,0,68.5,30.5,68.5,68.5v240.5c0,38.1-30.5,68.5-68.5,68.5h-43.9v-45.7
		c0-4.7-3.2-6.6-6.2-6.6c-1.7,0-3.4,0.6-4.5,1.7L270,444.5l-0.2,0.3l-1.8,1.4c-1.5,1.5-2.2,3.5-2.2,5.4c0,1.9,0.7,4.1,2.2,5.4
		l1.6,1.2l2.2,1.7l63.1,48.9c1,0.9,2.7,1.6,4.4,1.6c3.1,0,6.2-1.9,6.2-6.4v-44h43.9c45.7,0,83.7-38.1,83.7-83.7
		C473.2,376.4,473.1,134.3,473,133.6z"/>
	<path d="M329.3,289.7l-27.1,27.1l-7.3,7.3l-27.1,27.2c0.9,0.8,1.9,1.3,3.1,1.6l57.7,11.1l7.1,1.4c0.4,0.1,0.9,0.3,1.2,0.3
		c1.7,0,3.3-0.9,4.6-1.9c0-0.3,0.1-0.3,0.1-0.3c0.1,0,0.1,0,0.2-0.1c0.2-0.2,0.3-0.6,0.5-0.8c1.1-1.4,1.6-3.2,1.3-5l-12.5-64.8
		C330.6,291.6,330.1,290.6,329.3,289.7z"/>
	<polygon points="141.3,101.4 141,101.1 79.3,162.8 79.3,162.8 246.2,329.7 307.9,268 	"/>
	<path d="M105.1,65.1c-3-3-6.9-4.5-10.8-4.5c-3.9,0-7.8,1.5-10.8,4.5l-40.2,40.2c-6,6-6,15.6,0,21.5l14.3,14.3l61.8-61.9L105.1,65.1
		z"/>
</g>
</svg>
