<?xml version="1.0" encoding="utf-8"?>
<!-- Generator: Adobe Illustrator 16.0.0, SVG Export Plug-In . SVG Version: 6.00 Build 0)  -->
<!DOCTYPE svg PUBLIC "-//W3C//DTD SVG 1.1//EN" "http://www.w3.org/Graphics/SVG/1.1/DTD/svg11.dtd">
<svg version="1.1"
	 id="svg2" xmlns:dc="http://purl.org/dc/elements/1.1/" xmlns:svg="http://www.w3.org/2000/svg" xmlns:cc="http://creativecommons.org/ns#" xmlns:inkscape="http://www.inkscape.org/namespaces/inkscape" xmlns:rdf="http://www.w3.org/1999/02/22-rdf-syntax-ns#" xmlns:sodipodi="http://sodipodi.sourceforge.net/DTD/sodipodi-0.dtd" inkscape:export-ydpi="230.97745" inkscape:version="0.48.3.1 r9886" inkscape:export-xdpi="230.97745" inkscape:export-filename="R:\Media\Pictures\Logos\Facebook Home (Clear).png" sodipodi:docname="Facebook Home (Clear).svg"
	 xmlns="http://www.w3.org/2000/svg" xmlns:xlink="http://www.w3.org/1999/xlink" x="0px" y="0px" width="512px" height="512px"
	 viewBox="0 0 512 512" style="enable-background:new 0 0 512 512;" xml:space="preserve">
<style type="text/css">
<![CDATA[
	.st0{fill:#010101;}
]]>
</style>
<g>
	<path class="st0" d="M223.9,414.6h62.7c17.7,0,32-14.3,32-32V31.8c0-17.7-14.3-32-32-32h-62.7c-17.7,0-32,14.3-32,32v350.8
		C191.9,400.3,206.3,414.6,223.9,414.6z"/>
	<path class="st0" d="M33.2,414.6h62.7c17.7,0,32-14.3,32-32v-95.2c0-17.7-14.3-32-32-32H33.2c-17.7,0-32,14.3-32,32v95.2
		C1.2,400.3,15.5,414.6,33.2,414.6z"/>
	<path class="st0" d="M479.1,127.8h-62.7c-17.7,0-32,14.3-32,32v222.8c0,17.7,14.3,32,32,32h62.7c17.7,0,32-14.3,32-32V159.8
		C511.1,142.1,496.8,127.8,479.1,127.8z"/>
	<rect x="1.2" y="480" class="st0" width="509.9" height="32"/>
</g>
</svg>
