<?xml version="1.0" encoding="utf-8"?>
<!-- Generator: Adobe Illustrator 16.0.0, SVG Export Plug-In . SVG Version: 6.00 Build 0)  -->
<!DOCTYPE svg PUBLIC "-//W3C//DTD SVG 1.1//EN" "http://www.w3.org/Graphics/SVG/1.1/DTD/svg11.dtd">
<svg version="1.1"
	 id="svg2" sodipodi:docname="Facebook Home (Clear).svg" inkscape:export-ydpi="230.97745" inkscape:export-xdpi="230.97745" inkscape:version="0.48.3.1 r9886" inkscape:export-filename="R:\Media\Pictures\Logos\Facebook Home (Clear).png" xmlns:dc="http://purl.org/dc/elements/1.1/" xmlns:svg="http://www.w3.org/2000/svg" xmlns:cc="http://creativecommons.org/ns#" xmlns:inkscape="http://www.inkscape.org/namespaces/inkscape" xmlns:rdf="http://www.w3.org/1999/02/22-rdf-syntax-ns#" xmlns:sodipodi="http://sodipodi.sourceforge.net/DTD/sodipodi-0.dtd"
	 xmlns="http://www.w3.org/2000/svg" xmlns:xlink="http://www.w3.org/1999/xlink" x="0px" y="0px" width="512px" height="512px"
	 viewBox="0 0 512 512" style="enable-background:new 0 0 512 512;" xml:space="preserve">
<g>
	<path d="M446.3,377.7c-9.6-4.9-18.7-9.4-27.6-13.7c-4.2-2-8.5-4.1-12.6-6.2c-4.2-2.1-8-4.2-12.1-6.3
		c-32.1-16.7-57.1-34.5-69.5-67.9c-0.4-1.1-1-1.9-1.4-3.1c0,0,1.6-1.4,3.5-3.3c3.8-3.8,9.7-11.2,12-22.3l1.7-19.4l0.7-8
		c0,0,0.8-0.1,2.1-0.6c6.7-1.6,27.9-11.3,30.7-58.5c0,0-0.1-10.3-6.6-15.4c-2.1-1.6-4.7-2.7-8.2-2.7c-0.3,0-0.5,0-0.8,0
		c0,0,5.4-25.3,5.4-67.1c0-28.6-14-54.1-36.9-65.5c-2-1-5.7-3.3-9.4-3.3c-2.4,0-4.8,1-6.7,4.1c0,0-2.4-6-8-10.2
		c-1.3-0.6-2.9-1.6-4.7-2.4c-6.2-2.6-14.6-3.8-18.6-4.2c-9.2-0.8-16.4-1-20.2-1c-2,0-3.1,0-3.1,0S152.1,1.2,148.5,83.3
		c-1.8,41.4,5.4,67.1,5.4,67.1c-0.3,0-0.5,0-0.8,0c-14.5,0-14.8,18-14.8,18c3.3,55.8,32.8,59,32.8,59l2.4,27.4
		c3.3,16.7,15.5,25.6,15.5,25.6c-12,35.5-37.6,53.7-70.7,70.9c-3.9,2.1-7.9,4.1-12,6.2c-4.1,2-8.5,4.1-12.8,6.1
		c-8.9,4.5-18.1,9-27.7,13.6C27.5,397,12.4,415.3,6.5,427.2c-4.1,8.4-3.7,16.2-3.7,20.6c0,0.3,0,0.5,0,0.9c0,7.5,0,19.7,0,29.2
		c0,1.3,0.1,2.7,0.2,4.1c0.5,8.1,2,16.8,4.1,20.5c2.3,3.8,5.8,6.2,8,7.4c1.7,0.8,7.3,1.3,7.3,1.3h54.2h11.4h114.6h22.9h14.1h32.8
		h13.9h22.8H325h98.8h65.7c0,0,0.2,0,0.3,0c0.7-0.1,5.5-0.6,6.9-1.3c2.4-1.2,5.9-3.6,8.2-7.4c1.3-2.4,2.4-7,3.2-12.4
		c0.4-2.7,0.6-5.4,0.7-8.1c0.1-1.6,0.3-2.9,0.3-4.2c0-6,0-13,0-19.3c0-3.8,0-7,0-10c0-0.3,0-0.5,0-0.8c0.1-4.5,0.5-12.3-3.7-20.7
		C499.6,415.8,484.5,397.4,446.3,377.7z"/>
</g>
</svg>
