<?xml version="1.0" encoding="utf-8"?>
<!-- Generator: Adobe Illustrator 16.0.0, SVG Export Plug-In . SVG Version: 6.00 Build 0)  -->
<!DOCTYPE svg PUBLIC "-//W3C//DTD SVG 1.1//EN" "http://www.w3.org/Graphics/SVG/1.1/DTD/svg11.dtd">
<svg version="1.1"
	 id="svg2" inkscape:export-filename="R:\Media\Pictures\Logos\Facebook Home (Clear).png" inkscape:export-ydpi="230.97745" inkscape:export-xdpi="230.97745" sodipodi:docname="Facebook Home (Clear).svg" inkscape:version="0.48.3.1 r9886" xmlns:sodipodi="http://sodipodi.sourceforge.net/DTD/sodipodi-0.dtd" xmlns:inkscape="http://www.inkscape.org/namespaces/inkscape" xmlns:cc="http://creativecommons.org/ns#" xmlns:svg="http://www.w3.org/2000/svg" xmlns:rdf="http://www.w3.org/1999/02/22-rdf-syntax-ns#" xmlns:dc="http://purl.org/dc/elements/1.1/"
	 xmlns="http://www.w3.org/2000/svg" xmlns:xlink="http://www.w3.org/1999/xlink" x="0px" y="0px" width="512px" height="512px"
	 viewBox="0 0 512 512" style="enable-background:new 0 0 512 512;" xml:space="preserve">
<path d="M487.3,146.6c-7.8-34.6-87.2-53.7-128.2-33.2c-14.7,7.4-30.6,22.9-43.1,38.9H196c-12.5-16.1-28.3-31.6-43.1-38.9
	c-41-20.5-120.4-1.3-128.2,33.2C12.1,202-25.5,397.7,30.6,406.2c52.3,7.9,105.2-38.9,141.7-92.8h167.4
	c36.4,53.8,89.4,100.6,141.7,92.8C537.5,397.7,499.9,202,487.3,146.6z M102.3,244.9c-20.3,0-36.7-16.4-36.7-36.7
	c0-20.3,16.4-36.7,36.7-36.7c20.3,0,36.7,16.4,36.7,36.7C139,228.5,122.5,244.9,102.3,244.9z M409.7,244.9
	c-20.3,0-36.7-16.4-36.7-36.7c0-20.3,16.4-36.7,36.7-36.7c20.3,0,36.7,16.4,36.7,36.7C446.4,228.5,430,244.9,409.7,244.9z"/>
</svg>
