<?xml version="1.0" encoding="utf-8"?>
<!-- Generator: Adobe Illustrator 16.0.0, SVG Export Plug-In . SVG Version: 6.00 Build 0)  -->
<!DOCTYPE svg PUBLIC "-//W3C//DTD SVG 1.1//EN" "http://www.w3.org/Graphics/SVG/1.1/DTD/svg11.dtd">
<svg version="1.1"
	 id="svg2" inkscape:export-xdpi="230.97745" sodipodi:docname="Facebook Home (Clear).svg" inkscape:version="0.48.3.1 r9886" inkscape:export-ydpi="230.97745" inkscape:export-filename="R:\Media\Pictures\Logos\Facebook Home (Clear).png" xmlns:sodipodi="http://sodipodi.sourceforge.net/DTD/sodipodi-0.dtd" xmlns:rdf="http://www.w3.org/1999/02/22-rdf-syntax-ns#" xmlns:dc="http://purl.org/dc/elements/1.1/" xmlns:svg="http://www.w3.org/2000/svg" xmlns:cc="http://creativecommons.org/ns#" xmlns:inkscape="http://www.inkscape.org/namespaces/inkscape"
	 xmlns="http://www.w3.org/2000/svg" xmlns:xlink="http://www.w3.org/1999/xlink" x="0px" y="0px" width="512px" height="512px"
	 viewBox="0 0 512 512" style="enable-background:new 0 0 512 512;" xml:space="preserve">
<g>
	<path d="M416,48H113.1c-26.4,0-47.8,21.4-47.8,47.8v53.8H24.2c-13.2,0-23.9,10.7-23.9,23.9v196.7c0,13.2,10.7,23.9,23.9,23.9h41.1
		v69.9c0,26.4,21.4,47.8,47.8,47.8H416c26.4,0,47.8-21.4,47.8-47.8V95.8C463.8,69.4,442.4,48,416,48z M305.8,370.3c0,4.4-3.6,8-8,8
		H65.3H24.2c-4.4,0-8-3.6-8-8V173.6c0-4.4,3.6-8,8-8h41.1h232.6c4.4,0,8,3.6,8,8V370.3z"/>
	<path d="M511.7,463.1c0,0-0.2-379-0.2-379.2c-1.7-36.3-26.3-67.1-59.5-78.7c-2.5-0.9-5.1-1.7-7.8-2.3c-1.8-0.5-3.6-1-5.6-1.2
		c-4.8-0.9-9.6-1.5-14.7-1.5H116.6l-0.2,14.3H424c4.2,0,8.1,0.5,12.1,1.2c1.7,0.3,3.3,0.6,5,1c1.7,0.3,3.2,1,4.8,1.7
		c4.3,1.4,8.5,3,12.4,5.2c22.3,12.1,37.5,35.4,37.5,62.8l0,377L511.7,463.1z"/>
	<polygon points="188.8,297.3 188.5,297.3 169.1,218.8 145.6,218.8 125.8,296.3 125.5,296.3 107.5,218.8 82.5,218.8 112.6,332.6 
		138,332.6 157,255.2 157.3,255.2 176.6,332.6 201.4,332.6 232,218.8 207.5,218.8 	"/>
</g>
</svg>
