<?xml version="1.0" encoding="utf-8"?>
<!-- Generator: Adobe Illustrator 16.0.0, SVG Export Plug-In . SVG Version: 6.00 Build 0)  -->
<!DOCTYPE svg PUBLIC "-//W3C//DTD SVG 1.1//EN" "http://www.w3.org/Graphics/SVG/1.1/DTD/svg11.dtd">
<svg version="1.1"
	 id="svg2" inkscape:export-xdpi="230.97745" sodipodi:docname="Facebook Home (Clear).svg" inkscape:version="0.48.3.1 r9886" inkscape:export-ydpi="230.97745" inkscape:export-filename="R:\Media\Pictures\Logos\Facebook Home (Clear).png" xmlns:sodipodi="http://sodipodi.sourceforge.net/DTD/sodipodi-0.dtd" xmlns:rdf="http://www.w3.org/1999/02/22-rdf-syntax-ns#" xmlns:dc="http://purl.org/dc/elements/1.1/" xmlns:svg="http://www.w3.org/2000/svg" xmlns:cc="http://creativecommons.org/ns#" xmlns:inkscape="http://www.inkscape.org/namespaces/inkscape"
	 xmlns="http://www.w3.org/2000/svg" xmlns:xlink="http://www.w3.org/1999/xlink" x="0px" y="0px" width="512px" height="512px"
	 viewBox="0 0 512 512" style="enable-background:new 0 0 512 512;" xml:space="preserve">
<path d="M500.2,55.8l-44.2-44C448.6,4,438,0.1,427.8,0.1c-10.2,0-20.4,3.9-28.2,11.7L256.1,155.3L112.5,11.8
	c-7.8-7.8-18-11.7-28.2-11.7c-10.2,0-20.8,3.9-28.2,11.7l-44.3,44c-15.7,15.8-15.7,40.9,0,56.4L155.4,256L42.7,368.8l-30.7,30.7
	c-2.7,2.7-4.8,5.9-6.4,9.2c-1.1,2.3-2.2,4.1-2.9,7.1c-4.1,13.7-1.6,29.1,9.2,39.9c0.1,0.1,0.1,0.2,0.2,0.3l44.2,44.3
	c7.5,7.5,17.9,11.7,28.1,11.7c10.2,0,20.4-4.2,28.3-11.7l44-44.6l40-39.9l7.5-7.1l39.9-39.9l12.2-12.5l12.1,12.5l39.9,39.9l7.1,7.1
	l39.9,39.9l44.4,44.6c7.9,7.5,18.1,11.7,28.3,11.7c10.3,0,20.6-4.2,28.1-11.7l44.2-44.3c0.1-0.1,0.1-0.2,0.2-0.3
	c10.8-10.8,13.6-26.3,9.1-39.9c-0.8-2.5-1.9-4.8-2.9-7.1c-1.6-3.3-3.7-6.4-6.3-9.2l-30.8-30.7L356.8,256l143.7-143.8
	C515.8,96.6,515.8,71.4,500.2,55.8z"/>
</svg>
