<?xml version="1.0" encoding="utf-8"?>
<!-- Generator: Adobe Illustrator 16.0.0, SVG Export Plug-In . SVG Version: 6.00 Build 0)  -->
<!DOCTYPE svg PUBLIC "-//W3C//DTD SVG 1.1//EN" "http://www.w3.org/Graphics/SVG/1.1/DTD/svg11.dtd">
<svg version="1.1"
	 id="svg2" inkscape:export-xdpi="230.97745" sodipodi:docname="Facebook Home (Clear).svg" inkscape:version="0.48.3.1 r9886" inkscape:export-ydpi="230.97745" inkscape:export-filename="R:\Media\Pictures\Logos\Facebook Home (Clear).png" xmlns:sodipodi="http://sodipodi.sourceforge.net/DTD/sodipodi-0.dtd" xmlns:rdf="http://www.w3.org/1999/02/22-rdf-syntax-ns#" xmlns:dc="http://purl.org/dc/elements/1.1/" xmlns:svg="http://www.w3.org/2000/svg" xmlns:cc="http://creativecommons.org/ns#" xmlns:inkscape="http://www.inkscape.org/namespaces/inkscape"
	 xmlns="http://www.w3.org/2000/svg" xmlns:xlink="http://www.w3.org/1999/xlink" x="0px" y="0px" width="512px" height="512px"
	 viewBox="0 0 512 512" style="enable-background:new 0 0 512 512;" xml:space="preserve">
<path d="M256,0.3C114.8,0.3,0.3,114.8,0.3,256c0,141.2,114.5,255.7,255.7,255.7c141.3,0,255.7-114.5,255.7-255.7
	C511.7,114.8,397.3,0.3,256,0.3z M364.4,313.3l15.6,15.6c1.3,1.4,2.4,3,3.2,4.6c0.5,1.1,1.1,2.3,1.5,3.6c2.3,6.9,0.9,14.8-4.6,20.3
	c-0.1,0-0.1,0.1-0.1,0.1L357.5,380c-3.8,3.8-9,5.9-14.3,5.9c-5.2,0-10.4-2.1-14.4-5.9l-22.6-22.6L286,337.1l-3.6-3.6l-20.3-20.3
	L256,307l-6.2,6.3l-20.3,20.3l-3.8,3.6l-20.3,20.3L183.1,380c-4,3.8-9.2,5.9-14.4,5.9c-5.2,0-10.5-2.1-14.3-5.9l-22.5-22.5
	c0,0,0-0.1-0.1-0.1c-5.4-5.5-6.7-13.3-4.6-20.3c0.4-1.5,0.9-2.4,1.5-3.6c0.8-1.7,1.9-3.3,3.2-4.6l15.6-15.6l57.2-57.3L132,183
	c-8-7.9-8-20.6,0-28.6l22.5-22.4c3.8-3.9,9.1-5.9,14.3-5.9c5.2,0,10.4,2,14.3,5.9l72.9,72.9l72.9-72.9c4-3.9,9.1-5.9,14.3-5.9
	s10.5,2,14.3,5.9l22.4,22.4c7.9,7.9,7.9,20.7,0.1,28.7l-73,73L364.4,313.3z"/>
</svg>
