<?xml version="1.0" encoding="utf-8"?>
<!-- Generator: Adobe Illustrator 17.1.0, SVG Export Plug-In . SVG Version: 6.00 Build 0)  -->
<!DOCTYPE svg PUBLIC "-//W3C//DTD SVG 1.1//EN" "http://www.w3.org/Graphics/SVG/1.1/DTD/svg11.dtd">
<svg version="1.1" id="Layer_1" xmlns="http://www.w3.org/2000/svg" xmlns:xlink="http://www.w3.org/1999/xlink" x="0px" y="0px"
	 width="512px" height="512px" viewBox="-188.7 -190.2 512 512" style="enable-background:new -188.7 -190.2 512 512;"
	 xml:space="preserve">
<g>
	<path d="M85.5,102.2l-24-18.6c-7.3-6.1-17.3-14.1-17.3-28.7c0-14.7,10-24.1,18.7-32.7c28-22,55.9-45.4,55.9-94.8
		c0-50.8-31.9-77.5-47.3-90.2h41.3l43.3-27.2H24.8c-36,0-87.9,8.5-125.9,39.9c-28.6,24.7-42.6,58.8-42.6,89.5
		c0,52.1,40,104.9,110.6,104.9c6.7,0,14-0.7,21.3-1.3c-3.3,8-6.6,14.7-6.6,26c0,20.7,10.6,33.4,20,45.4c-30,2.1-86,5.4-127.3,30.8
		c-39.3,23.4-51.3,57.4-51.3,81.4c0,49.4,46.6,95.5,143.2,95.5c114.6,0,175.3-63.4,175.3-126.2C141.5,149.6,114.8,126.9,85.5,102.2z
		 M-1.8,25.4c-57.3,0-83.3-74.1-83.3-118.8c0-17.4,3.3-35.4,14.6-49.4c10.7-13.4,29.3-22,46.7-22c55.3,0,83.9,74.8,83.9,122.9
		c0,12-1.3,33.4-16.6,48.8C32.8,17.4,14.9,25.4-1.8,25.4z M-1.1,293.9c-71.3,0-117.3-34.1-117.3-81.5c0-47.4,42.6-63.4,57.3-68.7
		c28-9.4,64-10.7,70-10.7c6.7,0,10,0,15.3,0.7c50.7,36.1,72.7,54,72.7,88.2C96.8,263.1,62.9,293.9-1.1,293.9z"/>
	<polygon points="253.8,24.4 253.8,-42.4 220.8,-42.4 220.8,24.4 154.1,24.4 154.1,57.7 220.8,57.7 220.8,124.9 253.8,124.9 
		253.8,57.7 320.7,57.7 320.7,24.4 	"/>
</g>
</svg>
